<svg width="560" height="650" viewBox="0 0 560 650" fill="none" xmlns="http://www.w3.org/2000/svg">
<rect x="32.0002" width="240" height="550" rx="120" fill="#1F4FD8" fill-opacity="0.1"/>
<path d="M207.956 224.514C214.233 217.812 196.856 192.636 187.556 181.604C179.431 171.966 171.08 162.06 160.825 163.314C151.821 164.415 143.06 173.91 142.535 183.01C141.123 207.492 199.032 234.041 207.956 224.514Z" fill="url(#paint0_linear_321_2)"/>
<path d="M132.592 483.228C131.411 484.188 131.193 486.587 131.052 488.155C130.988 488.855 130.956 489.205 131.035 489.452C131.605 491.257 135.105 491.447 140.592 492.007C149.264 492.893 151.844 493.576 152.523 492.285C153.159 491.076 151.62 489.096 151.447 488.877C150.515 487.704 149.371 487.277 147.16 486.549C143.069 485.203 140.305 484.465 139.468 484.242C134.241 482.847 133.368 482.597 132.592 483.228Z" fill="url(#paint1_linear_321_2)"/>
<path d="M137.749 475.306L138.617 485.187C138.37 485.664 135.433 487.096 133.1 485.869L130.87 476.155L137.749 475.306Z" fill="url(#paint2_linear_321_2)"/>
<path d="M201.364 481.958C199.948 483.522 199.625 486.402 200.856 487.82C202.067 489.215 203.887 488.169 209.049 488.323C214.578 488.488 216.022 489.794 219.779 488.757C221.297 488.338 223.978 487.32 223.927 486.236C223.891 485.474 222.527 485.08 217.968 483.553C211.497 481.385 211.525 481.267 210.151 481.039C206.7 480.467 203.234 479.893 201.364 481.958Z" fill="url(#paint3_linear_321_2)"/>
<path d="M204.906 472.94L207.68 482.165C207.47 482.66 204.651 484.31 202.231 483.264L198.113 474.311L204.906 472.94Z" fill="url(#paint4_linear_321_2)"/>
<path d="M180.265 270.899C180.663 301.902 182.778 336.761 187.855 374.633C192.871 412.064 199.902 445.885 207.572 475.625C204.033 476.577 200.495 477.529 196.957 478.481C187.98 470.111 176.656 456.934 171.192 438.314C167.8 426.757 168.931 420.818 166.779 406.603C163.354 383.97 156.416 372.112 149.245 353.861C142.802 337.46 135.185 313.39 131.101 281.217C147.489 277.778 163.878 274.338 180.265 270.899Z" fill="#0B1F3B"/>
<path d="M148.326 267.94C146.16 307.371 144.379 347.535 143.03 388.411C142.017 419.084 141.273 449.368 140.779 479.254C137.164 479.7 133.55 480.146 129.935 480.592C126.443 474.09 121.804 464.149 118.627 451.407C114.767 435.933 115.661 426.742 113.968 410.704C112.069 392.715 109.311 388.796 104.424 366.104C94.5063 320.051 89.5474 297.023 100.611 282.7C104.202 278.049 115.461 266.384 148.326 267.94Z" fill="#0B1F3B"/>
<path d="M95.6503 168.841C104.115 166.461 116.52 163.677 131.712 162.818C153.381 161.594 164.215 160.981 171.893 166.141C189.625 178.059 175.897 205.566 183.155 273.752C184.192 283.49 184.424 293.297 185.175 303.06C186.418 319.226 186.701 320.104 185.576 321.742C178.522 332.014 152.206 316.52 113.634 322.645C92.0517 326.072 82.2635 333.967 76.3508 328.272C69.4554 321.632 75.3702 303.77 80.4616 288.393C86.3059 270.744 89.9161 270.517 93.2335 257.224C96.701 243.331 94.6036 236.177 94.0636 214.268C93.8055 203.785 93.8603 188.184 95.6503 168.841Z" fill="url(#paint5_linear_321_2)"/>
<path d="M148.103 296.852C138.021 296.063 131.481 301.763 122.778 297.321C110.845 291.23 107.011 272.279 107.771 258.866C108.927 238.487 120.564 233.115 118.558 219.942C117.473 212.818 112.387 203.36 94.1252 193.697C93.8816 201.829 93.9279 208.761 94.0636 214.269C94.6036 236.178 96.701 243.331 93.2335 257.224C89.9161 270.517 86.3059 270.744 80.4616 288.394C75.3702 303.77 69.4554 321.632 76.3508 328.273C82.2635 333.967 92.0517 326.072 113.634 322.645C146.869 317.368 170.993 328.128 181.548 324.638C168.793 303.562 157.225 297.566 148.103 296.852Z" fill="url(#paint6_linear_321_2)"/>
<path d="M109.402 170.24C102.201 164.324 87.7237 171.02 83.8537 172.811C62.272 182.793 42.895 209.694 47.6962 238.122C48.416 242.386 51.755 262.328 68.6415 271.991C83.8783 280.71 104.452 278.468 120.937 266.119C123.189 264.12 125.443 262.121 127.696 260.122C129.912 257.727 132.128 255.331 134.345 252.935C130.861 250.037 124.941 245.857 116.628 243.174C105.667 239.637 97.6873 245.983 92.6017 241.158C89.0919 237.828 89.0842 231.947 89.9506 228.383C91.6976 221.199 98.0302 219.178 103.316 214.079C115.735 202.1 118.022 177.324 109.402 170.24Z" fill="url(#paint7_linear_321_2)"/>
<path d="M211.579 262.818L124.399 261.517L147.582 272.705L211.802 268.502L211.579 262.818Z" fill="#444B8C"/>
<path d="M121.322 263.834V263.834C121.322 265.465 122.343 266.923 123.876 267.481L151.733 278.401L151.86 270.83L124.399 261.517C122.858 261.074 121.322 262.23 121.322 263.834Z" fill="#0B1F3B"/>
<path d="M127.82 258.46C127.228 258.328 130.706 251.398 133.436 252.198C136.166 252.998 149.519 260.736 150.733 263.923C151.947 267.11 151.947 267.11 151.947 267.11C151.947 267.11 146.122 267.565 142.51 266.351C138.897 265.137 132.637 259.534 127.82 258.46Z" fill="url(#paint8_linear_321_2)"/>
<path d="M154.173 217.708L148.027 273.66C147.815 275.59 150.518 278.467 152.458 278.375L242.607 272.841C244.089 272.77 245.322 271.68 245.573 270.219L256.888 216.179C257.226 214.212 253.69 212.181 251.696 212.237L157.225 214.893C155.647 214.938 154.345 216.138 154.173 217.708Z" fill="#0B1F3B"/>
<path d="M156.233 219.339L150.088 275.291C149.876 277.222 151.439 278.885 153.379 278.794L244.668 274.472C246.15 274.402 247.383 273.311 247.634 271.85L256.961 217.563C257.298 215.596 255.751 213.812 253.757 213.868L159.286 216.524C157.708 216.569 156.405 217.77 156.233 219.339Z" fill="#0B1F3B"/>
<path opacity="0.3" d="M209.838 261.361C201.867 257.983 204.68 251.54 195.267 243.512C182.85 232.922 170.193 237.515 165.762 229.306C164.382 226.749 163.723 222.771 166.127 216.332L159.285 216.524C157.708 216.568 156.405 217.77 156.233 219.339L150.087 275.291C149.876 277.222 151.439 278.885 153.378 278.794L244.668 274.472C246.149 274.402 247.382 273.312 247.633 271.85L248.921 264.359C246.151 262.817 242.841 261.416 238.979 260.632C225.586 257.916 219.015 265.251 209.838 261.361Z" fill="#0B1F3B"/>
<path d="M251.362 266.144C251.527 265.645 251.178 265.131 250.654 265.104C248.518 264.995 243.564 264.951 240.83 266.626C237.277 268.802 232.683 272.773 236.552 274.776L240.164 276.647C240.33 276.733 240.511 276.76 240.693 276.72C241.976 276.438 247.378 275.239 247.969 274.942C248.507 274.671 250.567 268.559 251.362 266.144Z" fill="url(#paint9_linear_321_2)"/>
<path d="M133.33 139.145C133.384 145.568 132.667 150.663 131.989 154.152C131.212 158.149 130.653 159.182 129.938 160.02C128.863 161.282 127.234 162.34 118.029 164.622C113.02 165.864 112.375 165.83 112.264 166.327C111.725 168.752 125.384 177.017 139.496 175.025C148.133 173.806 155.991 168.879 155.509 166.291C155.023 163.687 146.396 165.084 143.825 160.373C142.036 157.096 144.041 152.443 146.411 148.59C144.116 144.289 135.625 143.445 133.33 139.145Z" fill="url(#paint10_linear_321_2)"/>
<path d="M149.36 141.684C151.398 138.977 151.524 134.25 149.175 131.262C147.154 128.69 143.974 128.324 142.07 128.104C136.552 127.467 129.59 129.77 127.169 134.848C125.734 137.858 128.838 144.111 129.323 145.235C129.874 146.506 130.872 146.942 131.795 147.903C133.074 149.236 135.077 151.356 138.346 154.9C138.6 153.854 138.987 152.559 139.6 151.156C139.836 150.616 140.785 148.506 142.22 146.757C145.096 143.25 147.428 144.25 149.36 141.684Z" fill="#0B1F3B"/>
<path d="M133.683 151.919C133.683 151.919 137.311 157.87 144.533 157.4C150.999 156.979 151.946 142.479 147.816 139.402C146.438 138.375 143.678 137.949 141.435 138.577C140.109 138.949 139.66 139.5 137.483 140.064C135.475 140.585 134.908 140.363 134.302 140.872C133.543 141.511 132.988 143.075 134.254 147.314C133.021 146.065 131.54 145.586 130.49 146.081C130.323 146.161 129.879 146.462 129.629 146.92C128.725 148.577 130.238 150.692 133.683 151.919Z" fill="url(#paint11_linear_321_2)"/>
<path d="M134.009 140.006C134.321 140.238 133.367 141.402 133.297 143.048C133.158 146.244 136.394 150.081 139.694 150.406C141.645 150.599 142.182 149.423 145.408 149.082C147.405 148.871 149.067 149.125 150.113 149.353C151.127 152.859 150.173 156.354 147.83 157.976C145.307 159.721 142.085 158.662 140.738 158.219C139.836 157.923 136.948 156.98 135.439 154.331C133.866 151.571 135.41 149.908 133.605 148.041C132.695 147.099 131.5 146.691 130.336 144.869C130.02 144.373 129.809 143.936 129.68 143.641C131.348 141.873 133.557 139.669 134.009 140.006Z" fill="#0B1F3B"/>
<path d="M147.765 150.653C147.765 150.653 146.369 151.383 143.956 151.247C143.838 151.24 143.709 151.275 143.694 151.336C143.639 151.564 145.187 152.591 146.613 152.19C147.626 151.905 148.414 150.946 148.278 150.702C148.22 150.599 147.991 150.613 147.765 150.653Z" fill="url(#paint12_linear_321_2)"/>
<rect x="288" y="100" width="240" height="550" rx="120" fill="#8B1E2D" fill-opacity="0.1"/>
<path d="M414.114 340.562L415.786 369.751H357.458C357.458 369.751 365.299 352.734 380.82 360.486L390.843 345.718L392.162 338.609L414.114 340.562Z" fill="url(#paint13_linear_321_2)"/>
<path d="M458.176 280.784C458.176 280.784 488.608 293.608 493.232 296.909C495.777 298.727 508.548 304.154 499.77 348.305C499.77 348.305 483.38 346.829 473.627 343.865L481.549 385.446H390.467L411.888 340.364L392.161 338.608C392.161 338.608 399.4 294.127 406.947 290.062C414.494 285.996 438.991 281.631 438.991 281.631L458.176 280.784Z" fill="white"/>
<path d="M452.426 274.884C452.426 274.884 458.76 275.58 460.428 282.101C462.096 288.623 456.88 302.36 454.445 302.186C452.01 302.013 442.103 292.905 442.103 292.905C442.103 292.905 431.759 301.742 429.364 300.703C426.969 299.665 430.969 282.101 433.751 278.537C436.534 274.971 445.539 273.406 452.426 274.884Z" fill="#0F0F0F"/>
<path d="M434.422 279.423C434.422 279.423 435.031 285.864 435.259 287.076C435.719 289.516 438.2 292.453 445.179 291.259C454.335 289.693 455.943 282.272 455.256 278.778C454.57 275.285 451.951 262.881 451.951 262.881L434.422 279.423Z" fill="#B8ACFF"/>
<path d="M434.422 279.423C434.422 279.423 435.031 285.864 435.259 287.076C435.719 289.516 438.2 292.453 445.179 291.259C454.335 289.693 455.943 282.272 455.256 278.778C454.57 275.285 451.951 262.881 451.951 262.881L434.422 279.423Z" fill="url(#paint14_linear_321_2)"/>
<path d="M434.869 283.887C446.503 281.305 448.391 268.685 448.391 268.685L445.692 268.787L434.421 279.423C434.421 279.423 434.643 281.763 434.869 283.887Z" fill="#0F0F0F"/>
<path d="M426.922 241.266C427.581 240.911 428.274 240.614 428.986 240.355L428.977 240.35C430.759 239.806 432.696 237.704 435.388 235.712C438.08 233.72 446.769 230.531 456.08 235.255C462.993 238.762 469.997 247.353 472.586 253.466C475.176 259.579 472.586 261.37 468.584 259.92C464.817 258.557 462.223 260.414 462.223 260.414L462.218 260.41C462.292 260.966 462.347 261.521 462.367 262.071C460.595 262.928 458.567 264.232 456.795 265.089C455.763 262.829 454.408 260.723 452.797 258.833C452.259 260.767 451.174 263.466 449.407 262.881C447.419 262.222 445.022 255.464 443.894 251.947C443.618 251.814 443.343 251.681 443.062 251.558C437.045 248.918 430.38 248.514 424.134 250.553C424.135 250.554 425.351 242.111 426.922 241.266Z" fill="url(#paint15_linear_321_2)"/>
<path d="M431.925 249.266C428.157 249.67 424.229 250.246 424.229 250.246C423.333 253.104 422.848 256.717 422.778 261.045C422.553 275.001 424.733 278.558 431.634 279.948C438.536 281.338 447.247 275.433 450.894 269.024C450.894 269.024 454.434 267.506 456.419 264.541C457.321 263.194 452.846 258.051 452.362 258.615C451.829 259.236 451.393 259.927 450.884 260.597C449.184 262.835 447.826 261.317 446.462 257.102C445.918 255.422 445.286 253.74 444.555 252.143C444.555 252.143 437.789 248.637 431.925 249.266Z" fill="#B8ACFF"/>
<path d="M431.925 249.266C428.157 249.67 424.229 250.246 424.229 250.246C423.333 253.104 422.848 256.717 422.778 261.045C422.553 275.001 424.733 278.558 431.634 279.948C438.536 281.338 447.247 275.433 450.894 269.024C450.894 269.024 454.434 267.506 456.419 264.541C457.321 263.194 452.846 258.051 452.362 258.615C451.829 259.236 451.393 259.927 450.884 260.597C449.184 262.835 447.826 261.317 446.462 257.102C445.918 255.422 445.286 253.74 444.555 252.143C444.555 252.143 437.789 248.637 431.925 249.266Z" fill="url(#paint16_linear_321_2)"/>
<path d="M431.32 270.378C431.307 270.378 431.294 270.378 431.281 270.378C430.338 270.333 429.111 269.902 428.756 268.837C428.62 268.428 428.629 268.024 428.648 267.678C428.71 266.61 428.863 265.552 429.01 264.53C429.15 263.56 429.294 262.556 429.354 261.573L429.378 261.195C429.452 260.054 429.523 258.978 429.109 258.033C428.27 256.117 425.952 255.739 424.093 255.774C424.09 255.774 424.086 255.774 424.081 255.774C423.648 255.774 423.295 255.427 423.288 254.993C423.281 254.556 423.631 254.195 424.069 254.189C427.351 254.138 429.621 255.248 430.562 257.397C431.132 258.697 431.044 260.02 430.961 261.299L430.937 261.67C430.873 262.719 430.724 263.755 430.579 264.758C430.437 265.747 430.289 266.77 430.232 267.769C430.219 267.977 430.212 268.192 430.261 268.336C430.333 268.552 430.856 268.771 431.357 268.795C431.794 268.816 432.132 269.187 432.111 269.625C432.091 270.048 431.741 270.378 431.32 270.378Z" fill="#0F0F0F"/>
<path d="M442.132 258.331C442.012 258.331 441.89 258.304 441.775 258.246C439.318 257.007 436.348 256.929 433.831 258.039C433.43 258.215 432.962 258.034 432.786 257.633C432.609 257.231 432.791 256.763 433.192 256.587C436.138 255.289 439.614 255.379 442.489 256.829C442.881 257.027 443.038 257.504 442.84 257.895C442.701 258.171 442.422 258.331 442.132 258.331Z" fill="#0F0F0F"/>
<path d="M433.748 262.422C433.488 262.422 433.234 262.295 433.082 262.06C432.844 261.693 432.949 261.202 433.317 260.964C435.509 259.544 438.497 259.477 440.75 260.799C441.128 261.02 441.255 261.506 441.033 261.884C440.812 262.262 440.325 262.389 439.948 262.167C438.198 261.142 435.88 261.193 434.178 262.295C434.045 262.382 433.896 262.422 433.748 262.422Z" fill="#0F0F0F"/>
<path d="M428.171 261.833C428.038 261.833 427.903 261.8 427.779 261.73C426.692 261.111 425.304 261.036 424.158 261.531C423.754 261.705 423.288 261.519 423.115 261.117C422.942 260.715 423.127 260.248 423.529 260.074C425.124 259.386 427.054 259.492 428.564 260.351C428.945 260.568 429.077 261.052 428.861 261.433C428.715 261.69 428.447 261.833 428.171 261.833Z" fill="#0F0F0F"/>
<path d="M452.676 265.631C452.293 265.631 451.956 265.353 451.894 264.962C451.659 263.494 451.888 261.39 453.235 259.884C453.527 259.557 454.03 259.53 454.355 259.822C454.681 260.114 454.709 260.615 454.417 260.942C453.44 262.034 453.292 263.655 453.461 264.712C453.53 265.144 453.236 265.551 452.803 265.621C452.76 265.628 452.717 265.631 452.676 265.631Z" fill="#0F0F0F"/>
<path d="M431.897 273.633C430.91 273.633 429.923 273.418 429.022 272.985C428.627 272.796 428.461 272.322 428.651 271.927C428.841 271.533 429.312 271.365 429.709 271.556C431.204 272.274 433.088 272.188 434.512 271.334C434.886 271.108 435.374 271.231 435.6 271.607C435.825 271.983 435.703 272.47 435.327 272.695C434.288 273.318 433.093 273.633 431.897 273.633Z" fill="#0F0F0F"/>
<path d="M456.796 265.882C456.704 265.882 456.613 265.867 456.527 265.835C456.326 265.763 456.162 265.613 456.074 265.418C453.431 259.628 448.573 254.841 442.744 252.285C436.87 249.707 430.349 249.359 424.382 251.308C424.121 251.392 423.835 251.338 423.625 251.16C423.415 250.984 423.311 250.711 423.35 250.44C423.733 247.783 424.81 241.5 426.546 240.567C432.367 237.436 441.02 237.749 449.126 241.382C456.695 244.774 462.859 253.849 463.16 262.041C463.172 262.355 462.996 262.647 462.712 262.784C461.849 263.201 460.895 263.744 459.971 264.269C459.027 264.807 458.049 265.362 457.14 265.802C457.032 265.855 456.914 265.882 456.796 265.882ZM432.234 248.476C436.016 248.476 439.812 249.266 443.382 250.832C449.31 253.433 454.293 258.21 457.163 264.015C457.822 263.668 458.514 263.275 459.188 262.891C459.972 262.446 460.778 261.987 461.549 261.593C461.038 254.203 455.269 245.874 448.478 242.831C440.812 239.393 432.695 239.063 427.298 241.965C426.694 242.348 425.746 245.637 425.113 249.433C427.44 248.794 429.834 248.476 432.234 248.476Z" fill="#0F0F0F"/>
<path d="M462.227 261.204C461.978 261.204 461.733 261.089 461.578 260.87C461.327 260.514 461.408 260.023 461.762 259.768C461.883 259.682 464.742 257.685 468.855 259.174C470.49 259.766 471.77 259.745 472.366 259.116C473.137 258.304 472.951 256.357 471.856 253.775C469.359 247.877 462.48 239.39 455.722 235.962C446.359 231.211 438.036 234.739 435.861 236.348C434.961 237.014 434.158 237.684 433.383 238.33C431.856 239.603 430.537 240.702 429.21 241.107C428.79 241.236 428.348 241 428.219 240.581C428.091 240.162 428.327 239.718 428.746 239.59C429.767 239.278 430.972 238.274 432.367 237.111C433.123 236.48 433.981 235.766 434.917 235.072C437.298 233.311 446.36 229.432 456.442 234.546C463.612 238.184 470.654 246.864 473.319 253.155C475.076 257.303 474.397 259.279 473.518 260.206C472.452 261.331 470.605 261.494 468.315 260.664C465.018 259.47 462.777 260.995 462.683 261.059C462.543 261.157 462.384 261.204 462.227 261.204Z" fill="#0F0F0F"/>
<path d="M431.27 246.824C431.195 246.824 431.119 246.813 431.043 246.79C430.623 246.665 430.385 246.223 430.51 245.803L431.637 242.036C431.762 241.617 432.202 241.378 432.624 241.504C433.044 241.629 433.281 242.072 433.157 242.491L432.03 246.258C431.927 246.602 431.612 246.824 431.27 246.824Z" fill="#0F0F0F"/>
<path d="M435.549 244.643C435.441 244.643 435.329 244.62 435.223 244.572C434.824 244.392 434.647 243.922 434.827 243.523L435.541 241.943C435.722 241.544 436.19 241.366 436.591 241.547C436.99 241.727 437.167 242.197 436.987 242.597L436.273 244.176C436.14 244.469 435.852 244.643 435.549 244.643Z" fill="#0F0F0F"/>
<path d="M441.564 247.226C441.403 247.226 441.24 247.177 441.099 247.075C440.744 246.817 440.665 246.321 440.923 245.967L442.753 243.445C443.01 243.09 443.504 243.011 443.86 243.269C444.215 243.526 444.293 244.022 444.036 244.376L442.206 246.898C442.052 247.112 441.81 247.226 441.564 247.226Z" fill="#0F0F0F"/>
<path d="M447.802 249.837C447.669 249.837 447.534 249.804 447.411 249.734C447.03 249.517 446.897 249.033 447.112 248.652C447.678 247.655 448.453 246.753 449.353 246.043C449.697 245.771 450.196 245.831 450.467 246.175C450.739 246.518 450.68 247.017 450.335 247.288C449.594 247.872 448.957 248.615 448.491 249.435C448.346 249.692 448.078 249.837 447.802 249.837Z" fill="#0F0F0F"/>
<path d="M452.694 253.376C452.417 253.376 452.149 253.232 452.003 252.974C451.787 252.593 451.921 252.109 452.302 251.893C453.017 251.488 453.611 250.896 454.018 250.183C454.235 249.801 454.718 249.669 455.1 249.887C455.48 250.104 455.612 250.588 455.395 250.968C454.847 251.93 454.048 252.727 453.084 253.273C452.96 253.342 452.826 253.376 452.694 253.376Z" fill="#0F0F0F"/>
<path d="M412.914 334.021C412.584 334.021 412.278 333.814 412.164 333.485C408.052 321.516 406.003 309.029 406.077 296.372C406.079 295.935 406.434 295.584 406.87 295.584C406.872 295.584 406.873 295.584 406.875 295.584C407.313 295.586 407.666 295.944 407.663 296.382C407.591 308.86 409.61 321.17 413.665 332.969C413.807 333.384 413.587 333.835 413.173 333.977C413.087 334.007 413 334.021 412.914 334.021Z" fill="url(#paint17_linear_321_2)"/>
<path d="M473.628 342.364C473.6 342.364 473.571 342.363 473.542 342.359C473.107 342.312 472.792 341.92 472.839 341.485C474.767 323.791 477.555 311.204 481.127 304.076C484.241 297.86 487.486 296.634 489.965 296.26C490.407 296.193 490.802 296.493 490.868 296.926C490.933 297.359 490.635 297.763 490.202 297.829C487.14 298.29 479.008 299.517 474.417 341.657C474.372 342.064 474.028 342.364 473.628 342.364Z" fill="url(#paint18_linear_321_2)"/>
<path d="M438.992 368.984H379.899V373.986H438.992V368.984Z" fill="#0F0F0F"/>
<path d="M326.491 373.986H392.1L374.527 330.67C373.278 327.591 370.288 325.577 366.965 325.577H312.91C310.015 325.577 308.04 328.509 309.129 331.192L326.491 373.986Z" fill="#0F0F0F"/>
<path d="M473.627 343.867L472.157 353.982L425.464 363.828C425.464 363.828 415.075 361.597 411.871 362.679C410.05 363.295 399.562 370.771 399.562 373.986C399.562 373.986 479.569 373.986 485.239 373.986C490.909 373.986 497.71 360.753 499.77 348.307C499.77 348.307 488.987 347.336 473.627 343.867Z" fill="url(#paint19_linear_321_2)"/>
<path d="M463.126 594H460.748C460.344 594 460.004 593.695 459.96 593.293L443.454 441.29C443.43 441.066 443.502 440.842 443.652 440.675C443.803 440.507 444.017 440.411 444.243 440.411H451.276C451.69 440.411 452.035 440.729 452.067 441.142L463.917 593.145C463.933 593.366 463.858 593.583 463.708 593.745C463.558 593.908 463.346 594 463.126 594ZM461.46 592.414H462.268L450.542 441.997H445.127L461.46 592.414Z" fill="#0F0F0F"/>
<path d="M399.648 578.266H397.271C397.049 578.266 396.837 578.173 396.686 578.01C396.536 577.846 396.462 577.626 396.481 577.405L408.331 441.136C408.367 440.726 408.71 440.412 409.121 440.412H416.155C416.382 440.412 416.598 440.509 416.749 440.679C416.899 440.848 416.969 441.075 416.942 441.3L400.436 577.569C400.388 577.967 400.05 578.266 399.648 578.266ZM398.137 576.68H398.945L415.26 441.997H409.849L398.137 576.68Z" fill="#0F0F0F"/>
<path d="M479.769 594H477.392C476.987 594 476.647 593.695 476.603 593.293L460.097 441.29C460.073 441.066 460.144 440.842 460.295 440.675C460.446 440.507 460.66 440.411 460.886 440.411H467.919C468.333 440.411 468.677 440.729 468.71 441.142L480.56 593.145C480.577 593.366 480.502 593.583 480.351 593.745C480.201 593.908 479.991 594 479.769 594ZM478.104 592.414H478.912L467.185 441.997H461.77L478.104 592.414Z" fill="#0F0F0F"/>
<path d="M414.797 594H412.419C412.199 594 411.987 593.908 411.837 593.746C411.687 593.584 411.612 593.366 411.629 593.146L423.478 441.143C423.51 440.73 423.855 440.412 424.269 440.412H431.302C431.527 440.412 431.742 440.508 431.893 440.675C432.043 440.843 432.115 441.067 432.091 441.29L415.585 593.293C415.542 593.695 415.202 594 414.797 594ZM413.277 592.414H414.086L430.419 441.997H425.004L413.277 592.414Z" fill="#0F0F0F"/>
<path d="M470.806 441.997H406.235C405.797 441.997 405.442 441.642 405.442 441.204V435.836C405.442 435.399 405.797 435.044 406.235 435.044H470.806C471.243 435.044 471.598 435.399 471.598 435.836V441.204C471.598 441.642 471.243 441.997 470.806 441.997ZM407.028 440.411H470.013V436.629H407.028V440.411Z" fill="#0F0F0F"/>
<path d="M473.069 436.629H403.972C401.472 436.629 399.439 434.596 399.439 432.096V418.824C399.439 416.325 401.472 414.292 403.972 414.292H473.069C475.569 414.292 477.602 416.324 477.602 418.824V432.096C477.602 434.596 475.569 436.629 473.069 436.629ZM403.972 415.877C402.347 415.877 401.025 417.2 401.025 418.824V432.096C401.025 433.72 402.347 435.043 403.972 435.043H473.069C474.694 435.043 476.016 433.72 476.016 432.096V418.824C476.016 417.2 474.694 415.877 473.069 415.877H403.972Z" fill="#0F0F0F"/>
<path d="M344.621 527.409L332.95 552.563L299.02 544.372L318.089 503.416L344.621 527.409Z" fill="url(#paint20_linear_321_2)"/>
<path d="M344.621 527.41L318.089 503.416L314.992 510.068L343.733 529.324L344.621 527.41Z" fill="#0F0F0F"/>
<path d="M310.281 482.342L351.382 512.837L344.621 527.409L302.712 496.316L310.281 482.342Z" fill="white"/>
<path d="M297.143 543.915C297.143 543.915 293.793 529.867 300.982 524.845C303.607 523.01 308.606 523.705 311.167 533.171C312.823 539.286 312.624 545.854 312.624 545.854C312.624 545.854 325.12 544.169 332.95 552.564L322.978 574.056C322.978 574.056 300.968 573.526 280.463 569.286C263.432 565.764 253.17 561.73 253.17 561.73C253.17 561.73 253.562 553.473 259.295 550.781C265.029 548.09 297.143 543.915 297.143 543.915Z" fill="#0F0F0F"/>
<path d="M319.295 581.993C319.295 581.993 300.814 582.222 279.624 578.129C263.673 575.048 252.568 570.656 252.568 570.656L253.171 561.729L322.978 574.056L319.295 581.993Z" fill="white"/>
<path d="M322.978 574.056L324.229 571.36C307.351 570.86 277.105 564.124 277.105 564.124C277.105 564.124 278.101 556.401 270.134 548.085C265.186 549.015 261.032 549.965 259.296 550.78C253.563 553.471 253.171 561.728 253.171 561.728C253.171 561.728 263.432 565.763 280.464 569.285C300.968 573.526 322.978 574.056 322.978 574.056Z" fill="white"/>
<path d="M303.46 555.931C303.1 555.931 302.781 555.865 302.513 555.775C298.642 554.476 296.588 545.137 296.367 544.077C296.308 543.796 296.406 543.506 296.622 543.317C296.838 543.127 297.139 543.072 297.409 543.167C298.366 543.508 306.787 546.619 307.599 550.89C307.871 552.322 307.296 553.671 305.889 554.899C304.987 555.687 304.149 555.931 303.46 555.931ZM298.26 545.205C299.198 548.838 301.028 553.604 303.018 554.271C303.382 554.392 303.969 554.467 304.846 553.702C305.811 552.86 306.202 552.037 306.04 551.186C305.583 548.775 301.086 546.4 298.26 545.205Z" fill="white"/>
<path d="M297.144 544.707C297.048 544.707 296.952 544.69 296.86 544.655C295.935 544.3 287.798 541.077 287.176 537.143C287.04 536.283 287.201 534.995 288.747 533.745C290.058 532.684 291.226 532.769 291.971 533.028C295.658 534.302 297.697 542.775 297.917 543.737C297.983 544.023 297.886 544.321 297.664 544.512C297.517 544.641 297.331 544.707 297.144 544.707ZM290.989 534.445C290.669 534.445 290.258 534.563 289.745 534.978C288.588 535.915 288.705 536.654 288.742 536.896C289.053 538.858 292.891 541.18 295.974 542.567C295.039 539.315 293.301 535.166 291.452 534.527C291.326 534.484 291.172 534.445 290.989 534.445Z" fill="white"/>
<path d="M292.873 557.506C292.684 557.506 292.496 557.44 292.345 557.305C292.018 557.013 291.989 556.512 292.281 556.185C292.316 556.145 295.944 551.948 296.351 543.875C296.373 543.437 296.763 543.107 297.183 543.123C297.621 543.144 297.957 543.518 297.936 543.955C297.499 552.624 293.63 557.057 293.465 557.242C293.308 557.417 293.091 557.506 292.873 557.506Z" fill="white"/>
<path d="M415.628 489.793L426.951 515.105L398.506 535.334L380.112 494.069L415.628 489.793Z" fill="url(#paint21_linear_321_2)"/>
<path d="M415.628 489.793L380.112 494.069L383.1 500.772L416.489 491.719L415.628 489.793Z" fill="#0F0F0F"/>
<path d="M390.472 385.434L354.629 399.006C345.395 402.503 340.466 412.571 343.366 422.009L363.32 486.93L409.067 475.128L386.359 425.46L420.072 385.434H390.472Z" fill="#0F0F0F"/>
<path d="M359.086 486.134L409.067 475.128L415.628 489.793L364.666 501.014L359.086 486.134Z" fill="white"/>
<path d="M396.929 536.45C396.929 536.45 384.13 529.761 385.057 521.04C385.395 517.855 389.199 514.54 398.024 518.817C403.725 521.581 408.551 526.04 408.551 526.04C408.551 526.04 415.478 515.505 426.951 515.105L436.625 536.732C436.625 536.732 421.783 552.993 405.129 565.684C391.296 576.225 381.518 581.322 381.518 581.322C381.518 581.322 375.544 575.607 377.275 569.515C379.007 563.423 396.929 536.45 396.929 536.45Z" fill="#0F0F0F"/>
<path d="M440.199 544.72C440.199 544.72 428.246 558.817 411.252 572.121C398.46 582.136 387.858 587.634 387.858 587.634L381.518 581.322L436.625 536.732L440.199 544.72Z" fill="white"/>
<path d="M436.626 536.732L435.413 534.019C423.96 546.427 399.031 564.832 399.031 564.832C399.031 564.832 393.857 559.013 382.355 559.568C379.809 563.912 377.8 567.671 377.277 569.515C375.545 575.607 381.519 581.322 381.519 581.322C381.519 581.322 391.297 576.225 405.13 565.684C421.783 552.994 436.626 536.732 436.626 536.732Z" fill="white"/>
<path d="M407.065 540.714C403.068 540.714 397.315 537.574 396.542 537.142C396.292 537.002 396.136 536.738 396.136 536.451C396.136 536.165 396.29 535.9 396.54 535.759C397.426 535.261 405.298 530.949 409.053 533.138C410.312 533.872 410.953 535.191 410.956 537.058C410.96 538.883 410.114 539.763 409.403 540.181C408.761 540.558 407.957 540.714 407.065 540.714ZM398.636 536.454C401.994 538.131 406.792 539.875 408.599 538.813C408.932 538.617 409.372 538.223 409.371 537.06C409.368 535.779 409.003 534.945 408.255 534.508C406.13 533.269 401.391 535.107 398.636 536.454Z" fill="white"/>
<path d="M387.817 540.137C386.85 540.137 385.973 539.963 385.279 539.529C384.54 539.068 383.675 538.1 383.745 536.113C383.806 534.429 384.636 533.605 385.321 533.21C388.697 531.265 396.433 535.286 397.303 535.751C397.561 535.889 397.723 536.159 397.722 536.451C397.722 536.744 397.561 537.013 397.302 537.151C396.606 537.521 391.556 540.137 387.817 540.137ZM387.65 534.261C387.03 534.261 386.502 534.36 386.111 534.585C385.794 534.768 385.368 535.13 385.331 536.169C385.278 537.658 385.912 538.053 386.121 538.184C387.802 539.236 392.074 537.864 395.145 536.448C392.785 535.35 389.713 534.261 387.65 534.261Z" fill="white"/>
<path d="M403.784 548.864C403.391 548.864 403.049 548.571 402.998 548.171C402.991 548.118 402.204 542.627 396.38 537.022C396.064 536.718 396.054 536.216 396.359 535.9C396.662 535.586 397.163 535.574 397.48 535.879C403.734 541.898 404.541 547.725 404.572 547.97C404.628 548.404 404.321 548.802 403.886 548.857C403.851 548.862 403.817 548.864 403.784 548.864Z" fill="white"/>
<path d="M481.635 385.434C481.635 385.434 486.653 412.311 460.343 415.085L378.424 454.156L351.383 512.836L314.143 485.875L343.855 426.273C346.258 421.452 350.235 417.596 355.128 415.342L420.072 385.433L481.635 385.434Z" fill="#0F0F0F"/>
<path d="M347.44 421.798C347.25 421.798 347.061 421.731 346.909 421.595C346.583 421.301 346.557 420.8 346.85 420.474C349.086 417.989 351.759 416.02 354.795 414.622L412.529 388.035C412.927 387.851 413.398 388.025 413.581 388.424C413.764 388.821 413.59 389.292 413.192 389.476L355.458 416.063C352.619 417.37 350.12 419.212 348.029 421.536C347.873 421.709 347.657 421.798 347.44 421.798Z" fill="url(#paint22_linear_321_2)"/>
<path d="M367.066 479.593C366.956 479.593 366.843 479.569 366.735 479.52C366.337 479.336 366.164 478.865 366.346 478.468L377.702 453.824C377.779 453.656 377.914 453.52 378.081 453.44L392.578 446.525C392.972 446.338 393.447 446.505 393.636 446.9C393.824 447.295 393.656 447.769 393.261 447.958L379.023 454.748L367.787 479.131C367.653 479.422 367.367 479.593 367.066 479.593Z" fill="url(#paint23_linear_321_2)"/>
<path d="M266.894 649.857C259.207 625.521 243.962 604.27 223.373 589.19C202.784 574.11 177.924 565.987 152.403 566C126.882 566.013 102.031 574.163 81.4575 589.264C60.8844 604.366 45.6617 625.633 38.0005 649.977H152.403L266.894 649.857Z" fill="#0B1F3B"/>
<path d="M522.894 0.119667C515.207 24.4553 499.962 45.7066 479.373 60.7867C458.784 75.8667 433.924 83.9901 408.403 83.9767C382.882 83.9634 358.031 75.8141 337.457 60.7125C316.884 45.6109 301.662 24.3437 294 1.52588e-05H408.403L522.894 0.119667Z" fill="#8B1E2D"/>
<defs>
<linearGradient id="paint0_linear_321_2" x1="191.852" y1="125.346" x2="119.705" y2="471.253" gradientUnits="userSpaceOnUse">
<stop stop-color="#AA80F9"/>
<stop offset="0.9964" stop-color="#6165D7"/>
</linearGradient>
<linearGradient id="paint1_linear_321_2" x1="152.562" y1="487.648" x2="130.964" y2="488.272" gradientUnits="userSpaceOnUse">
<stop stop-color="#444B8C"/>
<stop offset="0.9964" stop-color="#26264F"/>
</linearGradient>
<linearGradient id="paint2_linear_321_2" x1="138.617" y1="480.83" x2="130.871" y2="480.83" gradientUnits="userSpaceOnUse">
<stop stop-color="#FFC444"/>
<stop offset="0.9964" stop-color="#F36F56"/>
</linearGradient>
<linearGradient id="paint3_linear_321_2" x1="222.696" y1="481.7" x2="200.562" y2="487.786" gradientUnits="userSpaceOnUse">
<stop stop-color="#444B8C"/>
<stop offset="0.9964" stop-color="#26264F"/>
</linearGradient>
<linearGradient id="paint4_linear_321_2" x1="207.68" y1="478.272" x2="198.113" y2="478.272" gradientUnits="userSpaceOnUse">
<stop stop-color="#FFC444"/>
<stop offset="0.9964" stop-color="#F36F56"/>
</linearGradient>
<linearGradient id="paint5_linear_321_2" x1="166.871" y1="120.136" x2="94.7247" y2="466.042" gradientUnits="userSpaceOnUse">
<stop stop-color="#AA80F9"/>
<stop offset="0.9964" stop-color="#6165D7"/>
</linearGradient>
<linearGradient id="paint6_linear_321_2" x1="104.826" y1="415.967" x2="132.207" y2="285.907" gradientUnits="userSpaceOnUse">
<stop stop-color="#AA80F9"/>
<stop offset="0.9964" stop-color="#6165D7"/>
</linearGradient>
<linearGradient id="paint7_linear_321_2" x1="117.448" y1="109.828" x2="45.3014" y2="455.734" gradientUnits="userSpaceOnUse">
<stop stop-color="#AA80F9"/>
<stop offset="0.9964" stop-color="#6165D7"/>
</linearGradient>
<linearGradient id="paint8_linear_321_2" x1="151.947" y1="259.663" x2="127.754" y2="259.663" gradientUnits="userSpaceOnUse">
<stop stop-color="#FFC444"/>
<stop offset="0.9964" stop-color="#F36F56"/>
</linearGradient>
<linearGradient id="paint9_linear_321_2" x1="251.404" y1="270.899" x2="235.082" y2="270.899" gradientUnits="userSpaceOnUse">
<stop stop-color="#FFC444"/>
<stop offset="0.9964" stop-color="#F36F56"/>
</linearGradient>
<linearGradient id="paint10_linear_321_2" x1="133.73" y1="155.361" x2="134.587" y2="214.956" gradientUnits="userSpaceOnUse">
<stop stop-color="#FFC444"/>
<stop offset="0.9964" stop-color="#F36F56"/>
</linearGradient>
<linearGradient id="paint11_linear_321_2" x1="150.307" y1="147.855" x2="129.372" y2="147.855" gradientUnits="userSpaceOnUse">
<stop stop-color="#FFC444"/>
<stop offset="0.9964" stop-color="#F36F56"/>
</linearGradient>
<linearGradient id="paint12_linear_321_2" x1="148.293" y1="151.452" x2="143.693" y2="151.452" gradientUnits="userSpaceOnUse">
<stop stop-color="#FFC444"/>
<stop offset="0.9964" stop-color="#F36F56"/>
</linearGradient>
<linearGradient id="paint13_linear_321_2" x1="386.406" y1="352.564" x2="386.877" y2="403.856" gradientUnits="userSpaceOnUse">
<stop stop-color="#FFC444"/>
<stop offset="0.9964" stop-color="#F36F56"/>
</linearGradient>
<linearGradient id="paint14_linear_321_2" x1="444.831" y1="275.721" x2="445.94" y2="322.892" gradientUnits="userSpaceOnUse">
<stop stop-color="#FFC444"/>
<stop offset="0.9964" stop-color="#F36F56"/>
</linearGradient>
<linearGradient id="paint15_linear_321_2" x1="465.129" y1="224.771" x2="458.851" y2="293.45" gradientUnits="userSpaceOnUse">
<stop stop-color="#AA80F9"/>
<stop offset="0.9964" stop-color="#6165D7"/>
</linearGradient>
<linearGradient id="paint16_linear_321_2" x1="439.526" y1="263.066" x2="440.33" y2="314.054" gradientUnits="userSpaceOnUse">
<stop stop-color="#FFC444"/>
<stop offset="0.9964" stop-color="#F36F56"/>
</linearGradient>
<linearGradient id="paint17_linear_321_2" x1="412.398" y1="286.03" x2="373.568" y2="341.067" gradientUnits="userSpaceOnUse">
<stop stop-color="#AA80F9"/>
<stop offset="0.9964" stop-color="#6165D7"/>
</linearGradient>
<linearGradient id="paint18_linear_321_2" x1="487.78" y1="284.788" x2="456.391" y2="372.444" gradientUnits="userSpaceOnUse">
<stop stop-color="#AA80F9"/>
<stop offset="0.9964" stop-color="#6165D7"/>
</linearGradient>
<linearGradient id="paint19_linear_321_2" x1="449.295" y1="357.364" x2="449.552" y2="406.974" gradientUnits="userSpaceOnUse">
<stop stop-color="#FFC444"/>
<stop offset="0.9964" stop-color="#F36F56"/>
</linearGradient>
<linearGradient id="paint20_linear_321_2" x1="321.652" y1="525.44" x2="323.153" y2="606.368" gradientUnits="userSpaceOnUse">
<stop stop-color="#FFC444"/>
<stop offset="0.9964" stop-color="#F36F56"/>
</linearGradient>
<linearGradient id="paint21_linear_321_2" x1="403.358" y1="510.201" x2="404.613" y2="585.195" gradientUnits="userSpaceOnUse">
<stop stop-color="#FFC444"/>
<stop offset="0.9964" stop-color="#F36F56"/>
</linearGradient>
<linearGradient id="paint22_linear_321_2" x1="402.15" y1="379.551" x2="397.041" y2="451.755" gradientUnits="userSpaceOnUse">
<stop stop-color="#AA80F9"/>
<stop offset="0.9964" stop-color="#6165D7"/>
</linearGradient>
<linearGradient id="paint23_linear_321_2" x1="389.002" y1="438.211" x2="377.307" y2="507.312" gradientUnits="userSpaceOnUse">
<stop stop-color="#AA80F9"/>
<stop offset="0.9964" stop-color="#6165D7"/>
</linearGradient>
</defs>
</svg>
