<svg width="800" height="800" viewBox="0 0 800 800" fill="none" xmlns="http://www.w3.org/2000/svg">
<g filter="url(#filter0_n_412_1180)">
<rect width="800" height="800" rx="48" fill="url(#paint0_linear_412_1180)"/>
</g>
<path d="M88.0351 593.855C89.9544 593.261 92.4819 593.003 95.7851 593.265C106.246 594.091 148.693 597.279 202.411 601.156L660.386 591.156C676.6 574.027 687.696 407.071 689.325 365.482C695.638 204.378 558.034 129.552 427.195 141.171C296.357 152.79 383.188 320.179 320.576 333.698C257.965 347.218 259.743 298.712 165.679 308.723C128.644 312.665 61.9006 364.363 82.7304 425.313C85.4093 433.147 87.0788 589.21 88.0351 593.855Z" fill="#F36F56"/>
<path d="M82.8289 531.154H89.0621C88.9704 529.259 88.653 526.857 88.0354 523.854C83.6989 525.196 82.5208 528.28 82.8289 531.154Z" fill="#795FEE"/>
<path d="M776.631 628.692C789.632 628.692 800.135 618.077 799.999 605.077C799.924 598.019 799.888 591.524 799.88 586.295C799.754 498.625 710.072 466.618 652.231 528.218C595.923 588.185 527.801 574.6 524.23 499.473H606.228V308.255C600.942 256.885 583.311 233.602 535.287 224.965C514.181 221.169 492.519 221.344 471.431 225.23C418.557 234.977 398.672 262.264 398.672 323.692C398.672 362.333 388.757 385.335 367.322 392.632C309.521 402.617 275.927 431.311 275.927 493.212C275.927 573.818 205.608 589.819 147.769 528.218C89.9281 466.618 0.245712 498.625 0.119535 586.295C0.111566 591.524 0.0756992 598.019 0.00132135 605.077C-0.135481 618.077 10.3677 628.692 23.3692 628.692H776.631Z" fill="#78C1FE"/>
<path d="M516.755 430.768H450.016V539.369H516.755C517.772 539.369 518.597 538.611 518.597 537.674V432.461C518.597 431.526 517.772 430.768 516.755 430.768Z" fill="#D0D5EA"/>
<path d="M672.34 660.093H100.342C98.0192 660.093 96.1372 657.664 96.1372 654.668C96.1372 651.671 98.0192 649.242 100.342 649.242H672.34C674.663 649.242 676.545 651.671 676.545 654.668C676.545 657.664 674.661 660.093 672.34 660.093Z" fill="#C3E0F4"/>
<path d="M212.318 534.318H136.507V610.129H212.318V534.318Z" fill="#1F4FD8"/>
<path opacity="0.54" d="M212.318 534.318H136.507V554.717H212.318V534.318Z" fill="#D5E5FB"/>
<path d="M218.942 531.837H129.882V549.755H218.942V531.837Z" fill="#1F4FD8"/>
<path d="M211.156 490.015H169.334V531.836H211.156V490.015Z" fill="#FFD1C1"/>
<path opacity="0.54" d="M211.156 490.015H169.334V501.268H211.156V490.015Z" fill="#F6884A"/>
<path d="M214.811 488.647H165.681V498.533H214.811V488.647Z" fill="#FFD1C1"/>
<path d="M135.232 650.33C135.232 654.818 138.872 658.455 143.358 658.455C147.846 658.455 151.484 654.818 151.484 650.33C151.484 645.841 147.846 642.205 143.358 642.205C138.872 642.205 135.232 645.841 135.232 650.33Z" fill="url(#paint1_linear_412_1180)"/>
<path d="M138.387 650.33C138.387 653.076 140.612 655.3 143.359 655.3C146.104 655.3 148.331 653.076 148.331 650.33C148.331 647.585 146.105 645.359 143.359 645.359C140.612 645.359 138.387 647.585 138.387 650.33Z" fill="white"/>
<path d="M132.816 637.839C134.927 639.371 138.517 642.715 139.358 648.204C139.395 649.442 139.704 650.453 140.181 651.229C140.197 651.257 140.214 651.284 140.232 651.312C140.256 651.35 140.278 651.387 140.303 651.423C141.001 652.509 142.009 653.043 143.031 653.066C143.07 653.067 143.108 653.066 143.147 653.067C143.185 653.066 143.224 653.068 143.263 653.066C144.287 653.044 145.295 652.509 145.991 651.423C146.014 651.387 146.038 651.35 146.062 651.312C146.078 651.284 146.096 651.258 146.113 651.23C146.59 650.454 146.899 649.444 146.936 648.206C147.777 642.716 151.367 639.372 153.478 637.842H132.816V637.839Z" fill="#658FFD"/>
<path d="M141.209 649.722C141.209 650.76 142.052 651.603 143.092 651.603C144.13 651.603 144.972 650.76 144.972 649.722C144.972 648.684 144.13 647.84 143.092 647.84C142.05 647.84 141.209 648.684 141.209 649.722Z" fill="url(#paint2_linear_412_1180)"/>
<path d="M207.954 650.33C207.954 654.818 211.593 658.455 216.08 658.455C220.568 658.455 224.206 654.818 224.206 650.33C224.206 645.841 220.568 642.205 216.08 642.205C211.595 642.205 207.954 645.841 207.954 650.33Z" fill="url(#paint3_linear_412_1180)"/>
<path d="M211.108 650.33C211.108 653.076 213.334 655.3 216.08 655.3C218.825 655.3 221.052 653.076 221.052 650.33C221.052 647.585 218.826 645.359 216.08 645.359C213.334 645.359 211.108 647.585 211.108 650.33Z" fill="white"/>
<path d="M205.538 637.839C207.648 639.371 211.238 642.715 212.079 648.204C212.116 649.442 212.426 650.453 212.902 651.229C212.918 651.257 212.936 651.284 212.953 651.312C212.977 651.35 212.999 651.387 213.025 651.423C213.722 652.509 214.73 653.043 215.753 653.066C215.791 653.067 215.83 653.066 215.868 653.067C215.907 653.066 215.945 653.068 215.984 653.066C217.008 653.044 218.014 652.509 218.712 651.423C218.736 651.387 218.76 651.35 218.783 651.312C218.801 651.284 218.818 651.258 218.834 651.23C219.311 650.454 219.62 649.444 219.657 648.206C220.498 642.716 224.088 639.372 226.199 637.842H205.538V637.839Z" fill="#658FFD"/>
<path d="M213.931 649.722C213.931 650.76 214.773 651.603 215.813 651.603C216.852 651.603 217.694 650.76 217.694 649.722C217.694 648.684 216.852 647.84 215.813 647.84C214.773 647.84 213.931 648.684 213.931 649.722Z" fill="url(#paint4_linear_412_1180)"/>
<path d="M97.8218 540.371C101.533 558.846 108.746 594.232 111.057 601.918C113.059 608.57 115.557 611.967 121.106 611.967H234.484C240.034 611.967 243.096 607.737 244.535 601.918C245.6 597.611 254.958 559.737 259.744 540.371H97.8218ZM101.217 543.075H256.597C252.016 560.964 243.056 595.952 242.036 599.93C240.659 605.305 237.729 609.214 232.419 609.214H123.506C118.193 609.214 115.801 606.075 113.886 599.93C111.673 592.831 104.769 560.142 101.217 543.075Z" fill="url(#paint5_linear_412_1180)"/>
<path d="M95.7856 541.188C95.7856 542.23 97.4737 543.075 99.5603 543.075H255.969C258.054 543.075 259.744 542.23 259.744 541.188C259.744 540.145 258.054 539.3 255.969 539.3H99.5603C97.4737 539.3 95.7856 540.145 95.7856 541.188Z" fill="url(#paint6_linear_412_1180)"/>
<path d="M117.425 611.103C117.425 612.145 118.699 612.99 120.27 612.99C120.27 612.99 218.345 612.99 223.566 612.99C233.319 612.99 236.306 628.465 236.306 628.465L238.6 619.155C238.6 619.155 233.07 609.215 226.854 609.215C220.639 609.215 120.27 609.215 120.27 609.215C118.7 609.214 117.425 610.06 117.425 611.103Z" fill="url(#paint7_linear_412_1180)"/>
<path d="M99.7207 558.523C99.7207 559.564 101.338 560.41 103.339 560.41H253.521C255.516 560.41 257.135 559.564 257.135 558.523C257.135 557.48 255.514 556.634 253.521 556.634H103.339C101.34 556.636 99.7207 557.48 99.7207 558.523Z" fill="url(#paint8_linear_412_1180)"/>
<path d="M125.951 613.092C126.986 612.997 127.756 612.121 127.666 611.135L121.243 541.31C121.151 540.324 120.236 539.603 119.199 539.696C118.16 539.793 117.392 540.668 117.483 541.655L123.906 611.48C123.996 612.467 124.911 613.189 125.951 613.092Z" fill="url(#paint9_linear_412_1180)"/>
<path d="M142.386 613.537C143.425 613.521 144.26 612.706 144.245 611.716L143.18 541.604C143.164 540.614 142.308 539.825 141.266 539.84C140.224 539.857 139.39 540.671 139.405 541.662L140.471 611.774C140.485 612.762 141.341 613.551 142.386 613.537Z" fill="url(#paint10_linear_412_1180)"/>
<path d="M163.373 613.539C164.413 613.544 165.264 612.749 165.269 611.758L165.68 541.639C165.685 540.65 164.844 539.842 163.803 539.834C162.76 539.831 161.91 540.626 161.904 541.617L161.493 611.735C161.488 612.726 162.329 613.534 163.373 613.539Z" fill="url(#paint11_linear_412_1180)"/>
<path d="M187.122 613.539C188.162 613.544 189.013 612.749 189.018 611.758L189.43 541.639C189.435 540.65 188.595 539.842 187.553 539.834C186.511 539.831 185.661 540.626 185.654 541.617L185.244 611.735C185.237 612.726 186.076 613.534 187.122 613.539Z" fill="url(#paint12_linear_412_1180)"/>
<path d="M209.62 613.485C210.657 613.541 211.547 612.787 211.6 611.797L215.376 541.78C215.429 540.79 214.627 539.944 213.588 539.887C212.547 539.833 211.66 540.587 211.606 541.576L207.83 611.595C207.778 612.583 208.577 613.429 209.62 613.485Z" fill="url(#paint13_linear_412_1180)"/>
<path d="M228.428 612.85C229.448 613.051 230.433 612.427 230.624 611.454L244.125 542.647C244.315 541.675 243.641 540.725 242.619 540.524C241.595 540.325 240.611 540.948 240.421 541.922L226.92 610.73C226.729 611.699 227.402 612.648 228.428 612.85Z" fill="url(#paint14_linear_412_1180)"/>
<path d="M102.917 578.058C102.917 579.1 104.456 579.945 106.355 579.945H249.671C251.57 579.945 253.109 579.1 253.109 578.058C253.109 577.015 251.57 576.17 249.671 576.17H106.355C104.456 576.17 102.917 577.014 102.917 578.058Z" fill="url(#paint15_linear_412_1180)"/>
<path d="M106.939 594.298C106.939 595.34 108.391 596.185 110.184 596.185H245.766C247.557 596.185 249.009 595.34 249.009 594.298C249.009 593.255 247.559 592.41 245.766 592.41H110.184C108.391 592.411 106.939 593.255 106.939 594.298Z" fill="url(#paint16_linear_412_1180)"/>
<path d="M305.28 525.859C305.28 524.16 303.809 522.838 302.12 523.016L262.938 527.158C261.032 527.351 259.454 528.723 258.996 530.584C258.996 530.584 237.477 618.349 236.534 622.174C234.9 628.781 231.982 631.763 230.881 631.763H124.126C118.734 631.763 119.634 637.839 124.126 637.839H230.881C235.03 637.839 238.324 636.088 241.226 624.349C242.074 620.919 259.081 549.626 263.299 532.493L302.693 528.704C304.162 528.563 305.28 527.332 305.28 525.859Z" fill="url(#paint17_linear_412_1180)"/>
<path d="M473.344 652.794H623.75C636.635 652.794 647.078 642.349 647.078 629.466V324.499C647.078 311.615 636.634 301.171 623.75 301.171H473.344C460.459 301.171 450.016 311.616 450.016 324.499V629.466C450.016 642.349 460.46 652.794 473.344 652.794Z" fill="#0E1835"/>
<path d="M621.387 306.694H475.707C463.228 306.694 453.111 316.811 453.111 329.289V624.673C453.111 637.152 463.228 647.268 475.707 647.268H621.388C633.868 647.268 643.983 637.151 643.983 624.673V329.291C643.983 316.811 633.866 306.694 621.387 306.694Z" fill="#1E2C5B"/>
<path d="M627.377 320.247H592.183C589.41 320.247 587.282 322.544 587.293 325.318C587.293 325.335 587.293 325.353 587.293 325.371V325.855C587.293 334.352 580.405 341.24 571.909 341.24H525.186C516.69 341.24 509.802 334.352 509.802 325.855V325.371C509.802 325.352 509.802 325.335 509.802 325.318C509.813 322.544 507.685 320.247 504.912 320.247H469.718C469.494 320.247 469.312 320.451 469.312 320.702V631.105C469.312 631.356 469.493 631.56 469.718 631.56H627.377C627.602 631.56 627.782 631.356 627.782 631.105V320.702C627.782 320.451 627.6 320.247 627.377 320.247Z" fill="white"/>
<path d="M506.578 488.197H401.366C398.2 488.197 395.626 485.623 395.626 482.458V377.245C395.626 374.082 398.202 371.506 401.366 371.506H506.578C509.743 371.506 512.317 374.082 512.317 377.245V482.458C512.317 485.625 509.743 488.197 506.578 488.197ZM403.716 480.109H504.229V379.598H403.716V480.109Z" fill="white"/>
<path d="M506.578 613.869H401.366C398.2 613.869 395.626 611.295 395.626 608.13V502.918C395.626 499.753 398.202 497.177 401.366 497.177H506.578C509.743 497.177 512.317 499.753 512.317 502.918V608.13C512.317 611.295 509.743 613.869 506.578 613.869ZM403.716 605.78H504.229V505.267H403.716V605.78Z" fill="white"/>
<path d="M506.882 484.153H401.062C400.295 484.153 399.672 483.53 399.672 482.762V376.942C399.672 376.175 400.295 375.552 401.062 375.552H506.882C507.65 375.552 508.273 376.175 508.273 376.942V482.762C508.273 483.53 507.65 484.153 506.882 484.153Z" fill="#1F4FD8"/>
<path d="M506.882 609.825H401.062C400.295 609.825 399.672 609.202 399.672 608.434V502.615C399.672 501.847 400.295 501.224 401.062 501.224H506.882C507.65 501.224 508.273 501.847 508.273 502.615V608.434C508.273 609.202 507.65 609.825 506.882 609.825Z" fill="#1F4FD8"/>
<path d="M493.844 414.995L476.081 402.664H466.72C463.504 406.018 458.983 408.108 453.971 408.108C448.958 408.108 444.437 406.018 441.223 402.664H431.862L414.1 414.995L424.241 429.601L431.863 424.309V461.424H476.082V424.309L483.704 429.601L493.844 414.995Z" fill="white"/>
<path d="M450.396 589.684L453.972 551.258L457.547 589.684H480.748L476.081 539.535V531.837H431.863V539.54L427.196 589.684H450.396Z" fill="white"/>
<path d="M616.018 389.599H528.096C527.332 389.599 526.712 388.98 526.712 388.215V376.936C526.712 376.171 527.331 375.552 528.096 375.552H616.018C616.782 375.552 617.402 376.171 617.402 376.936V388.216C617.402 388.98 616.782 389.599 616.018 389.599Z" fill="#1F4FD8"/>
<path d="M616.018 418.35H528.096C527.332 418.35 526.712 417.731 526.712 416.966V405.686C526.712 404.922 527.331 404.302 528.096 404.302H616.018C616.782 404.302 617.402 404.922 617.402 405.686V416.966C617.402 417.731 616.782 418.35 616.018 418.35Z" fill="#1F4FD8"/>
<path d="M616.018 447.101H528.096C527.332 447.101 526.712 446.481 526.712 445.717V434.437C526.712 433.673 527.331 433.053 528.096 433.053H616.018C616.782 433.053 617.402 433.673 617.402 434.437V445.717C617.402 446.482 616.782 447.101 616.018 447.101Z" fill="#1F4FD8"/>
<path d="M591.187 484.152H528.096C527.332 484.152 526.712 483.533 526.712 482.768V462.807C526.712 462.044 527.331 461.423 528.096 461.423H591.187C591.951 461.423 592.571 462.042 592.571 462.807V482.768C592.569 483.533 591.951 484.152 591.187 484.152Z" fill="#F36F56"/>
<path d="M616.018 515.271H528.096C527.332 515.271 526.712 514.652 526.712 513.887V502.607C526.712 501.843 527.331 501.223 528.096 501.223H616.018C616.782 501.223 617.402 501.842 617.402 502.607V513.885C617.402 514.652 616.782 515.271 616.018 515.271Z" fill="#1F4FD8"/>
<path d="M616.018 544.022H528.096C527.332 544.022 526.712 543.403 526.712 542.638V531.359C526.712 530.595 527.331 529.975 528.096 529.975H616.018C616.782 529.975 617.402 530.594 617.402 531.359V542.638C617.402 543.403 616.782 544.022 616.018 544.022Z" fill="#1F4FD8"/>
<path d="M616.018 572.773H528.096C527.332 572.773 526.712 572.154 526.712 571.389V560.109C526.712 559.345 527.331 558.725 528.096 558.725H616.018C616.782 558.725 617.402 559.344 617.402 560.109V571.387C617.402 572.154 616.782 572.773 616.018 572.773Z" fill="#1F4FD8"/>
<path d="M591.185 609.825H528.094C527.331 609.825 526.71 609.204 526.71 608.441V588.48C526.71 587.716 527.329 587.096 528.094 587.096H591.185C591.949 587.096 592.569 587.715 592.569 588.48V608.441C592.569 609.206 591.95 609.825 591.185 609.825Z" fill="#F36F56"/>
<path d="M403.012 402.673C417.996 400.829 428.648 387.186 426.803 372.201C424.958 357.217 411.315 346.566 396.331 348.41C381.346 350.255 370.695 363.898 372.54 378.882C374.385 393.867 388.027 404.518 403.012 402.673Z" fill="white"/>
<path d="M399.67 398.393C412.285 398.393 422.511 388.167 422.511 375.552C422.511 362.938 412.285 352.711 399.67 352.711C387.056 352.711 376.83 362.938 376.83 375.552C376.83 388.167 387.056 398.393 399.67 398.393Z" fill="#F36F56"/>
<path d="M303.435 497.55C303.075 496.831 302.737 496.154 302.388 495.455C304.986 493.804 307.678 492.302 310.412 490.905C310.716 491.906 310.94 492.646 311.056 493.026L312.484 494.399C313.627 495.31 314.769 496.223 315.912 497.134C316.647 497.72 317.382 498.307 318.118 498.892C319.038 499.627 319.666 500.521 320.762 501.061C321.718 501.532 322.75 501.829 323.747 502.205C323.91 502.266 324.083 502.339 324.172 502.492C324.296 502.704 324.215 502.99 324.132 503.236C323.939 503.804 323.719 504.41 323.246 504.772C322.979 504.977 322.659 505.08 322.345 505.181C321.871 505.333 321.372 505.488 320.879 505.485C320.372 505.482 320.122 505.234 319.693 505.07C318.988 504.797 318.082 504.79 317.329 504.647C317.466 504.674 317.725 506.257 317.762 506.407C317.952 507.168 318.099 507.878 318.012 508.69C318.004 508.767 317.99 508.852 317.935 508.907C317.879 508.963 317.798 508.972 317.723 508.989C317.406 509.066 317.191 509.339 316.897 509.462C316.596 509.59 316.265 509.498 315.958 509.598C315.63 509.705 315.398 510.007 315.135 510.223C314.687 510.591 314.158 510.722 313.622 510.834C313.342 510.893 313.12 510.923 312.887 511.117C312.666 511.302 312.498 511.551 312.231 511.672C311.871 511.834 311.537 511.578 311.205 511.481C310.753 511.348 310.566 511.68 310.169 511.812C309.779 511.939 309.424 511.62 309.157 511.327C308.138 510.205 306.521 508.981 305.828 507.628C305.193 506.389 305.087 504.459 304.767 503.074C304.338 501.223 303.909 499.375 303.48 497.524L303.435 497.55Z" fill="url(#paint18_linear_412_1180)"/>
<path d="M287.171 460.266C286.607 461.152 286.19 462.113 286.066 463.138C285.831 465.07 286.667 466.883 287.494 468.564C290.671 475.016 294.045 481.357 297.607 487.574C299.386 490.678 301.671 494.989 303.59 497.999L311.754 493.948C311.754 493.948 302.59 473.482 298.89 462.348C298.204 460.286 297.381 458.054 295.517 457.066C292.731 455.589 290.947 455.866 288.668 458.354C288.128 458.945 287.606 459.584 287.171 460.266Z" fill="url(#paint19_linear_412_1180)"/>
<path d="M308.817 505.707C309.623 505.025 309.983 505.531 309.983 505.531L310.975 508.552C310.929 508.126 310.881 507.7 310.834 507.274C310.654 505.64 310.537 506.007 310.355 504.363C310.355 504.363 312.216 503.193 312.682 505.184L312.651 501.897C312.651 501.897 314.591 499.483 317.733 501.485C317.733 501.485 318.701 507.463 318.673 508.268C318.66 508.644 318.603 509.053 318.312 509.296C317.977 509.576 317.442 509.544 317.084 509.798C316.6 510.141 316.564 510.91 316.014 511.151C315.616 511.327 315.095 511.145 314.71 511.344C314.348 511.531 314.233 511.994 313.884 512.201C313.581 512.38 313.169 512.328 312.852 512.488C312.719 512.554 312.61 512.654 312.479 512.723C312.218 512.858 311.739 512.834 311.472 512.62C311.346 512.586 311.209 512.541 311.047 512.477C308.841 511.614 308.012 506.389 308.817 505.707Z" fill="url(#paint20_linear_412_1180)"/>
<path d="M294.614 468.731C296.884 468.162 298.716 466.233 300.554 464.119C305.029 458.975 309.578 453.906 314.103 448.815C316.119 446.548 318.132 444.278 320.126 441.987C324.193 437.309 330.257 430.512 324.899 424.248C323.68 422.822 320.963 422.37 319.275 422.625C318.008 422.816 316.764 423.504 315.573 424.447C313.044 426.452 310.742 429.613 308.899 431.639C305.115 435.802 301.399 440.04 297.809 444.398C295.503 447.198 293.228 450.031 291.085 452.977C289.32 455.403 286.858 458.275 286.158 461.316C285.413 464.561 287.939 467.192 290.508 468.293C292.048 468.952 293.394 469.038 294.614 468.731Z" fill="url(#paint21_linear_412_1180)"/>
<path d="M319.52 450.263C323.669 443.5 335.406 429.109 327.394 421.114C318.527 412.267 302.813 437.126 302.813 437.126L319.52 450.263Z" fill="white"/>
<path d="M396.268 458.85C397.26 459.194 398.291 459.378 399.316 459.263C401.251 459.045 402.821 457.814 404.265 456.62C409.81 452.037 415.2 447.292 420.425 442.39C423.035 439.942 426.7 436.722 429.187 434.16L423.359 427.151C423.359 427.151 405.562 440.794 395.584 446.966C393.736 448.109 391.755 449.426 391.223 451.468C390.429 454.52 391.112 456.191 394.059 457.834C394.76 458.225 395.503 458.585 396.268 458.85Z" fill="url(#paint22_linear_412_1180)"/>
<path d="M440.531 423.58C440.825 423.268 438.764 422.175 439.899 420.97C439.899 420.97 439.492 417.484 437.922 418.795L441.877 414.352C441.877 414.352 442.088 411.874 440.348 413.39C440.348 413.39 433.818 417.905 432.979 418.799C430.747 419.605 430.642 420.08 430.643 420.1C430.607 419.334 431.019 414.278 430.761 413.851C430.591 413.57 430.135 413.024 429.537 412.967C429.278 412.941 428.982 412.928 428.804 413.1C428.676 413.222 428.646 413.406 428.623 413.58C428.488 414.636 428.437 415.709 428.201 416.748C427.928 417.939 427.203 418.756 426.701 419.821C426.3 420.671 425.9 421.523 425.499 422.374C424.876 423.696 424.253 425.019 423.63 426.341L422.624 428.047C422.281 428.247 421.613 428.636 420.708 429.162C422.699 431.5 424.782 433.773 426.989 435.919C427.588 435.418 428.169 434.933 428.785 434.417L428.751 434.377C430.451 433.532 432.152 432.687 433.852 431.843C435.125 431.211 436.979 430.662 438.039 429.757C440.975 427.497 440.531 423.58 440.531 423.58Z" fill="url(#paint23_linear_412_1180)"/>
<path d="M348.424 556.852C351.856 543.717 352.401 529.854 352.621 516.338C352.729 509.626 349.345 485.065 348.968 478.352C348.254 465.646 345.621 468.074 330.465 471.309C328.547 471.718 326.732 472.501 325.113 473.606C306.06 486.618 317.35 516.447 322.504 533.258C324.742 540.558 327.863 549.281 330.557 556.428C340.347 564.959 348.424 556.852 348.424 556.852Z" fill="#2D447C"/>
<path d="M321.897 645.195C322.142 644.088 322.731 643.015 323.227 641.965C323.367 641.666 324.543 638.734 324.587 638.394C325.224 633.462 325.58 619.72 325.58 619.72L339.264 620.773C339.264 620.773 336.246 632.432 337.54 639.561H337.523C343.264 643.461 353.645 648.918 353.645 648.918C353.645 648.918 365.661 652.004 366.276 652.338C366.891 652.673 368.438 653.251 370.099 655.085C370.099 655.085 371.239 658.364 355.787 659.392C355.787 659.392 349.068 660.256 338.655 657.644C336.385 657.239 334.115 656.833 331.845 656.428C329.516 656.012 322.48 655.15 321.621 654.386C321.289 654.092 321.072 653.802 320.936 653.506C319.894 651.243 321.39 647.499 321.897 645.195Z" fill="url(#paint24_linear_412_1180)"/>
<path d="M323.196 642.029C326.611 642.886 330.37 643.008 333.491 642.897C335.722 642.817 338.253 642.39 340.499 641.478C346.256 645.035 353.645 648.918 353.645 648.918C353.645 648.918 365.661 652.004 366.276 652.339C366.891 652.673 368.438 653.251 370.1 655.085C370.1 655.085 371.239 658.364 355.787 659.392C355.787 659.392 349.068 660.256 338.655 657.645C336.385 657.239 334.115 656.833 331.846 656.428C329.516 656.012 322.481 655.149 321.621 654.387C321.289 654.092 321.073 653.802 320.936 653.506C319.893 651.243 321.389 647.499 321.896 645.196C322.137 644.11 322.708 643.059 323.196 642.029Z" fill="url(#paint25_linear_412_1180)"/>
<path d="M325.221 626.335C323.975 610.053 323.1 574.417 331.185 554.821C332.457 551.74 335.865 548.564 339.348 548.427C342.039 548.321 345.895 549.677 347.369 552.08C348.587 554.065 348.642 560.403 348.405 562.594C347.736 568.797 342.099 608.313 339.421 626.985L325.221 626.335Z" fill="#2D447C"/>
<path d="M364.903 487.458H335.461C335.425 487.521 335.377 487.582 335.343 487.646L335.311 487.458H314.86L314.828 487.488C313.32 497.639 315.063 504.803 315.063 504.803C317.988 517.899 334.189 523.027 339.723 524.414C342.859 530.805 346.428 536.732 349.133 541.539C352.88 548.192 356.774 554.785 360.933 561.192C372.321 567.433 379.494 559.05 379.494 559.05C380.041 545.485 377.613 531.825 374.94 518.576C373.86 513.22 368.015 496.863 364.903 487.458Z" fill="#394F8E"/>
<path d="M362.672 648.382C362.792 647.254 363.261 646.123 363.64 645.026C363.747 644.713 364.593 641.669 364.6 641.328C364.693 636.355 363.539 622.656 363.539 622.656L377.255 622.202C377.255 622.202 375.532 634.121 377.602 641.066L377.584 641.068C383.718 644.315 394.634 648.6 394.634 648.6C394.634 648.6 406.916 650.348 407.564 650.613C408.212 650.879 409.814 651.283 411.665 652.924C411.665 652.924 413.158 656.059 397.912 658.776C397.912 658.776 391.328 660.371 380.692 658.917C378.392 658.763 376.091 658.609 373.791 658.455C371.43 658.297 364.342 658.21 363.405 657.546C363.042 657.29 362.795 657.026 362.628 656.747C361.343 654.612 362.419 650.727 362.672 648.382Z" fill="url(#paint26_linear_412_1180)"/>
<path d="M371.111 622.406C370.852 623.154 370.625 623.913 370.425 624.682C370.144 623.945 369.874 623.203 369.615 622.456L371.111 622.406Z" fill="#FFD9B6"/>
<path d="M363.639 645.025C363.701 644.845 364.011 643.75 364.26 642.792C364.79 643.066 365.315 643.325 365.825 643.568C371.733 646.385 378.054 645.959 384.275 644.506C384.392 644.478 384.502 644.445 384.611 644.41C389.706 646.664 394.635 648.599 394.635 648.599C394.635 648.599 406.916 650.348 407.564 650.614C408.212 650.88 409.814 651.284 411.666 652.925C411.666 652.925 413.159 656.06 397.912 658.777C397.912 658.777 391.329 660.371 380.693 658.918C378.392 658.764 376.092 658.61 373.791 658.456C371.43 658.298 364.343 658.211 363.405 657.547C363.043 657.291 362.796 657.027 362.628 656.748C361.344 654.613 362.418 650.727 362.671 648.383C362.793 647.255 363.262 646.122 363.639 645.025Z" fill="url(#paint27_linear_412_1180)"/>
<path d="M363.907 629.271C361.192 614.866 359.464 600.147 359.221 585.484C359.135 580.264 359.257 575.032 359.772 569.835C360.29 564.603 359.86 557.067 365.402 554.418C368.645 552.868 373.138 553.02 376.278 554.809C379.324 556.544 379.953 560.15 379.962 563.372C379.978 569.612 378.707 609.509 378.095 628.36L363.907 629.271Z" fill="#394F8E"/>
<path d="M362.062 395.285L360.074 403.284L364.684 404.43L362.062 395.285Z" fill="url(#paint28_linear_412_1180)"/>
<path d="M352.96 407.481C353.009 410.038 349.312 420.541 349.312 420.541C347.768 422.29 340.281 422.924 337.12 420.252C334.606 418.125 334.342 416.215 334.342 416.215L335.264 394.258L352.96 407.481Z" fill="url(#paint29_linear_412_1180)"/>
<path d="M336.372 377.62L335.55 385.447L334.296 397.387L333.943 400.746C341.557 413.696 354.164 415.065 358.252 410.741C362.339 406.418 364.179 381.726 364.179 381.726L336.372 377.62Z" fill="url(#paint30_linear_412_1180)"/>
<path d="M335.651 410.46C338.008 411.284 340.606 410.225 341.714 407.987C343.195 404.993 345.331 400.783 347.364 397.172C347.731 396.52 351.26 402.113 351.616 401.51C353.229 398.779 354.85 390.458 355.729 389.96C358.716 388.272 366.829 391.431 370.705 382.675C372.824 377.889 370.041 373.974 367.964 373.585C365.887 373.196 369.922 372.482 363.031 367.89C356.02 363.216 336.539 368.394 334.341 373.977C334.341 373.977 325.392 374.885 327.341 387.09C329.288 399.294 332.664 409.55 335.651 410.46Z" fill="#0A1123"/>
<path d="M345.638 389.848C342.555 392.324 342.689 399.478 348.642 403.423L351.08 391.681C350.762 389.869 347.666 388.218 345.638 389.848Z" fill="url(#paint31_linear_412_1180)"/>
<path d="M335.331 416.661C343.861 417.015 357.343 418.492 360.531 428.055C362.23 433.151 362.467 438.721 361.929 444.034C361.507 448.202 361.147 452.375 360.976 456.568C360.685 463.646 360.3 471.623 362.746 478.402L367.238 493.979C367.238 493.979 331.656 523.73 310.877 502.686C310.877 502.686 310.773 435.079 318.724 421.288C319.691 419.61 322.366 418.692 324.043 418.14C327.749 416.92 331.539 416.505 335.331 416.661Z" fill="white"/>
<path d="M397.235 458.656C395.067 458.963 392.8 457.939 390.461 456.758C384.77 453.882 379.04 451.099 373.322 448.285C370.776 447.033 368.229 445.778 365.695 444.498C360.52 441.882 352.867 438.136 355.296 430.816C355.849 429.15 358.043 427.8 359.596 427.424C360.762 427.142 362.079 427.299 363.446 427.696C366.344 428.539 369.455 430.465 371.766 431.57C376.514 433.84 381.229 436.199 385.878 438.707C388.863 440.318 391.834 441.969 394.731 443.764C397.117 445.243 400.263 446.86 401.943 449.248C403.735 451.796 402.476 454.968 400.639 456.827C399.535 457.94 398.398 458.49 397.235 458.656Z" fill="url(#paint32_linear_412_1180)"/>
<path d="M365.14 449.137C358.745 444.44 342.444 435.544 346.847 425.115C351.719 413.575 375.654 430.664 375.654 430.664L365.14 449.137Z" fill="white"/>
<path d="M396.981 370.775C396.981 373.283 396.496 375.166 395.525 376.425C394.554 377.685 393.132 378.314 391.256 378.314C389.458 378.314 388.067 377.669 387.086 376.376C386.104 375.084 385.614 373.218 385.614 370.775C385.614 365.793 387.495 363.302 391.256 363.302C393.099 363.302 394.513 363.947 395.5 365.24C396.487 366.532 396.981 368.378 396.981 370.775ZM389.736 370.809C389.736 372.194 389.858 373.226 390.103 373.907C390.349 374.589 390.744 374.93 391.29 374.93C392.336 374.93 392.859 373.557 392.859 370.809C392.859 368.083 392.336 366.72 391.29 366.72C390.744 366.72 390.349 367.055 390.103 367.726C389.859 368.397 389.736 369.425 389.736 370.809ZM408.232 363.646L394.969 387.554H391.044L404.307 363.646H408.232ZM413.726 380.326C413.726 382.823 413.24 384.701 412.271 385.96C411.3 387.22 409.877 387.85 408.002 387.85C406.204 387.85 404.813 387.204 403.833 385.911C402.851 384.619 402.361 382.758 402.361 380.326C402.361 375.344 404.242 372.853 408.003 372.853C409.845 372.853 411.26 373.498 412.247 374.79C413.234 376.083 413.726 377.928 413.726 380.326ZM406.481 380.36C406.481 381.745 406.603 382.777 406.849 383.458C407.095 384.139 407.489 384.48 408.035 384.48C409.082 384.48 409.605 383.106 409.605 380.358C409.605 377.633 409.082 376.27 408.035 376.27C407.489 376.27 407.095 376.605 406.849 377.275C406.605 377.948 406.481 378.974 406.481 380.36Z" fill="white"/>
<path d="M627.782 351.099V320.702C627.782 320.451 627.6 320.247 627.377 320.247H592.183C589.41 320.247 587.284 322.544 587.293 325.318C587.293 325.335 587.293 325.353 587.293 325.371V325.855C587.293 334.352 580.405 341.24 571.909 341.24H525.186C516.69 341.24 509.802 334.352 509.802 325.855V325.371C509.802 325.352 509.802 325.335 509.802 325.318C509.811 322.544 507.685 320.247 504.912 320.247H469.718C469.494 320.247 469.312 320.451 469.312 320.702V351.099H627.782Z" fill="#1F4FD8"/>
<path d="M571.908 322.929H525.186C523.843 322.929 522.745 324.028 522.745 325.37V325.855C522.745 327.198 523.843 328.296 525.186 328.296H571.908C573.251 328.296 574.35 327.198 574.35 325.855V325.37C574.35 324.029 573.251 322.929 571.908 322.929Z" fill="#0E1835"/>
<path fill-rule="evenodd" clip-rule="evenodd" d="M310.894 511.197C310.894 511.197 306.671 510.784 303.187 507.136C300.274 504.085 299.251 501.059 298.891 499.309C298.531 501.059 297.509 504.085 294.596 507.136C291.112 510.784 286.889 511.197 286.889 511.197L286.992 511.311L286.889 511.426C286.889 511.426 291.112 511.839 294.596 515.487C297.509 518.538 298.531 521.564 298.891 523.314C299.251 521.562 300.274 518.538 303.187 515.487C306.671 511.839 310.894 511.426 310.894 511.426L310.791 511.311L310.894 511.197Z" fill="white"/>
<path fill-rule="evenodd" clip-rule="evenodd" d="M734.422 464.453C734.422 464.453 732.02 464.218 730.04 462.144C728.384 460.409 727.802 458.689 727.598 457.694C727.393 458.69 726.811 460.409 725.155 462.144C723.175 464.218 720.773 464.453 720.773 464.453L720.832 464.519L720.773 464.584C720.773 464.584 723.175 464.819 725.155 466.893C726.811 468.628 727.393 470.348 727.598 471.343C727.802 470.347 728.384 468.627 730.04 466.893C732.02 464.819 734.422 464.584 734.422 464.584L734.363 464.519L734.422 464.453Z" fill="white"/>
<path fill-rule="evenodd" clip-rule="evenodd" d="M250.981 430.151C250.981 430.151 248.58 429.916 246.6 427.841C244.943 426.107 244.362 424.387 244.157 423.392C243.953 424.388 243.371 426.108 241.715 427.841C239.734 429.916 237.333 430.151 237.333 430.151L237.393 430.216L237.333 430.281C237.333 430.281 239.734 430.516 241.715 432.591C243.371 434.326 243.953 436.046 244.157 437.04C244.362 436.044 244.943 434.326 246.6 432.591C248.58 430.516 250.981 430.281 250.981 430.281L250.923 430.216L250.981 430.151Z" fill="white"/>
<path fill-rule="evenodd" clip-rule="evenodd" d="M427.121 240.182C427.121 240.182 424.72 239.947 422.74 237.872C421.084 236.138 420.502 234.418 420.297 233.423C420.093 234.418 419.511 236.138 417.855 237.872C415.874 239.947 413.473 240.182 413.473 240.182L413.532 240.247L413.473 240.312C413.473 240.312 415.874 240.547 417.855 242.622C419.511 244.356 420.093 246.076 420.297 247.071C420.502 246.076 421.084 244.356 422.74 242.622C424.72 240.547 427.121 240.312 427.121 240.312L427.063 240.247L427.121 240.182Z" fill="white"/>
<path fill-rule="evenodd" clip-rule="evenodd" d="M566.466 178.388C566.466 178.388 564.064 178.153 562.084 176.079C560.428 174.344 559.846 172.624 559.642 171.629C559.437 172.624 558.855 174.346 557.199 176.079C555.219 178.153 552.817 178.388 552.817 178.388L552.876 178.454L552.817 178.519C552.817 178.519 555.219 178.754 557.199 180.828C558.855 182.563 559.437 184.283 559.642 185.278C559.846 184.283 560.428 182.562 562.084 180.828C564.064 178.754 566.466 178.519 566.466 178.519L566.407 178.454L566.466 178.388Z" fill="white"/>
<path fill-rule="evenodd" clip-rule="evenodd" d="M67.275 491.906C67.275 491.906 63.0514 491.492 59.5676 487.844C56.6549 484.793 55.6322 481.768 55.2722 480.017C54.9123 481.768 53.8896 484.793 50.9769 487.844C47.4931 491.492 43.2695 491.906 43.2695 491.906L43.3731 492.02L43.2695 492.134C43.2695 492.134 47.4931 492.547 50.9769 496.196C53.8896 499.246 54.9123 502.272 55.2722 504.023C55.6322 502.271 56.6549 499.246 59.5676 496.196C63.0514 492.547 67.275 492.134 67.275 492.134L67.1714 492.02L67.275 491.906Z" fill="white"/>
<defs>
<filter id="filter0_n_412_1180" x="0" y="0" width="800" height="800" filterUnits="userSpaceOnUse" color-interpolation-filters="sRGB">
<feFlood flood-opacity="0" result="BackgroundImageFix"/>
<feBlend mode="normal" in="SourceGraphic" in2="BackgroundImageFix" result="shape"/>
<feTurbulence type="fractalNoise" baseFrequency="2 2" stitchTiles="stitch" numOctaves="3" result="noise" seed="6615" />
<feColorMatrix in="noise" type="luminanceToAlpha" result="alphaNoise" />
<feComponentTransfer in="alphaNoise" result="coloredNoise1">
<feFuncA type="discrete" tableValues="1 1 1 1 1 1 1 1 1 1 1 1 1 1 1 1 1 1 1 1 1 1 1 1 1 1 1 1 1 1 1 1 1 1 1 1 1 1 1 1 1 1 1 1 1 1 1 1 1 1 1 0 0 0 0 0 0 0 0 0 0 0 0 0 0 0 0 0 0 0 0 0 0 0 0 0 0 0 0 0 0 0 0 0 0 0 0 0 0 0 0 0 0 0 0 0 0 0 0 0 "/>
</feComponentTransfer>
<feComposite operator="in" in2="shape" in="coloredNoise1" result="noise1Clipped" />
<feFlood flood-color="rgba(0, 0, 0, 0.25)" result="color1Flood" />
<feComposite operator="in" in2="noise1Clipped" in="color1Flood" result="color1" />
<feMerge result="effect1_noise_412_1180">
<feMergeNode in="shape" />
<feMergeNode in="color1" />
</feMerge>
</filter>
<linearGradient id="paint0_linear_412_1180" x1="0" y1="0" x2="800" y2="800" gradientUnits="userSpaceOnUse">
<stop stop-color="#FFE2E6" stop-opacity="0.2"/>
<stop offset="1" stop-color="#B8CAFF" stop-opacity="0.2"/>
</linearGradient>
<linearGradient id="paint1_linear_412_1180" x1="288.114" y1="493.602" x2="146.227" y2="647.224" gradientUnits="userSpaceOnUse">
<stop stop-color="#071786"/>
<stop offset="0.1509" stop-color="#05136B"/>
<stop offset="0.3236" stop-color="#041055"/>
<stop offset="0.5107" stop-color="#030E45"/>
<stop offset="0.7204" stop-color="#020C3B"/>
<stop offset="1" stop-color="#020C38"/>
</linearGradient>
<linearGradient id="paint2_linear_412_1180" x1="287.665" y1="493.189" x2="145.778" y2="646.809" gradientUnits="userSpaceOnUse">
<stop stop-color="#071786"/>
<stop offset="0.1509" stop-color="#05136B"/>
<stop offset="0.3236" stop-color="#041055"/>
<stop offset="0.5107" stop-color="#030E45"/>
<stop offset="0.7204" stop-color="#020C3B"/>
<stop offset="1" stop-color="#020C38"/>
</linearGradient>
<linearGradient id="paint3_linear_412_1180" x1="327.358" y1="529.849" x2="185.471" y2="683.471" gradientUnits="userSpaceOnUse">
<stop stop-color="#071786"/>
<stop offset="0.1509" stop-color="#05136B"/>
<stop offset="0.3236" stop-color="#041055"/>
<stop offset="0.5107" stop-color="#030E45"/>
<stop offset="0.7204" stop-color="#020C3B"/>
<stop offset="1" stop-color="#020C38"/>
</linearGradient>
<linearGradient id="paint4_linear_412_1180" x1="326.91" y1="529.435" x2="185.023" y2="683.056" gradientUnits="userSpaceOnUse">
<stop stop-color="#071786"/>
<stop offset="0.1509" stop-color="#05136B"/>
<stop offset="0.3236" stop-color="#041055"/>
<stop offset="0.5107" stop-color="#030E45"/>
<stop offset="0.7204" stop-color="#020C3B"/>
<stop offset="1" stop-color="#020C38"/>
</linearGradient>
<linearGradient id="paint5_linear_412_1180" x1="264.515" y1="471.805" x2="122.628" y2="625.427" gradientUnits="userSpaceOnUse">
<stop offset="0.0457" stop-color="#F8F2FA"/>
<stop offset="0.2204" stop-color="#F4F1FA"/>
<stop offset="0.3885" stop-color="#E9ECFA"/>
<stop offset="0.554" stop-color="#D5E5FB"/>
<stop offset="0.7179" stop-color="#BADAFC"/>
<stop offset="0.8791" stop-color="#97CDFD"/>
<stop offset="1" stop-color="#78C1FE"/>
</linearGradient>
<linearGradient id="paint6_linear_412_1180" x1="252.282" y1="460.507" x2="110.395" y2="614.129" gradientUnits="userSpaceOnUse">
<stop offset="0.0457" stop-color="#F8F2FA"/>
<stop offset="0.2204" stop-color="#F4F1FA"/>
<stop offset="0.3885" stop-color="#E9ECFA"/>
<stop offset="0.554" stop-color="#D5E5FB"/>
<stop offset="0.7179" stop-color="#BADAFC"/>
<stop offset="0.8791" stop-color="#97CDFD"/>
<stop offset="1" stop-color="#78C1FE"/>
</linearGradient>
<linearGradient id="paint7_linear_412_1180" x1="290.838" y1="496.118" x2="148.951" y2="649.74" gradientUnits="userSpaceOnUse">
<stop offset="0.0457" stop-color="#F8F2FA"/>
<stop offset="0.2204" stop-color="#F4F1FA"/>
<stop offset="0.3885" stop-color="#E9ECFA"/>
<stop offset="0.554" stop-color="#D5E5FB"/>
<stop offset="0.7179" stop-color="#BADAFC"/>
<stop offset="0.8791" stop-color="#97CDFD"/>
<stop offset="1" stop-color="#78C1FE"/>
</linearGradient>
<linearGradient id="paint8_linear_412_1180" x1="261.28" y1="468.818" x2="119.394" y2="622.441" gradientUnits="userSpaceOnUse">
<stop offset="0.0457" stop-color="#F8F2FA"/>
<stop offset="0.2204" stop-color="#F4F1FA"/>
<stop offset="0.3885" stop-color="#E9ECFA"/>
<stop offset="0.554" stop-color="#D5E5FB"/>
<stop offset="0.7179" stop-color="#BADAFC"/>
<stop offset="0.8791" stop-color="#97CDFD"/>
<stop offset="1" stop-color="#78C1FE"/>
</linearGradient>
<linearGradient id="paint9_linear_412_1180" x1="240.048" y1="449.207" x2="98.1606" y2="602.829" gradientUnits="userSpaceOnUse">
<stop offset="0.0457" stop-color="#F8F2FA"/>
<stop offset="0.2204" stop-color="#F4F1FA"/>
<stop offset="0.3885" stop-color="#E9ECFA"/>
<stop offset="0.554" stop-color="#D5E5FB"/>
<stop offset="0.7179" stop-color="#BADAFC"/>
<stop offset="0.8791" stop-color="#97CDFD"/>
<stop offset="1" stop-color="#78C1FE"/>
</linearGradient>
<linearGradient id="paint10_linear_412_1180" x1="250.581" y1="458.936" x2="108.694" y2="612.558" gradientUnits="userSpaceOnUse">
<stop offset="0.0457" stop-color="#F8F2FA"/>
<stop offset="0.2204" stop-color="#F4F1FA"/>
<stop offset="0.3885" stop-color="#E9ECFA"/>
<stop offset="0.554" stop-color="#D5E5FB"/>
<stop offset="0.7179" stop-color="#BADAFC"/>
<stop offset="0.8791" stop-color="#97CDFD"/>
<stop offset="1" stop-color="#78C1FE"/>
</linearGradient>
<linearGradient id="paint11_linear_412_1180" x1="262.325" y1="469.783" x2="120.438" y2="623.405" gradientUnits="userSpaceOnUse">
<stop offset="0.0457" stop-color="#F8F2FA"/>
<stop offset="0.2204" stop-color="#F4F1FA"/>
<stop offset="0.3885" stop-color="#E9ECFA"/>
<stop offset="0.554" stop-color="#D5E5FB"/>
<stop offset="0.7179" stop-color="#BADAFC"/>
<stop offset="0.8791" stop-color="#97CDFD"/>
<stop offset="1" stop-color="#78C1FE"/>
</linearGradient>
<linearGradient id="paint12_linear_412_1180" x1="275.141" y1="481.62" x2="133.255" y2="635.242" gradientUnits="userSpaceOnUse">
<stop offset="0.0457" stop-color="#F8F2FA"/>
<stop offset="0.2204" stop-color="#F4F1FA"/>
<stop offset="0.3885" stop-color="#E9ECFA"/>
<stop offset="0.554" stop-color="#D5E5FB"/>
<stop offset="0.7179" stop-color="#BADAFC"/>
<stop offset="0.8791" stop-color="#97CDFD"/>
<stop offset="1" stop-color="#78C1FE"/>
</linearGradient>
<linearGradient id="paint13_linear_412_1180" x1="288.238" y1="493.715" x2="146.351" y2="647.337" gradientUnits="userSpaceOnUse">
<stop offset="0.0457" stop-color="#F8F2FA"/>
<stop offset="0.2204" stop-color="#F4F1FA"/>
<stop offset="0.3885" stop-color="#E9ECFA"/>
<stop offset="0.554" stop-color="#D5E5FB"/>
<stop offset="0.7179" stop-color="#BADAFC"/>
<stop offset="0.8791" stop-color="#97CDFD"/>
<stop offset="1" stop-color="#78C1FE"/>
</linearGradient>
<linearGradient id="paint14_linear_412_1180" x1="301.145" y1="505.637" x2="159.258" y2="659.258" gradientUnits="userSpaceOnUse">
<stop offset="0.0457" stop-color="#F8F2FA"/>
<stop offset="0.2204" stop-color="#F4F1FA"/>
<stop offset="0.3885" stop-color="#E9ECFA"/>
<stop offset="0.554" stop-color="#D5E5FB"/>
<stop offset="0.7179" stop-color="#BADAFC"/>
<stop offset="0.8791" stop-color="#97CDFD"/>
<stop offset="1" stop-color="#78C1FE"/>
</linearGradient>
<linearGradient id="paint15_linear_412_1180" x1="270.793" y1="477.603" x2="128.906" y2="631.225" gradientUnits="userSpaceOnUse">
<stop offset="0.0457" stop-color="#F8F2FA"/>
<stop offset="0.2204" stop-color="#F4F1FA"/>
<stop offset="0.3885" stop-color="#E9ECFA"/>
<stop offset="0.554" stop-color="#D5E5FB"/>
<stop offset="0.7179" stop-color="#BADAFC"/>
<stop offset="0.8791" stop-color="#97CDFD"/>
<stop offset="1" stop-color="#78C1FE"/>
</linearGradient>
<linearGradient id="paint16_linear_412_1180" x1="278.866" y1="485.061" x2="136.979" y2="638.683" gradientUnits="userSpaceOnUse">
<stop offset="0.0457" stop-color="#F8F2FA"/>
<stop offset="0.2204" stop-color="#F4F1FA"/>
<stop offset="0.3885" stop-color="#E9ECFA"/>
<stop offset="0.554" stop-color="#D5E5FB"/>
<stop offset="0.7179" stop-color="#BADAFC"/>
<stop offset="0.8791" stop-color="#97CDFD"/>
<stop offset="1" stop-color="#78C1FE"/>
</linearGradient>
<linearGradient id="paint17_linear_412_1180" x1="298.185" y1="504.919" x2="157.26" y2="657.499" gradientUnits="userSpaceOnUse">
<stop offset="0.0457" stop-color="#F8F2FA"/>
<stop offset="0.2204" stop-color="#F4F1FA"/>
<stop offset="0.3885" stop-color="#E9ECFA"/>
<stop offset="0.554" stop-color="#D5E5FB"/>
<stop offset="0.7179" stop-color="#BADAFC"/>
<stop offset="0.8791" stop-color="#97CDFD"/>
<stop offset="1" stop-color="#78C1FE"/>
</linearGradient>
<linearGradient id="paint18_linear_412_1180" x1="324.195" y1="503.129" x2="276.635" y2="497.166" gradientUnits="userSpaceOnUse">
<stop stop-color="#FFD1C1"/>
<stop offset="0.3861" stop-color="#FFCFBF"/>
<stop offset="0.5877" stop-color="#FFC9B7"/>
<stop offset="0.7467" stop-color="#FFBDA9"/>
<stop offset="0.8825" stop-color="#FFAE97"/>
<stop offset="1" stop-color="#FF9A7F"/>
</linearGradient>
<linearGradient id="paint19_linear_412_1180" x1="311.891" y1="477.193" x2="285.918" y2="476.981" gradientUnits="userSpaceOnUse">
<stop stop-color="#FFD1C1"/>
<stop offset="0.3861" stop-color="#FFCFBF"/>
<stop offset="0.5877" stop-color="#FFC9B7"/>
<stop offset="0.7467" stop-color="#FFBDA9"/>
<stop offset="0.8825" stop-color="#FFAE97"/>
<stop offset="1" stop-color="#FF9A7F"/>
</linearGradient>
<linearGradient id="paint20_linear_412_1180" x1="318.676" y1="508.705" x2="298.229" y2="500.231" gradientUnits="userSpaceOnUse">
<stop stop-color="#FFD1C1"/>
<stop offset="0.0429" stop-color="#FFCCBB"/>
<stop offset="0.2701" stop-color="#FFB6A1"/>
<stop offset="0.503" stop-color="#FFA68E"/>
<stop offset="0.7427" stop-color="#FF9D83"/>
<stop offset="1" stop-color="#FF9A7F"/>
</linearGradient>
<linearGradient id="paint21_linear_412_1180" x1="314.263" y1="450.972" x2="299.711" y2="440.665" gradientUnits="userSpaceOnUse">
<stop stop-color="#FFD1C1"/>
<stop offset="0.3861" stop-color="#FFCFBF"/>
<stop offset="0.5877" stop-color="#FFC9B7"/>
<stop offset="0.7467" stop-color="#FFBDA9"/>
<stop offset="0.8825" stop-color="#FFAE97"/>
<stop offset="1" stop-color="#FF9A7F"/>
</linearGradient>
<linearGradient id="paint22_linear_412_1180" x1="400.868" y1="431.187" x2="410.249" y2="444.782" gradientUnits="userSpaceOnUse">
<stop stop-color="#FFD1C1"/>
<stop offset="0.2442" stop-color="#FFCEBD"/>
<stop offset="0.4921" stop-color="#FFC3B1"/>
<stop offset="0.7418" stop-color="#FFB39C"/>
<stop offset="0.9914" stop-color="#FF9B80"/>
<stop offset="1" stop-color="#FF9A7F"/>
</linearGradient>
<linearGradient id="paint23_linear_412_1180" x1="424.274" y1="409.125" x2="434.927" y2="427.628" gradientUnits="userSpaceOnUse">
<stop stop-color="#FFD1C1"/>
<stop offset="0.3861" stop-color="#FFCFBF"/>
<stop offset="0.5877" stop-color="#FFC9B7"/>
<stop offset="0.7467" stop-color="#FFBDA9"/>
<stop offset="0.8825" stop-color="#FFAE97"/>
<stop offset="1" stop-color="#FF9A7F"/>
</linearGradient>
<linearGradient id="paint24_linear_412_1180" x1="345.347" y1="659.528" x2="345.347" y2="619.72" gradientUnits="userSpaceOnUse">
<stop stop-color="#FFD1C1"/>
<stop offset="0.3861" stop-color="#FFCFBF"/>
<stop offset="0.5877" stop-color="#FFC9B7"/>
<stop offset="0.7467" stop-color="#FFBDA9"/>
<stop offset="0.8825" stop-color="#FFAE97"/>
<stop offset="1" stop-color="#FF9A7F"/>
</linearGradient>
<linearGradient id="paint25_linear_412_1180" x1="320.576" y1="650.503" x2="370.118" y2="650.503" gradientUnits="userSpaceOnUse">
<stop stop-color="#071786"/>
<stop offset="0.1509" stop-color="#05136B"/>
<stop offset="0.3236" stop-color="#041055"/>
<stop offset="0.5107" stop-color="#030E45"/>
<stop offset="0.7204" stop-color="#020C3B"/>
<stop offset="1" stop-color="#020C38"/>
</linearGradient>
<linearGradient id="paint26_linear_412_1180" x1="386.858" y1="659.529" x2="386.858" y2="622.202" gradientUnits="userSpaceOnUse">
<stop stop-color="#FFD1C1"/>
<stop offset="0.3861" stop-color="#FFCFBF"/>
<stop offset="0.5877" stop-color="#FFC9B7"/>
<stop offset="0.7467" stop-color="#FFBDA9"/>
<stop offset="0.8825" stop-color="#FFAE97"/>
<stop offset="1" stop-color="#FF9A7F"/>
</linearGradient>
<linearGradient id="paint27_linear_412_1180" x1="362.011" y1="651.16" x2="411.707" y2="651.16" gradientUnits="userSpaceOnUse">
<stop stop-color="#071786"/>
<stop offset="0.1509" stop-color="#05136B"/>
<stop offset="0.3236" stop-color="#041055"/>
<stop offset="0.5107" stop-color="#030E45"/>
<stop offset="0.7204" stop-color="#020C3B"/>
<stop offset="1" stop-color="#020C38"/>
</linearGradient>
<linearGradient id="paint28_linear_412_1180" x1="366.489" y1="407.679" x2="371.381" y2="415.254" gradientUnits="userSpaceOnUse">
<stop stop-color="#FFD1C1"/>
<stop offset="0.3861" stop-color="#FFCFBF"/>
<stop offset="0.5877" stop-color="#FFC9B7"/>
<stop offset="0.7467" stop-color="#FFBDA9"/>
<stop offset="0.8825" stop-color="#FFAE97"/>
<stop offset="1" stop-color="#FF9A7F"/>
</linearGradient>
<linearGradient id="paint29_linear_412_1180" x1="332.337" y1="413.207" x2="350.284" y2="402.846" gradientUnits="userSpaceOnUse">
<stop stop-color="#FFD1C1"/>
<stop offset="0.3861" stop-color="#FFCFBF"/>
<stop offset="0.5877" stop-color="#FFC9B7"/>
<stop offset="0.7467" stop-color="#FFBDA9"/>
<stop offset="0.8825" stop-color="#FFAE97"/>
<stop offset="1" stop-color="#FF9A7F"/>
</linearGradient>
<linearGradient id="paint30_linear_412_1180" x1="334.5" y1="401.714" x2="365.414" y2="383.866" gradientUnits="userSpaceOnUse">
<stop stop-color="#FFD1C1"/>
<stop offset="0.3861" stop-color="#FFCFBF"/>
<stop offset="0.5877" stop-color="#FFC9B7"/>
<stop offset="0.7467" stop-color="#FFBDA9"/>
<stop offset="0.8825" stop-color="#FFAE97"/>
<stop offset="1" stop-color="#FF9A7F"/>
</linearGradient>
<linearGradient id="paint31_linear_412_1180" x1="344.238" y1="398.29" x2="352.339" y2="393.613" gradientUnits="userSpaceOnUse">
<stop stop-color="#FFD1C1"/>
<stop offset="0.3861" stop-color="#FFCFBF"/>
<stop offset="0.5877" stop-color="#FFC9B7"/>
<stop offset="0.7467" stop-color="#FFBDA9"/>
<stop offset="0.8825" stop-color="#FFAE97"/>
<stop offset="1" stop-color="#FF9A7F"/>
</linearGradient>
<linearGradient id="paint32_linear_412_1180" x1="356.445" y1="428.86" x2="400.41" y2="457.472" gradientUnits="userSpaceOnUse">
<stop stop-color="#FFD1C1"/>
<stop offset="0.3861" stop-color="#FFCFBF"/>
<stop offset="0.5877" stop-color="#FFC9B7"/>
<stop offset="0.7467" stop-color="#FFBDA9"/>
<stop offset="0.8825" stop-color="#FFAE97"/>
<stop offset="1" stop-color="#FF9A7F"/>
</linearGradient>
</defs>
</svg>
