<svg width="800" height="800" viewBox="0 0 800 800" fill="none" xmlns="http://www.w3.org/2000/svg">
<g filter="url(#filter0_n_412_1180)">
<rect width="800" height="800" rx="48" fill="url(#paint0_linear_412_1180)"/>
</g>
<path d="M141.368 618.042C141.368 618.042 47.3202 381.683 115 329.051C160.238 293.872 208.188 371.422 265.419 330.396C316.371 293.872 245.335 201.862 330.35 177.793C419.708 152.493 492.915 357.38 567.894 329.051C658.875 294.676 749.378 364.458 671.167 618.493L141.368 618.042Z" fill="#D4E8FF"/>
<path d="M67.7829 559.858C66.2041 555.582 64.6421 551.151 63.1404 546.689L66.8418 545.716C68.3338 550.149 69.8855 554.552 71.4542 558.799L67.7829 559.858ZM729.94 554.336L726.107 553.918C726.744 549.366 727.348 544.781 727.903 540.292L731.742 540.663C731.185 545.168 730.578 549.769 729.94 554.336ZM58.8769 533.423C57.5253 529.013 56.2148 524.521 54.981 520.072L58.7317 519.259C59.9581 523.682 61.2608 528.147 62.6043 532.531L58.8769 533.423ZM733.323 526.967L729.479 526.646C729.967 522.076 730.42 517.478 730.823 512.982L734.673 513.252C734.268 517.766 733.813 522.38 733.323 526.967ZM51.4527 506.641C50.3374 502.148 49.2763 497.605 48.2985 493.138L52.0896 492.49C53.061 496.929 54.1159 501.445 55.2241 505.91L51.4527 506.641ZM735.781 499.518L731.927 499.302C732.254 494.735 732.541 490.128 732.779 485.609L736.636 485.768C736.397 490.306 736.109 494.931 735.781 499.518ZM45.5312 479.567C44.6723 475.019 43.8772 470.433 43.1684 465.935L46.9928 465.464C47.6972 469.932 48.4871 474.487 49.34 479.005L45.5312 479.567ZM737.226 472.007L733.366 471.908C733.517 467.321 733.62 462.709 733.674 458.2L737.536 458.236C737.481 462.765 737.377 467.398 737.226 472.007ZM41.2303 452.249C40.6545 447.655 40.1536 443.035 39.7409 438.516L43.5897 438.241C43.9995 442.726 44.4967 447.312 45.068 451.873L41.2303 452.249ZM733.69 444.492C733.645 439.901 733.546 435.291 733.397 430.788L737.257 430.689C737.407 435.214 737.506 439.848 737.552 444.462L733.69 444.492ZM38.7286 424.748C38.4726 420.127 38.3026 415.488 38.2236 410.959L42.0847 410.906C42.1629 415.397 42.3315 419.998 42.5853 424.581L38.7286 424.748ZM732.776 417.097C732.511 412.512 732.185 407.912 731.808 403.424L735.659 403.17C736.039 407.684 736.366 412.312 736.633 416.923L732.776 417.097ZM42.1214 397.226L38.2607 397.155C38.3681 392.522 38.5756 387.882 38.8772 383.363L42.7324 383.563C42.433 388.039 42.2277 392.636 42.1214 397.226ZM730.468 389.778C729.952 385.194 729.368 380.616 728.732 376.17L732.563 375.742C733.203 380.217 733.791 384.826 734.311 389.44L730.468 389.778ZM43.9565 369.937L40.1143 369.596C40.639 364.98 41.2785 360.367 42.0151 355.884L45.8365 356.375C45.1077 360.808 44.4752 365.371 43.9565 369.937ZM726.57 362.614C725.767 358.059 724.885 353.521 723.949 349.126L727.743 348.494C728.687 352.924 729.576 357.497 730.386 362.088L726.57 362.614ZM269.876 362.132C264.51 361.384 260.629 359.225 255.253 355.497L257.694 352.852C262.404 356.109 265.805 358.064 270.287 358.738L269.876 362.132ZM283.274 354.011L279.835 352.459C281.602 349.399 283.165 345.153 284.479 339.839L288.251 340.568C286.847 346.247 285.219 350.644 283.274 354.011ZM243.92 345.707C240.844 342.679 237.557 339.194 233.87 335.053L236.904 332.943C240.539 337.025 243.774 340.454 246.793 343.427L243.92 345.707ZM48.4156 342.908L44.6246 342.258C45.6249 337.702 46.7568 333.159 47.9888 328.756L51.7376 329.575C50.5212 333.923 49.4034 338.409 48.4156 342.908ZM720.828 335.727C719.684 331.219 718.451 326.75 717.161 322.444L720.894 321.57C722.196 325.918 723.441 330.43 724.595 334.981L720.828 335.727ZM290.85 326.831L287.02 326.395C287.613 322.321 288.144 317.859 288.645 312.756L292.492 313.05C291.987 318.202 291.45 322.709 290.85 326.831ZM224.412 324.057C221.273 320.31 218.018 316.349 215.212 312.931L218.338 310.926C221.138 314.338 224.387 318.291 227.516 322.025L224.412 324.057ZM507.123 323.776C504.116 323.776 501.165 322.982 498.354 321.416L500.412 318.528C504.636 320.885 508.792 320.89 513.278 319.01L514.94 322.091C512.287 323.209 509.657 323.776 507.123 323.776ZM55.8451 316.421L52.1522 315.423C53.6865 310.988 55.3697 306.578 57.1555 302.314L60.7769 303.499C59.017 307.701 57.3578 312.049 55.8451 316.421ZM527.567 313.168L524.73 310.852C527.658 308.049 530.796 304.592 534.325 300.282L537.453 302.284C533.834 306.704 530.6 310.264 527.567 313.168ZM487.374 310.821C484.874 307.413 482.398 303.4 479.803 298.552L483.293 297.092C485.814 301.801 488.209 305.685 490.614 308.964L487.374 310.821ZM712.895 309.309C711.34 304.887 709.68 300.533 707.961 296.37L711.59 295.2C713.329 299.415 715.009 303.821 716.583 308.296L712.895 309.309ZM206.061 301.803C202.528 297.535 199.584 294.031 196.795 290.776L199.874 288.716C202.675 291.986 205.631 295.504 209.177 299.787L206.061 301.803ZM293.654 299.266L289.8 299.045C290.093 295.046 290.391 290.552 290.711 285.304L294.566 285.488C294.246 290.748 293.947 295.254 293.654 299.266ZM66.565 290.863L63.0322 289.485C65.1519 285.241 67.4109 281.074 69.8114 276.999L73.2356 278.577C70.8736 282.587 68.6513 286.687 66.565 290.863ZM546.3 290.863L543.073 288.987C545.817 285.299 548.652 281.392 551.521 277.445L554.769 279.291C551.893 283.248 549.056 287.158 546.3 290.863ZM473.587 285.815C471.837 281.937 470.03 277.706 468.061 272.88L471.693 271.722C473.648 276.512 475.441 280.708 477.173 284.551L473.587 285.815ZM702.281 283.686C700.205 279.411 698.009 275.259 695.754 271.345L699.195 269.796C701.488 273.777 703.72 277.997 705.829 282.339L702.281 283.686ZM187.261 279.961C183.757 276.116 180.496 272.695 177.29 269.5L180.179 267.235C183.425 270.471 186.726 273.933 190.268 277.82L187.261 279.961ZM295.37 271.719L291.513 271.547C291.774 266.987 292.032 262.425 292.308 257.782L296.164 257.961C295.888 262.601 295.63 267.162 295.37 271.719ZM563.235 267.763L560.014 265.88C563.24 261.565 566.126 257.832 568.836 254.469L571.981 256.449C569.298 259.78 566.437 263.481 563.235 267.763ZM80.8937 266.799L77.6392 264.962C80.6736 260.761 83.8022 256.968 86.9386 253.686L89.8886 255.888C86.8622 259.055 83.8363 262.725 80.8937 266.799ZM462.905 259.855C461.134 255.268 459.397 250.678 457.931 246.794L461.594 245.714C463.058 249.593 464.792 254.175 466.56 258.752L462.905 259.855ZM166.673 259.616C162.726 256.22 158.846 253.219 155.139 250.698L157.494 247.993C161.318 250.594 165.313 253.682 169.367 257.17L166.673 259.616ZM688.256 259.47C685.489 255.479 682.588 251.704 679.633 248.251L682.713 246.192C685.744 249.734 688.716 253.601 691.549 257.687L688.256 259.47ZM100.719 246.602L98.3773 243.888C102.989 240.779 107.788 238.537 112.642 237.224L113.772 240.488C109.357 241.682 104.965 243.739 100.719 246.602ZM581.295 245.558L578.295 243.409C581.916 239.46 585.348 236.061 588.785 233.019L591.517 235.432C588.175 238.389 584.831 241.701 581.295 245.558ZM297.029 244.216L293.174 244.013C293.509 239.052 293.841 234.546 294.189 230.239L298.041 230.483C297.694 234.776 297.363 239.268 297.029 244.216ZM142.372 243.502C137.553 241.382 132.814 240.029 128.285 239.481L128.809 236.099C133.755 236.698 138.897 238.161 144.092 240.446L142.372 243.502ZM669.7 237.984C665.982 234.617 662.133 231.646 658.259 229.152L660.533 226.393C664.581 228.999 668.595 232.097 672.463 235.6L669.7 237.984ZM453.005 233.732C451.084 228.654 449.502 224.513 448.024 220.701L451.676 219.594C453.158 223.415 454.744 227.563 456.668 232.65L453.005 233.732ZM603.074 226.719L600.861 223.922C605.61 220.985 610.406 218.81 615.118 217.457L616.31 220.704C611.964 221.952 607.51 223.976 603.074 226.719ZM645.208 222.537C640.425 220.754 635.584 219.65 630.819 219.257L631.178 215.858C636.337 216.284 641.562 217.473 646.708 219.392L645.208 222.537ZM299.276 216.779L295.43 216.477C295.911 211.688 296.435 207.063 296.986 202.73L300.824 203.112C300.276 207.418 299.755 212.016 299.276 216.779ZM442.885 207.719C441.02 203.115 439.261 198.907 437.51 194.854L441.117 193.636C442.878 197.711 444.645 201.941 446.52 206.567L442.885 207.719ZM302.79 189.502L298.968 189.013C299.749 184.235 300.607 179.639 301.519 175.354L305.314 175.985C304.412 180.223 303.563 184.77 302.79 189.502ZM431.773 182.11C429.698 177.698 427.607 173.477 425.556 169.564L429.06 168.13C431.132 172.084 433.244 176.346 435.339 180.8L431.773 182.11ZM308.594 162.628L304.847 161.801C306.194 157.034 307.679 152.545 309.26 148.457L312.914 149.561C311.368 153.558 309.914 157.955 308.594 162.628ZM418.699 157.314C416.159 153.087 413.564 149.117 410.988 145.517L414.251 143.692C416.88 147.365 419.523 151.41 422.109 155.714L418.699 157.314ZM318.713 137.056L315.25 135.545C317.786 131.004 320.598 126.989 323.608 123.611L326.641 125.723C323.797 128.914 321.13 132.727 318.713 137.056ZM402.137 134.447C398.763 130.708 395.281 127.396 391.786 124.603L394.376 122.071C398.025 124.987 401.652 128.435 405.156 132.318L402.137 134.447ZM337.415 116.876L335.333 114.001C339.907 111.413 344.947 109.731 350.313 109L350.901 112.373C346.07 113.031 341.533 114.546 337.415 116.876ZM379.603 116.874C375.104 114.73 370.419 113.265 365.676 112.518L366.353 109.158C371.5 109.968 376.575 111.554 381.435 113.869L379.603 116.874Z" fill="#DCE6FF"/>
<path d="M754.412 530.64C722.367 525.433 727.596 572.471 681.919 572.471C640.157 572.471 626.796 393.345 596.411 444.549C440.636 707.053 531.091 332.914 407.207 328.16C351.189 326.01 313.862 391.483 300.097 507.406C280.144 612.204 233.87 427.474 186.249 444.65C155.984 455.566 169.367 584.399 119.482 582.407C73.8356 580.584 77.2395 525.434 45.1952 530.64C10.6941 536.245 0.38916 619.5 0.38916 619.5H799.217C799.217 619.5 788.913 536.245 754.412 530.64Z" fill="#EEF7FF"/>
<path d="M726.034 581.556C696.554 579.333 701.365 599.418 659.343 599.418C620.923 599.418 621.979 554.404 596.268 544.837C548.921 527.22 509.887 616.385 491.531 571.635C456.667 452.893 354.985 393.345 308.076 571.635C289.72 616.385 246.793 536.535 203.338 544.837C176.59 549.948 178.684 599.418 140.263 599.418C98.2416 599.418 103.052 579.333 73.5723 581.556C41.8323 583.949 32.3521 619.501 32.3521 619.501H767.255C767.255 619.501 757.774 583.949 726.034 581.556Z" fill="#DCE6FF"/>
<path d="M0.389341 619.5C0.389341 619.5 -4.30575 639.222 18.9126 643.867C50.6704 650.22 236.769 658.288 191.482 670.972C165.918 678.132 204.533 687.855 329.049 691.434C453.565 695.014 667.226 680.987 595.375 660.231C523.524 639.476 817.049 662.673 799.217 619.5L0.389341 619.5Z" fill="#CFDDF9"/>
<path d="M681.386 332.983L697.256 308.181L682.984 299.091C684.691 293.951 685.665 288.669 685.936 283.387L702.645 279.707L696.288 250.974L680.207 254.515C677.569 248.95 674.058 243.752 669.722 239.151L679.093 224.505L654.233 208.672L644.862 223.318C639.281 221.472 633.532 220.487 627.797 220.32L624.458 205.227L595.658 211.569L598.997 226.662C593.865 229.222 589.067 232.53 584.782 236.548L570.51 227.458L554.64 252.261L568.912 261.351C566.92 267.346 565.929 273.535 565.884 279.691L549.804 283.232L556.161 311.966L572.87 308.286C575.345 312.964 578.456 317.346 582.174 321.291L572.802 335.937L597.662 351.77L607.034 337.124C612.615 338.97 618.364 339.955 624.098 340.122L627.99 357.713L656.79 351.371L652.899 333.78C658.03 331.22 662.829 327.912 667.113 323.894L681.386 332.983ZM612.964 303.778C582.15 286.631 608.011 239.927 638.934 256.664C669.746 273.811 643.885 320.515 612.964 303.778Z" fill="#F36F56"/>
<path d="M435.141 560.032H351.562V635.557H435.141V560.032Z" fill="#255084"/>
<path d="M435.141 515.708H351.562V601.486H435.141V515.708Z" fill="#1D3F70"/>
<path d="M521.413 650.351H265.29C260.148 650.351 255.98 646.192 255.98 641.063C255.98 635.934 260.148 631.775 265.29 631.775H521.413C526.554 631.775 530.722 635.934 530.722 641.063C530.721 646.192 526.554 650.351 521.413 650.351Z" fill="#1D3F70"/>
<path d="M157.59 570.278V296.43C157.59 286.007 166.039 277.558 176.461 277.558H610.24C620.662 277.558 629.111 286.007 629.111 296.43V570.278C629.111 580.7 620.662 589.149 610.24 589.149H176.461C166.039 589.149 157.59 580.7 157.59 570.278Z" fill="#255084"/>
<path d="M393.351 581.283C398.808 581.283 403.232 576.869 403.232 571.424C403.232 565.98 398.808 561.566 393.351 561.566C387.893 561.566 383.469 565.98 383.469 571.424C383.469 576.869 387.893 581.283 393.351 581.283Z" fill="#1D3F70"/>
<path d="M610.649 295.86V371.203L498.353 540.292L176.054 432.814V295.86H610.649Z" fill="#A9BFF7"/>
<path d="M176.054 432.814C176.054 432.814 240.899 373.577 306.645 409.707C372.391 445.838 384.251 518.294 472.382 511.034C562.835 503.583 502.561 383.186 610.649 371.203V549.09H176.054V432.814Z" fill="#F36F56"/>
<path d="M176.054 295.86C176.054 295.86 192.536 364.638 297.396 348.353C393.351 333.451 388.46 434.834 451.22 438.473C513.979 442.112 532.437 369.464 555.571 344.007C578.705 318.549 610.649 322.895 610.649 322.895V295.86H176.054Z" fill="#D9E4F9"/>
<path d="M374.725 447.458C374.651 447.458 374.576 447.44 374.506 447.402L240.68 373.977C240.459 373.856 240.378 373.579 240.499 373.357C240.621 373.137 240.899 373.056 241.119 373.177L374.945 446.602C375.167 446.723 375.247 447.001 375.126 447.222C375.043 447.373 374.886 447.458 374.725 447.458Z" fill="#1D3F70"/>
<path d="M307.812 406.194H302.833V411.162H307.812V406.194Z" fill="#1D3F70"/>
<path d="M240.899 375.67C242.057 375.67 242.996 374.733 242.996 373.577C242.996 372.421 242.057 371.484 240.899 371.484C239.74 371.484 238.801 372.421 238.801 373.577C238.801 374.733 239.74 375.67 240.899 375.67Z" fill="#1D3F70"/>
<path d="M376.823 447.002C376.823 448.157 375.884 449.094 374.725 449.094C373.567 449.094 372.628 448.157 372.628 447.002C372.628 445.846 373.567 444.909 374.725 444.909C375.884 444.909 376.823 445.846 376.823 447.002Z" fill="#1D3F70"/>
<path d="M474.871 508.437H469.892V513.404H474.871V508.437Z" fill="#1D3F70"/>
<path d="M384.251 518.751C384.015 518.751 383.816 518.57 383.796 518.332C383.775 518.08 383.962 517.86 384.214 517.839L563.28 503.083C563.541 503.061 563.752 503.249 563.772 503.5C563.794 503.752 563.606 503.972 563.355 503.992L384.288 518.749C384.276 518.75 384.263 518.751 384.251 518.751Z" fill="#1D3F70"/>
<path d="M386.348 518.294C386.348 519.449 385.409 520.386 384.251 520.386C383.092 520.386 382.153 519.449 382.153 518.294C382.153 517.138 383.093 516.201 384.251 516.201C385.409 516.201 386.348 517.138 386.348 518.294Z" fill="#1D3F70"/>
<path d="M565.415 503.537C565.415 504.693 564.476 505.63 563.318 505.63C562.159 505.63 561.22 504.693 561.22 503.537C561.22 502.382 562.159 501.445 563.318 501.445C564.476 501.445 565.415 502.382 565.415 503.537Z" fill="#1D3F70"/>
<path d="M491.69 384.853H569.752C575.082 384.853 579.403 389.173 579.403 394.504V436.789C579.403 442.12 575.083 446.441 569.752 446.441H491.69C486.36 446.441 482.039 442.12 482.039 436.789V394.504C482.039 389.173 486.36 384.853 491.69 384.853Z" fill="white"/>
<path d="M565.923 412.836V398.788H551.843V412.836H565.923Z" fill="#467CDB"/>
<path d="M565.923 432.505V418.457H551.842V432.505H565.923Z" fill="#FF7B7B"/>
<path d="M551.843 412.836V398.788H537.762V412.836H551.843Z" fill="#DEE3FC"/>
<path d="M551.843 432.505V418.457H537.762V432.505H551.843Z" fill="#FF6666"/>
<path d="M537.762 412.836V398.788H523.681V412.836H537.762Z" fill="#B2C1F9"/>
<path d="M537.762 432.504V418.456H523.681V432.504H537.762Z" fill="#F95C58"/>
<path d="M523.681 412.836V398.788H509.6V412.836H523.681Z" fill="#467CDB"/>
<path d="M523.681 432.505V418.457H509.6V432.505H523.681Z" fill="#EB5648"/>
<path d="M509.6 412.836V398.788H495.519V412.836H509.6Z" fill="#1F4FD8"/>
<path d="M509.6 432.505V418.457H495.519V432.505H509.6Z" fill="#CE3932"/>
<path d="M333.963 358.599H234.364C230.304 358.599 227.013 355.308 227.013 351.247V315.326C227.013 311.266 230.304 307.974 234.364 307.974H333.962C338.022 307.974 341.314 311.265 341.314 315.326V351.247C341.314 355.308 338.023 358.599 333.963 358.599Z" fill="#1F4FD8"/>
<path d="M248.921 323.957H236.452V336.397H248.921V323.957Z" fill="#467CDB"/>
<path d="M255.156 330.176H242.687V342.616H255.156V330.176Z" fill="#467CDB"/>
<path d="M274.494 323.957H262.025V336.397H274.494V323.957Z" fill="#467CDB"/>
<path d="M280.729 330.176H268.26V342.616H280.729V330.176Z" fill="#A9BFF7"/>
<path d="M300.069 323.957V330.177H293.833V336.396H287.598V323.957H300.069Z" fill="#A9BFF7"/>
<path d="M300.068 330.177H293.833V336.396H300.068V330.177Z" fill="#467CDB"/>
<path d="M306.302 330.177V342.617H293.833V336.396H300.068V330.177H306.302Z" fill="#A9BFF7"/>
<path d="M325.642 323.957V330.177H319.407V336.397H313.171V323.957H325.642Z" fill="#467CDB"/>
<path d="M325.642 330.177H319.407V336.396H325.642V330.177Z" fill="#A9BFF7"/>
<path d="M331.875 330.177V342.617H319.407V336.397H325.642V330.177H331.875Z" fill="#467CDB"/>
<path d="M303.605 525.85H268.971C264.305 525.85 260.522 522.067 260.522 517.401V482.887C260.522 478.221 264.305 474.438 268.971 474.438H303.605C308.271 474.438 312.053 478.221 312.053 482.887V517.401C312.053 522.067 308.271 525.85 303.605 525.85Z" fill="#A9BFF7"/>
<path d="M299.053 498.388V512.872H284.518V498.388H299.053ZM302.781 494.66H280.79V516.601H302.781V494.66Z" fill="white"/>
<path d="M291.786 483.689H269.794V505.63H291.786V483.689Z" fill="#1F4FD8"/>
<path d="M280.789 517.174C280.642 517.174 280.496 517.118 280.383 517.006C280.16 516.782 280.16 516.418 280.384 516.195L302.376 494.254C302.601 494.03 302.964 494.03 303.187 494.254C303.411 494.478 303.411 494.842 303.187 495.065L281.195 517.007C281.083 517.118 280.936 517.174 280.789 517.174Z" fill="#EB5648"/>
<path d="M133.073 361.764V253.105C133.073 248.137 137.101 244.11 142.068 244.11H194.281C199.248 244.11 203.276 248.137 203.276 253.105V361.764C203.276 366.732 199.248 370.759 194.281 370.759H142.068C137.101 370.759 133.073 366.732 133.073 361.764Z" fill="#1F4FD8"/>
<path d="M193.603 354.024L186.652 347.088C187.732 345.792 188.321 344.176 188.321 342.469C188.321 340.534 187.566 338.715 186.194 337.347C183.364 334.524 178.761 334.524 175.931 337.347C174.559 338.715 173.804 340.534 173.804 342.469C173.804 344.404 174.559 346.223 175.931 347.592C177.346 349.003 179.204 349.709 181.062 349.709C182.709 349.709 184.354 349.153 185.692 348.045L192.646 354.983L193.603 354.024ZM176.888 346.632C175.773 345.52 175.159 344.042 175.159 342.469C175.159 340.896 175.773 339.418 176.888 338.306C178.038 337.158 179.551 336.584 181.062 336.584C182.575 336.584 184.087 337.158 185.237 338.306C186.352 339.418 186.966 340.897 186.966 342.469C186.966 344.042 186.352 345.52 185.237 346.632C182.935 348.929 179.19 348.929 176.888 346.632Z" fill="white"/>
<path d="M183.803 304.637C181.556 304.637 179.308 303.783 177.597 302.076C175.939 300.422 175.026 298.222 175.026 295.882C175.026 293.542 175.939 291.343 177.597 289.688C181.019 286.274 186.587 286.274 190.009 289.688C191.668 291.343 192.581 293.542 192.581 295.882C192.581 298.222 191.667 300.422 190.009 302.076C188.298 303.783 186.051 304.637 183.803 304.637ZM183.803 288.482C181.902 288.482 180.001 289.204 178.554 290.648C177.153 292.046 176.381 293.905 176.381 295.882C176.381 297.86 177.153 299.718 178.554 301.117C181.449 304.004 186.158 304.004 189.052 301.117C190.454 299.718 191.225 297.859 191.225 295.882C191.225 293.905 190.454 292.046 189.052 290.648C187.605 289.204 185.704 288.482 183.803 288.482Z" fill="white"/>
<path d="M189.794 313.601L176.849 326.517L177.806 327.476L190.751 314.561L189.794 313.601Z" fill="white"/>
<path d="M145.456 263.022L156.878 270.634L150.456 270.063C150.416 270.059 150.376 270.058 150.336 270.058C149.811 270.058 149.328 270.363 149.106 270.846L146.41 276.702L145.456 263.022ZM143.912 260.365L145.426 282.078L150.336 271.413L162.054 272.454L143.912 260.365Z" fill="white"/>
<path d="M174.732 260.365L176.246 282.079L181.156 271.413L192.874 272.455L174.732 260.365Z" fill="white"/>
<path d="M145.454 313.3V316.741H146.809V314.655H152.305V326.431H150.246V327.786H155.72V326.431H153.66V314.655H159.157V316.741H160.512V313.3H145.454Z" fill="white"/>
<path d="M155.688 292.511L142.743 305.427L143.7 306.386L156.645 293.471L155.688 292.511Z" fill="white"/>
<path d="M154.41 290.238C152.592 290.238 151.12 291.707 151.12 293.52C151.12 291.707 149.647 290.238 147.829 290.238C149.647 290.238 151.12 288.769 151.12 286.955C151.12 288.768 152.592 290.238 154.41 290.238Z" fill="white"/>
<path d="M160.875 288.337C159.504 288.337 158.393 289.445 158.393 290.813C158.393 289.446 157.282 288.337 155.911 288.337C157.282 288.337 158.393 287.229 158.393 285.861C158.393 287.229 159.504 288.337 160.875 288.337Z" fill="white"/>
<path d="M162.741 294.471C161.37 294.471 160.259 295.579 160.259 296.947C160.259 295.579 159.149 294.471 157.777 294.471C159.149 294.471 160.259 293.363 160.259 291.995C160.259 293.363 161.371 294.471 162.741 294.471Z" fill="white"/>
<path d="M161.631 336.587C161.04 335.996 160.08 335.996 159.488 336.586L157.784 338.283L157.153 337.653C156.561 337.062 155.602 337.062 155.01 337.651C154.518 338.141 154.441 338.881 154.764 339.458L144.04 350.141C143.508 350.672 143.214 351.378 143.214 352.129C143.213 352.88 143.506 353.585 144.038 354.117C144.586 354.665 145.308 354.939 146.029 354.939C146.749 354.939 147.469 354.666 148.018 354.12L158.744 343.434C159.321 343.758 160.063 343.681 160.555 343.192C161.147 342.602 161.148 341.644 160.556 341.053L159.925 340.423L161.63 338.725C162.222 338.136 162.222 337.178 161.631 336.587ZM147.061 353.16C146.491 353.728 145.564 353.727 144.995 353.158C144.72 352.883 144.568 352.518 144.568 352.13C144.569 351.741 144.721 351.376 144.996 351.102L155.679 340.46L157.741 342.521L147.061 353.16Z" fill="white"/>
<path d="M394.575 254.07H238.196C233.618 254.07 229.907 250.359 229.907 245.781V219.826C229.907 215.248 233.618 211.537 238.196 211.537H394.575C399.153 211.537 402.864 215.248 402.864 219.826V245.781C402.864 250.359 399.153 254.07 394.575 254.07Z" fill="#1F4FD8"/>
<path d="M242.12 224.373H240.589V242.767H242.12V224.373Z" fill="white"/>
<path d="M252.314 226.501H243.274V231.716H252.314V226.501Z" fill="white"/>
<path d="M255.648 233.259H243.274V238.474H255.648V233.259Z" fill="white"/>
<path d="M309.893 224.373H308.362V242.767H309.893V224.373Z" fill="white"/>
<path d="M298.168 231.716H307.207V226.501H298.168V231.716Z" fill="white"/>
<path d="M294.834 238.474H307.208V233.259H294.834V238.474Z" fill="white"/>
<path d="M276.006 224.373H274.476V242.767H276.006V224.373Z" fill="white"/>
<path d="M280.735 226.501H269.747V231.716H280.735V226.501Z" fill="white"/>
<path d="M282.761 233.259H267.72V238.474H282.761V233.259Z" fill="white"/>
<path d="M364.678 232.805H346.241V234.335H364.678V232.805Z" fill="white"/>
<path d="M362.544 239.051V228.089H357.317V239.051H362.544Z" fill="white"/>
<path d="M355.771 241.073V226.067H350.543V241.073H355.771Z" fill="white"/>
<path d="M337.938 224.361H319.501V225.892H337.938V224.361Z" fill="white"/>
<path d="M334.72 237.969V227.007H329.493V237.969H334.72Z" fill="white"/>
<path d="M327.946 242.013V227.007H322.719V242.013H327.946Z" fill="white"/>
<path d="M391.417 241.248H372.98V242.778H391.417V241.248Z" fill="white"/>
<path d="M382.972 229.171V240.133H388.199V229.171H382.972Z" fill="white"/>
<path d="M376.198 225.127V240.133H381.425V225.127H376.198Z" fill="white"/>
<path d="M213.159 201.527L215.16 191.249L207.269 189.72C207.294 188.057 207.182 186.413 206.933 184.805L214.524 182.196L211.106 172.296L203.504 174.908C202.699 173.474 201.776 172.109 200.744 170.827L206.018 164.772L198.096 157.904L192.83 163.951C191.428 163.118 189.943 162.399 188.388 161.799L189.92 153.927L179.618 151.93L178.085 159.803C176.418 159.778 174.771 159.889 173.159 160.138L170.543 152.564L160.62 155.975L163.239 163.559C161.802 164.362 160.433 165.283 159.149 166.312L153.08 161.051L146.196 168.954L152.256 174.209C151.421 175.607 150.701 177.089 150.1 178.64L142.209 177.111L140.208 187.39L148.099 188.919C148.074 190.582 148.186 192.225 148.435 193.834L140.843 196.443L144.262 206.343L151.863 203.73C152.668 205.165 153.592 206.53 154.623 207.811L149.349 213.866L157.271 220.734L162.538 214.688C163.94 215.521 165.425 216.239 166.98 216.839L165.447 224.712L175.75 226.708L177.283 218.835C178.95 218.86 180.597 218.749 182.209 218.5L184.824 226.074L194.747 222.663L192.128 215.079C193.566 214.276 194.934 213.355 196.219 212.326L202.287 217.588L209.172 209.684L203.111 204.43C203.946 203.032 204.666 201.549 205.268 199.998L213.159 201.527ZM174.863 203.81C155.834 199.785 161.353 171.452 180.506 174.829C199.535 178.854 194.016 207.187 174.863 203.81Z" fill="#F99370"/>
<path d="M703.254 418.237L704.631 411.168L699.204 410.116C699.221 408.972 699.144 407.842 698.973 406.736L704.194 404.942L701.843 398.133L696.615 399.93C696.061 398.943 695.426 398.005 694.716 397.123L698.344 392.959L692.895 388.235L689.273 392.393C688.309 391.82 687.287 391.326 686.218 390.914L687.272 385.499L680.186 384.126L679.132 389.54C677.985 389.524 676.852 389.6 675.744 389.771L673.945 384.562L667.121 386.907L668.922 392.123C667.933 392.676 666.992 393.309 666.108 394.017L661.935 390.398L657.2 395.834L661.368 399.448C660.794 400.41 660.299 401.429 659.885 402.496L654.458 401.444L653.082 408.514L658.509 409.566C658.492 410.709 658.568 411.839 658.74 412.946L653.519 414.74L655.87 421.549L661.098 419.752C661.652 420.738 662.287 421.677 662.996 422.559L659.369 426.723L664.817 431.447L668.44 427.288C669.404 427.861 670.426 428.355 671.495 428.768L670.441 434.182L677.527 435.555L678.581 430.141C679.727 430.157 680.86 430.081 681.969 429.91L683.768 435.119L690.592 432.773L688.791 427.557C689.78 427.005 690.721 426.371 691.605 425.663L695.778 429.282L700.513 423.846L696.345 420.232C696.919 419.271 697.414 418.251 697.828 417.184L703.254 418.237ZM676.915 419.807C663.827 417.039 667.624 397.552 680.796 399.875C693.884 402.643 690.088 422.13 676.915 419.807Z" fill="#7689D6"/>
<path d="M487.028 149.271C487.028 149.271 490.846 142.051 502.294 144.281C513.742 146.51 516.334 161.046 520.174 167.682C528.307 181.741 530.66 196.63 526.322 203.741C521.504 211.637 511.026 208.453 495.701 206.911C479.346 205.266 472.6 191.04 482.934 171.633L487.028 149.271Z" fill="#662948"/>
<path d="M491.522 183.004C486.987 189.527 483.874 221.483 483.761 223.967C478.49 223.538 465.826 222.505 460.426 222.064C458.992 210.346 474.736 186.46 488.949 183.727C488.949 183.723 488.949 183.723 488.949 183.723C490.551 183.194 491.522 183.004 491.522 183.004Z" fill="#3A72AA"/>
<path d="M423.658 358.782L446.456 358.71C446.426 355.074 445.513 347.727 446.268 343.585C446.268 343.585 436.418 344.775 436.418 344.775C436.675 346.77 437.247 351.096 433.924 352.104C429.619 353.411 424.946 352.962 422.24 356.239C421.535 357.34 422.347 358.786 423.658 358.782Z" fill="#F99370"/>
<path d="M447.116 356.518C447.026 357.287 446.815 358.035 446.431 358.71L423.411 358.783C422.292 358.787 421.478 357.69 421.846 356.635C422.712 354.17 425.577 350.597 436.186 350.009C436.186 350.009 440.066 350.656 445.998 349.565C445.997 349.565 447.488 353.398 447.116 356.518Z" fill="#1D3F70"/>
<path d="M428.645 355.803C428.463 355.801 428.29 355.692 428.217 355.514C427.367 353.44 425.843 352.809 425.779 352.784C424.572 350.921 428.045 352.238 429.08 355.161C429.211 355.46 428.969 355.811 428.645 355.803Z" fill="#E8C0A6"/>
<path d="M432.268 355.355C432.071 355.353 431.889 355.226 431.827 355.028C431.074 352.626 428.971 351.521 428.95 351.51C427.853 349.344 431.888 351.653 432.717 354.75C432.815 355.044 432.577 355.362 432.268 355.355Z" fill="#E8C0A6"/>
<path d="M436.39 354.836C436.199 354.834 436.021 354.715 435.954 354.525C435.075 352.03 433.06 350.677 433.039 350.663C432.193 348.392 435.86 351.137 436.834 354.216C436.945 354.512 436.705 354.844 436.39 354.836Z" fill="#E8C0A6"/>
<path d="M421.884 356.598L447.142 356.518C447.051 357.287 446.841 358.035 446.456 358.71L423.436 358.783C422.301 358.788 421.484 357.657 421.884 356.598Z" fill="#395B96"/>
<path d="M496.557 272.514C485.34 271.956 465.842 265.639 457.3 279.815C447.948 295.296 449.95 328.311 450.759 344.264C438.41 348.125 431.819 344.116 431.819 344.116C426.827 311.433 410.126 236.947 467.835 247.713C467.834 247.711 506.589 248.013 506.589 248.013C512.968 261.245 507.085 272.376 496.557 272.514Z" fill="#EB5648"/>
<path d="M450.995 358.994L473.793 358.921C473.763 355.285 472.849 347.939 473.605 343.796C473.605 343.796 463.755 344.988 463.755 344.988C464.012 346.982 464.661 351.309 461.261 352.316C456.947 353.593 452.283 353.173 449.577 356.45C448.872 357.552 449.684 358.998 450.995 358.994Z" fill="#F99370"/>
<path d="M474.479 356.729C474.388 357.499 474.177 358.246 473.793 358.921L450.773 358.994C449.653 358.998 448.84 357.901 449.208 356.847C450.074 354.382 452.974 350.746 463.583 350.159C463.583 350.159 467.404 350.918 473.336 349.827C473.336 349.827 474.851 353.61 474.479 356.729Z" fill="#1D3F70"/>
<path d="M455.981 356.014C455.8 356.013 455.627 355.904 455.554 355.725C454.703 353.652 453.18 353.021 453.115 352.995C451.908 351.133 455.382 352.45 456.416 355.373C456.547 355.672 456.306 356.023 455.981 356.014Z" fill="#E8C0A6"/>
<path d="M459.605 355.567C459.408 355.565 459.226 355.438 459.164 355.24C458.41 352.838 456.307 351.733 456.286 351.723C455.189 349.556 459.225 351.866 460.054 354.962C460.152 355.257 459.914 355.573 459.605 355.567Z" fill="#E8C0A6"/>
<path d="M463.727 355.047C463.536 355.046 463.358 354.926 463.291 354.736C462.412 352.242 460.396 350.888 460.376 350.875C459.53 348.604 463.197 351.349 464.171 354.428C464.282 354.724 464.042 355.056 463.727 355.047Z" fill="#E8C0A6"/>
<path d="M449.221 356.809L474.479 356.729C474.388 357.499 474.178 358.246 473.793 358.921L450.773 358.994C449.638 358.999 448.821 357.869 449.221 356.809Z" fill="#395B96"/>
<path d="M470.989 247.735L467.486 271.815C452.951 277.396 451.789 292.6 450.333 309.713C443.829 283.205 444.62 256.467 470.989 247.735Z" fill="#CE3932"/>
<path d="M514.647 274.934C502.272 281.005 487.685 272.905 479.297 289.473C472.519 303.984 476.038 331.842 477.77 344.473C465.422 348.334 458.83 344.326 458.83 344.326C451.747 316.111 435.555 250.543 482.78 247.828C495.708 247.518 512.691 247.763 524.119 247.166C524.119 247.166 529.948 267.427 514.647 274.934Z" fill="#EB5648"/>
<path d="M471.505 214.054C471.279 214.053 471.099 213.855 471.121 213.631C471.943 207.248 478.793 199.018 479.681 199.467C480.283 200.253 472.405 207.052 471.894 213.703C471.875 213.905 471.704 214.055 471.505 214.054Z" fill="#23659B"/>
<path d="M524.401 240.507C525.346 247.647 524.822 250.657 524.822 250.657C505.769 252.87 493.766 252.887 470.614 249.477C485.594 205.847 452.424 233.717 491.522 183.004C491.615 183.012 501.01 183.935 501.095 183.941C511.912 192.19 518.836 203.069 524.401 240.507Z" fill="#3A72AA"/>
<path d="M430.658 249.923L481.952 250.322L472.032 212.732L421.049 212.335L430.658 249.923Z" fill="#163260"/>
<path d="M430.653 249.716L430.633 252.263L481.928 252.663L481.947 250.116L430.653 249.716Z" fill="#234270"/>
<path d="M471.262 212.727L473.097 212.741L482.808 250.144L507.149 250.333L507.13 252.88L481.079 252.677L481.097 250.399L471.262 212.727Z" fill="#0B274F"/>
<path d="M517.904 191.337C529.659 200.27 535.85 216.231 532.614 230.676C531.354 238.795 526.153 246.485 518.094 248.723C514.112 250.276 495.573 252.68 496.487 246.128C496.792 244.557 498.196 243.988 499.554 243.579C501.792 242.811 504.1 241.961 506.237 241.012C510.065 239.067 514.981 237.255 515.844 232.992C517.689 223.034 513.67 213.254 506.253 206.686C506.266 206.694 506.218 206.656 506.328 206.737C496.266 199.137 507.781 183.831 517.904 191.337Z" fill="#F99370"/>
<path d="M524.557 246.992C518.515 249.626 512.807 250.405 508.423 250.529C508.423 250.529 509.486 244.012 504.78 241.287C531.563 221.306 493.602 212.513 501.138 182.906C529.682 183.637 558.822 227.039 524.557 246.992Z" fill="#3A72AA"/>
<path d="M485.157 250.162C485.157 250.162 487.504 242.211 501.134 243.235L503.934 250.308L485.157 250.162Z" fill="#F99370"/>
<path d="M511.588 250.334C509.636 250.535 508.423 250.53 508.423 250.53C508.423 250.53 509.486 244.012 504.78 241.287C504.78 241.287 505.949 240.542 507.48 239.215C507.48 239.215 512.63 243.05 511.588 250.334Z" fill="#23659B"/>
<path d="M507.228 240.328C506.884 240.333 506.703 239.867 506.979 239.646C518.885 229.228 513.181 218.056 506.204 210.795C505.862 210.438 506.443 209.891 506.778 210.273C514.198 217.79 519.775 230.159 507.228 240.328Z" fill="#23659B"/>
<path d="M511.333 250.372C509.132 249.07 517.547 249.777 523.975 246.807C524.173 246.728 524.399 246.823 524.479 247.021C524.559 247.22 524.463 247.445 524.264 247.525C517.625 250.181 511.419 250.371 511.333 250.372Z" fill="#23659B"/>
<path d="M503.683 194.864C503.394 196.901 501.434 197.522 500.947 197.409C494.102 194.428 498.915 203.712 496.083 204.632C493.701 205.405 493.443 202.312 491.373 202.126C488.367 201.857 487.743 203.486 486.695 202.485C485.235 201.091 488.814 198.704 488.377 196.226C488.071 194.487 484.594 196.206 484.668 192.63C484.75 189.118 488.82 183.888 488.95 183.726C488.95 183.722 488.95 183.722 488.95 183.722C492.783 181.733 501.138 182.906 501.138 182.906C501.138 182.906 502.244 182.672 503.305 183.082C503.806 185.942 504.251 191.807 503.683 194.864Z" fill="#F4D4BE"/>
<path d="M491.779 179.607L491.521 183.003C491.521 183.003 491.177 186.269 491.129 192.346C491.063 200.889 493.186 199.911 496.166 193.966C497.803 190.699 501.137 182.906 501.137 182.906L501.636 176.933L491.779 179.607Z" fill="#F99370"/>
<path d="M503.266 169.968C503.226 170.129 503.179 170.293 503.124 170.449C502.92 170.281 501.831 175.777 501.373 180.085C497.257 182.447 492.395 182.241 491.585 181.985C491.854 175.608 492.467 166.068 497.403 164.328C500.712 163.307 504.185 166.582 503.266 169.968Z" fill="#E57D61"/>
<path d="M491.018 148.859C478.659 147.282 476.544 166.749 484.895 173.983L491.018 148.859Z" fill="#662948"/>
<path d="M505.494 162.701C506.057 166.96 506.057 171.95 503.648 175.599L503.643 175.6C497.051 186.17 475.568 179.155 481.567 166.608C482.447 165.007 482.95 163.057 483.028 161.4C483.359 144.011 503.888 147.821 505.494 162.701Z" fill="#F99370"/>
<path d="M489.201 164.839C488.616 164.244 489.566 163.342 490.133 163.954C490.717 164.548 489.767 165.451 489.201 164.839Z" fill="#C16256"/>
<path d="M483.758 165.518C483.173 164.924 484.123 164.021 484.69 164.633C485.274 165.227 484.325 166.13 483.758 165.518Z" fill="#C16256"/>
<path d="M486.959 170.366C485.87 170.531 484.295 170.237 485.335 168.943C486.309 167.967 486.443 165.302 486.444 165.275C486.453 164.963 486.95 164.981 486.931 165.297C486.926 165.414 486.787 168.176 485.679 169.286C485.554 169.412 485.423 169.585 485.514 169.694C485.77 170.001 486.995 170.061 487.703 169.578C487.811 169.503 487.965 169.531 488.041 169.641C488.219 170.15 487.339 170.253 486.959 170.366Z" fill="#C16256"/>
<path d="M505.494 162.7C506.057 166.959 506.058 171.949 503.648 175.598L503.643 175.6C504.762 172.859 504.391 167.587 504.391 167.587L502.889 165.641C487.383 165.313 485.194 153.621 485.194 153.621C491.866 144.343 504.762 152.888 505.494 162.7Z" fill="#E57D61"/>
<path d="M486.394 152.165C486.394 152.165 488.61 163.677 502.641 164.481L506.431 160.623C508.258 150.631 496.417 140.294 486.394 152.165Z" fill="#662948"/>
<path d="M508.697 163.981C509.157 168.851 502.99 169.361 502.641 164.481C502.181 159.611 508.347 159.101 508.697 163.981Z" fill="#F99370"/>
<path d="M507.256 162.71C506.643 160.776 502.906 162.807 504.489 162.892C504.496 162.807 506.152 161.834 506.66 162.694C505.029 163.446 504.464 166.463 505.412 165.494C505.414 165.476 505.623 163.757 506.906 163.116C507.506 167.516 508.106 164.471 507.256 162.71Z" fill="#C16256"/>
<path d="M506.786 166.872C507 167.547 505.933 167.866 505.739 167.185C505.526 166.51 506.593 166.191 506.786 166.872Z" fill="#F4D4BE"/>
<path d="M491.017 206.828C491.026 208.238 488.807 208.221 488.839 206.811C488.829 205.402 491.048 205.419 491.017 206.828Z" fill="#23659B"/>
<path d="M488.818 214.462C488.828 215.872 486.609 215.854 486.64 214.445C486.631 213.036 488.85 213.053 488.818 214.462Z" fill="#23659B"/>
<path d="M488.765 221.346C488.774 222.756 486.555 222.739 486.587 221.329C486.577 219.92 488.796 219.937 488.765 221.346Z" fill="#23659B"/>
<path d="M450.482 338.783C450.657 342.2 450.758 344.263 450.758 344.263C438.41 348.124 431.819 344.116 431.819 344.116C431.819 344.116 431.589 342.417 431.081 339.458C431.228 339.532 438.907 343.374 450.482 338.783Z" fill="#CE3932"/>
<path d="M477.77 344.473C465.422 348.335 458.83 344.326 458.83 344.326C458.83 344.326 458.429 342.741 457.752 340.004C457.752 340.004 464.516 343.581 477.16 340.156C477.511 342.858 477.77 344.473 477.77 344.473Z" fill="#CE3932"/>
<path d="M485.902 250.087C483.478 250.143 492.347 244.173 494.967 245.67C494.987 245.884 494.83 246.072 494.617 246.092C489.649 246.571 486.32 250.075 485.902 250.087Z" fill="#E57D61"/>
<path d="M489.638 250.253C487.805 249.455 493.528 248.158 496.362 247.416C496.571 247.374 496.777 247.51 496.818 247.72C496.86 247.929 496.724 248.133 496.514 248.175C493.496 248.77 489.941 250.222 489.638 250.253Z" fill="#E57D61"/>
<path d="M491.237 162.883C491.177 162.883 491.117 162.863 491.067 162.823C489.528 161.603 488.117 161.985 488.058 162.002C487.911 162.044 487.759 161.959 487.717 161.813C487.675 161.668 487.758 161.516 487.904 161.473C487.973 161.453 489.638 160.986 491.41 162.393C491.53 162.487 491.55 162.66 491.455 162.779C491.4 162.848 491.319 162.883 491.237 162.883Z" fill="#C16256"/>
<path d="M487.373 172.299C487.412 172.254 487.465 172.221 487.527 172.208C489.453 171.812 490.063 170.486 490.088 170.43C490.15 170.291 490.312 170.228 490.451 170.289C490.59 170.35 490.654 170.511 490.593 170.65C490.565 170.717 489.856 172.291 487.639 172.747C487.489 172.778 487.343 172.682 487.313 172.533C487.295 172.447 487.32 172.362 487.373 172.299Z" fill="#C16256"/>
<path d="M483.131 163.484C483.077 163.484 483.024 163.468 482.977 163.436C482.851 163.35 482.819 163.178 482.906 163.053C482.942 163 483.811 161.756 485.245 161.822C485.397 161.829 485.514 161.958 485.507 162.11C485.5 162.262 485.372 162.382 485.219 162.372C484.092 162.327 483.368 163.354 483.361 163.365C483.306 163.443 483.219 163.485 483.131 163.484Z" fill="#C16256"/>
<path d="M235.312 466.28C235.312 466.28 238.405 466.737 240.556 465.11L237.639 463.954L235.312 466.28Z" fill="#F99370"/>
<path d="M124.143 648.628L123.737 648.417C123.737 648.7 123.387 649.684 123.103 649.684L111.114 649.93C110.83 649.93 110.656 649.397 110.656 649.114L109.633 648.822C109.633 647.031 109.781 646.381 110.574 644.995C113.489 641.13 110.009 623.845 110.11 619.33C109.391 618.095 122.734 619.064 122.921 618.772C123.22 618.772 123.457 619.027 123.433 619.325L121.863 639.076C121.158 642.826 124.042 645.093 124.143 648.628Z" fill="#F99370"/>
<path d="M183.439 650.35H159.559C157.475 650.266 157.491 648.145 157.875 646.5C159.19 640.571 156.866 626.957 156.435 620.86C156.32 619.744 157.199 618.773 158.323 618.773C175.944 618.594 169.944 616.165 168.907 635.15C168.38 644.81 175.708 644.037 180.223 644.769C183.196 644.984 188.167 649.032 183.439 650.35Z" fill="#F99370"/>
<path d="M156.966 647.878C157.03 649.046 157.611 650.378 158.967 650.349H183.737C189.579 648.188 181.186 640.456 169.75 640.502C164.51 641.936 158.267 640.943 158.267 640.943C158.267 640.943 156.581 643.085 156.966 647.878Z" fill="#103663"/>
<path d="M111.532 650.35H122.119C127.279 649.647 123.592 640.512 116.826 640.234C110.024 639.955 106.377 649.656 111.532 650.35Z" fill="#103663"/>
<path d="M177.832 647.005C178.04 647.005 178.237 646.882 178.32 646.677C179.272 644.334 180.989 643.617 181.061 643.587C182.4 641.479 178.51 642.981 177.345 646.283C177.2 646.618 177.468 647.012 177.832 647.005Z" fill="#E8C0A6"/>
<path d="M173.742 646.513C173.967 646.513 174.175 646.368 174.245 646.143C175.087 643.429 177.455 642.175 177.479 642.162C178.693 639.713 174.171 642.335 173.24 645.832C173.131 646.163 173.395 646.518 173.742 646.513Z" fill="#E8C0A6"/>
<path d="M169.087 645.942C169.305 645.942 169.509 645.806 169.584 645.589C170.567 642.771 172.837 641.236 172.86 641.221C174.203 637.603 166.791 644.975 169.087 645.942Z" fill="#E8C0A6"/>
<path d="M113.03 643.625C115.971 641.846 120.483 643.45 120.5 643.578C123.57 642.918 116.309 640.332 112.764 642.647C112.302 642.896 112.514 643.645 113.03 643.625Z" fill="#E8C0A6"/>
<path d="M185.47 647.878H156.966C157.071 648.746 157.311 649.589 157.748 650.35H183.737C185.017 650.352 185.925 649.071 185.47 647.878Z" fill="#0F2E54"/>
<path d="M111.533 650.35H122.12C123.467 650.352 124.551 649.219 124.467 647.878H109.185C109.103 649.219 110.186 650.352 111.533 650.35Z" fill="#0F2E54"/>
<path d="M166.396 467.241C189.707 484.994 218.607 477.721 235.145 465.373L236.684 458.395C198.538 461.344 189.222 442.572 164.849 434.048L166.971 441.739C166.971 441.74 166.136 466.673 166.396 467.241Z" fill="#CE3932"/>
<path d="M171.919 634.54C162.934 637.901 152.974 635.338 152.974 635.338C153.1 634.126 153.215 632.895 153.317 631.647C156.71 589.698 145.351 530.577 144.184 526.273C144.184 526.27 144.181 526.267 144.181 526.267C144.127 526.06 144.093 525.982 144.09 526.048C136.633 574.662 129.245 614.975 125.779 633.796C116.926 637.926 107.944 632.017 107.944 632.017C107.89 630.318 107.845 628.649 107.806 626.992C105.763 594.33 110.435 494.1 127.347 474.529C146.967 484.238 173.942 485.754 173.942 485.754C178.453 571.196 178.234 612.033 171.919 634.54Z" fill="#1D3F70"/>
<path d="M161.997 432.989C163.115 427.089 165.83 416.476 161.383 413.86C158.251 412.149 153.836 414.314 154.228 418.226C154.561 418.087 153.725 428.914 152.559 431.762C143.337 432.913 168.279 445.992 161.997 432.989Z" fill="#F99370"/>
<path d="M154.22 417.725C154.215 417.891 154.216 418.06 154.227 418.226C154.469 418.118 154.084 424.105 153.368 428.376C157.082 430.877 161.59 430.782 162.439 430.752C163.648 424.475 165.64 416.743 161.382 413.859C158.469 411.992 154.244 414.218 154.22 417.725Z" fill="#E57D61"/>
<path d="M165.922 632.844C177.013 581.224 165.73 513.462 164.035 512.965C163.167 513.369 173.024 581.469 165.922 632.844Z" fill="#163356"/>
<path d="M117.197 632.01L117.978 631.663C126.636 576.732 136.126 510.976 134.925 510.039C133.623 510.221 123.441 575.787 117.197 632.01Z" fill="#163356"/>
<path d="M116.632 503.112C129.692 512.97 161.695 516.042 174.736 511.332C179.132 509.475 179.746 494.703 179.236 480.197C178.455 460.859 173.793 446.971 164.848 434.048C164.738 434.003 162.976 433.159 162.001 432.995C162.044 434.761 161.639 439.867 152.561 431.762C152.52 431.797 149.138 431.909 149.138 431.909C135.402 438.756 129.524 453.313 125.238 469.902C118.662 495.351 114.042 499.271 116.632 503.112Z" fill="#EB5648"/>
<path d="M156.953 631.127L153.316 631.647C156.709 589.698 145.35 530.576 144.183 526.273C144.893 528.008 149.525 539.854 152.973 561.871C156.716 585.779 157.883 619.005 156.953 631.127Z" fill="#163356"/>
<path d="M149.139 431.909C152.128 436.994 165.394 444.953 164.85 434.048C164.738 433.996 163.52 433.184 162.002 432.994C162.023 433.28 162.542 440.781 152.56 431.761C152.571 431.836 151.012 431.3 149.139 431.909Z" fill="#CE3932"/>
<path d="M152.974 635.337C152.974 635.337 162.935 637.901 171.92 634.539L173.091 629.827C173.091 629.827 161.854 633.721 153.499 629.416C153.339 631.401 153.164 633.377 152.974 635.337Z" fill="#163356"/>
<path d="M107.804 626.991C107.844 628.647 107.889 630.319 107.944 632.015C107.944 632.015 116.925 637.926 125.78 633.796C125.78 633.796 126.07 632.249 126.59 629.416C126.59 629.415 117.055 632.254 107.804 626.991Z" fill="#163356"/>
<path d="M159.971 448.629C164.084 448.629 166.394 447.858 166.537 447.81L166.025 446.323C165.976 446.34 161.029 447.965 152.667 446.296L152.358 447.837C155.328 448.429 157.883 448.629 159.971 448.629Z" fill="#CE3932"/>
<path d="M159.299 454.675C164.441 454.675 167.507 453.482 167.682 453.412L167.098 451.953C167.042 451.976 161.412 454.143 152.663 452.447L152.362 453.989C154.959 454.493 157.287 454.675 159.299 454.675Z" fill="#CE3932"/>
<path d="M160.286 460.668C164.894 460.668 168.046 459.373 168.242 459.29L167.63 457.842C167.562 457.87 160.808 460.625 152.772 457.825L152.252 459.308C155.178 460.328 157.924 460.668 160.286 460.668Z" fill="#CE3932"/>
<path d="M170.628 409.841C170.628 409.841 170.279 404.823 168.527 401.443L165.722 403L170.628 409.841Z" fill="#8E4A35"/>
<path d="M171.477 424.53C167.217 429.13 160.208 430.154 154.976 427.521L154.974 427.522C154.584 427.307 154.213 427.07 153.857 426.806L153.852 426.806C136.943 411.504 157.387 383.956 168.547 406.49C172.252 412.807 178.293 415.981 171.477 424.53Z" fill="#F99370"/>
<path d="M163.874 411.806C164.018 411.482 163.872 411.102 163.547 410.958C163.221 410.813 162.84 410.959 162.695 411.284C162.55 411.608 162.696 411.988 163.021 412.133C163.347 412.277 163.729 412.131 163.874 411.806Z" fill="#C16256"/>
<path d="M169.245 410.621C169.39 410.297 169.244 409.917 168.918 409.773C168.593 409.628 168.211 409.774 168.066 410.099C167.921 410.423 168.067 410.803 168.393 410.947C168.719 411.092 169.1 410.946 169.245 410.621Z" fill="#C16256"/>
<path d="M167.854 416.27C167.479 416.334 167.093 416.334 166.762 416.246C166.631 416.212 166.554 416.079 166.588 415.949C166.622 415.819 166.758 415.743 166.886 415.776C167.717 415.995 168.854 415.528 168.994 415.15C169.043 415.018 168.861 414.898 168.7 414.822C167.279 414.147 166.217 411.586 166.173 411.478C166.122 411.353 166.182 411.211 166.307 411.16C166.436 411.107 166.574 411.169 166.625 411.293C166.636 411.318 167.66 413.787 168.91 414.382C169.592 414.706 169.517 415.144 169.452 415.318C169.285 415.771 168.59 416.145 167.854 416.27Z" fill="#C16256"/>
<path d="M167.719 404.936C164.128 403.28 157.879 405.283 154.766 405.42C154.766 405.42 155.704 410.693 150.531 414.753C150.332 419.657 149.639 421.829 154.976 427.522L154.974 427.522C154.584 427.307 154.214 427.07 153.858 426.806L153.852 426.807C137.577 412.224 156.356 384.911 167.719 404.936Z" fill="#E57D61"/>
<path d="M169.808 394.222C167.596 390.381 161.535 388.546 156.654 393.69C152.896 397.651 148.624 397.843 148.917 401.794C141.172 405.8 145.564 414.311 145.564 414.311L149.516 413.635C153.867 409.732 153.447 404.349 153.447 404.349L153.446 404.349C154.462 404.346 155.526 404.247 156.458 403.957C159.346 403.059 163.658 402.473 167.021 403.513C170.384 404.553 172.28 398.514 169.808 394.222Z" fill="#8E4A35"/>
<path d="M145.165 417.538C145.702 419.553 147.455 420.837 149.081 420.406C150.708 419.976 151.592 417.993 151.056 415.979C150.519 413.964 148.766 412.68 147.139 413.111C145.513 413.542 144.629 415.524 145.165 417.538Z" fill="#F99370"/>
<path d="M148.928 414.637C148.863 414.616 147.325 414.114 146.518 414.94C146.313 415.15 146.183 415.427 146.119 415.761C146.119 415.762 146.119 415.762 146.119 415.763C146.113 415.794 146.103 415.823 146.099 415.855C146.099 415.855 146.098 415.856 146.098 415.856C146.099 415.856 146.098 415.857 146.098 415.856C146.008 416.476 146.144 417.291 146.509 418.296C146.55 418.408 146.666 418.473 146.78 418.453C146.794 418.451 146.808 418.447 146.822 418.442C146.949 418.396 147.015 418.256 146.969 418.13C146.673 417.315 146.541 416.647 146.565 416.136C147.984 416.314 148.771 417.847 148.778 417.864C148.827 417.963 148.935 418.015 149.039 417.997C149.061 417.993 149.083 417.986 149.105 417.975C149.227 417.917 149.276 417.771 149.218 417.65C149.18 417.573 148.322 415.858 146.656 415.64C146.707 415.499 146.774 415.376 146.867 415.28C147.46 414.673 148.761 415.095 148.773 415.099C148.903 415.141 149.039 415.071 149.082 414.944C149.124 414.818 149.055 414.68 148.928 414.637Z" fill="#C16256"/>
<path d="M160.515 411.085C160.464 411.094 160.41 411.089 160.358 411.067C160.212 411.006 160.143 410.84 160.204 410.694C160.241 410.605 161.137 408.51 163.755 407.92C163.908 407.885 164.063 407.982 164.098 408.136C164.133 408.29 164.036 408.443 163.882 408.478C161.563 409 160.766 410.836 160.733 410.914C160.693 411.008 160.609 411.07 160.515 411.085Z" fill="#C16256"/>
<path d="M169.35 408.593C169.263 408.608 169.17 408.582 169.101 408.514C168.323 407.746 166.76 407.901 166.744 407.903C166.587 407.92 166.446 407.806 166.429 407.649C166.412 407.492 166.526 407.35 166.683 407.334C166.758 407.326 168.531 407.147 169.505 408.108C169.618 408.219 169.618 408.4 169.507 408.512C169.463 408.557 169.408 408.584 169.35 408.593Z" fill="#C16256"/>
<path d="M169.339 419.123L163.176 416.336C163.176 416.336 162.969 419.625 165.392 420.403C167.708 421.146 169.339 419.123 169.339 419.123Z" fill="#F9F8F3"/>
<path d="M169.386 419.405C169.332 419.414 169.274 419.408 169.22 419.383L163.058 416.596C162.914 416.531 162.849 416.362 162.915 416.218C162.98 416.074 163.151 416.01 163.294 416.076L169.457 418.863C169.601 418.928 169.665 419.097 169.599 419.241C169.559 419.331 169.477 419.39 169.386 419.405Z" fill="#C16256"/>
<path d="M306.298 412.654L305.362 411.164L286.762 422.797C287.037 423.924 286.582 425.148 285.548 425.804C284.279 426.608 282.526 426.226 281.71 424.967C280.862 423.66 281.253 421.919 282.57 421.095C283.614 420.442 284.924 420.565 285.826 421.307L304.426 409.674L303.49 408.184L279.243 412.773C276.987 413.2 274.97 414.449 273.585 416.277L266.278 425.923L270.178 432.13L274.078 438.338L285.964 435.98C288.217 435.533 290.223 434.266 291.591 432.426L306.298 412.654Z" fill="white"/>
<path d="M101.061 538.751L100.291 537.526C97.4288 532.971 98.8101 526.962 103.377 524.106L262.928 424.322L274.063 442.044L114.512 541.828C109.945 544.684 103.923 543.306 101.061 538.751Z" fill="#3A72AA"/>
<path d="M269.196 441.741L261.081 428.825C260.066 427.21 260.556 425.08 262.174 424.068C263.793 423.056 265.927 423.544 266.942 425.159L275.057 438.075C276.071 439.689 275.582 441.819 273.963 442.831C272.345 443.844 270.211 443.355 269.196 441.741Z" fill="#255084"/>
<path d="M133.543 505.24L131.317 506.632C131.317 506.632 133.22 508.613 134.862 509.401C136.466 510.17 138.039 510.932 139.784 511.488C142.242 514.614 132.908 511.321 131.769 511.177C131.762 511.198 131.762 511.197 131.755 511.218C133.965 512.867 136.276 514.389 138.709 515.69C140.504 519.521 131.25 513.538 130.19 513.043C130.186 513.053 130.186 513.053 130.183 513.063C131.978 514.991 134.026 516.686 136.239 518.12C137.706 522.155 128.839 515.345 127.965 514.497C127.955 514.502 127.945 514.507 127.935 514.512C129.115 516.252 130.528 517.831 132.017 519.318C132.875 523.331 126.058 516.235 125.367 515.372C124.682 515.059 120.952 512.199 118.688 507.982C117.946 506.6 121.563 503.14 123.127 503.289C123.127 503.289 127.249 503.576 127.941 503.72C129.533 503.82 131.868 504.751 133.543 505.24Z" fill="#F99370"/>
<path d="M238.02 464.56C240.207 466.828 242.786 463.714 239.431 462.908L239.47 462.947C238.268 461.739 236.866 463.457 238.02 464.56Z" fill="#F99370"/>
<path d="M239.886 463.543C242.828 465.636 244.275 461.49 241.143 461.675C241.21 461.688 240.86 461.566 240.923 461.582C239.488 460.629 238.604 462.739 239.886 463.543Z" fill="#F99370"/>
<path d="M241.874 462.54L243.019 462.912C244.637 463.375 244.72 460.948 243.361 460.603L242.216 460.231C240.598 459.768 240.516 462.195 241.874 462.54Z" fill="#F99370"/>
<path d="M243.464 461.399L244.609 461.771C246.227 462.235 246.309 459.807 244.95 459.462L243.806 459.09C242.188 458.627 242.105 461.054 243.464 461.399Z" fill="#F99370"/>
<path d="M149.139 431.909C149.139 431.909 127.502 429.883 108.226 449.883C93.9147 464.732 84.7898 489.998 118.648 508.097C118.648 508.097 119.783 504.462 123.127 503.288C123.127 503.288 117.025 488.984 118.711 481.3C120.575 472.801 131.065 464.675 139.124 454.674C146.16 445.945 149.139 431.909 149.139 431.909Z" fill="#CE3932"/>
<defs>
<filter id="filter0_n_412_1180" x="0" y="0" width="800" height="800" filterUnits="userSpaceOnUse" color-interpolation-filters="sRGB">
<feFlood flood-opacity="0" result="BackgroundImageFix"/>
<feBlend mode="normal" in="SourceGraphic" in2="BackgroundImageFix" result="shape"/>
<feTurbulence type="fractalNoise" baseFrequency="2 2" stitchTiles="stitch" numOctaves="3" result="noise" seed="6615" />
<feColorMatrix in="noise" type="luminanceToAlpha" result="alphaNoise" />
<feComponentTransfer in="alphaNoise" result="coloredNoise1">
<feFuncA type="discrete" tableValues="1 1 1 1 1 1 1 1 1 1 1 1 1 1 1 1 1 1 1 1 1 1 1 1 1 1 1 1 1 1 1 1 1 1 1 1 1 1 1 1 1 1 1 1 1 1 1 1 1 1 1 0 0 0 0 0 0 0 0 0 0 0 0 0 0 0 0 0 0 0 0 0 0 0 0 0 0 0 0 0 0 0 0 0 0 0 0 0 0 0 0 0 0 0 0 0 0 0 0 0 "/>
</feComponentTransfer>
<feComposite operator="in" in2="shape" in="coloredNoise1" result="noise1Clipped" />
<feFlood flood-color="rgba(0, 0, 0, 0.25)" result="color1Flood" />
<feComposite operator="in" in2="noise1Clipped" in="color1Flood" result="color1" />
<feMerge result="effect1_noise_412_1180">
<feMergeNode in="shape" />
<feMergeNode in="color1" />
</feMerge>
</filter>
<linearGradient id="paint0_linear_412_1180" x1="0" y1="0" x2="800" y2="800" gradientUnits="userSpaceOnUse">
<stop stop-color="#FFE2E6" stop-opacity="0.2"/>
<stop offset="1" stop-color="#B8CAFF" stop-opacity="0.2"/>
</linearGradient>
</defs>
</svg>
