<svg width="800" height="800" viewBox="0 0 800 800" fill="none" xmlns="http://www.w3.org/2000/svg">
<g filter="url(#filter0_n_412_1180)">
<rect width="800" height="800" rx="48" fill="url(#paint0_linear_412_1180)"/>
</g>
<path d="M45.7815 634.813C250.947 634.813 456.11 634.813 661.275 634.813C694.947 578.546 681.514 508.829 636.096 474.65C600.873 448.142 550.307 445.942 507.967 468.93C510.112 453.131 502.331 437.609 488.517 430.033C474.137 422.146 456.062 424.433 443.901 435.753C441.305 429.872 424.966 394.418 385.555 381.984C349.831 370.713 309.359 382.838 282.593 412.873C262.822 398.87 236.93 396.675 215.097 407.154C193.321 417.605 178.85 439.093 177.343 463.21C136.418 446.014 90.4288 450.953 59.509 476.939C17.7148 512.066 8.74422 581.212 45.7815 634.813Z" fill="#F99370"/>
<path d="M495.256 562.111C557.658 562.111 608.246 511.524 608.246 449.121C608.246 386.718 557.658 336.131 495.256 336.131C432.853 336.131 382.266 386.718 382.266 449.121C382.266 511.524 432.853 562.111 495.256 562.111Z" fill="#DFE3F7"/>
<path d="M661.615 414.808C670.271 406.152 670.271 392.118 661.615 383.462C652.959 374.806 638.925 374.806 630.269 383.462C621.613 392.118 621.613 406.152 630.269 414.808C638.925 423.464 652.959 423.464 661.615 414.808Z" fill="#DFE3F7"/>
<path d="M83.9003 407.774C83.9003 413.895 78.9377 418.856 72.8168 418.856C66.6959 418.856 61.7334 413.894 61.7334 407.774C61.7334 401.653 66.6959 396.691 72.8168 396.691C78.9377 396.691 83.9003 401.653 83.9003 407.774Z" fill="#DFE3F7"/>
<path d="M577.044 215.07C583.166 215.07 588.128 210.108 588.128 203.987C588.128 197.866 583.166 192.903 577.044 192.903C570.923 192.903 565.961 197.866 565.961 203.987C565.961 210.108 570.923 215.07 577.044 215.07Z" fill="#DFE3F7"/>
<path d="M461.414 330.919C461.414 333.967 458.943 336.436 455.896 336.436C452.849 336.436 450.378 333.965 450.378 330.919C450.378 327.872 452.849 325.401 455.896 325.401C458.945 325.399 461.414 327.87 461.414 330.919Z" fill="#DFE3F7"/>
<path d="M704.939 467.277C704.939 470.326 702.468 472.795 699.421 472.795C696.373 472.795 693.903 470.324 693.903 467.277C693.903 464.231 696.374 461.76 699.421 461.76C702.468 461.76 704.939 464.229 704.939 467.277Z" fill="#DFE3F7"/>
<path d="M269.488 189.232C269.488 192.281 267.017 194.75 263.97 194.75C260.922 194.75 258.453 192.279 258.453 189.232C258.453 186.185 260.924 183.714 263.97 183.714C267.019 183.714 269.488 186.185 269.488 189.232Z" fill="#DFE3F7"/>
<path d="M229.597 238.268C236.476 219.266 226.648 198.284 207.646 191.405C188.643 184.526 167.662 194.354 160.783 213.356C153.903 232.359 163.731 253.34 182.734 260.22C201.736 267.099 222.718 257.271 229.597 238.268Z" fill="#DFE3F7"/>
<path d="M419.891 569.571V613.3H414.243V569.969C415.538 570.296 416.885 570.296 418.318 570.015C418.856 569.899 419.39 569.758 419.891 569.571Z" fill="#7782E0"/>
<path d="M419.89 569.572C419.39 569.758 418.854 569.899 418.319 570.015C416.885 570.296 415.538 570.296 414.244 569.969C387.319 563.769 393.174 433.731 418.319 433.731C436.989 433.729 449.405 559.182 419.89 569.572Z" fill="#7782E0"/>
<path d="M660.016 578.259C643.862 564.765 619.281 562.87 598.459 573.597C593.207 553.116 577.795 536.529 557.498 530.144C535.226 523.014 510.666 529.35 494.467 546.253C490.858 534.368 481.35 525.301 469.466 522.748C456.174 519.844 442.088 525.742 434.254 537.451C428.093 511.834 407.316 492.203 381.436 487.537C355.203 482.871 328.529 494.491 314.005 516.939C301.151 513.154 287.331 517.203 278.793 527.15C270.871 536.393 268.581 549.334 272.894 560.954C266.381 558.754 247.453 553.294 225.973 560.954C191.993 573.014 181.518 607.082 180.462 610.778C179.318 609.635 161.974 591.588 137.943 596.166C119.634 599.599 104.844 614.829 101.235 634.283H584.512H599.487C625.227 634.283 650.968 634.283 676.708 634.283C681.605 612.937 675.279 591.01 660.016 578.259Z" fill="#F9B2B2"/>
<path d="M259.52 650.759H792.946C796.827 650.759 800 647.584 800 643.704V641.172C800 637.29 796.825 634.117 792.946 634.117H259.52C255.639 634.117 252.465 637.292 252.465 641.172V643.704C252.465 647.585 255.641 650.759 259.52 650.759Z" fill="#DFE3F7"/>
<path d="M55.5111 667.404H588.936C592.818 667.404 595.993 664.228 595.993 660.349V657.816C595.993 653.935 592.818 650.76 588.936 650.76H55.5111C51.6299 650.76 48.4546 653.935 48.4546 657.816V660.349C48.4563 664.228 51.6316 667.404 55.5111 667.404Z" fill="#DFE3F7"/>
<path d="M153.718 633.216C132.141 621.805 83.9684 618.68 69.8108 598.797C66.6441 594.35 63.8801 589.379 63.3883 583.942C62.8965 578.505 65.155 572.533 69.9685 569.954C73.8926 567.852 79.0881 568.1 82.1794 564.896C84.7704 562.211 84.8989 557.843 83.4389 554.41C81.979 550.976 79.2269 548.281 76.4715 545.767C69.6635 539.555 62.1477 533.498 58.6092 524.99C55.0706 516.482 57.4388 504.646 66.0547 501.377C71.1012 499.461 77.5151 500.65 81.3466 496.848C84.9315 493.29 84.1158 487.12 81.4546 482.827C78.7934 478.535 74.7065 475.313 71.7506 471.218C67.0331 464.68 65.508 455.948 67.7323 448.199C69.9565 440.452 75.8803 433.855 83.3447 430.815L153.718 633.216Z" fill="#1F4FD8"/>
<path d="M153.718 633.216C163.561 610.88 199.404 578.543 198.172 554.165C197.896 548.713 196.981 543.099 193.994 538.529C191.005 533.959 185.531 530.679 180.157 531.641C175.775 532.425 171.855 535.844 167.442 535.249C163.744 534.751 160.934 531.406 159.949 527.807C158.963 524.209 159.45 520.387 160.051 516.705C161.537 507.611 163.674 498.197 161.17 489.329C158.667 480.459 149.467 472.647 140.681 475.428C135.535 477.058 131.243 481.967 125.877 481.364C120.858 480.799 117.671 475.452 117.095 470.435C116.52 465.418 117.726 460.354 117.503 455.309C117.149 447.257 112.925 439.46 106.375 434.763C99.8242 430.066 91.0867 428.569 83.3447 430.815L153.718 633.216Z" fill="#2186EA"/>
<path d="M92.2626 467.167C92.1272 467.167 91.9884 467.136 91.8616 467.066L71.2027 456.061C70.7846 455.839 70.6269 455.319 70.848 454.901C71.069 454.483 71.59 454.326 72.0064 454.548L92.6653 465.553C93.0834 465.776 93.241 466.295 93.0183 466.713C92.8658 467.004 92.5693 467.167 92.2626 467.167Z" fill="#2186EA"/>
<path d="M99.6736 465.925C99.5708 465.925 99.468 465.906 99.3668 465.868C98.9247 465.699 98.7037 465.204 98.8716 464.761L107.33 442.632C107.5 442.19 107.993 441.973 108.437 442.139C108.879 442.308 109.1 442.804 108.932 443.244L100.474 465.373C100.345 465.716 100.02 465.925 99.6736 465.925Z" fill="#1F4FD8"/>
<path d="M126.211 533.377C126.086 533.377 125.959 533.35 125.84 533.291C125.413 533.086 125.235 532.573 125.442 532.147L146.409 488.774C146.617 488.349 147.127 488.169 147.554 488.377C147.981 488.582 148.159 489.095 147.952 489.521L126.984 532.896C126.835 533.201 126.53 533.377 126.211 533.377Z" fill="#1F4FD8"/>
<path d="M143.321 593.981C143.116 593.981 142.912 593.907 142.747 593.76C142.396 593.441 142.369 592.901 142.686 592.55L183.279 547.599C183.596 547.246 184.137 547.222 184.489 547.538C184.84 547.855 184.867 548.396 184.55 548.747L143.957 593.698C143.789 593.887 143.555 593.981 143.321 593.981Z" fill="#1F4FD8"/>
<path d="M111.768 536.628C111.649 536.628 111.526 536.602 111.411 536.549L64.7214 515.133C64.2912 514.935 64.1028 514.428 64.2998 513.998C64.4986 513.57 65.0075 513.378 65.4359 513.577L112.126 534.993C112.556 535.19 112.744 535.697 112.547 536.127C112.403 536.441 112.093 536.628 111.768 536.628Z" fill="#2186EA"/>
<path d="M134.211 598.003C134.134 598.003 134.055 597.993 133.978 597.97L70.0046 579.904C69.5487 579.775 69.2848 579.301 69.4134 578.847C69.5419 578.389 70.0165 578.124 70.4706 578.254L134.444 596.32C134.9 596.449 135.163 596.923 135.035 597.377C134.929 597.756 134.584 598.003 134.211 598.003Z" fill="#2186EA"/>
<path d="M166.392 488.023C150.334 477.741 113.038 472.186 103.307 455.79C101.13 452.123 99.3002 448.074 99.2694 443.811C99.2386 439.545 101.384 435.044 105.298 433.349C108.488 431.966 112.517 432.498 115.132 430.203C117.322 428.28 117.706 424.889 116.792 422.122C115.879 419.354 113.91 417.077 111.928 414.942C107.03 409.666 101.572 404.463 99.3705 397.611C97.1668 390.758 99.7783 381.698 106.696 379.712C110.749 378.549 115.663 379.889 118.893 377.178C121.914 374.642 121.68 369.784 119.885 366.271C118.093 362.757 115.12 359.984 113.084 356.605C109.835 351.21 109.215 344.313 111.448 338.425C113.681 332.538 118.72 327.788 124.728 325.904L166.392 488.023Z" fill="#1F4FD8"/>
<path d="M166.392 488.023C175.503 471.274 205.499 448.424 206.12 429.367C206.258 425.105 205.911 420.676 203.88 416.925C201.851 413.174 197.8 410.264 193.554 410.667C190.091 410.994 186.818 413.402 183.422 412.651C180.575 412.024 178.605 409.238 178.07 406.372C177.537 403.507 178.163 400.565 178.87 397.738C180.616 390.755 182.889 383.565 181.516 376.5C180.142 369.435 173.486 362.755 166.467 364.35C162.355 365.284 158.696 368.83 154.56 368.011C150.69 367.245 148.555 362.877 148.432 358.934C148.309 354.991 149.577 351.128 149.729 347.185C149.974 340.893 147.193 334.551 142.397 330.471C137.602 326.389 130.897 324.657 124.725 325.904L166.392 488.023Z" fill="#2186EA"/>
<path d="M128.005 352.595C127.845 352.595 127.682 352.55 127.54 352.456L112.272 342.553C111.875 342.296 111.762 341.765 112.02 341.369C112.277 340.972 112.809 340.859 113.204 341.117L128.472 351.02C128.87 351.277 128.983 351.809 128.724 352.204C128.56 352.458 128.286 352.595 128.005 352.595Z" fill="#2186EA"/>
<path d="M135.416 351.351C135.304 351.351 135.193 351.331 135.085 351.285C134.648 351.101 134.442 350.599 134.626 350.164L140.772 335.523C140.956 335.086 141.461 334.879 141.893 335.064C142.33 335.247 142.534 335.749 142.352 336.185L136.206 350.825C136.068 351.153 135.751 351.351 135.416 351.351Z" fill="#1F4FD8"/>
<path d="M138.488 405.824C138.361 405.824 138.232 405.796 138.111 405.737L106.445 390.194C106.02 389.985 105.846 389.473 106.053 389.048C106.262 388.625 106.774 388.446 107.199 388.656L138.865 404.198C139.29 404.405 139.464 404.919 139.257 405.344C139.11 405.647 138.806 405.824 138.488 405.824Z" fill="#2186EA"/>
<path d="M151.799 401.972C151.617 401.972 151.432 401.914 151.276 401.794C150.901 401.504 150.832 400.966 151.122 400.592L172.167 373.359C172.453 372.983 172.992 372.913 173.368 373.204C173.743 373.494 173.812 374.032 173.522 374.406L152.477 401.639C152.31 401.857 152.056 401.972 151.799 401.972Z" fill="#1F4FD8"/>
<path d="M161.704 458.364C161.488 458.364 161.274 458.283 161.107 458.122C160.768 457.793 160.759 457.25 161.088 456.911L195.336 421.583C195.667 421.244 196.208 421.236 196.548 421.565C196.887 421.894 196.895 422.437 196.566 422.776L162.319 458.101C162.149 458.276 161.926 458.364 161.704 458.364Z" fill="#1F4FD8"/>
<path d="M153.719 460.018C153.623 460.018 153.527 460.003 153.431 459.968L104.335 442.5C103.889 442.341 103.656 441.851 103.814 441.405C103.972 440.958 104.465 440.725 104.909 440.884L154.005 458.354C154.45 458.512 154.683 459.002 154.526 459.449C154.402 459.799 154.072 460.018 153.719 460.018Z" fill="#2186EA"/>
<path d="M372.539 488.023C388.597 477.741 425.893 472.186 435.624 455.79C437.802 452.123 439.63 448.074 439.661 443.811C439.692 439.545 437.547 435.044 433.633 433.349C430.442 431.966 426.414 432.498 423.799 430.203C421.609 428.28 421.225 424.889 422.138 422.122C423.051 419.354 425.02 417.077 427.003 414.942C431.9 409.666 437.358 404.463 439.56 397.611C441.762 390.758 439.152 381.698 432.233 379.712C428.18 378.549 423.266 379.889 420.036 377.178C417.015 374.642 417.249 369.784 419.043 366.271C420.836 362.757 423.809 359.984 425.845 356.605C429.094 351.21 429.714 344.313 427.481 338.425C425.248 332.538 420.209 327.788 414.201 325.904L372.539 488.023Z" fill="#1F4FD8"/>
<path d="M372.539 488.023C363.428 471.274 333.432 448.424 332.81 429.367C332.671 425.105 333.019 420.676 335.049 416.925C337.078 413.174 341.129 410.264 345.375 410.667C348.838 410.994 352.111 413.402 355.508 412.651C358.354 412.024 360.325 409.238 360.857 406.372C361.39 403.507 360.765 400.565 360.057 397.738C358.311 390.755 356.039 383.565 357.411 376.5C358.786 369.435 365.441 362.755 372.46 364.35C376.571 365.284 380.231 368.83 384.368 368.011C388.237 367.245 390.374 362.877 390.496 358.934C390.619 354.991 389.351 351.128 389.198 347.185C388.953 340.893 391.734 334.551 396.529 330.471C401.324 326.389 408.029 324.657 414.201 325.904L372.539 488.023Z" fill="#2186EA"/>
<path d="M410.925 352.595C410.644 352.595 410.37 352.458 410.205 352.205C409.948 351.807 410.059 351.278 410.459 351.02L425.727 341.118C426.122 340.861 426.655 340.972 426.911 341.37C427.168 341.765 427.056 342.297 426.659 342.554L411.391 352.456C411.247 352.551 411.084 352.595 410.925 352.595Z" fill="#2186EA"/>
<path d="M403.513 351.351C403.179 351.351 402.861 351.154 402.723 350.825L396.577 336.184C396.393 335.749 396.599 335.247 397.036 335.063C397.47 334.88 397.975 335.084 398.157 335.523L404.303 350.163C404.487 350.599 404.281 351.101 403.844 351.284C403.736 351.329 403.625 351.351 403.513 351.351Z" fill="#1F4FD8"/>
<path d="M400.441 405.824C400.124 405.824 399.821 405.648 399.672 405.345C399.463 404.92 399.637 404.407 400.064 404.198L431.729 388.656C432.156 388.447 432.667 388.622 432.876 389.049C433.085 389.474 432.91 389.986 432.483 390.195L400.818 405.737C400.696 405.795 400.568 405.824 400.441 405.824Z" fill="#2186EA"/>
<path d="M387.131 401.972C386.874 401.972 386.621 401.857 386.453 401.64L365.408 374.406C365.119 374.032 365.187 373.494 365.562 373.205C365.936 372.915 366.476 372.984 366.764 373.359L387.808 400.593C388.098 400.966 388.029 401.504 387.654 401.794C387.498 401.914 387.313 401.972 387.131 401.972Z" fill="#1F4FD8"/>
<path d="M377.227 458.365C377.004 458.365 376.78 458.277 376.612 458.104L342.364 422.779C342.035 422.439 342.042 421.896 342.383 421.567C342.723 421.238 343.264 421.245 343.595 421.586L377.842 456.913C378.171 457.252 378.165 457.796 377.824 458.125C377.657 458.284 377.441 458.365 377.227 458.365Z" fill="#1F4FD8"/>
<path d="M385.211 460.018C384.858 460.018 384.529 459.799 384.403 459.449C384.246 459.002 384.477 458.512 384.924 458.354L434.018 440.884C434.462 440.725 434.954 440.958 435.113 441.405C435.271 441.851 435.04 442.341 434.593 442.5L385.498 459.968C385.404 460.003 385.307 460.018 385.211 460.018Z" fill="#2186EA"/>
<path d="M164.464 351.156C166.49 348.997 168.369 346.612 169.507 343.974C170.227 342.309 170.832 340.283 171.032 338.474C171.265 336.385 170.717 335.574 169.737 333.943C168.094 331.21 164.166 329.831 161.508 331.594C159.661 332.819 158.861 335.103 158.342 337.261C157.759 339.682 154.011 357.299 160.017 355.108C160.717 354.852 161.282 354.335 161.817 353.819C162.696 352.969 163.594 352.083 164.464 351.156Z" fill="#2186EA"/>
<path d="M100.707 356.716C99.4626 354.799 98.0883 353.01 97.1201 351.762C94.6937 348.64 91.4962 345.979 87.6954 344.886C82.0783 343.268 73.4573 346.257 75.7912 353.639C76.6326 356.3 79.1173 358.061 81.5437 359.439C84.27 360.985 104.276 371.642 103.714 363.615C103.575 361.638 102.239 359.079 100.707 356.716Z" fill="#1F4FD8"/>
<path d="M173.63 609.766C176.973 608.379 180.664 608.23 184.103 609.207C184.564 601.779 187.959 594.883 193.691 590.57C201.424 584.751 212.526 584.267 221.823 589.314C221.351 585.844 223.06 582.437 226.093 580.773C229.251 579.041 233.218 579.543 235.889 582.03C236.46 580.738 240.047 572.954 248.7 570.225C256.543 567.75 265.43 570.411 271.307 577.007C275.648 573.933 281.334 573.45 286.126 575.751C290.907 578.045 294.086 582.763 294.415 588.06C303.401 584.285 313.499 585.368 320.287 591.074C325.604 595.543 328.481 602.522 328.395 609.891C334.448 612.535 338.336 618.846 338.032 625.738C333.121 625.738 328.212 625.738 323.301 625.738C315.787 625.738 308.273 625.738 300.759 625.738C267.505 625.738 234.251 625.738 200.999 625.738C196.72 625.738 192.442 625.738 188.161 625.738C180.016 625.738 171.87 625.738 163.725 625.738C163.419 618.741 167.423 612.338 173.63 609.766Z" fill="#2186EA"/>
<path d="M176.133 625.736C206.368 625.736 236.6 625.736 266.835 625.736C268.017 620.914 266.142 616.008 262.319 613.601C257.989 610.873 253.21 612.645 252.662 612.857C254.302 608.768 253.196 604.087 249.937 601.217C246.827 598.478 242.315 597.887 238.545 599.731C237.952 599.157 231.34 592.968 221.951 594.777C212.477 596.604 208.648 604.944 208.33 605.674C206.512 602.706 203.136 601.136 199.909 601.71C196.1 602.39 193.178 605.939 193.223 610.131C188.898 607.739 183.63 608.035 179.848 610.874C175.444 614.183 173.832 620.356 176.133 625.736Z" fill="#1F4FD8"/>
<path d="M223.459 624.514C222.986 624.514 222.602 624.13 222.602 623.657V606.328C222.602 605.855 222.986 605.471 223.459 605.471C223.932 605.471 224.316 605.855 224.316 606.328V623.657C224.316 624.13 223.932 624.514 223.459 624.514Z" fill="#2186EA"/>
<path d="M225.523 619.014C225.209 619.014 224.908 618.841 224.757 618.545C224.543 618.121 224.712 617.607 225.135 617.393L243.017 608.359C243.438 608.147 243.954 608.316 244.168 608.738C244.381 609.161 244.213 609.675 243.79 609.889L225.908 618.922C225.785 618.983 225.653 619.014 225.523 619.014Z" fill="#2186EA"/>
<path d="M217.269 619.564C217.079 619.564 216.889 619.501 216.729 619.372L203.525 608.642C203.158 608.343 203.101 607.805 203.399 607.437C203.699 607.072 204.239 607.015 204.606 607.314L217.811 618.044C218.177 618.342 218.234 618.88 217.936 619.249C217.764 619.456 217.518 619.564 217.269 619.564Z" fill="#2186EA"/>
<path d="M261.077 622.046C260.605 622.046 260.221 621.662 260.221 621.189V586.523C260.221 586.05 260.605 585.667 261.077 585.667C261.55 585.667 261.934 586.05 261.934 586.523V621.189C261.934 621.664 261.55 622.046 261.077 622.046Z" fill="#1F4FD8"/>
<path d="M261.901 611.582C261.536 611.582 261.197 611.346 261.084 610.979C260.943 610.527 261.195 610.047 261.648 609.906L294.451 599.731C294.903 599.591 295.383 599.844 295.523 600.295C295.664 600.747 295.412 601.227 294.958 601.368L262.155 611.543C262.071 611.57 261.985 611.582 261.901 611.582Z" fill="#1F4FD8"/>
<path d="M279.44 605.415C279.361 605.415 279.282 605.405 279.203 605.381C278.747 605.252 278.484 604.778 278.614 604.322L281.503 594.212C281.633 593.756 282.11 593.49 282.562 593.624C283.018 593.752 283.28 594.229 283.151 594.683L280.262 604.793C280.154 605.172 279.812 605.415 279.44 605.415Z" fill="#1F4FD8"/>
<path d="M257.983 596.986C257.76 596.986 257.539 596.901 257.371 596.729L249.494 588.689C249.163 588.351 249.168 587.808 249.506 587.478C249.845 587.15 250.388 587.152 250.717 587.491L258.595 595.531C258.925 595.869 258.922 596.412 258.583 596.743C258.415 596.906 258.199 596.986 257.983 596.986Z" fill="#1F4FD8"/>
<path d="M279.673 616.98C268.641 614.879 260.68 623.162 260.153 623.688C259.669 621.99 254.86 606.352 239.26 600.815C229.4 597.299 220.71 599.804 217.72 600.815C219.701 595.481 218.649 589.54 215.013 585.297C211.092 580.73 204.748 578.871 198.847 580.609C192.179 570.303 179.934 564.969 167.891 567.111C156.009 569.253 146.471 578.265 143.644 590.025C140.047 584.649 133.58 581.942 127.478 583.275C122.022 584.447 117.657 588.61 116 594.066C108.563 586.306 97.288 583.397 87.0648 586.67C77.9571 589.535 71 596.878 68.4382 605.989C61.1195 600.207 51.2681 598.022 42.109 600.906C28.4055 605.219 19.7759 619.762 22.761 634.48C37.7702 634.48 52.7778 634.48 67.787 634.48H86.4959H296.526C294.869 625.546 288.078 618.554 279.673 616.98Z" fill="#467CDB"/>
<path d="M596.048 609.344C580.203 606.326 568.766 618.225 568.012 618.979C567.317 616.541 560.408 594.078 538.002 586.127C523.84 581.077 511.36 584.675 507.064 586.127C509.908 578.463 508.399 569.932 503.176 563.836C497.545 557.277 488.432 554.607 479.957 557.104C470.379 542.302 452.791 534.64 435.494 537.716C418.429 540.792 404.729 553.737 400.668 570.629C395.501 562.909 386.214 559.02 377.449 560.935C369.612 562.62 363.344 568.597 360.964 576.435C350.283 565.289 334.088 561.11 319.403 565.812C306.32 569.926 296.328 580.474 292.65 593.56C282.139 585.256 267.989 582.119 254.833 586.26C235.151 592.455 222.757 613.343 227.044 634.482C248.601 634.482 270.158 634.482 291.715 634.482H318.587H620.254C617.874 621.649 608.122 611.608 596.048 609.344Z" fill="#467CDB"/>
<path d="M204.798 644.82H5.86901C2.64063 644.82 0 642.178 0 638.949V636.843C0 633.615 2.64063 630.973 5.86901 630.973H204.798C208.027 630.973 210.669 633.615 210.669 636.843V638.949C210.667 642.179 208.027 644.82 204.798 644.82Z" fill="#DFE3F7"/>
<path d="M297.22 661.704H149.775C142.582 661.704 136.697 655.818 136.697 648.626V647.365C136.697 640.171 142.583 634.287 149.775 634.287H297.22C304.414 634.287 310.298 640.171 310.298 647.365V648.626C310.298 655.818 304.412 661.704 297.22 661.704Z" fill="#DFE3F7"/>
<path d="M530.81 277.991C530.81 291.374 519.961 302.222 506.578 302.222C493.195 302.222 482.347 291.374 482.347 277.991C482.347 264.607 493.195 253.759 506.578 253.759C519.961 253.759 530.81 264.607 530.81 277.991Z" fill="#F99370"/>
<path d="M494.4 280.542C491.319 277.461 491.319 272.448 494.4 269.367C495.893 267.875 497.877 267.052 499.988 267.052C502.099 267.052 504.084 267.875 505.574 269.367L506.579 270.371L507.583 269.367C509.075 267.875 511.06 267.052 513.169 267.052C515.28 267.052 517.264 267.875 518.757 269.367C521.838 272.448 521.838 277.461 518.757 280.542L506.579 292.72L494.4 280.542Z" fill="#F36F56"/>
<path d="M523.546 223.83H413.392C406.505 223.83 400.921 218.247 400.921 211.361V206.885C400.921 199.998 406.504 194.415 413.392 194.415H523.546C530.433 194.415 536.016 199.998 536.016 206.885V211.361C536.016 218.246 530.433 223.83 523.546 223.83Z" fill="#F9B2B2"/>
<path d="M421.011 199.795L423.634 205.111C423.711 205.268 423.862 205.378 424.037 205.404L429.903 206.255C430.341 206.319 430.516 206.857 430.199 207.165L425.955 211.302C425.829 211.425 425.771 211.602 425.8 211.775L426.803 217.616C426.878 218.053 426.419 218.386 426.028 218.18L420.781 215.421C420.625 215.339 420.44 215.339 420.284 215.421L415.037 218.18C414.645 218.386 414.187 218.053 414.263 217.616L415.265 211.775C415.294 211.602 415.238 211.425 415.111 211.302L410.866 207.165C410.549 206.857 410.724 206.319 411.163 206.255L417.029 205.404C417.202 205.378 417.352 205.268 417.431 205.111L420.055 199.795C420.248 199.398 420.814 199.398 421.011 199.795Z" fill="#EC827D"/>
<path d="M444.978 199.795L447.602 205.111C447.679 205.268 447.83 205.378 448.004 205.404L453.87 206.255C454.307 206.319 454.483 206.857 454.166 207.165L449.922 211.302C449.797 211.425 449.738 211.602 449.768 211.775L450.77 217.616C450.845 218.053 450.386 218.386 449.996 218.18L444.749 215.421C444.593 215.339 444.408 215.339 444.252 215.421L439.005 218.18C438.612 218.386 438.155 218.053 438.23 217.616L439.233 211.775C439.262 211.602 439.205 211.425 439.078 211.302L434.834 207.165C434.517 206.857 434.692 206.319 435.13 206.255L440.996 205.404C441.171 205.378 441.32 205.268 441.398 205.111L444.022 199.795C444.216 199.398 444.783 199.398 444.978 199.795Z" fill="#EC827D"/>
<path d="M468.948 199.795L471.572 205.111C471.649 205.268 471.8 205.378 471.975 205.404L477.84 206.255C478.279 206.319 478.454 206.857 478.137 207.165L473.892 211.302C473.767 211.425 473.709 211.602 473.738 211.775L474.74 217.616C474.816 218.053 474.356 218.386 473.966 218.18L468.719 215.421C468.563 215.339 468.378 215.339 468.222 215.421L462.975 218.18C462.582 218.386 462.125 218.053 462.2 217.616L463.203 211.775C463.232 211.602 463.175 211.425 463.049 211.302L458.804 207.165C458.487 206.857 458.662 206.319 459.1 206.255L464.966 205.404C465.141 205.378 465.29 205.268 465.369 205.111L467.992 199.795C468.186 199.398 468.751 199.398 468.948 199.795Z" fill="#EC827D"/>
<path d="M492.916 199.795L495.539 205.111C495.616 205.268 495.767 205.378 495.942 205.404L501.807 206.255C502.246 206.319 502.421 206.857 502.104 207.165L497.859 211.302C497.734 211.425 497.676 211.602 497.705 211.775L498.708 217.616C498.783 218.053 498.324 218.386 497.933 218.18L492.686 215.421C492.53 215.339 492.345 215.339 492.189 215.421L486.942 218.18C486.55 218.386 486.092 218.053 486.168 217.616L487.17 211.775C487.199 211.602 487.143 211.425 487.016 211.302L482.771 207.165C482.454 206.857 482.629 206.319 483.068 206.255L488.933 205.404C489.108 205.378 489.257 205.268 489.336 205.111L491.959 199.795C492.153 199.398 492.72 199.398 492.916 199.795Z" fill="#EC827D"/>
<path d="M516.884 199.795L519.507 205.111C519.585 205.268 519.735 205.378 519.91 205.404L525.776 206.255C526.214 206.319 526.389 206.857 526.072 207.165L521.828 211.302C521.702 211.425 521.644 211.602 521.673 211.775L522.676 217.616C522.751 218.053 522.292 218.386 521.901 218.18L516.654 215.421C516.498 215.339 516.313 215.339 516.157 215.421L510.91 218.18C510.518 218.386 510.06 218.053 510.136 217.616L511.138 211.775C511.167 211.602 511.111 211.425 510.984 211.302L506.74 207.165C506.423 206.857 506.597 206.319 507.036 206.255L512.902 205.404C513.076 205.378 513.225 205.268 513.304 205.111L515.928 199.795C516.123 199.398 516.689 199.398 516.884 199.795Z" fill="#F9FBFC"/>
<path d="M503.501 151.178C503.501 156.494 501.359 161.283 497.882 164.76C494.405 168.235 489.615 170.379 484.3 170.379H328.561C317.951 170.379 309.362 161.791 309.362 151.18C309.362 145.885 311.504 141.096 314.981 137.619C318.458 134.142 323.247 132 328.563 132H484.303C494.912 131.998 503.501 140.588 503.501 151.178Z" fill="#B2C1F9"/>
<path d="M503.501 151.178C503.501 156.494 501.359 161.283 497.882 164.76C494.405 168.235 489.616 170.379 484.3 170.379H464.332V132H484.3C494.913 131.998 503.501 140.588 503.501 151.178Z" fill="#2186EA"/>
<path d="M474.044 143.113C471.43 146.386 471.469 151.167 474.134 154.398C477.161 158.071 482.347 158.663 486.07 156.179L491.818 161.926C492.061 162.169 492.453 162.169 492.697 161.926L494.311 160.312C494.554 160.07 494.554 159.676 494.311 159.433L488.564 153.685C490.892 150.195 490.519 145.423 487.441 142.345C483.699 138.601 477.446 138.856 474.044 143.113ZM484.95 152.563C482.82 154.693 479.355 154.693 477.225 152.563C475.095 150.433 475.095 146.968 477.225 144.838C479.355 142.708 482.82 142.708 484.95 144.838C487.08 146.968 487.08 150.433 484.95 152.563Z" fill="#F9FBFC"/>
<path d="M457.971 159.232H322.225V160.684H457.971V159.232Z" fill="#F9FBFC"/>
<path d="M673.177 317.981H593.121C589.975 317.981 587.427 315.431 587.427 312.285V271.637C587.427 268.493 589.977 265.943 593.121 265.943H673.177C676.323 265.943 678.871 268.493 678.871 271.637V312.285C678.872 315.431 676.323 317.981 673.177 317.981Z" fill="#DFE3F7"/>
<path d="M634.189 289.5H597.126V291.578H634.189V289.5Z" fill="#B1B2F3"/>
<path d="M634.189 294.094H597.126V296.172H634.189V294.094Z" fill="#B1B2F3"/>
<path d="M634.189 298.686H597.126V300.764H634.189V298.686Z" fill="#B1B2F3"/>
<path d="M620.81 303.278H597.126V305.357H620.81V303.278Z" fill="#B1B2F3"/>
<path d="M678.872 273.132H587.427V283.004H678.872V273.132Z" fill="#56548C"/>
<path fill-rule="evenodd" clip-rule="evenodd" d="M666.51 297.482H669.715C670.143 298.438 670.402 299.485 670.447 300.588H666.769C666.75 299.42 666.654 298.391 666.51 297.482ZM665.107 293.086C666.947 293.801 668.457 295.153 669.403 296.861H666.404C666.065 295.12 665.547 293.886 665.107 293.086ZM662.424 296.861V292.522C663.087 292.553 663.728 292.656 664.343 292.829C664.805 293.612 665.409 294.918 665.786 296.861H662.424ZM658.344 304.317C658.198 303.407 658.098 302.382 658.081 301.21H661.8V304.317H658.344ZM658.338 297.482H661.802V300.588H658.08C658.095 299.42 658.193 298.391 658.338 297.482ZM659.893 292.815C660.504 292.649 661.142 292.545 661.8 292.524V296.861H658.439C658.822 294.909 659.426 293.597 659.893 292.815ZM654.731 296.861C655.693 295.122 657.249 293.765 659.13 293.059C658.686 293.857 658.164 295.103 657.819 296.861H654.731ZM657.459 300.588H653.701C653.743 299.485 653.991 298.434 654.419 297.482H657.715C657.571 298.391 657.473 299.42 657.459 300.588ZM657.721 304.317H654.443C654.012 303.359 653.737 302.317 653.696 301.21H657.461C657.476 302.382 657.578 303.405 657.721 304.317ZM657.824 304.939C658.17 306.714 658.702 307.957 659.147 308.745C657.259 308.042 655.703 306.678 654.74 304.939H657.824ZM661.802 304.939V309.274C661.15 309.256 660.521 309.151 659.915 308.99C659.447 308.224 658.837 306.906 658.455 304.939H661.802ZM665.772 304.939C665.39 306.893 664.787 308.207 664.321 308.975C663.712 309.142 663.076 309.233 662.424 309.262V304.937H665.772V304.939ZM662.424 301.21H666.142C666.128 302.384 666.027 303.407 665.88 304.317H662.424V301.21ZM666.145 300.588H662.424V297.482H665.888C666.032 298.391 666.13 299.42 666.145 300.588ZM666.764 301.21H670.438C670.395 302.317 670.123 303.361 669.696 304.317H666.5C666.646 303.405 666.749 302.382 666.764 301.21ZM669.398 304.939C668.452 306.653 666.937 308.005 665.092 308.719C665.535 307.928 666.058 306.697 666.401 304.939H669.398Z" fill="#B1B2F3"/>
<path d="M640.699 295.371H555.837C553.13 295.371 550.937 293.176 550.937 290.471V246.404C550.937 243.697 553.132 241.503 555.837 241.503H640.699C643.406 241.503 645.6 243.697 645.6 246.404V290.471C645.6 293.176 643.406 295.371 640.699 295.371Z" fill="#1F4FD8"/>
<path d="M645.601 267.172V261.355C643.349 259.196 640.698 257.451 637.732 256.301C638.998 258.606 640.489 262.162 641.466 267.172H645.601Z" fill="#878CF0"/>
<path d="M628.209 288.644V279.696H617.501C617.547 283.073 617.837 286.024 618.253 288.644H628.209Z" fill="#878CF0"/>
<path d="M628.209 268.958H618.237C617.816 271.583 617.535 274.544 617.49 277.906H628.209V268.958Z" fill="#878CF0"/>
<path d="M620.516 256.224C615.098 258.255 610.617 262.165 607.85 267.172H616.741C617.735 262.11 619.24 258.524 620.516 256.224Z" fill="#878CF0"/>
<path d="M639.975 268.958H630V277.906H640.718C640.677 274.543 640.393 271.581 639.975 268.958Z" fill="#878CF0"/>
<path d="M604.885 277.905H615.705C615.746 274.543 616.025 271.582 616.442 268.957H606.955C605.72 271.705 605.002 274.726 604.885 277.905Z" fill="#878CF0"/>
<path d="M630 288.644H639.954C640.375 286.024 640.667 283.073 640.706 279.696H629.998L630 288.644Z" fill="#878CF0"/>
<path d="M630 254.679V267.172H639.68C638.592 261.583 636.856 257.818 635.525 255.565C633.754 255.064 631.907 254.764 630 254.679Z" fill="#878CF0"/>
<path d="M641.771 268.958C642.187 271.578 642.463 274.544 642.514 277.906H645.602V268.958H641.771Z" fill="#878CF0"/>
<path d="M639.644 290.435H630V295.371H638.388C638.851 293.911 639.284 292.282 639.644 290.435Z" fill="#878CF0"/>
<path d="M645.515 290.435H641.455C641.099 292.263 640.674 293.886 640.216 295.33C642.936 295.138 645.121 293.091 645.515 290.435Z" fill="#878CF0"/>
<path d="M642.504 279.696C642.458 283.073 642.163 286.019 641.745 288.644H645.6V279.696H642.504Z" fill="#878CF0"/>
<path d="M616.462 288.644C616.046 286.019 615.755 283.073 615.71 279.696H604.87C604.987 282.885 605.78 285.887 607.022 288.644H616.462Z" fill="#878CF0"/>
<path d="M628.209 290.435H618.569C618.929 292.282 619.362 293.911 619.825 295.371H628.209V290.435Z" fill="#878CF0"/>
<path d="M628.21 254.684C626.313 254.746 624.476 255.046 622.716 255.524C621.372 257.772 619.628 261.552 618.535 267.173H628.21V254.684Z" fill="#878CF0"/>
<path d="M616.759 290.435H607.877C608.873 292.236 610.098 293.889 611.5 295.371H618.01C617.549 293.915 617.119 292.278 616.759 290.435Z" fill="#878CF0"/>
<path d="M571.016 253.339C571.016 256.112 568.768 258.358 565.995 258.358C563.223 258.358 560.975 256.11 560.975 253.339C560.975 250.567 563.223 248.318 565.995 248.318C568.768 248.318 571.016 250.565 571.016 253.339Z" fill="#E9E5D9"/>
<path d="M576.037 253.339C576.037 256.112 573.789 258.358 571.016 258.358C568.244 258.358 565.996 256.11 565.996 253.339C565.996 250.567 568.244 248.318 571.016 248.318C573.789 248.318 576.037 250.565 576.037 253.339Z" fill="#F99370"/>
<path d="M581.056 253.339C581.056 256.112 578.808 258.358 576.035 258.358C573.263 258.358 571.015 256.11 571.015 253.339C571.015 250.567 573.263 248.318 576.035 248.318C578.81 248.318 581.056 250.565 581.056 253.339Z" fill="#EC827D"/>
<path d="M599.344 275.899H560.977V278.052H599.344V275.899Z" fill="#B1B2F3"/>
<path d="M580.654 281.575H560.977V283.725H580.654V281.575Z" fill="#B1B2F3"/>
<path d="M375.633 285.009H148.399V594.818H375.633V285.009Z" fill="#F9FBFC"/>
<path d="M375.633 496.52H148.399V594.818H375.633V496.52Z" fill="#DFE3F7"/>
<path d="M364.58 247.377H159.448C149.68 247.377 141.764 255.911 141.764 266.432V615.369C141.764 625.89 149.68 634.424 159.448 634.424H364.58C374.348 634.424 382.265 625.89 382.265 615.369V266.432C382.265 255.911 374.348 247.377 364.58 247.377ZM375.633 594.823H148.395V285.008H375.633V594.823Z" fill="#112B46"/>
<path d="M283.437 270.409H240.593C239.135 270.409 237.952 269.227 237.952 267.769C237.952 266.311 239.135 265.13 240.593 265.13H283.437C284.896 265.13 286.078 266.312 286.078 267.769C286.078 269.229 284.896 270.409 283.437 270.409Z" fill="#56548C"/>
<path d="M273.897 616.467C273.897 623.028 268.578 628.347 262.016 628.347C255.455 628.347 250.136 623.028 250.136 616.467C250.136 609.906 255.455 604.587 262.016 604.587C268.578 604.585 273.897 609.904 273.897 616.467Z" fill="#56548C"/>
<path d="M221.831 302.189L213.432 310.607H168.547L176.943 302.189H221.831Z" fill="#467CDB"/>
<path d="M221.83 302.189V347.077L213.432 355.472V310.607L221.83 302.189Z" fill="#1F4FD8"/>
<path d="M213.432 310.607H168.547V355.474H213.432V310.607Z" fill="#1F4FD8"/>
<path d="M281.842 376.092V471.514H281.821L263.969 489.366V393.944L281.821 376.092H281.842Z" fill="#E27171"/>
<path d="M186.399 376.073H281.842V376.092H281.821L263.969 393.944H168.547L186.399 376.092V376.073Z" fill="#F49090"/>
<path d="M263.969 393.944H168.547V489.366H263.969V393.944Z" fill="#EC827D"/>
<path d="M166.073 448.249C165.927 448.249 165.783 448.238 165.641 448.218L165.876 446.521C169.099 446.979 177.199 435.421 180.299 417.809L181.987 418.105C179.526 432.074 171.986 448.249 166.073 448.249Z" fill="#7782E0"/>
<path d="M190.023 432.53C184.187 429.462 177.648 429.049 171.813 430.864C165.822 432.732 160.563 436.934 157.525 443.025C151.69 454.724 156.648 468.969 168.221 475.051L223.087 503.88C224.031 504.377 225.199 504.013 225.695 503.069L246.124 464.192C246.621 463.247 246.258 462.079 245.313 461.583L190.023 432.53ZM164.794 451.367C162.589 450.209 161.734 447.477 162.895 445.265C164.057 443.053 166.795 442.201 169.001 443.361C171.213 444.523 172.065 447.261 170.901 449.472C169.741 451.682 167.006 452.529 164.794 451.367Z" fill="#F99370"/>
<path d="M193.272 446.283L189.654 444.381L188.394 446.779C188.998 446.791 189.549 446.928 190.047 447.189C190.583 447.471 190.996 447.847 191.287 448.317C191.577 448.787 191.714 449.317 191.697 449.907C191.69 450.502 191.518 451.12 191.181 451.761C190.834 452.422 190.378 452.928 189.815 453.279C189.252 453.63 188.622 453.806 187.925 453.807C187.234 453.798 186.529 453.604 185.811 453.227C185.17 452.89 184.661 452.476 184.284 451.985C183.921 451.489 183.655 450.915 183.484 450.263L185.046 449.838C185.279 450.742 185.769 451.391 186.515 451.783C187.061 452.07 187.575 452.126 188.057 451.952C188.549 451.783 188.958 451.387 189.285 450.765C189.914 449.569 189.712 448.699 188.678 448.156C188.458 448.04 188.237 447.961 188.015 447.917C187.799 447.865 187.545 447.835 187.255 447.83L185.949 447.143L188.605 442.089L194.204 445.032L193.272 446.283ZM199.342 447.512C200.471 448.105 201.102 448.986 201.233 450.155C201.373 451.328 201.019 452.723 200.169 454.341C199.313 455.968 198.36 457.061 197.309 457.62C196.273 458.175 195.19 458.156 194.06 457.562C192.931 456.968 192.296 456.085 192.155 454.912C192.029 453.734 192.393 452.331 193.248 450.704C194.098 449.087 195.042 448 196.078 447.446C197.125 446.896 198.212 446.918 199.342 447.512ZM198.61 448.905C198.064 448.618 197.521 448.687 196.981 449.111C196.445 449.526 195.833 450.389 195.144 451.7C194.449 453.021 194.081 454.024 194.038 454.71C193.995 455.396 194.246 455.883 194.792 456.169C195.338 456.456 195.878 456.392 196.414 455.977C196.954 455.553 197.574 454.675 198.273 453.345C198.968 452.024 199.334 451.026 199.371 450.349C199.409 449.673 199.155 449.191 198.61 448.905ZM212.501 453.859L213.293 455.247L201.357 461.781L200.579 460.402L212.501 453.859ZM206.438 451.241C206.897 451.482 207.258 451.807 207.521 452.213C207.789 452.611 207.927 453.056 207.936 453.549C207.955 454.048 207.834 454.546 207.573 455.044C207.311 455.542 206.969 455.924 206.548 456.191C206.136 456.463 205.688 456.607 205.205 456.621C204.726 456.626 204.256 456.508 203.797 456.266C203.338 456.025 202.974 455.705 202.706 455.308C202.453 454.906 202.317 454.456 202.298 453.958C202.289 453.464 202.415 452.969 202.677 452.471C202.938 451.973 203.275 451.588 203.687 451.316C204.108 451.049 204.553 450.91 205.023 450.9C205.507 450.886 205.978 451 206.438 451.241ZM205.834 452.39C205.461 452.193 205.125 452.182 204.826 452.355C204.543 452.523 204.295 452.808 204.084 453.21C203.877 453.603 203.783 453.968 203.8 454.307C203.827 454.651 204.027 454.921 204.401 455.118C205.09 455.48 205.673 455.206 206.151 454.297C206.629 453.388 206.523 452.752 205.834 452.39ZM209.971 459.511C210.43 459.752 210.791 460.076 211.054 460.483C211.321 460.88 211.46 461.325 211.469 461.819C211.479 462.312 211.353 462.808 211.091 463.306C210.829 463.804 210.493 464.189 210.081 464.461C209.669 464.733 209.221 464.876 208.737 464.891C208.258 464.895 207.789 464.777 207.33 464.536C206.87 464.294 206.507 463.975 206.239 463.578C205.977 463.171 205.836 462.718 205.817 462.22C205.807 461.726 205.934 461.231 206.195 460.733C206.457 460.235 206.793 459.85 207.205 459.578C207.627 459.311 208.077 459.175 208.556 459.17C209.04 459.156 209.511 459.269 209.971 459.511ZM209.367 460.659C208.994 460.463 208.658 460.451 208.359 460.624C208.075 460.793 207.828 461.078 207.617 461.48C207.41 461.872 207.316 462.238 207.333 462.577C207.36 462.921 207.56 463.191 207.933 463.387C208.623 463.749 209.206 463.476 209.684 462.566C210.162 461.657 210.056 461.021 209.367 460.659Z" fill="#F9FBFC"/>
<path d="M165.639 448.218C164.662 448.084 163.759 447.457 162.956 446.352C159.792 442.013 157.854 429.312 160.493 414.323C161.972 405.916 164.409 398.187 167.353 392.554C170.446 386.64 173.832 383.669 176.868 384.214C179.911 384.749 182.077 388.685 182.965 395.301C183.812 401.598 183.464 409.697 181.985 418.103L180.297 417.807C181.747 409.568 182.091 401.657 181.267 395.529C180.497 389.8 178.786 386.291 176.572 385.902C174.375 385.518 171.551 388.225 168.871 393.347C166.006 398.827 163.629 406.381 162.179 414.618C159.715 428.615 161.343 441.232 164.34 445.343C164.697 445.833 165.252 446.436 165.874 446.521L165.639 448.218Z" fill="#7782E0"/>
<path d="M288.648 302.189V347.077L280.253 355.472V310.607L288.648 302.189Z" fill="#A0A3EA"/>
<path d="M288.649 302.189L280.254 310.607H235.367L243.763 302.189H288.649Z" fill="#C5C8F9"/>
<path d="M280.252 310.607H235.367V355.474H280.252V310.607Z" fill="#B1B2F3"/>
<path d="M355.468 302.189L347.071 310.607H302.205L310.601 302.189H355.468Z" fill="#F9B2B2"/>
<path d="M355.488 302.189V347.077H355.468L347.071 355.472V310.607L355.468 302.189H355.488Z" fill="#F36F56"/>
<path d="M347.071 310.607H302.205V355.474H347.071V310.607Z" fill="#F99370"/>
<path d="M221.831 506.709L213.432 515.124H168.547L176.943 506.709H221.831Z" fill="#C5C8F9"/>
<path d="M221.83 506.709V571.213L213.432 579.61V515.124L221.83 506.709Z" fill="#A0A3EA"/>
<path d="M213.432 515.125H168.547V579.61H213.432V515.125Z" fill="#B1B2F3"/>
<path d="M288.649 506.709L280.254 515.124H235.367L243.763 506.709H288.649Z" fill="#5F5F93"/>
<path d="M288.648 506.709V571.213L280.253 579.61V515.124L288.648 506.709Z" fill="#47477C"/>
<path d="M280.252 515.125H235.367V579.61H280.252V515.125Z" fill="#56548C"/>
<path d="M355.488 506.709V571.213H355.468L347.071 579.61V515.124L355.468 506.709H355.488Z" fill="#E27171"/>
<path d="M355.468 506.709L347.071 515.124H302.205L310.601 506.709H355.468Z" fill="#F49090"/>
<path d="M347.071 515.125H302.205V579.61H347.071V515.125Z" fill="#EC827D"/>
<path d="M337.204 377.542H296.497V382.937H337.204V377.542Z" fill="#A5B7C6"/>
<path d="M355.488 404.283H296.497V409.678H355.488V404.283Z" fill="#A5B7C6"/>
<path d="M355.488 417.524H296.497V422.918H355.488V417.524Z" fill="#A5B7C6"/>
<path d="M355.488 430.767H296.497V436.161H355.488V430.767Z" fill="#A5B7C6"/>
<path d="M355.488 444.009H296.497V449.404H355.488V444.009Z" fill="#A5B7C6"/>
<path d="M324.099 459.938H296.497V465.333H324.099V459.938Z" fill="#A5B7C6"/>
<path d="M213.432 355.471H225.737L234.105 347.034H221.801L213.432 355.471Z" fill="#E6E7E8"/>
<path d="M213.463 579.625H225.767L234.136 571.187H221.831L213.463 579.625Z" fill="#A2A9F4"/>
<path d="M280.305 579.625H292.608L300.976 571.187H288.672L280.305 579.625Z" fill="#A2A9F4"/>
<path d="M347.168 579.625H359.472L367.841 571.187H355.538L347.168 579.625Z" fill="#A2A9F4"/>
<path d="M280.461 355.471H292.766L301.134 347.034H288.83L280.461 355.471Z" fill="#E6E7E8"/>
<path d="M263.943 489.36H290.022L307.76 471.474L281.842 471.514L263.943 489.36Z" fill="#E6E7E8"/>
<path d="M347.164 355.471H359.467L367.834 347.034H355.531L347.164 355.471Z" fill="#E6E7E8"/>
<path d="M382.265 359.619V376.412C379.831 376.909 377.586 377.269 375.633 377.44C373.645 377.611 371.949 377.577 370.698 377.269C363.329 375.435 335.518 348.258 331.217 343.905C326.916 339.536 326.865 341.558 323.489 339.604C320.13 337.634 320.678 332.613 319.942 331.088C319.205 329.563 316.206 326.478 316.206 326.478C316.206 326.478 316.823 316.557 324.294 324.645C331.765 332.733 330.789 336.28 330.789 336.28C330.789 336.28 367.014 361.949 372.531 361.692C373.251 361.658 374.279 361.504 375.633 361.23C377.364 360.887 379.591 360.339 382.265 359.619Z" fill="#E6E7E8"/>
<path d="M529.207 612.238C529.207 612.238 509.472 632.719 505.901 631.111C504.607 630.522 505.176 627.698 506.412 624.264L506.686 624.362C509.138 627.972 526.716 608.432 526.716 608.432L526.874 608.334C528.345 610.826 529.207 612.238 529.207 612.238Z" fill="#112B46"/>
<path d="M414.07 633.937C412.835 635.075 385.133 635.978 385.212 634.271C385.231 633.624 387.33 632.015 389.94 630.171L390.116 630.426C390.116 630.426 394.196 631.485 399.69 630.661C404.752 629.915 412.952 627.972 414.168 627.679C414.324 631.367 414.305 633.721 414.07 633.937Z" fill="#112B46"/>
<path d="M526.716 608.432C526.716 608.432 509.138 627.972 506.686 624.362L506.412 624.264C508.569 618.359 512.69 610.668 512.533 609.649C512.277 608.06 455.68 528.41 454.777 524.311C454.11 521.25 454.442 519.465 454.658 518.778C461.406 517.993 468.744 516.737 476.669 514.914C476.219 515.835 474.001 520.681 475.002 522.231C475.982 523.742 516.573 591.228 526.872 608.334L526.716 608.432Z" fill="#EED7BA"/>
<path d="M399.689 630.661C394.196 631.485 390.116 630.426 390.116 630.426L389.939 630.171C394.314 627.071 400.179 623.344 400.337 622.401C400.592 620.95 387.84 525.802 387.331 521.877C386.86 517.953 392.235 509.596 392.235 509.596L392.294 509.499C395.531 511.814 401.848 515.069 411.636 517.326L411.616 517.581L405.24 524.938C410.399 534.493 410.87 562.565 410.634 568.961C410.437 574.082 413.597 612.396 414.166 627.679C412.951 627.972 404.751 629.915 399.689 630.661Z" fill="#EED7BA"/>
<path d="M450.815 364.187C450.325 365.541 449.422 366.62 447.578 366.876C444.399 367.326 442.811 366.249 441.065 361.893C440.28 359.891 439.456 357.184 438.436 353.633C438.436 353.633 433.119 344.001 428.705 341.136C427.586 340.411 426.84 339.548 426.292 338.605C424.624 335.779 424.919 332.347 423.879 330.759C422.486 328.641 419.544 329.366 417.013 326.913C414.482 324.461 415.777 320.616 412.364 319.067C410.499 318.224 408.361 317.85 406.793 316.85C405.439 316.025 404.499 314.769 404.42 312.435C404.262 307.373 407.775 304.921 410.304 305.334C412.835 305.746 412.835 308.845 415.464 309.18C418.073 309.493 421.996 307.454 426.078 309.337C430.178 311.22 428.137 315.556 430.826 317.028C433.533 318.5 435.888 317.852 437.358 319.401C438.83 320.95 438.751 327.15 440.89 329.525C443.008 331.898 447.58 332.232 449.129 334.763C450.698 337.294 448.07 340.649 449.953 343.592C451.836 346.534 455.015 346.378 456.485 349.968C457.957 353.558 453.053 355.854 451.992 358.051C451.344 359.381 451.579 362.109 450.815 364.187Z" fill="#FF8578"/>
<path d="M471.453 395.911C471.787 399.991 463.115 421.728 463.115 421.728L462.841 421.983C459.467 418.335 456.19 415.391 453.404 413.312L453.462 413.233C453.462 413.233 458.211 399.167 457.876 396.559C457.582 394.106 445.869 382.257 444.457 380.845L441.044 361.895H441.063C442.809 366.25 444.397 367.328 447.576 366.878C449.42 366.622 450.323 365.543 450.813 364.189C452.443 366.424 471.14 391.987 471.453 395.911Z" fill="#EED7BA"/>
<path d="M423.879 330.759C424.919 332.347 424.624 335.781 426.291 338.605L426.213 338.684C426.213 338.684 422.701 339.606 417.089 341.057L417.011 340.763C417.011 340.763 416.284 334.523 415.167 334.015C414.068 333.543 410.4 334.27 409.046 333.78C407.692 333.29 405.73 323.363 406.712 316.987L406.791 316.85C408.36 317.85 410.499 318.222 412.362 319.067C415.775 320.616 414.48 324.461 417.011 326.913C419.543 329.366 422.486 328.639 423.879 330.759Z" fill="#EED7BA"/>
<path d="M410.127 360.441C397.623 364 377.619 370.687 370.694 368.959C363.338 367.116 335.513 339.94 331.217 335.586C326.921 331.231 326.861 333.252 323.487 331.29C320.132 329.328 320.682 324.305 319.936 322.775C319.21 321.245 316.209 318.165 316.209 318.165C316.209 318.165 316.818 308.239 324.292 316.34C331.767 324.423 330.787 327.974 330.787 327.974C330.787 327.974 367.007 353.638 372.54 353.383C376.483 353.206 390.467 349.205 410.306 342.824C420.153 348.239 415.309 359.519 415.309 359.519C413.618 359.793 411.892 360.107 410.127 360.441Z" fill="#EED7BA"/>
<path d="M454.659 518.777C436.141 520.974 421.956 519.72 411.637 517.326C401.847 515.069 395.531 511.813 392.294 509.498C390.743 508.4 389.881 507.517 389.705 507.065C388.567 504.299 421.584 417.313 421.584 417.313C421.584 417.313 413.737 383.648 412.932 380.863C412.108 378.077 407.851 378.411 406.556 374.645C405.281 370.997 409.872 360.991 410.127 360.441C411.892 360.107 413.619 359.793 415.307 359.519C415.307 359.519 420.153 348.238 410.303 342.824C412.795 342.176 415.071 341.588 417.091 341.059C422.701 339.607 426.214 338.685 426.214 338.685L426.293 338.606C426.841 339.549 427.587 340.411 428.706 341.137C433.12 344.003 438.437 353.635 438.437 353.635C439.457 357.185 440.281 359.893 441.066 361.894H441.047L444.46 380.844L449.875 410.938C450.915 411.526 452.111 412.311 453.407 413.312C456.193 415.392 459.47 418.334 462.844 421.982C469.18 428.888 475.772 438.304 479.637 449.192C486.503 468.496 483.874 513.128 483.874 513.128C481.422 513.775 479.028 514.363 476.674 514.913C468.745 516.738 461.408 517.993 454.659 518.777Z" fill="#112B46"/>
<path d="M539.789 499.358L530.39 508.781H480.16L489.56 499.358H539.789Z" fill="#F9B2B2"/>
<path d="M539.811 499.358V549.611H539.789L530.39 559.011V508.781L539.789 499.358H539.811Z" fill="#F36F56"/>
<path d="M530.39 508.781H480.16V559.011H530.39V508.781Z" fill="#F99370"/>
<path d="M706.452 632.462H706.649C706.59 636.448 706.506 639.787 706.458 641.58C706.436 642.375 705.788 642.997 704.993 643.002L681.55 643.153C681.02 643.146 680.789 642.48 681.204 642.147L693.274 632.462H706.452Z" fill="#0B1F3B"/>
<path d="M752.373 641.474C752.401 642 751.982 642.428 751.455 642.432L731.373 642.565C730.39 642.582 729.884 641.393 730.582 640.699L739.571 631.715L751.65 631.077L751.958 631.055C752.104 635.874 752.287 639.758 752.373 641.474Z" fill="#0B1F3B"/>
<path d="M717.477 522.647H717.432C713.588 534.155 706.691 628.399 706.648 632.462H706.451H693.274C693.274 632.462 694.372 534.442 694.657 528.137C694.921 522.01 700.762 470.967 701.114 467.783L707.286 467.278C707.682 469.408 713.7 501.782 717.477 522.647Z" fill="#1D3F70"/>
<path d="M751.959 631.057L751.651 631.079L739.572 631.717C739.572 631.717 722.374 550.102 718.817 530.05C718.421 527.831 717.96 525.35 717.477 522.649C713.698 501.784 707.682 469.41 707.286 467.28L738.276 464.821L738.298 464.975C740.209 499.852 739.945 527.043 741.878 541.844C743.789 556.689 751.586 619.086 751.959 631.057Z" fill="#1D3F70"/>
<path d="M721.123 318.281L724.154 327.988L724.309 328.01C723.803 330.778 723.519 333.259 723.738 335.127L723.651 335.456C719.389 334.248 714.558 334.731 711.483 335.127V325.243C711.483 325.243 704.256 327.572 701.775 323.728C699.314 319.885 699.446 305.609 700.831 301.501C700.831 301.501 708.518 301.018 709.265 302.117C710.035 303.215 709.748 306.508 710.847 307.19C711.945 307.872 714.207 307.059 714.207 308.64C714.207 310.222 713.724 314.13 714.887 314.262C716.051 314.394 716.14 307.938 718.534 308.09C720.928 308.222 722.861 310.352 722.18 315.491C721.98 316.833 721.584 317.71 721.123 318.281Z" fill="#EED7BA"/>
<path d="M722.177 315.493C722.858 310.354 720.925 308.224 718.531 308.092C716.137 307.938 716.05 314.394 714.884 314.264C713.721 314.132 714.204 310.223 714.204 308.642C714.204 307.06 711.942 307.872 710.844 307.192C709.745 306.512 710.031 303.217 709.262 302.118C708.515 301.02 700.828 301.503 700.828 301.503L696.282 295.178C696.282 295.178 715.236 290.522 721.276 295.046C727.316 299.57 727.448 308.774 726.504 315.911C725.956 319.996 724.945 324.278 724.307 328.012L724.153 327.99L721.122 318.282C721.584 317.71 721.98 316.833 722.177 315.493Z" fill="#112B46"/>
<path d="M636.058 431.967C638.451 431.769 665.644 407.615 667.291 405.221C668.873 402.959 683.061 383.039 684.247 381.37L698.039 391.451C698.039 391.451 681.627 411.404 678.333 414.5C675.038 417.619 649.955 435.075 645.373 436.734C642.843 437.649 641.359 441.472 637.055 442.483C632.75 443.471 633.497 439.541 631.938 437.431C630.379 435.323 626.909 436.158 625.437 437.256C623.965 438.355 621.045 436.992 621.045 436.992C621.045 436.992 624.935 430.716 628.228 430.342C631.523 429.989 633.686 432.143 636.058 431.967Z" fill="#EED7BA"/>
<path d="M682.775 384.478L680.71 382.964C680.71 382.964 698.082 356.783 703.53 348.987C703.903 348.481 704.21 348.042 704.452 347.691C708.449 342.201 714.555 334.997 720.902 340.026C727.271 345.056 722.11 355.993 719.913 360.935C718.068 365.086 702.805 386.039 698.038 392.606C697.093 393.836 696.566 394.561 696.566 394.561L682.775 384.478Z" fill="#F36F56"/>
<path d="M704.454 347.691C704.212 348.043 703.905 348.481 703.532 348.987L703.335 348.855C703.335 348.855 706.454 335.765 711.483 335.127C714.557 334.731 719.389 334.248 723.651 335.456C726.374 336.226 728.879 337.696 730.526 340.354C734.721 347.119 739.772 464.708 739.772 464.708L738.278 464.818L707.288 467.277L701.116 467.782L698.216 468.002L698.042 392.602C702.807 386.036 718.072 365.082 719.917 360.932C722.114 355.99 727.275 345.052 720.906 340.023C714.557 334.995 708.452 342.199 704.454 347.691Z" fill="#F99370"/>
<path d="M541.815 447.426L532.414 456.848H482.163L491.562 447.426H541.815Z" fill="#467CDB"/>
<path d="M541.815 447.426V497.677L532.414 507.076V456.848L541.815 447.426Z" fill="#1F4FD8"/>
<path d="M532.414 456.848H482.163V507.078H532.414V456.848Z" fill="#1F4FD8"/>
<path d="M595.084 476.48V548.695H595.062L585.663 558.094V485.903L595.062 476.48H595.084Z" fill="#47477C"/>
<path d="M595.062 476.48L585.663 485.903H535.433L544.834 476.48H595.062Z" fill="#5F5F93"/>
<path d="M585.662 485.903H535.433V558.096H585.662V485.903Z" fill="#56548C"/>
<path d="M588.269 420.134L599.527 469.108L592.471 480.375L581.218 431.422L588.269 420.134Z" fill="#E27171"/>
<path d="M588.269 420.134L581.218 431.422L532.245 442.68L539.295 431.391L588.269 420.134Z" fill="#F49090"/>
<path d="M581.217 431.447L532.243 442.703L543.494 491.657L592.469 480.401L581.217 431.447Z" fill="#EC827D"/>
<path d="M599.015 459.768V618.383H483.777V622.909H603.541V459.768H599.015Z" fill="#8495A0"/>
<path d="M603.541 459.768V442.079L625.439 442.08V437.555H599.015V459.768H603.541Z" fill="#8495A0"/>
<path d="M633.309 439.817C633.309 442.623 631.035 444.896 628.228 444.896C625.423 444.896 623.149 442.622 623.149 439.817C623.149 437.013 625.423 434.739 628.228 434.739C631.034 434.739 633.309 437.013 633.309 439.817Z" fill="#6E8696"/>
<path d="M501.209 627.024C503.598 627.024 505.541 628.965 505.541 631.354C505.541 633.743 503.598 635.684 501.209 635.684C498.822 635.684 496.879 633.743 496.879 631.354C496.879 628.965 498.822 627.024 501.209 627.024ZM501.209 620.234C495.07 620.234 490.092 625.212 490.092 631.352C490.092 637.492 495.07 642.472 501.209 642.472C507.351 642.472 512.329 637.494 512.329 631.352C512.329 625.214 507.351 620.234 501.209 620.234Z" fill="#8495A0"/>
<path d="M581.374 627.024C583.762 627.024 585.704 628.965 585.704 631.354C585.704 633.743 583.761 635.684 581.374 635.684C578.985 635.684 577.043 633.743 577.043 631.354C577.043 628.965 578.987 627.024 581.374 627.024ZM581.374 620.234C575.234 620.234 570.256 625.212 570.256 631.352C570.256 637.492 575.234 642.472 581.374 642.472C587.513 642.472 592.491 637.494 592.491 631.352C592.493 625.214 587.515 620.234 581.374 620.234Z" fill="#8495A0"/>
<path d="M600.363 556.521H480.802L446.378 459.013L444.244 459.767V462.029C445.891 462.029 601.28 462.029 601.28 462.029V457.503C601.28 457.503 445.893 457.503 444.244 457.503H441.047L477.603 561.046H600.365V556.521H600.363Z" fill="#8495A0"/>
<path d="M600.974 490.509C600.974 490.509 456.994 490.509 455.896 490.509V495.035C456.994 495.035 600.974 495.035 600.974 495.035V490.509Z" fill="#8495A0"/>
<path d="M600.668 523.514C600.668 523.514 468.097 523.514 467.549 523.514V528.04C468.097 528.04 600.668 528.04 600.668 528.04V523.514Z" fill="#8495A0"/>
<path d="M562.986 459.767V559.009H567.511V459.767" fill="#8495A0"/>
<path d="M505.025 459.767V559.009H509.551V459.767" fill="#8495A0"/>
<defs>
<filter id="filter0_n_412_1180" x="0" y="0" width="800" height="800" filterUnits="userSpaceOnUse" color-interpolation-filters="sRGB">
<feFlood flood-opacity="0" result="BackgroundImageFix"/>
<feBlend mode="normal" in="SourceGraphic" in2="BackgroundImageFix" result="shape"/>
<feTurbulence type="fractalNoise" baseFrequency="2 2" stitchTiles="stitch" numOctaves="3" result="noise" seed="6615" />
<feColorMatrix in="noise" type="luminanceToAlpha" result="alphaNoise" />
<feComponentTransfer in="alphaNoise" result="coloredNoise1">
<feFuncA type="discrete" tableValues="1 1 1 1 1 1 1 1 1 1 1 1 1 1 1 1 1 1 1 1 1 1 1 1 1 1 1 1 1 1 1 1 1 1 1 1 1 1 1 1 1 1 1 1 1 1 1 1 1 1 1 0 0 0 0 0 0 0 0 0 0 0 0 0 0 0 0 0 0 0 0 0 0 0 0 0 0 0 0 0 0 0 0 0 0 0 0 0 0 0 0 0 0 0 0 0 0 0 0 0 "/>
</feComponentTransfer>
<feComposite operator="in" in2="shape" in="coloredNoise1" result="noise1Clipped" />
<feFlood flood-color="rgba(0, 0, 0, 0.25)" result="color1Flood" />
<feComposite operator="in" in2="noise1Clipped" in="color1Flood" result="color1" />
<feMerge result="effect1_noise_412_1180">
<feMergeNode in="shape" />
<feMergeNode in="color1" />
</feMerge>
</filter>
<linearGradient id="paint0_linear_412_1180" x1="0" y1="0" x2="800" y2="800" gradientUnits="userSpaceOnUse">
<stop stop-color="#FFE2E6" stop-opacity="0.2"/>
<stop offset="1" stop-color="#B8CAFF" stop-opacity="0.2"/>
</linearGradient>
</defs>
</svg>
