<svg width="801" height="800" viewBox="0 0 801 800" fill="none" xmlns="http://www.w3.org/2000/svg">
<g filter="url(#filter0_n_412_1180)">
<rect width="800" height="800" rx="48" fill="url(#paint0_linear_412_1180)"/>
</g>
<g opacity="0.25">
<g opacity="0.31">
<path d="M718.602 259.129C737.757 259.129 753.286 243.6 753.286 224.445C753.286 205.289 737.757 189.761 718.602 189.761C699.447 189.761 683.918 205.289 683.918 224.445C683.918 243.6 699.447 259.129 718.602 259.129Z" fill="#B2C1F9"/>
</g>
<g opacity="0.31">
<path d="M657.609 189.76C664.27 189.76 669.669 184.361 669.669 177.701C669.669 171.04 664.27 165.641 657.609 165.641C650.949 165.641 645.55 171.04 645.55 177.701C645.55 184.361 650.949 189.76 657.609 189.76Z" fill="#B2C1F9"/>
</g>
<g opacity="0.31">
<path d="M727.508 117.97C730.105 117.97 732.209 115.865 732.209 113.268C732.209 110.672 730.105 108.567 727.508 108.567C724.912 108.567 722.807 110.672 722.807 113.268C722.807 115.865 724.912 117.97 727.508 117.97Z" fill="#B2C1F9"/>
</g>
<g opacity="0.31">
<path d="M270.923 150.788C281.874 150.788 290.752 141.911 290.752 130.959C290.752 120.008 281.874 111.13 270.923 111.13C259.971 111.13 251.094 120.008 251.094 130.959C251.094 141.911 259.971 150.788 270.923 150.788Z" fill="#B2C1F9"/>
</g>
<path d="M67.1669 123.826C76.1479 123.826 83.4285 116.546 83.4285 107.565C83.4285 98.5838 76.1479 91.3032 67.1669 91.3032C58.1858 91.3032 50.9053 98.5838 50.9053 107.565C50.9053 116.546 58.1858 123.826 67.1669 123.826Z" fill="#F99370"/>
<path d="M131.216 120.361C134.946 120.361 137.969 117.337 137.969 113.607C137.969 109.878 134.946 106.854 131.216 106.854C127.486 106.854 124.463 109.878 124.463 113.607C124.463 117.337 127.486 120.361 131.216 120.361Z" fill="#1F4FD8"/>
<path d="M131.216 120.361C134.946 120.361 137.969 117.337 137.969 113.607C137.969 109.878 134.946 106.854 131.216 106.854C127.486 106.854 124.463 109.878 124.463 113.607C124.463 117.337 127.486 120.361 131.216 120.361Z" fill="#1F4FD8"/>
<path d="M532.955 83.127C534.819 83.127 536.331 81.6156 536.331 79.7512C536.331 77.8869 534.819 76.3755 532.955 76.3755C531.09 76.3755 529.579 77.8869 529.579 79.7512C529.579 81.6156 531.09 83.127 532.955 83.127Z" fill="#1F4FD8"/>
<path d="M656.481 124.052C658.346 124.052 659.857 122.541 659.857 120.677C659.857 118.812 658.346 117.301 656.481 117.301C654.617 117.301 653.105 118.812 653.105 120.677C653.105 122.541 654.617 124.052 656.481 124.052Z" fill="#F99370"/>
<g opacity="0.31">
<path d="M43.4838 785.752C63.8045 785.752 80.2777 769.279 80.2777 748.958C80.2777 728.638 63.8045 712.165 43.4838 712.165C23.1631 712.165 6.68994 728.638 6.68994 748.958C6.68994 769.279 23.1631 785.752 43.4838 785.752Z" fill="#B2C1F9"/>
</g>
<path d="M328.462 79.7515C330.326 79.7515 331.837 78.2401 331.837 76.3758C331.837 74.5114 330.326 73 328.462 73C326.597 73 325.086 74.5114 325.086 76.3758C325.086 78.2401 326.597 79.7515 328.462 79.7515Z" fill="#233863"/>
<path d="M767.914 293.056C769.779 293.056 771.29 291.545 771.29 289.68C771.29 287.816 769.779 286.305 767.914 286.305C766.05 286.305 764.539 287.816 764.539 289.68C764.539 291.545 766.05 293.056 767.914 293.056Z" fill="#233863"/>
</g>
<g opacity="0.33">
<g opacity="0.47">
<path d="M7.258 511.478C2.57415 512.925 -0.0490828 517.896 1.39792 522.581C2.84492 527.267 8.82104 533.143 13.5067 531.696C18.1923 530.249 16.1756 522.831 17.1707 518.031C18.558 511.336 11.9419 510.031 7.258 511.478Z" fill="#B2C1F9"/>
</g>
<g opacity="0.47">
<path d="M108.01 214.108C101.636 202.228 86.8375 197.764 74.9574 204.139C63.0772 210.514 50.3601 229.74 56.7336 241.618C63.1071 253.499 82.064 244.152 95.5441 244.31C114.346 244.53 114.383 225.988 108.01 214.108Z" fill="#B2C1F9"/>
</g>
<g opacity="0.47">
<path d="M788.782 655.124C799.786 637.623 802.545 615.91 800.254 595.363C797.977 574.947 791.721 553.525 782.985 534.957C774.704 517.359 762.718 501.66 759.302 482.058C754.789 456.159 766.609 431.265 769.354 405.861C774.816 355.286 740.639 310.724 698.238 286.662C663.8 267.118 623.426 259.784 583.834 260.306C548.198 260.776 512.626 267.098 478.095 275.599C444.818 283.791 412.282 294.586 377.401 291.18C348.391 288.348 322.264 276.299 295.248 267.314C230.748 245.864 152.615 242.839 93.6347 275.494C55.7824 296.451 29.288 330.485 17.538 367.077C8.93158 393.879 6.37867 424.696 12.6853 451.82C19.7727 482.299 32.866 509.146 29.4094 541.251C26.5716 567.596 16.8945 593.28 17.7507 620.004C18.4856 642.973 27.0903 665.944 40.4667 684.522C41.33 685.722 42.2513 686.904 43.2868 687.955H751.174C765.992 679.964 779.824 669.371 788.782 655.124Z" fill="#B2C1F9"/>
</g>
<g opacity="0.81">
<path d="M697.904 637.586C700.411 618.067 694.541 599.936 695.311 580.965C696.791 544.484 730.306 519.296 741.984 486.504C756.772 444.977 756.062 398.445 738.104 357.98C729.448 338.478 716.805 320.354 699.539 307.82C672.922 288.497 638.046 284.26 605.247 286.711C556.432 290.359 504.924 310.661 455.844 305.125C428.76 302.069 420.49 273.906 406.502 255.329C390.681 234.318 369.136 217.814 345.318 206.829C301.447 186.595 248.796 184.681 203.959 203.028C156.088 222.614 114.364 270.448 117.107 324.544C118.376 349.57 128.802 374.426 123.976 399.016C117.917 429.876 93.7158 457.997 76.1777 483.141C56.8094 510.91 45.0839 544.024 42.7842 577.808C40.1768 616.112 49.7185 655.144 69.653 687.954H681.076C689.95 672.501 695.634 655.253 697.904 637.586Z" fill="#B2C1F9"/>
</g>
</g>
<path d="M745.099 695.493H49.8012C48.2663 695.493 47.0215 694.248 47.0215 692.713C47.0215 691.178 48.2663 689.934 49.8012 689.934H745.099C746.634 689.934 747.879 691.178 747.879 692.713C747.879 694.248 746.634 695.493 745.099 695.493Z" fill="#233863"/>
<path d="M710.335 377.323H603.009C599.772 377.323 597.149 374.7 597.149 371.463V334.543C597.149 331.306 599.772 328.683 603.009 328.683H710.335C713.572 328.683 716.195 331.306 716.195 334.543V371.463C716.195 374.7 713.572 377.323 710.335 377.323Z" fill="#F36F56"/>
<path d="M626.242 367.04H747.228C750.883 367.04 753.874 370.03 753.874 373.686V410.748C753.874 414.404 750.883 417.394 747.228 417.394H626.242C622.587 417.394 619.596 414.404 619.596 410.748V373.686C619.598 370.03 622.587 367.04 626.242 367.04Z" fill="white"/>
<path d="M626.242 367.04H747.228C750.883 367.04 753.874 370.03 753.874 373.686V410.748C753.874 414.404 750.883 417.394 747.228 417.394H626.242C622.587 417.394 619.596 414.404 619.596 410.748V373.686C619.598 370.03 622.587 367.04 626.242 367.04Z" fill="#467CDB"/>
<path d="M711.249 398.26C707.953 398.26 705.271 395.579 705.271 392.282C705.271 388.985 707.953 386.304 711.249 386.304C714.546 386.304 717.227 388.985 717.227 392.282C717.227 395.577 714.546 398.26 711.249 398.26ZM711.249 388.061C708.923 388.061 707.03 389.954 707.03 392.28C707.03 394.606 708.923 396.5 711.249 396.5C713.575 396.5 715.469 394.606 715.469 392.28C715.469 389.954 713.575 388.061 711.249 388.061Z" fill="white"/>
<path d="M687.181 398.26C683.886 398.26 681.205 395.579 681.205 392.282C681.205 388.985 683.886 386.304 687.181 386.304C690.478 386.304 693.159 388.985 693.159 392.282C693.161 395.577 690.478 398.26 687.181 398.26ZM687.181 388.061C684.855 388.061 682.963 389.954 682.963 392.28C682.963 394.606 684.855 396.5 687.181 396.5C689.507 396.5 691.401 394.606 691.401 392.28C691.403 389.954 689.509 388.061 687.181 388.061Z" fill="white"/>
<path d="M664.749 398.26C661.454 398.26 658.772 395.579 658.772 392.282C658.772 388.985 661.454 386.304 664.749 386.304C668.045 386.304 670.726 388.985 670.726 392.282C670.726 395.577 668.045 398.26 664.749 398.26ZM664.749 388.061C662.422 388.061 660.531 389.954 660.531 392.28C660.531 394.606 662.422 396.5 664.749 396.5C667.075 396.5 668.968 394.606 668.968 392.28C668.968 389.954 667.075 388.061 664.749 388.061Z" fill="white"/>
<path opacity="0.66" d="M661.033 602.846H642.818C638.366 602.846 634.742 599.222 634.742 594.77V576.678C628.872 575.135 623.253 572.807 618.003 569.742L605.206 582.537C603.682 584.061 601.653 584.903 599.498 584.903C597.342 584.903 595.311 584.061 593.787 582.537L580.908 569.658C579.384 568.134 578.542 566.105 578.542 563.947C578.542 561.79 579.384 559.763 580.908 558.238L593.703 545.442C590.638 540.194 588.31 534.575 586.766 528.702H568.675C564.223 528.702 560.599 525.079 560.599 520.627V502.412C560.599 497.96 564.223 494.337 568.675 494.337H586.766C588.31 488.468 590.638 482.848 593.703 477.597L580.908 464.802C579.384 463.278 578.542 461.249 578.542 459.092C578.542 456.934 579.384 454.907 580.908 453.381L593.787 440.5C595.311 438.974 597.34 438.136 599.498 438.136C601.655 438.136 603.682 438.976 605.206 440.5L618.003 453.297C623.247 450.232 628.868 447.904 634.742 446.36V428.267C634.742 423.815 638.366 420.191 642.818 420.191H661.033C665.485 420.191 669.108 423.815 669.108 428.267V446.36C674.981 447.904 680.6 450.234 685.848 453.297L698.643 440.5C701.793 437.35 706.917 437.353 710.064 440.5L722.943 453.381C724.467 454.905 725.309 456.934 725.309 459.092C725.309 461.249 724.467 463.278 722.943 464.802L710.146 477.597C713.213 482.845 715.541 488.466 717.084 494.337H735.176C739.628 494.337 743.252 497.96 743.252 502.412V520.627C743.252 525.079 739.628 528.702 735.176 528.702H717.084C715.539 534.576 713.211 540.194 710.146 545.442L722.943 558.238C724.467 559.763 725.309 561.792 725.309 563.947C725.309 566.103 724.467 568.134 722.943 569.658L710.064 582.537C706.915 585.686 701.791 585.686 698.643 582.537L685.848 569.742C680.598 572.807 674.977 575.135 669.108 576.678V594.77C669.108 599.224 665.486 602.846 661.033 602.846ZM617.465 565.31L618.646 566.031C624.316 569.5 630.463 572.045 636.914 573.6L638.261 573.925V594.772C638.261 597.286 640.305 599.331 642.82 599.331H661.035C663.549 599.331 665.594 597.286 665.594 594.772V573.925L666.94 573.602C673.389 572.045 679.536 569.5 685.208 566.031L686.39 565.31L701.132 580.052C702.911 581.832 705.802 581.832 707.581 580.052L720.46 567.174C721.322 566.312 721.796 565.166 721.796 563.949C721.796 562.732 721.322 561.586 720.46 560.726L705.714 545.982L706.438 544.799C709.906 539.132 712.453 532.987 714.007 526.533L714.333 525.186H735.18C737.694 525.186 739.739 523.141 739.739 520.627V502.412C739.739 499.898 737.694 497.853 735.18 497.853H714.333L714.007 496.506C712.453 490.055 709.907 483.909 706.437 478.238L705.716 477.057L720.46 462.314C721.322 461.453 721.796 460.307 721.796 459.09C721.796 457.873 721.322 456.727 720.46 455.867L707.581 442.987C705.802 441.209 702.911 441.209 701.132 442.987L686.39 457.731L685.208 457.01C679.538 453.541 673.393 450.995 666.94 449.439L665.594 449.114V428.267C665.594 425.753 663.549 423.708 661.035 423.708H642.82C640.305 423.708 638.261 425.753 638.261 428.267V449.114L636.914 449.439C630.459 450.993 624.315 453.541 618.648 457.008L617.465 457.733L602.72 442.987C600.999 441.263 597.994 441.265 596.273 442.987L583.394 455.867C582.533 456.727 582.058 457.873 582.058 459.09C582.058 460.307 582.533 461.453 583.394 462.314L598.137 477.057L597.416 478.238C593.947 483.91 591.401 490.057 589.845 496.506L589.522 497.853H568.675C566.16 497.853 564.116 499.898 564.116 502.412V520.627C564.116 523.141 566.16 525.186 568.675 525.186H589.522L589.845 526.533C591.401 532.985 593.947 539.13 597.416 544.8L598.137 545.982L583.394 560.726C582.533 561.586 582.058 562.732 582.058 563.949C582.058 565.166 582.533 566.312 583.394 567.174L596.273 580.052C597.996 581.775 600.999 581.775 602.72 580.052L617.465 565.31ZM651.925 561.822C624.19 561.822 601.625 539.257 601.625 511.521C601.625 483.786 624.19 461.219 651.925 461.219C679.661 461.219 702.228 483.786 702.228 511.521C702.228 539.257 679.661 561.822 651.925 561.822ZM651.925 464.735C626.127 464.735 605.141 485.725 605.141 511.521C605.141 537.318 626.129 558.305 651.925 558.305C677.722 558.305 698.711 537.318 698.711 511.521C698.711 485.725 677.723 464.735 651.925 464.735Z" fill="white"/>
<path opacity="0.66" d="M663.513 669.972C663.07 669.972 662.62 669.911 662.174 669.782L653.646 667.323C651.086 666.584 649.603 663.899 650.341 661.336L652.593 653.529C650.415 652.167 648.4 650.56 646.585 648.731L639.468 652.659C638.34 653.283 637.033 653.433 635.79 653.072C634.549 652.715 633.522 651.894 632.898 650.764L628.608 642.994C627.321 640.659 628.17 637.711 630.503 636.424L637.62 632.494C637.04 629.985 636.752 627.425 636.761 624.853L628.952 622.601C627.713 622.244 626.684 621.423 626.058 620.292C625.436 619.16 625.288 617.854 625.647 616.614L628.107 608.087C628.464 606.847 629.285 605.819 630.415 605.193C631.544 604.571 632.852 604.423 634.093 604.781L641.9 607.034C643.264 604.854 644.871 602.839 646.698 601.026L642.77 593.909C641.481 591.576 642.331 588.627 644.662 587.338L652.433 583.05C654.765 581.76 657.717 582.612 659.004 584.945L662.933 592.061C665.44 591.481 667.951 591.196 670.574 591.203L672.827 583.397C673.184 582.155 674.005 581.127 675.135 580.503C676.267 579.88 677.577 579.734 678.813 580.089L687.342 582.549C689.904 583.291 691.388 585.976 690.648 588.537L688.396 596.344C690.577 597.708 692.592 599.315 694.403 601.142L701.52 597.214C703.855 595.922 706.804 596.776 708.091 599.11L712.379 606.879C713.003 608.01 713.151 609.316 712.792 610.557C712.434 611.798 711.614 612.825 710.484 613.451L703.368 617.379C703.947 619.89 704.235 622.448 704.226 625.02L712.035 627.272C714.596 628.013 716.078 630.699 715.342 633.259L712.882 641.788C712.142 644.35 709.45 645.832 706.895 645.094L699.087 642.841C697.725 645.021 696.118 647.035 694.289 648.849L698.217 655.966C698.841 657.099 698.987 658.403 698.63 659.644C698.271 660.886 697.45 661.913 696.32 662.538L688.552 666.827C687.42 667.453 686.115 667.597 684.874 667.24C683.633 666.881 682.606 666.06 681.98 664.93L678.052 657.814C675.545 658.394 673.009 658.728 670.411 658.674L668.159 666.482C667.548 668.592 665.613 669.972 663.513 669.972ZM647.285 644.325L648.221 645.347C650.344 647.668 652.802 649.633 655.528 651.182L656.732 651.868L653.72 662.308C653.622 662.646 653.662 663.004 653.833 663.312C654.003 663.62 654.283 663.843 654.619 663.94L663.148 666.399C663.851 666.603 664.579 666.195 664.783 665.497L667.796 655.057L669.178 655.119C672.322 655.265 675.443 654.906 678.472 654.073L679.808 653.705L685.062 663.221C685.234 663.53 685.514 663.753 685.851 663.85C686.185 663.947 686.546 663.908 686.854 663.738L694.623 659.449C694.932 659.277 695.156 658.997 695.252 658.66C695.349 658.322 695.311 657.964 695.142 657.658L689.888 648.142L690.91 647.207C693.229 645.087 695.193 642.627 696.743 639.9L697.429 638.695L707.869 641.707C708.571 641.911 709.3 641.503 709.504 640.805L711.964 632.278C712.165 631.58 711.76 630.847 711.06 630.643L700.62 627.629L700.682 626.247C700.821 623.112 700.469 619.985 699.637 616.952L699.27 615.616L708.784 610.366C709.093 610.193 709.316 609.914 709.413 609.574C709.512 609.237 709.471 608.88 709.302 608.574L705.014 600.803C704.662 600.166 703.859 599.936 703.219 600.286L693.705 605.538L692.77 604.516C690.653 602.199 688.192 600.235 685.463 598.682L684.258 597.997L687.27 587.556C687.472 586.858 687.068 586.125 686.368 585.921L677.841 583.462C677.502 583.365 677.145 583.404 676.839 583.574C676.529 583.745 676.306 584.024 676.209 584.363L673.196 594.804L671.814 594.742C668.674 594.598 665.551 594.955 662.518 595.787L661.182 596.154L655.93 586.64C655.758 586.331 655.478 586.108 655.139 586.011C654.802 585.909 654.445 585.955 654.137 586.122L646.367 590.41C645.733 590.762 645.499 591.567 645.851 592.205L651.104 601.72L650.083 602.656C647.763 604.776 645.798 607.234 644.247 609.963L643.561 611.167L633.121 608.155C632.784 608.055 632.425 608.099 632.119 608.266C631.81 608.437 631.586 608.718 631.49 609.054L629.03 617.583C628.931 617.921 628.972 618.279 629.141 618.585C629.311 618.895 629.591 619.118 629.93 619.215L640.37 622.228L640.309 623.61C640.17 626.747 640.521 629.875 641.355 632.904L641.722 634.24L632.207 639.494C631.57 639.845 631.338 640.651 631.69 641.289L635.978 649.057C636.149 649.366 636.43 649.589 636.768 649.684C637.1 649.786 637.46 649.744 637.768 649.573L647.285 644.325ZM670.534 650.356C668.167 650.356 665.789 650.022 663.454 649.348C656.932 647.467 651.535 643.158 648.252 637.217C644.971 631.276 644.2 624.412 646.083 617.891C649.966 604.428 664.087 596.636 677.542 600.521C684.063 602.403 689.459 606.712 692.742 612.653C696.023 618.594 696.794 625.456 694.911 631.977C693.03 638.499 688.721 643.896 682.782 647.179C678.965 649.285 674.771 650.356 670.534 650.356ZM670.504 603.039C660.999 603.039 652.226 609.286 649.46 618.865C647.839 624.482 648.502 630.398 651.329 635.517C654.155 640.636 658.807 644.348 664.426 645.969C670.043 647.59 675.958 646.926 681.076 644.1C686.196 641.275 689.908 636.623 691.529 631.003C693.15 625.386 692.487 619.471 689.66 614.351C686.834 609.233 682.182 605.522 676.565 603.901C674.546 603.317 672.508 603.039 670.504 603.039Z" fill="white"/>
<path d="M646.319 633.643H146.582C135.559 633.643 126.622 624.706 126.622 613.682V284.71C126.622 273.686 135.559 264.75 146.582 264.75H646.321C657.345 264.75 666.282 273.686 666.282 284.71V613.682C666.28 624.706 657.343 633.643 646.319 633.643Z" fill="white"/>
<path d="M666.28 303.926H126.622V283.16C126.622 272.992 134.864 264.75 145.032 264.75H647.874C658.041 264.75 666.284 272.992 666.284 283.16V303.926H666.28Z" fill="#1F4FD8"/>
<path d="M227.623 290.818H155.787C152.646 290.818 150.092 288.264 150.092 285.124C150.092 281.983 152.646 279.429 155.787 279.429H227.623C230.763 279.429 233.318 281.983 233.318 285.124C233.318 288.264 230.763 290.818 227.623 290.818ZM155.785 281.185C153.615 281.185 151.848 282.95 151.848 285.122C151.848 287.293 153.615 289.058 155.785 289.058H227.621C229.791 289.058 231.558 287.293 231.558 285.122C231.558 282.95 229.791 281.185 227.621 281.185H155.785Z" fill="white"/>
<path d="M255.517 290.818H247.691C244.551 290.818 241.997 288.264 241.997 285.124C241.997 281.983 244.551 279.429 247.691 279.429H255.517C258.656 279.429 261.21 281.983 261.21 285.124C261.21 288.264 258.656 290.818 255.517 290.818ZM247.691 281.185C245.522 281.185 243.755 282.95 243.755 285.122C243.755 287.293 245.522 289.058 247.691 289.058H255.517C257.687 289.058 259.452 287.293 259.452 285.122C259.452 282.95 257.687 281.185 255.517 281.185H247.691Z" fill="white"/>
<path d="M279.395 290.818H271.569C268.429 290.818 265.875 288.264 265.875 285.124C265.875 281.983 268.429 279.429 271.569 279.429H279.395C282.535 279.429 285.09 281.983 285.09 285.124C285.09 288.264 282.535 290.818 279.395 290.818ZM271.569 281.185C269.4 281.185 267.633 282.95 267.633 285.122C267.633 287.293 269.4 289.058 271.569 289.058H279.395C281.565 289.058 283.332 287.293 283.332 285.122C283.332 282.95 281.565 281.185 279.395 281.185H271.569Z" fill="white"/>
<path d="M301.949 290.818H294.123C290.983 290.818 288.428 288.264 288.428 285.124C288.428 281.983 290.983 279.429 294.123 279.429H301.949C305.089 279.429 307.644 281.983 307.644 285.124C307.644 288.264 305.089 290.818 301.949 290.818ZM294.123 281.185C291.953 281.185 290.186 282.95 290.186 285.122C290.186 287.293 291.953 289.058 294.123 289.058H301.949C304.118 289.058 305.885 287.293 305.885 285.122C305.885 282.95 304.118 281.185 301.949 281.185H294.123Z" fill="white"/>
<path d="M645.832 293.953C645.382 293.953 644.932 293.78 644.589 293.438L632.489 281.338C631.802 280.65 631.802 279.539 632.489 278.852C633.177 278.164 634.288 278.164 634.975 278.852L647.075 290.951C647.763 291.639 647.763 292.75 647.075 293.438C646.732 293.78 646.282 293.953 645.832 293.953Z" fill="white"/>
<path d="M633.732 293.953C633.282 293.953 632.832 293.78 632.489 293.438C631.802 292.75 631.802 291.639 632.489 290.951L644.589 278.852C645.277 278.164 646.388 278.164 647.075 278.852C647.763 279.539 647.763 280.65 647.075 281.338L634.975 293.438C634.632 293.78 634.182 293.953 633.732 293.953Z" fill="white"/>
<path d="M227.616 328.482H193.298C191.782 328.482 190.551 327.253 190.551 325.736V322.657C190.551 321.142 191.78 319.911 193.298 319.911H227.616C229.131 319.911 230.362 321.14 230.362 322.657V325.736C230.362 327.253 229.133 328.482 227.616 328.482Z" fill="#1F4FD8"/>
<path opacity="0.17" d="M292.9 326.946H283.281C282.168 326.946 281.264 326.042 281.264 324.929C281.264 323.816 282.168 322.913 283.281 322.913H292.9C294.013 322.913 294.917 323.816 294.917 324.929C294.917 326.042 294.013 326.946 292.9 326.946Z" fill="#B2C1F9"/>
<path opacity="0.17" d="M322.219 326.946H312.6C311.485 326.946 310.583 326.042 310.583 324.929C310.583 323.816 311.487 322.913 312.6 322.913H322.219C323.332 322.913 324.236 323.816 324.236 324.929C324.236 326.042 323.334 326.946 322.219 326.946Z" fill="#B2C1F9"/>
<path opacity="0.17" d="M356.504 326.946H346.885C345.771 326.946 344.869 326.042 344.869 324.929C344.869 323.816 345.772 322.913 346.885 322.913H356.504C357.617 322.913 358.521 323.816 358.521 324.929C358.521 326.042 357.619 326.946 356.504 326.946Z" fill="#B2C1F9"/>
<path opacity="0.17" d="M386.912 326.946H377.293C376.18 326.946 375.276 326.042 375.276 324.929C375.276 323.816 376.18 322.913 377.293 322.913H386.912C388.025 322.913 388.929 323.816 388.929 324.929C388.929 326.042 388.025 326.946 386.912 326.946Z" fill="#B2C1F9"/>
<path d="M539.953 330.204C542.566 330.204 544.685 328.086 544.685 325.473C544.685 322.859 542.566 320.741 539.953 320.741C537.34 320.741 535.222 322.859 535.222 325.473C535.222 328.086 537.34 330.204 539.953 330.204Z" fill="#B2C1F9"/>
<path d="M596.733 332.065H577.806C574.078 332.065 571.058 329.045 571.058 325.317C571.058 321.59 574.078 318.569 577.806 318.569H596.733C600.46 318.569 603.481 321.59 603.481 325.317C603.481 329.043 600.46 332.065 596.733 332.065Z" fill="#F99370"/>
<path opacity="0.17" d="M597.631 509.661H196.402C193.171 509.661 190.553 507.042 190.553 503.812V349.755C190.553 346.523 193.172 343.905 196.402 343.905H597.631C600.862 343.905 603.48 346.525 603.48 349.755V503.812C603.48 507.042 600.861 509.661 597.631 509.661Z" fill="#B2C1F9"/>
<path opacity="0.17" d="M383.81 595.743H298.175C296.265 595.743 294.711 594.189 294.711 592.278V550.392C294.711 549.977 294.783 549.571 294.925 549.186C295.43 547.832 296.735 546.927 298.175 546.927H383.81C385.721 546.927 387.275 548.481 387.275 550.392V592.278C387.273 594.191 385.719 595.743 383.81 595.743ZM383.757 550.392L298.173 550.443L298.226 592.278L383.755 592.227L383.757 550.392Z" fill="#B2C1F9"/>
<path opacity="0.17" d="M298.785 548.295L297.211 551.439L384.242 595.004L385.816 591.859L298.785 548.295Z" fill="#B2C1F9"/>
<path opacity="0.17" d="M378.806 607.016H296.817C296.624 607.016 296.467 606.86 296.467 606.666V603.02C296.467 602.826 296.624 602.67 296.817 602.67H378.806C378.999 602.67 379.155 602.826 379.155 603.02V606.666C379.155 606.86 378.999 607.016 378.806 607.016Z" fill="#B2C1F9"/>
<path opacity="0.17" d="M315.2 616.635H297.437C297.073 616.635 296.778 616.34 296.778 615.976V613.107C296.778 612.743 297.073 612.447 297.437 612.447H315.2C315.564 612.447 315.86 612.743 315.86 613.107V615.976C315.86 616.34 315.564 616.635 315.2 616.635Z" fill="#B2C1F9"/>
<path opacity="0.17" d="M384.856 616.635H367.092C366.728 616.635 366.433 616.34 366.433 615.976V613.107C366.433 612.743 366.728 612.447 367.092 612.447H384.856C385.219 612.447 385.515 612.743 385.515 613.107V615.976C385.515 616.34 385.221 616.635 384.856 616.635Z" fill="#B2C1F9"/>
<path opacity="0.17" d="M490.425 595.743H404.79C402.879 595.743 401.325 594.189 401.325 592.278V550.392C401.325 548.481 402.879 546.927 404.79 546.927H490.425C492.336 546.927 493.891 548.481 493.891 550.392V592.278C493.891 594.191 492.336 595.743 490.425 595.743ZM490.374 550.392L404.79 550.443L404.841 592.278L490.372 592.227V550.392H490.374Z" fill="#B2C1F9"/>
<path opacity="0.17" d="M404.946 548.296L403.372 551.44L490.403 595.005L491.977 591.86L404.946 548.296Z" fill="#B2C1F9"/>
<path opacity="0.17" d="M489.363 548.317L403.413 590.822L404.971 593.974L490.921 551.469L489.363 548.317Z" fill="#B2C1F9"/>
<path opacity="0.17" d="M485.421 607.016H403.433C403.239 607.016 403.083 606.86 403.083 606.666V603.02C403.083 602.826 403.239 602.67 403.433 602.67H485.421C485.615 602.67 485.771 602.826 485.771 603.02V606.666C485.771 606.86 485.615 607.016 485.421 607.016Z" fill="#B2C1F9"/>
<path opacity="0.17" d="M421.816 616.635H404.053C403.689 616.635 403.394 616.34 403.394 615.976V613.107C403.394 612.743 403.689 612.447 404.053 612.447H421.816C422.18 612.447 422.476 612.743 422.476 613.107V615.976C422.476 616.34 422.18 616.635 421.816 616.635Z" fill="#B2C1F9"/>
<path opacity="0.17" d="M491.471 616.635H473.708C473.344 616.635 473.049 616.34 473.049 615.976V613.107C473.049 612.743 473.344 612.447 473.708 612.447H491.471C491.835 612.447 492.131 612.743 492.131 613.107V615.976C492.131 616.34 491.837 616.635 491.471 616.635Z" fill="#B2C1F9"/>
<path opacity="0.17" d="M599.964 595.743H514.329C512.418 595.743 510.864 594.189 510.864 592.278V550.392C510.864 548.481 512.418 546.927 514.329 546.927H599.964C601.875 546.927 603.43 548.481 603.43 550.392V592.278C603.43 594.191 601.875 595.743 599.964 595.743ZM599.913 550.392L514.329 550.443L514.38 592.278L599.911 592.227L599.913 550.392Z" fill="#B2C1F9"/>
<path opacity="0.17" d="M515.298 548.299L513.724 551.444L600.755 595.008L602.329 591.864L515.298 548.299Z" fill="#B2C1F9"/>
<path opacity="0.17" d="M599.722 548.317L513.772 590.822L515.331 593.974L601.281 551.469L599.722 548.317Z" fill="#B2C1F9"/>
<path opacity="0.17" d="M594.96 607.016H512.972C512.779 607.016 512.622 606.86 512.622 606.666V603.02C512.622 602.826 512.779 602.67 512.972 602.67H594.96C595.154 602.67 595.31 602.826 595.31 603.02V606.666C595.31 606.86 595.154 607.016 594.96 607.016Z" fill="#B2C1F9"/>
<path opacity="0.17" d="M531.356 616.635H513.593C513.229 616.635 512.934 616.34 512.934 615.976V613.107C512.934 612.743 513.229 612.447 513.593 612.447H531.356C531.72 612.447 532.015 612.743 532.015 613.107V615.976C532.015 616.34 531.72 616.635 531.356 616.635Z" fill="#B2C1F9"/>
<path opacity="0.17" d="M601.012 616.635H583.249C582.885 616.635 582.59 616.34 582.59 615.976V613.107C582.59 612.743 582.885 612.447 583.249 612.447H601.012C601.376 612.447 601.672 612.743 601.672 613.107V615.976C601.672 616.34 601.376 616.635 601.012 616.635Z" fill="#B2C1F9"/>
<path d="M238.028 532.243H192.211C191.295 532.243 190.551 531.499 190.551 530.583V523.353C190.551 522.437 191.295 521.693 192.211 521.693H238.028C238.944 521.693 239.688 522.437 239.688 523.353V530.583C239.688 531.499 238.946 532.243 238.028 532.243Z" fill="#1F4FD8"/>
<path opacity="0.17" d="M216.107 551.633H190.551V557.217H216.107V551.633Z" fill="#B2C1F9"/>
<path d="M208.506 607.388H190.551V612.972H208.506V607.388Z" fill="#F99370"/>
<path d="M225.572 568.646H191.443C190.958 568.646 190.564 568.252 190.564 567.767C190.564 567.282 190.958 566.888 191.443 566.888H225.572C226.057 566.888 226.451 567.282 226.451 567.767C226.451 568.252 226.057 568.646 225.572 568.646Z" fill="#B2C1F9"/>
<path d="M211.919 580.127H191.443C190.958 580.127 190.564 579.733 190.564 579.248C190.564 578.762 190.958 578.369 191.443 578.369H211.919C212.404 578.369 212.798 578.762 212.798 579.248C212.798 579.733 212.404 580.127 211.919 580.127Z" fill="#B2C1F9"/>
<path d="M243.412 591.917H191.441C190.956 591.917 190.562 591.524 190.562 591.038C190.562 590.553 190.956 590.159 191.441 590.159H243.412C243.897 590.159 244.291 590.553 244.291 591.038C244.291 591.524 243.897 591.917 243.412 591.917Z" fill="#B2C1F9"/>
<path d="M275.68 555.304H257.994C257.509 555.304 257.115 554.91 257.115 554.425C257.115 553.94 257.509 553.546 257.994 553.546H275.68C276.165 553.546 276.559 553.94 276.559 554.425C276.559 554.91 276.165 555.304 275.68 555.304Z" fill="#F99370"/>
<path opacity="0.17" d="M473.115 535.034H299.777C298.121 535.034 296.778 533.691 296.778 532.034V521.898C296.778 520.242 298.121 518.899 299.777 518.899H473.115C474.771 518.899 476.114 520.242 476.114 521.898V532.034C476.114 533.691 474.771 535.034 473.115 535.034Z" fill="#B2C1F9"/>
<path d="M594.999 532.242H556.319C552.636 532.242 549.648 529.254 549.648 525.571C549.648 521.888 552.636 518.9 556.319 518.9H594.999C598.683 518.9 601.67 521.888 601.67 525.571C601.672 529.254 598.685 532.242 594.999 532.242Z" fill="#F99370"/>
<path opacity="0.17" d="M383.198 548.317L297.248 590.822L298.806 593.974L384.756 551.469L383.198 548.317Z" fill="#B2C1F9"/>
<path d="M332.943 273.38C333.472 273.582 334.021 273.218 334.051 272.649L334.381 266.231L335.009 273.726C335.046 274.171 335.403 274.528 335.835 274.553L335.932 274.558C336.403 274.586 336.788 274.213 336.79 273.73L336.815 266.382L337.653 272.466C337.72 272.951 338.163 273.301 338.631 273.239L338.831 273.213C339.258 273.157 339.561 272.773 339.531 272.329L339.137 266.518C339.134 266.474 339.134 266.428 339.139 266.384L339.51 261.895C339.566 261.21 340.349 260.895 340.876 261.347L343.65 263.722C343.986 264.01 344.468 264.002 344.772 263.703L344.881 263.596C345.166 263.314 345.21 262.857 344.985 262.504L341.92 257.693C340.393 255.061 339.079 253.792 338.077 253.196L329.409 253.479C329.386 253.505 329.393 253.546 329.39 253.579C329.066 256.584 329.525 264.541 329.565 265.201C329.567 265.232 329.567 265.261 329.565 265.29L329.342 270.184C329.318 270.716 329.766 271.165 330.285 271.124C330.645 271.096 330.939 270.832 331.013 270.468L331.897 266.105L332.147 272.48C332.161 272.842 332.391 273.165 332.725 273.292L332.943 273.38Z" fill="#FEC29E"/>
<path d="M476.239 203.315C476.192 202.456 475.48 201.782 474.618 201.786C466.692 201.812 430.656 201.89 427.145 201.176C423.657 200.467 413.313 187.481 410.031 184.383C409.611 183.988 401.085 173.593 400.528 173.76C395.388 169.118 388.412 165.403 382.158 165.403H379.412C371.095 165.403 362.304 165.426 354.51 168.732C346.479 172.139 342.036 178.878 337.259 185.82C334.535 189.777 329.275 200.079 327.861 208.383C326.98 213.555 327.253 222.791 327.415 228.034C327.518 231.41 327.645 234.784 327.807 238.158C328.041 243.06 328.322 247.958 328.528 252.862C328.563 253.707 329.243 254.375 330.091 254.403L338.113 254.68C338.975 254.709 339.708 254.064 339.782 253.206C340.466 245.319 344.105 214.898 345.132 211.465C345.215 211.187 345.429 210.784 345.696 210.332L348.065 243.228C348.065 243.944 402.158 249.076 402.158 249.076C401.716 233.156 402.175 222.132 404.202 208.384C412.663 213.323 420.211 217.603 421.93 218.181C425.804 219.484 466.912 214.135 475.288 213.026C476.127 212.915 476.737 212.177 476.689 211.331L476.239 203.315Z" fill="#F99370"/>
<path d="M395.423 391.932L395.157 391.902L394.953 394.536L423.427 397.75L423.577 395.811C423.6 395.51 423.44 395.239 423.197 395.116C423.132 395.083 423.062 395.055 422.986 395.046L395.423 391.932Z" fill="#233863"/>
<path d="M406.366 383.335L397.745 382.383C397.533 382.361 397.33 382.41 397.158 382.512C397.091 382.552 397.028 382.6 396.972 382.654C396.805 382.814 396.685 383.036 396.65 383.294L396.508 384.295L396.049 387.524L395.423 391.93L422.988 395.041C423.064 395.05 423.134 395.078 423.199 395.111C422.782 393.043 421.356 391.315 419.424 390.67L413.154 389.555C411.742 388.641 410.51 387.843 409.1 386.928L406.844 383.517C406.797 383.484 406.744 383.467 406.693 383.442C406.652 383.423 406.616 383.396 406.573 383.382C406.505 383.363 406.436 383.343 406.366 383.335Z" fill="#233863"/>
<path d="M374.189 386.948L373.937 386.858L373.134 389.374L400.101 399.062L400.694 397.209C400.785 396.921 400.69 396.622 400.484 396.444C400.428 396.397 400.368 396.353 400.296 396.326L374.189 386.948Z" fill="#233863"/>
<path d="M386.811 381.102L378.642 378.19C378.44 378.118 378.232 378.122 378.041 378.18C377.967 378.203 377.895 378.234 377.826 378.275C377.626 378.393 377.461 378.581 377.366 378.823L376.998 379.764L375.81 382.802L374.188 386.946L400.294 396.324C400.366 396.351 400.426 396.395 400.482 396.442C400.553 394.334 399.561 392.324 397.829 391.25L391.985 388.72C390.821 387.505 389.807 386.445 388.643 385.228L387.231 381.39C387.194 381.346 387.145 381.316 387.101 381.281C387.066 381.253 387.036 381.22 386.999 381.195C386.941 381.162 386.877 381.127 386.811 381.102Z" fill="#233863"/>
<path d="M372.499 245.599L402.152 249.075L429.38 286.806C435.159 294.815 436.722 305.118 433.577 314.48L410.374 383.548H395.459L412.077 299.451L372.499 245.599Z" fill="#233863"/>
<path d="M348.06 243.227L372.499 245.599C375.324 245.873 377.925 247.262 379.721 249.46L420.724 299.59C423.545 303.038 424.308 307.73 422.723 311.894L394.794 385.295L374.204 377.947L390.301 312.163L352.52 289.174C342.688 283.191 338.363 271.158 342.14 260.285L348.06 243.227Z" fill="#1D3F70"/>
<path d="M404.198 208.822C403.987 208.822 403.799 208.669 403.764 208.454L401.024 191.846C400.986 191.607 401.147 191.38 401.386 191.342C401.619 191.299 401.852 191.465 401.893 191.704L404.632 208.312C404.671 208.551 404.509 208.778 404.27 208.816C404.247 208.82 404.222 208.822 404.198 208.822Z" fill="#142647"/>
<path d="M345.939 209.699C345.904 209.699 345.87 209.696 345.833 209.687C345.598 209.629 345.453 209.392 345.51 209.156L348.107 198.568C348.165 198.333 348.395 198.192 348.639 198.247C348.875 198.305 349.019 198.542 348.963 198.778L346.366 209.365C346.315 209.564 346.136 209.699 345.939 209.699Z" fill="#142647"/>
<path d="M405.582 141.311C397.68 133.935 397.68 133.935 397.68 133.935C397.68 133.935 397.42 131.68 396.186 128.778C396.295 128.736 396.409 128.705 396.5 128.631L396.534 128.65C396.534 128.65 406.883 108.556 373.981 109.008C351.302 109.319 349.029 129.498 349.029 129.498C349.029 129.498 349.029 129.498 339.9 138.018C330.772 146.538 339.9 156.277 339.9 156.277C330.974 165.609 348.625 178.186 353.493 172.623C358.362 167.06 362.216 166.821 362.216 166.821C364.153 166.773 365.786 166.487 367.17 166.021L367.114 144.055L367.43 144.128C372.496 144.182 377.085 138.883 380.443 133.487C380.891 134.324 381.308 135.231 381.663 136.288C381.695 136.383 383.502 136.495 383.502 136.495C385.2 136.479 386.591 137.842 386.609 139.54L386.639 142.616C386.656 144.314 385.292 145.705 383.593 145.722L382.263 145.735C382.183 145.757 382.11 145.789 382.029 145.807L381.978 165.544C383.177 165.947 384.589 166.195 386.268 166.235C386.268 166.235 389.603 166.443 393.817 171.258C398.032 176.074 413.309 165.187 405.582 157.11C405.582 157.114 413.483 148.685 405.582 141.311Z" fill="#142647"/>
<path d="M396.87 130.436C396.85 129.8 396.701 129.204 396.501 128.631C394.294 130.434 386.111 122.308 386.064 122.259C386.06 122.261 386.057 122.264 386.057 122.264C385.981 122.461 377.674 144.238 367.432 144.129L367.116 144.057L367.172 166.022L367.174 166.85C367.83 171.968 371.675 175.706 375.968 175.4C380.573 175.072 383.942 170.242 383.407 164.73L383.653 159.909C390.018 159.972 397.617 154.481 397.371 146.513L396.87 130.436Z" fill="#FEC29E"/>
<path opacity="0.37" d="M372.254 159.181L383.637 160.18L383.429 164.257L372.254 159.181Z" fill="#FB8E77"/>
<path d="M367.113 142.92C360.429 147.906 359.566 157.599 365.266 163.686L367.172 165.722C377.679 162.198 373.355 148.012 370.129 142.994C369.876 142.6 369.654 142.213 369.459 141.835" fill="#142647"/>
<path d="M393.774 136.739C394.017 136.904 394.356 136.895 394.683 136.909C395.014 136.914 395.344 136.93 395.631 136.957C395.918 136.983 396.246 137.029 396.57 137.083C396.893 137.129 397.226 137.201 397.497 137.083C397.757 136.974 397.899 136.605 397.658 136.114C397.433 135.636 396.772 135.079 395.823 134.987C394.875 134.903 394.116 135.328 393.804 135.757C393.472 136.195 393.539 136.582 393.774 136.739Z" fill="#142647"/>
<path d="M382.469 135.534C382.712 135.699 383.051 135.69 383.378 135.704C383.709 135.71 384.04 135.726 384.326 135.752C384.613 135.778 384.941 135.824 385.265 135.879C385.588 135.924 385.921 135.996 386.192 135.879C386.452 135.77 386.594 135.4 386.353 134.91C386.128 134.432 385.467 133.874 384.518 133.783C383.57 133.698 382.811 134.124 382.499 134.553C382.165 134.991 382.234 135.377 382.469 135.534Z" fill="#142647"/>
<path d="M390.291 144.761C390.212 144.761 390.133 144.758 390.054 144.749L388.885 144.624C388.642 144.598 388.468 144.381 388.493 144.141C388.517 143.9 388.728 143.726 388.976 143.75L390.145 143.875C390.615 143.928 391.037 143.736 391.316 143.376C391.594 143.017 391.664 142.548 391.504 142.122L389.901 138.556C389.801 138.335 389.899 138.075 390.121 137.974C390.342 137.874 390.602 137.974 390.701 138.194L392.317 141.786C392.594 142.525 392.477 143.311 392.009 143.914C391.594 144.455 390.963 144.761 390.291 144.761Z" fill="#FB8E77"/>
<path d="M386.06 140.61C386.467 140.61 386.797 140.28 386.797 139.873C386.797 139.467 386.467 139.137 386.06 139.137C385.653 139.137 385.323 139.467 385.323 139.873C385.323 140.28 385.653 140.61 386.06 140.61Z" fill="#142647"/>
<path d="M394.694 141.443C395.101 141.443 395.431 141.113 395.431 140.706C395.431 140.3 395.101 139.97 394.694 139.97C394.287 139.97 393.958 140.3 393.958 140.706C393.958 141.113 394.287 141.443 394.694 141.443Z" fill="#142647"/>
<path d="M388.37 148.806C386.193 148.806 384.558 148.238 383.509 147.117C382.195 145.712 382.318 143.968 382.325 143.894C382.345 143.653 382.503 143.468 382.798 143.491C383.039 143.511 383.219 143.721 383.201 143.962C383.201 143.976 383.108 145.409 384.161 146.526C385.059 147.481 386.543 147.968 388.521 147.927H388.527C388.767 147.927 388.963 148.121 388.966 148.361C388.97 148.604 388.776 148.803 388.532 148.806C388.479 148.806 388.425 148.806 388.37 148.806Z" fill="#FB8E77"/>
<path d="M678.703 199.551C678.698 199.551 678.696 199.551 678.691 199.551L593.003 199.443C588.581 199.443 584.982 195.844 584.982 191.421V160.874C584.982 156.45 588.581 152.851 593.005 152.851H678.916C683.959 152.851 688.06 156.953 688.06 161.997V190.19C688.06 192.692 687.085 195.044 685.314 196.813C683.549 198.578 681.2 199.551 678.703 199.551ZM593.005 154.611C589.55 154.611 586.741 157.421 586.741 160.876V191.422C586.741 194.876 589.55 197.687 593.005 197.687L678.695 197.794C678.695 197.794 678.7 197.794 678.703 197.794C680.731 197.794 682.638 197.005 684.075 195.572C685.511 194.135 686.304 192.226 686.304 190.194V161.999C686.304 157.925 682.99 154.611 678.918 154.611H593.005Z" fill="#1F4FD8"/>
<path d="M665.546 170.734H644.907C644.422 170.734 644.028 170.34 644.028 169.855C644.028 169.369 644.422 168.976 644.907 168.976H665.546C666.032 168.976 666.426 169.369 666.426 169.855C666.426 170.34 666.032 170.734 665.546 170.734Z" fill="#F36F56"/>
<path d="M632.338 170.734H600.741C600.256 170.734 599.862 170.34 599.862 169.855C599.862 169.369 600.256 168.976 600.741 168.976H632.338C632.823 168.976 633.217 169.369 633.217 169.855C633.217 170.34 632.823 170.734 632.338 170.734Z" fill="#F36F56"/>
<path d="M665.546 178.09H613.562C613.076 178.09 612.683 177.696 612.683 177.211C612.683 176.726 613.076 176.332 613.562 176.332H665.546C666.032 176.332 666.426 176.726 666.426 177.211C666.426 177.696 666.032 178.09 665.546 178.09Z" fill="#F36F56"/>
<path d="M665.547 185.443H631.102C630.616 185.443 630.223 185.049 630.223 184.564C630.223 184.079 630.616 183.685 631.102 183.685H665.547C666.032 183.685 666.426 184.079 666.426 184.564C666.426 185.049 666.032 185.443 665.547 185.443Z" fill="#F36F56"/>
<path d="M597.652 244.501H433.559C429.371 244.501 425.978 241.894 425.978 238.68V140.741V129.721C425.978 126.505 429.373 123.899 433.559 123.899H597.652C601.84 123.899 605.233 126.507 605.233 129.721V238.68C605.233 241.894 601.838 244.501 597.652 244.501Z" fill="#B2C1F9"/>
<path d="M425.976 146.849V129.719C425.976 126.503 429.371 123.897 433.557 123.897H597.65C601.838 123.897 605.231 126.505 605.231 129.719V146.1" fill="#467CDB"/>
<path d="M604.15 145.223H425.976V146.981H604.15V145.223Z" fill="white"/>
<path d="M572.234 139.686C570.196 139.686 568.536 138.028 568.536 135.989C568.536 133.949 570.194 132.291 572.234 132.291C574.273 132.291 575.931 133.949 575.931 135.989C575.931 138.028 574.271 139.686 572.234 139.686ZM572.234 134.051C571.165 134.051 570.294 134.921 570.294 135.99C570.294 137.059 571.163 137.93 572.234 137.93C573.304 137.93 574.173 137.059 574.173 135.99C574.173 134.921 573.303 134.051 572.234 134.051Z" fill="white"/>
<path d="M582.806 139.686C580.768 139.686 579.108 138.028 579.108 135.989C579.108 133.949 580.766 132.291 582.806 132.291C584.845 132.291 586.503 133.949 586.503 135.989C586.503 138.028 584.844 139.686 582.806 139.686ZM582.806 134.051C581.737 134.051 580.867 134.921 580.867 135.99C580.867 137.059 581.735 137.93 582.806 137.93C583.877 137.93 584.745 137.059 584.745 135.99C584.745 134.921 583.877 134.051 582.806 134.051Z" fill="white"/>
<path d="M593.181 139.686C591.143 139.686 589.483 138.028 589.483 135.989C589.483 133.949 591.141 132.291 593.181 132.291C595.22 132.291 596.878 133.949 596.878 135.989C596.878 138.028 595.219 139.686 593.181 139.686ZM593.181 134.051C592.112 134.051 591.242 134.921 591.242 135.99C591.242 137.059 592.11 137.93 593.181 137.93C594.252 137.93 595.12 137.059 595.12 135.99C595.12 134.921 594.25 134.051 593.181 134.051Z" fill="white"/>
<path d="M522.655 177.08H450.785C450.3 177.08 449.906 176.686 449.906 176.201C449.906 175.716 450.3 175.322 450.785 175.322H522.655C523.141 175.322 523.534 175.716 523.534 176.201C523.534 176.686 523.142 177.08 522.655 177.08Z" fill="white"/>
<path d="M486.721 210.139H450.787C450.302 210.139 449.908 209.745 449.908 209.259C449.908 208.774 450.302 208.38 450.787 208.38H486.721C487.207 208.38 487.601 208.774 487.601 209.259C487.601 209.745 487.207 210.139 486.721 210.139Z" fill="white"/>
<path d="M477.617 193.87H450.785C450.3 193.87 449.906 193.476 449.906 192.991C449.906 192.506 450.3 192.112 450.785 192.112H477.617C478.103 192.112 478.496 192.506 478.496 192.991C478.496 193.476 478.103 193.87 477.617 193.87Z" fill="white"/>
<path d="M522.656 193.87H495.824C495.339 193.87 494.945 193.476 494.945 192.991C494.945 192.506 495.339 192.112 495.824 192.112H522.656C523.141 192.112 523.535 192.506 523.535 192.991C523.535 193.476 523.143 193.87 522.656 193.87Z" fill="white"/>
<path d="M581.787 220.975H534.189V164.157H581.787V220.975ZM535.948 219.217H580.029V165.915H535.948V219.217Z" fill="white"/>
<path d="M580.908 220.975C580.655 220.975 580.407 220.866 580.233 220.659L534.393 165.599C534.082 165.226 534.133 164.672 534.504 164.361C534.879 164.053 535.431 164.103 535.742 164.474L581.582 219.533C581.893 219.906 581.842 220.46 581.471 220.771C581.308 220.908 581.107 220.975 580.908 220.975Z" fill="white"/>
<path d="M535.069 220.975C534.87 220.975 534.67 220.909 534.506 220.771C534.134 220.46 534.084 219.906 534.396 219.534L580.235 164.474C580.547 164.103 581.1 164.052 581.473 164.361C581.846 164.672 581.895 165.226 581.584 165.599L535.744 220.659C535.57 220.868 535.32 220.975 535.069 220.975Z" fill="white"/>
<path d="M258.665 261.108H182.663C177.188 261.108 172.749 256.669 172.749 251.194V209.338C172.749 203.165 177.752 198.159 183.927 198.159H254.507C261.863 198.159 267.827 204.123 267.827 211.479V251.946C267.825 257.006 263.723 261.108 258.665 261.108Z" fill="#F99370"/>
<path d="M263.505 261.108H220.287H177.068C174.683 261.108 172.749 259.174 172.749 256.788V207.316C172.749 207.316 173.179 201.851 175.358 202.287L208.403 229.634L215.237 235.291C218.159 237.708 222.393 237.682 225.285 235.227L264.796 201.686C266.761 204.239 267.827 207.37 267.827 210.591V256.786C267.825 259.174 265.891 261.108 263.505 261.108Z" fill="#F36F56"/>
<path d="M175.442 259.8C174.939 259.8 174.441 259.585 174.093 259.172C173.469 258.428 173.566 257.319 174.309 256.695L209.229 227.393C209.976 226.768 211.084 226.869 211.705 227.611C212.329 228.354 212.232 229.464 211.488 230.088L176.569 259.39C176.24 259.664 175.839 259.8 175.442 259.8Z" fill="#F99370"/>
<path d="M265.411 259.8C265.028 259.8 264.641 259.675 264.318 259.417L228.816 231.126C228.056 230.521 227.932 229.413 228.536 228.655C229.139 227.896 230.251 227.771 231.007 228.376L266.508 256.667C267.268 257.272 267.393 258.379 266.788 259.137C266.441 259.573 265.928 259.8 265.411 259.8Z" fill="#F99370"/>
<path d="M212.495 224.678H109.644C104.168 224.678 99.729 220.239 99.729 214.764V155.131C99.729 148.958 104.733 143.952 110.908 143.952H208.337C215.693 143.952 221.657 149.916 221.657 157.272V215.516C221.657 220.576 217.555 224.678 212.495 224.678Z" fill="#467CDB"/>
<path d="M216.117 224.679H160.693H105.269C102.21 224.679 99.729 222.198 99.729 219.139V155.694C99.729 155.694 100.281 148.686 103.075 149.245L145.453 184.316L154.217 191.57C157.964 194.67 163.395 194.636 167.102 191.489L217.769 148.477C220.291 151.75 221.657 155.766 221.657 159.898V219.139C221.657 222.198 219.176 224.679 216.117 224.679Z" fill="#1F4FD8"/>
<path d="M103.182 222.503C102.679 222.503 102.182 222.288 101.833 221.875C101.209 221.131 101.306 220.022 102.05 219.398L146.835 181.821C147.582 181.197 148.691 181.296 149.31 182.039C149.934 182.783 149.838 183.893 149.094 184.517L104.309 222.093C103.98 222.369 103.581 222.503 103.182 222.503Z" fill="#467CDB"/>
<path d="M218.558 222.503C218.175 222.503 217.788 222.379 217.465 222.12L171.936 185.838C171.177 185.233 171.052 184.125 171.656 183.368C172.261 182.61 173.369 182.483 174.127 183.088L219.655 219.37C220.415 219.975 220.54 221.083 219.935 221.841C219.589 222.277 219.075 222.503 218.558 222.503Z" fill="#467CDB"/>
<path opacity="0.2" d="M186.133 493.208H63.9359C59.0973 493.208 55.1748 489.286 55.1748 484.447V348.053C55.1748 343.215 59.0973 339.292 63.9359 339.292H186.133C190.971 339.292 194.894 343.215 194.894 348.053V484.447C194.894 489.286 190.971 493.208 186.133 493.208Z" fill="#B2C1F9"/>
<path d="M183.348 490.179H61.1508C56.3122 490.179 52.3896 486.256 52.3896 481.418V345.023C52.3896 340.185 56.3122 336.262 61.1508 336.262H183.348C188.186 336.262 192.109 340.185 192.109 345.023V481.418C192.109 486.256 188.186 490.179 183.348 490.179Z" fill="#B2C1F9"/>
<path d="M187.613 345.458H56.8854C54.4028 345.458 52.3896 343.444 52.3896 340.962V336.652C52.3896 334.17 54.4028 332.157 56.8854 332.157H187.613C190.095 332.157 192.109 334.17 192.109 336.652V340.962C192.109 343.444 190.095 345.458 187.613 345.458Z" fill="#F99370"/>
<path d="M122.66 362.706H72.0304C70.5746 362.706 69.3931 361.526 69.3931 360.068C69.3931 358.611 70.5746 357.431 72.0304 357.431H122.66C124.115 357.431 125.297 358.611 125.297 360.068C125.297 361.526 124.115 362.706 122.66 362.706Z" fill="white"/>
<path d="M119.715 377.988H72.0321C71.0598 377.988 70.2739 377.2 70.2739 376.229C70.2739 375.259 71.0598 374.471 72.0321 374.471H119.715C120.687 374.471 121.473 375.259 121.473 376.229C121.473 377.2 120.685 377.988 119.715 377.988Z" fill="white"/>
<path d="M119.715 420.52H72.0321C71.0598 420.52 70.2739 419.733 70.2739 418.762C70.2739 417.792 71.0598 417.004 72.0321 417.004H119.715C120.687 417.004 121.473 417.792 121.473 418.762C121.473 419.733 120.685 420.52 119.715 420.52Z" fill="#F99370"/>
<path d="M104.556 391.447H72.0307C71.0584 391.447 70.2725 390.659 70.2725 389.689C70.2725 388.718 71.0584 387.931 72.0307 387.931H104.556C105.528 387.931 106.314 388.718 106.314 389.689C106.314 390.659 105.528 391.447 104.556 391.447Z" fill="white"/>
<path d="M119.715 432.077H72.0321C71.0598 432.077 70.2739 431.29 70.2739 430.319C70.2739 429.349 71.0598 428.561 72.0321 428.561H119.715C120.687 428.561 121.473 429.349 121.473 430.319C121.473 431.29 120.685 432.077 119.715 432.077Z" fill="white"/>
<path d="M104.556 460.143H72.0307C71.0584 460.143 70.2725 459.357 70.2725 458.385C70.2725 457.413 71.0584 456.627 72.0307 456.627H104.556C105.528 456.627 106.314 457.413 106.314 458.385C106.314 459.357 105.528 460.143 104.556 460.143Z" fill="white"/>
<path d="M185.565 341.665C185.34 341.665 185.115 341.579 184.942 341.409L180.893 337.36C180.551 337.017 180.551 336.459 180.893 336.117C181.236 335.774 181.794 335.774 182.136 336.117L186.186 340.166C186.528 340.509 186.528 341.066 186.186 341.409C186.015 341.579 185.79 341.665 185.565 341.665Z" fill="white"/>
<path d="M181.516 341.665C181.291 341.665 181.066 341.579 180.893 341.409C180.551 341.066 180.551 340.509 180.893 340.166L184.942 336.117C185.285 335.774 185.843 335.774 186.186 336.117C186.528 336.459 186.528 337.017 186.186 337.36L182.136 341.409C181.966 341.579 181.741 341.665 181.516 341.665Z" fill="white"/>
<path d="M394.809 458.039H289.999C284.429 458.039 279.914 453.524 279.914 447.954V413.56C279.914 407.841 284.553 403.208 290.271 403.215L394.809 403.345C399.621 403.345 403.522 407.246 403.522 412.059V449.325C403.522 454.138 399.621 458.039 394.809 458.039Z" fill="#F99370"/>
<path d="M331.489 439.247H306.308C305.823 439.247 305.429 438.854 305.429 438.368C305.429 437.883 305.823 437.489 306.308 437.489H331.488C331.973 437.489 332.367 437.883 332.367 438.368C332.367 438.854 331.975 439.247 331.489 439.247Z" fill="white"/>
<path d="M385.369 439.247H346.821C346.335 439.247 345.941 438.854 345.941 438.368C345.941 437.883 346.335 437.489 346.821 437.489H385.369C385.854 437.489 386.248 437.883 386.248 438.368C386.248 438.854 385.856 439.247 385.369 439.247Z" fill="white"/>
<path d="M369.732 430.275H306.308C305.823 430.275 305.429 429.881 305.429 429.396C305.429 428.911 305.823 428.517 306.308 428.517H369.73C370.215 428.517 370.609 428.911 370.609 429.396C370.609 429.881 370.217 430.275 369.732 430.275Z" fill="white"/>
<path d="M348.331 421.303H306.31C305.825 421.303 305.431 420.909 305.431 420.424C305.431 419.939 305.825 419.545 306.31 419.545H348.331C348.816 419.545 349.21 419.939 349.21 420.424C349.21 420.909 348.816 421.303 348.331 421.303Z" fill="white"/>
<g opacity="0.37">
<path d="M230.542 426.776C232.194 429.67 236.236 430.004 238.343 427.42L240.859 424.333C241.397 423.745 241.453 422.863 240.994 422.212C240.477 421.479 239.478 421.277 238.717 421.75L234.941 424.093L230.542 426.776Z" fill="#EF929C"/>
</g>
<path d="M248.727 421.771C247.63 421.683 246.578 422.233 246.024 423.184C244.954 425.018 242.907 426.059 240.797 425.824C237.36 425.44 232.219 425.24 229.842 427.021L229.867 427.086C229.81 427.13 226.705 431.328 226.651 431.376C226.651 431.376 227.581 443.333 230.554 440.299L235.416 435.534L244.263 433.843C245.365 433.866 246.401 433.308 246.99 432.376L250.923 426.163C252.076 424.338 250.877 421.941 248.727 421.771Z" fill="#FEC29E"/>
<g opacity="0.17">
<path d="M335.422 350.87H219.897C217.658 350.87 215.841 352.686 215.841 354.926V422.571C215.841 424.811 217.658 426.627 219.897 426.627H335.422C337.662 426.627 339.478 424.811 339.478 422.571V354.926C339.476 352.686 337.662 350.87 335.422 350.87Z" fill="#B2C1F9"/>
</g>
<path d="M333.637 350.87H218.113C215.873 350.87 214.057 352.686 214.057 354.926V420.8C214.057 423.04 215.873 424.856 218.113 424.856H333.637C335.877 424.856 337.693 423.04 337.693 420.8V354.926C337.693 352.686 335.877 350.87 333.637 350.87Z" fill="white"/>
<path d="M264.03 409.511H227.684C227.199 409.511 226.805 409.117 226.805 408.632C226.805 408.146 227.199 407.752 227.684 407.752H264.03C264.515 407.752 264.909 408.146 264.909 408.632C264.909 409.117 264.515 409.511 264.03 409.511Z" fill="#142647"/>
<path d="M264.03 368.299H227.684C227.199 368.299 226.805 367.905 226.805 367.42C226.805 366.934 227.199 366.541 227.684 366.541H264.03C264.515 366.541 264.909 366.934 264.909 367.42C264.909 367.905 264.515 368.299 264.03 368.299Z" fill="#F99370"/>
<path d="M264.03 380.631H227.684C227.199 380.631 226.805 380.237 226.805 379.752C226.805 379.267 227.199 378.873 227.684 378.873H264.03C264.515 378.873 264.909 379.267 264.909 379.752C264.909 380.237 264.515 380.631 264.03 380.631Z" fill="#142647"/>
<path d="M281.229 394.907H227.684C227.199 394.907 226.805 394.513 226.805 394.028C226.805 393.543 227.199 393.149 227.684 393.149H281.229C281.714 393.149 282.108 393.543 282.108 394.028C282.108 394.513 281.714 394.907 281.229 394.907Z" fill="#142647"/>
<path d="M323.637 413.406H296.583C295.149 413.406 293.979 412.236 293.979 410.802V369.146C293.979 367.71 295.149 366.542 296.583 366.542H323.637C325.072 366.542 326.241 367.712 326.241 369.146V410.802C326.241 412.236 325.072 413.406 323.637 413.406ZM296.583 368.299C296.116 368.299 295.738 368.679 295.738 369.145V410.8C295.738 411.268 296.117 411.646 296.583 411.646H323.637C324.105 411.646 324.483 411.266 324.483 410.8V369.145C324.483 368.677 324.103 368.299 323.637 368.299H296.583Z" fill="#1F4FD8"/>
<path d="M295.564 367.709L294.115 368.704L324.529 413.025L325.979 412.031L295.564 367.709Z" fill="#1F4FD8"/>
<path d="M324.339 367.746L294.845 411.722L296.303 412.7L325.798 368.724L324.339 367.746Z" fill="#1F4FD8"/>
<path d="M230.542 426.776C232.194 429.67 236.236 430.004 238.343 427.42L240.859 424.333C241.397 423.745 241.453 422.863 240.994 422.212C240.477 421.479 239.478 421.277 238.717 421.75L234.941 424.093L230.542 426.776Z" fill="#FEC29E"/>
<path d="M226.649 428.009L201.257 443.75C201.257 443.75 188.218 408.739 187.492 407.25C182.994 398.019 167.579 386.74 154.547 386.74H150.916H141.235H137.605C124.137 386.74 109.762 393.437 105.396 404.723C103.972 406.536 103.024 408.872 102.845 411.733C102.784 412.718 102.731 413.759 102.687 414.857C102.541 418.555 104.373 431.14 106.543 444.469V506.133C106.543 507.006 107.351 507.717 108.348 507.717H183.801C184.798 507.717 185.607 507.008 185.607 506.133V459.437C185.669 459.558 185.736 459.688 185.797 459.808C189.953 467.918 200.652 469.901 207.444 463.823L235.336 438.867L226.649 428.009Z" fill="#1F4FD8"/>
<path d="M129.792 453.38L127.381 429.161C127.344 428.799 127.61 428.475 127.972 428.44C128.368 428.398 128.658 428.668 128.693 429.031L130.952 451.717L160.641 444.019C160.991 443.928 161.353 444.137 161.445 444.492C161.536 444.846 161.325 445.204 160.97 445.296L129.792 453.38Z" fill="#233863"/>
<path d="M124.228 476.653C121.786 476.653 119.351 476.058 117.108 474.877C112.884 472.653 109.992 468.679 109.173 463.974C105.795 444.58 101.815 420.311 102.029 414.833C102.043 414.469 102.321 414.142 102.715 414.2C103.079 414.214 103.362 414.52 103.348 414.884C103.183 419.068 105.714 436.421 110.47 463.747C111.219 468.046 113.862 471.679 117.721 473.711C121.582 475.747 126.076 475.872 130.048 474.056L165.871 457.682C166.198 457.529 166.594 457.673 166.745 458.007C166.896 458.337 166.752 458.73 166.42 458.881L130.597 475.255C128.557 476.187 126.389 476.653 124.228 476.653Z" fill="#233863"/>
<path d="M185.609 460.096C185.298 460.096 185.024 459.878 184.962 459.561L181.199 440.216C181.131 439.857 181.365 439.513 181.722 439.442C182.072 439.381 182.423 439.607 182.493 439.963L186.256 459.31C186.325 459.667 186.091 460.011 185.734 460.082C185.693 460.092 185.649 460.096 185.609 460.096Z" fill="#233863"/>
<path d="M172.477 445.683C181.137 445.683 188.157 438.663 188.157 430.004C188.157 421.344 181.137 414.324 172.477 414.324C163.817 414.324 156.797 421.344 156.797 430.004C156.797 438.663 163.817 445.683 172.477 445.683Z" fill="#F99370"/>
<path d="M172.453 431.715C169.772 431.715 167.588 429.533 167.588 426.85C167.588 424.167 169.77 421.985 172.453 421.985C175.136 421.985 177.318 424.167 177.318 426.85C177.318 429.533 175.134 431.715 172.453 431.715ZM172.453 423.745C170.74 423.745 169.346 425.137 169.346 426.852C169.346 428.566 170.74 429.958 172.453 429.958C174.165 429.958 175.56 428.566 175.56 426.852C175.56 425.137 174.164 423.745 172.453 423.745Z" fill="white"/>
<path d="M178.325 438.092H166.577C166.092 438.092 165.698 437.698 165.698 437.213V436.889C165.698 433.246 168.662 430.284 172.305 430.284H173.585C176.685 430.284 179.204 432.805 179.204 435.905V437.213C179.204 437.698 178.812 438.092 178.325 438.092ZM167.488 436.334H177.446V435.905C177.446 433.775 175.714 432.042 173.585 432.042H172.305C169.821 432.042 167.767 433.921 167.488 436.334Z" fill="white"/>
<path d="M160.284 445.673L161.258 445.281C163.325 444.449 164.938 442.77 165.681 440.669L167.798 434.693C168.094 433.884 168.911 433.392 169.762 433.508C170.722 433.638 171.413 434.494 171.339 435.46L171.046 439.282C171.014 439.699 171.455 439.989 171.825 439.792L177.359 436.849C178.562 436.223 180.663 437.2 180.862 438.542L181.774 440.114C183.459 443.015 183.423 446.64 181.57 449.436C181.433 449.641 181.326 449.789 181.263 449.852C178.158 452.903 172.632 457.905 165.381 458.353L160.284 445.673Z" fill="#FEC29E"/>
<path d="M151.508 687.037L151.14 687.032L151.216 690.833L190.52 691.432L190.466 688.632C190.457 688.197 190.2 687.833 189.854 687.689C189.759 687.651 189.662 687.619 189.557 687.617L151.508 687.037Z" fill="#233863"/>
<path d="M165.295 673.181L153.399 673.032C153.106 673.028 152.837 673.129 152.614 673.299C152.527 673.366 152.448 673.443 152.378 673.529C152.17 673.783 152.039 674.117 152.023 674.491L151.963 675.945L151.77 680.638L151.506 687.038L189.553 687.618C189.659 687.62 189.757 687.651 189.85 687.69C189.005 684.787 186.826 682.512 184.101 681.858L175.393 681.142C173.343 680.031 171.555 679.061 169.505 677.95L165.967 673.382C165.898 673.34 165.823 673.322 165.751 673.296C165.693 673.274 165.638 673.241 165.58 673.227C165.489 673.201 165.392 673.183 165.295 673.181Z" fill="#1D3F70"/>
<path d="M110.27 687.161L109.903 687.157L110.003 690.958L149.309 691.298L149.236 688.497C149.223 688.063 148.965 687.701 148.618 687.558C148.523 687.519 148.425 687.49 148.321 687.488L110.27 687.161Z" fill="#233863"/>
<path d="M123.967 673.214L112.071 673.144C111.777 673.142 111.508 673.244 111.287 673.417C111.201 673.483 111.123 673.561 111.053 673.649C110.847 673.904 110.717 674.238 110.705 674.612L110.654 676.066L110.492 680.761L110.271 687.162L148.321 687.491C148.427 687.493 148.525 687.523 148.619 687.561C147.754 684.664 145.559 682.403 142.831 681.768L134.119 681.11C132.062 680.012 130.267 679.053 128.209 677.956L124.642 673.411C124.573 673.371 124.498 673.352 124.426 673.325C124.368 673.304 124.313 673.272 124.255 673.258C124.16 673.234 124.064 673.214 123.967 673.214Z" fill="#1D3F70"/>
<path d="M176.389 507.023V506.202H111.23V507.023H108.259V677.79L132.364 677.772L146.429 537.981L148.033 538.781L148.65 677.79L172.778 677.769L183.777 507.023H176.389Z" fill="#233863"/>
<path d="M173.618 328.104C172.205 326.343 170.003 325.295 167.753 325.093C165.504 324.89 163.224 325.49 161.244 326.578C159.729 327.412 158.338 328.54 156.668 328.987C154.132 329.664 151.574 328.662 149.106 328.164C146.992 327.737 144.819 327.739 142.751 328.4C140.23 329.207 138.242 330.905 136.868 333.05C133.178 333.986 128.805 337.556 131.817 349.82C132.403 352.208 133.241 354.892 134.449 357.987L169.133 355.237C173.752 349.015 172.374 344.428 171.236 342.339C173.52 340.565 175.009 337.833 175.352 334.958C175.639 332.553 175.132 329.991 173.618 328.104Z" fill="#142647"/>
<path d="M145.93 344.631C145.201 347.779 143.725 351.555 140.765 352.612C138.616 356.605 134.449 357.985 134.449 357.985C133.241 354.891 132.403 352.206 131.817 349.818H130.778C128.378 349.818 126.434 351.763 126.434 354.163V358.507C126.434 360.907 128.378 362.852 130.778 362.852H132.658C132.768 362.882 132.876 362.927 132.988 362.952L133.347 391.836C134.21 398.084 138.955 402.606 144.2 402.179C149.825 401.722 153.883 395.777 153.165 389.047L153.408 383.152C171.99 383.498 170.411 376.349 170.012 366.614L169.207 346.968C169.161 345.867 168.875 344.837 168.419 343.905C166.642 344.607 164.711 344.978 162.8 345.176C157.223 345.751 151.509 345.373 145.93 344.631Z" fill="#FEC29E"/>
<path d="M161.601 354.01C162.028 354.23 162.582 354.161 163.12 354.131C163.661 354.087 164.206 354.061 164.679 354.058C165.154 354.054 165.699 354.072 166.241 354.107C166.779 354.128 167.336 354.188 167.756 353.961C168.162 353.75 168.328 353.154 167.844 352.424C167.39 351.716 166.204 350.949 164.634 350.956C163.065 350.974 161.901 351.756 161.467 352.473C161.006 353.212 161.187 353.804 161.601 354.01Z" fill="#142647"/>
<path d="M148.53 354.221C149.019 354.527 149.689 354.502 150.334 354.523C150.986 354.529 151.639 354.551 152.206 354.597C152.774 354.641 153.425 354.72 154.068 354.817C154.71 354.898 155.369 355.026 155.897 354.799C156.405 354.588 156.664 353.892 156.161 352.973C155.691 352.078 154.353 351.04 152.474 350.887C150.596 350.745 149.124 351.563 148.532 352.373C147.902 353.205 148.059 353.933 148.53 354.221Z" fill="#142647"/>
<path d="M158.811 364.513H157.102C156.859 364.513 156.662 364.316 156.662 364.073C156.662 363.831 156.859 363.634 157.102 363.634H158.811C159.54 363.634 160.207 363.263 160.59 362.642C160.975 362.02 161.008 361.259 160.683 360.604L158.645 356.529C158.536 356.311 158.624 356.049 158.841 355.94C159.059 355.834 159.322 355.921 159.431 356.137L161.469 360.212C161.933 361.141 161.884 362.222 161.339 363.105C160.794 363.987 159.848 364.513 158.811 364.513Z" fill="#FB8E77"/>
<path d="M154.623 361.02C155.082 361.02 155.454 360.647 155.454 360.188C155.454 359.729 155.082 359.356 154.623 359.356C154.163 359.356 153.791 359.729 153.791 360.188C153.791 360.647 154.163 361.02 154.623 361.02Z" fill="#142647"/>
<path d="M164.389 360.732C164.848 360.732 165.22 360.359 165.22 359.9C165.22 359.441 164.848 359.068 164.389 359.068C163.929 359.068 163.557 359.441 163.557 359.9C163.557 360.359 163.929 360.732 164.389 360.732Z" fill="#142647"/>
<path d="M156.961 369.892C155.248 369.892 153.865 369.461 152.831 368.603C151.182 367.233 151.074 365.291 151.071 365.208C151.06 364.967 151.248 364.761 151.487 364.749C151.496 364.749 151.503 364.749 151.51 364.749C151.742 364.749 151.938 364.932 151.95 365.166C151.95 365.182 152.052 366.818 153.402 367.933C154.557 368.884 156.277 369.211 158.52 368.895C158.777 368.861 158.983 369.03 159.016 369.269C159.049 369.51 158.881 369.732 158.64 369.765C158.051 369.85 157.492 369.892 156.961 369.892Z" fill="#FB8E77"/>
<path opacity="0.37" d="M139.465 382.398L153.392 383.481L153.188 388.469L139.465 382.398Z" fill="#FB8E77"/>
<path d="M277.162 483.282C289.871 483.282 300.174 472.979 300.174 460.271C300.174 447.562 289.871 437.259 277.162 437.259C264.453 437.259 254.151 447.562 254.151 460.271C254.151 472.979 264.453 483.282 277.162 483.282Z" fill="#1F4FD8"/>
<path d="M277.128 462.372C273.42 462.372 270.401 459.353 270.401 455.645C270.401 451.935 273.42 448.916 277.128 448.916C280.836 448.916 283.855 451.935 283.855 455.645C283.855 459.353 280.836 462.372 277.128 462.372ZM277.128 450.674C274.387 450.674 272.159 452.904 272.159 455.645C272.159 458.386 274.388 460.613 277.128 460.613C279.867 460.613 282.096 458.384 282.096 455.645C282.096 452.905 279.867 450.674 277.128 450.674Z" fill="white"/>
<path d="M285.748 471.728H268.505C268.02 471.728 267.626 471.335 267.626 470.849V467.98C267.626 464.182 270.717 461.091 274.515 461.091H280.772C284 461.091 286.627 463.716 286.627 466.944V470.849C286.627 471.336 286.235 471.728 285.748 471.728ZM269.384 469.97H284.869V466.944C284.869 464.687 283.031 462.85 280.772 462.85H274.515C271.686 462.85 269.384 465.151 269.384 467.98V469.97Z" fill="white"/>
<path d="M475.399 385.052C475.961 384.296 477.032 384.14 477.788 384.702L479.042 385.636C479.073 385.578 479.101 385.523 479.133 385.465L477.113 384.064C476.225 383.449 475.891 382.139 476.621 381.341C478.087 379.735 479.358 381.035 480.246 381.65L481.271 382.513C481.252 382.468 479.559 380.931 479.545 380.882C479.404 380.442 479.436 379.95 479.683 379.517C480.151 378.698 481.196 378.415 482.013 378.883L487.282 381.896C490.503 383.436 494.683 385.713 496.476 387.027L496.163 381.669C496.095 380.493 496.993 379.482 498.169 379.414C499.345 379.345 500.356 380.244 500.425 381.42L500.986 390.997C501.22 392.132 501.373 393.031 501.344 393.372C501.241 394.612 501.86 401.975 501.86 401.975L493.367 401.592C493.367 401.592 483.298 393.764 479.323 390.105L475.749 387.443C474.993 386.877 474.836 385.808 475.399 385.052Z" fill="#FEC29E"/>
<path d="M496.373 387.206C496.369 387.194 496.365 387.18 496.362 387.167C496.302 387.006 496.125 386.923 495.963 386.981C494.583 387.486 493.668 388.284 493.248 389.358C492.545 391.151 493.493 393.033 493.533 393.112C493.612 393.265 493.799 393.325 493.951 393.247C494.104 393.17 494.164 392.982 494.087 392.829C494.078 392.813 493.229 391.113 493.83 389.581C494.184 388.685 494.973 388.006 496.177 387.566C496.325 387.514 496.408 387.357 496.373 387.206Z" fill="#F9B2B2"/>
<path d="M591.747 687.513L592.022 687.509L591.965 690.217L562.577 690.644L562.619 688.649C562.626 688.339 562.818 688.079 563.076 687.977C563.147 687.949 563.221 687.928 563.298 687.926L591.747 687.513Z" fill="#233863"/>
<path d="M581.439 677.643L590.334 677.535C590.554 677.532 590.754 677.604 590.921 677.727C590.986 677.774 591.044 677.829 591.097 677.89C591.252 678.072 591.35 678.309 591.363 678.576L591.407 679.612L591.551 682.956L591.748 687.517L563.298 687.93C563.219 687.932 563.147 687.953 563.077 687.981C563.708 685.913 565.338 684.292 567.375 683.826L573.886 683.316C575.419 682.525 576.755 681.832 578.289 681.041L580.933 677.787C580.984 677.757 581.04 677.745 581.095 677.725C581.137 677.709 581.179 677.686 581.223 677.676C581.293 677.657 581.365 677.643 581.439 677.643Z" fill="#233863"/>
<path d="M635.96 687.603L636.235 687.601L636.159 690.309L606.769 690.55L606.824 688.554C606.832 688.245 607.026 687.986 607.286 687.886C607.356 687.858 607.43 687.837 607.509 687.837L635.96 687.603Z" fill="#233863"/>
<path d="M625.721 677.665L634.616 677.614C634.835 677.613 635.036 677.686 635.201 677.809C635.264 677.857 635.324 677.913 635.377 677.975C635.53 678.156 635.628 678.395 635.637 678.662L635.674 679.698L635.795 683.042L635.961 687.603L607.509 687.837C607.43 687.837 607.358 687.859 607.286 687.886C607.933 685.822 609.574 684.211 611.613 683.759L618.127 683.29C619.666 682.507 621.007 681.825 622.546 681.043L625.213 677.804C625.264 677.774 625.32 677.762 625.375 677.743C625.417 677.727 625.459 677.704 625.503 677.695C625.575 677.679 625.647 677.665 625.721 677.665Z" fill="#233863"/>
<path d="M568.203 489.459C568.231 487.451 568.507 488.234 570.515 488.181L628.863 486.685C631.052 486.634 633.913 519.113 634.129 522.072C635.374 539.178 635.834 556.339 635.511 573.487C635.022 599.341 636.414 625.459 636.81 651.349C636.937 659.618 637.141 667.888 637.19 676.159C637.204 678.358 635.425 680.147 633.225 680.145L620.795 680.134C618.454 680.133 616.501 678.35 616.285 676.018C616.285 676.018 598.799 541.031 596.832 541.031C594.773 541.031 592.797 676.839 592.797 676.839C592.742 678.682 591.232 680.147 589.388 680.145L576.975 680.131C575.194 680.129 573.729 678.731 573.641 676.954C572.926 664.557 572.212 652.158 571.496 639.761C570.125 615.965 568.752 592.168 567.38 568.372C566.536 553.727 565.228 539.095 565.193 524.414C565.165 512.609 566.704 501.144 568.203 489.459Z" fill="#1D3F70"/>
<path d="M636.596 407.365L636.594 407.369C633.894 395.227 620.303 387.927 607.63 387.927H604.444H595.947H592.759C587.959 387.927 582.792 389.815 578.115 392.651V392.648L578.089 392.667C575.697 394.119 573.44 395.819 571.423 397.643L539.248 421.661C534.99 424.99 528.891 424.494 525.225 420.524L501.633 390.633L490.221 400.596L519.519 443.92C524.201 450.844 533.692 452.504 540.447 447.581L565.795 429.107L565.946 429.986C569.354 449.858 570.092 470.096 568.141 490.164L567.063 501.243C567.063 502.073 566.201 502.746 567.077 502.746H631.745C632.621 502.746 632.688 481.929 632.688 481.099L632.714 480.686C635.724 480.818 638.769 480.217 641.567 478.773C644.951 477.029 646.838 471.675 646.527 468.38L636.596 407.365Z" fill="#1F4FD8"/>
<path d="M624.624 453.593C624.353 453.593 624.082 453.49 623.877 453.287L595.672 425.694C595.413 425.439 595.408 425.022 595.663 424.762C595.918 424.502 596.336 424.499 596.595 424.752L624.047 451.612L615.919 427.765C615.801 427.421 615.984 427.046 616.329 426.928C616.673 426.809 617.048 426.995 617.166 427.34L625.633 452.181C625.795 452.653 625.612 453.166 625.192 453.43C625.018 453.539 624.821 453.593 624.624 453.593Z" fill="#233863"/>
<path d="M632.701 481.354C632.693 481.354 632.682 481.354 632.671 481.354C627.766 481.137 622.947 478.968 619.45 475.4L583.044 438.276C582.788 438.016 582.793 437.599 583.053 437.344C583.315 437.087 583.732 437.094 583.985 437.353L620.39 474.477C623.655 477.809 628.153 479.835 632.729 480.035C633.093 480.053 633.375 480.36 633.359 480.724C633.345 481.078 633.053 481.354 632.701 481.354Z" fill="#233863"/>
<path d="M629.787 340.73C628.736 335.689 623.867 332.067 618.726 332.547C615.567 332.842 612.618 334.717 610.945 337.403C608.48 334.815 605.308 332.841 601.598 331.86C601.528 331.84 601.457 331.833 601.387 331.816C599.97 331.075 598.458 330.465 596.847 330.04C585.176 326.954 573.214 333.917 570.128 345.588C567.042 357.259 574.003 369.221 585.676 372.307C588.946 373.172 592.234 373.223 595.348 372.627C598.447 374.162 602.06 374.721 605.709 373.96C614.37 372.154 619.927 363.667 618.122 355.006C617.974 354.298 617.777 353.61 617.543 352.946C618.9 353.232 620.339 353.252 621.784 352.951C627.37 351.785 630.951 346.314 629.787 340.73Z" fill="#142647"/>
<path d="M576.958 349.154C576.912 348.968 576.713 349.59 576.958 349.154Z" fill="#FEC29E"/>
<path d="M608.791 356.286V356.287C608.773 356.479 608.718 356.634 608.652 356.771L607.317 361.398L603.774 356.609L602.051 356.504C595.572 356.108 590.324 351.637 588.61 345.742C585.35 348.898 581.475 353.179 577.011 349.059C576.988 349.103 576.976 349.119 576.958 349.153C576.971 349.198 576.976 349.281 576.957 349.462L575.179 367.299C574.298 376.137 581.774 382.808 588.399 383.212L588.278 388.589C587.291 394.678 590.417 400.299 595.18 401.005C599.621 401.667 603.913 397.799 604.996 392.156L606.907 365.889C607.006 365.873 607.099 365.838 607.196 365.815L608.796 365.914C610.839 366.038 612.602 364.37 612.736 362.186L612.882 359.79C612.889 357.55 610.834 356.41 608.791 356.286Z" fill="#FEC29E"/>
<path opacity="0.37" d="M601.095 383.164L588.36 383.376L588.269 387.927L601.095 383.164Z" fill="#FB8E77"/>
<path d="M584.875 365.949C584.866 365.949 584.857 365.949 584.849 365.949L583.713 365.88C582.973 365.835 582.322 365.418 581.972 364.766C581.622 364.112 581.635 363.338 582.006 362.698L584.013 358.346C584.115 358.127 584.381 358.03 584.595 358.132C584.817 358.234 584.914 358.496 584.81 358.716L582.786 363.102C582.551 363.514 582.544 363.967 582.749 364.351C582.955 364.732 583.337 364.977 583.769 365.003L584.903 365.072C585.147 365.086 585.33 365.295 585.316 365.537C585.299 365.77 585.107 365.949 584.875 365.949Z" fill="#FB8E77"/>
<path d="M590.607 372.788L588.149 372.638C587.279 372.586 586.618 371.837 586.67 370.968L586.85 368.025L594.38 368.486L594.319 369.507C594.199 371.436 592.538 372.906 590.607 372.788Z" fill="#142647"/>
<path d="M591.103 372.818L590.938 372.808C590.192 372.762 589.64 371.851 589.67 371.375C589.772 369.713 594.289 370.002 594.289 370.002C594.187 371.658 592.761 372.92 591.103 372.818Z" fill="#FB8E77"/>
<path d="M588.465 357.074C588.706 357.237 589.04 357.229 589.364 357.243C589.691 357.248 590.016 357.264 590.299 357.29C590.582 357.317 590.908 357.361 591.228 357.415C591.548 357.461 591.876 357.531 592.144 357.415C592.4 357.308 592.541 356.942 592.304 356.457C592.082 355.984 591.426 355.434 590.489 355.344C589.552 355.259 588.803 355.681 588.494 356.105C588.166 356.538 588.233 356.919 588.465 357.074Z" fill="#142647"/>
<path d="M577.289 355.883C577.53 356.047 577.864 356.038 578.187 356.052C578.514 356.057 578.839 356.073 579.122 356.099C579.406 356.126 579.731 356.17 580.051 356.224C580.371 356.27 580.7 356.34 580.967 356.224C581.224 356.117 581.364 355.751 581.127 355.266C580.905 354.793 580.249 354.243 579.312 354.153C578.375 354.069 577.626 354.491 577.317 354.914C576.99 355.345 577.057 355.728 577.289 355.883Z" fill="#142647"/>
<path d="M580.838 360.903C581.241 360.903 581.568 360.576 581.568 360.173C581.568 359.77 581.241 359.443 580.838 359.443C580.435 359.443 580.108 359.77 580.108 360.173C580.108 360.576 580.435 360.903 580.838 360.903Z" fill="#142647"/>
<path d="M589.373 361.728C589.776 361.728 590.102 361.401 590.102 360.998C590.102 360.595 589.776 360.269 589.373 360.269C588.97 360.269 588.643 360.595 588.643 360.998C588.643 361.401 588.97 361.728 589.373 361.728Z" fill="#142647"/>
<path d="M600.583 494.007H519.926C517.06 494.007 514.737 491.684 514.737 488.818V431.723C514.737 428.857 517.06 426.534 519.926 426.534H600.583C603.449 426.534 605.772 428.857 605.772 431.723V488.818C605.772 491.684 603.449 494.007 600.583 494.007Z" fill="white"/>
<path d="M605.772 439.207H514.737V431.723C514.737 428.857 517.06 426.534 519.926 426.534H601.603C603.906 426.534 605.772 428.401 605.772 430.703V439.207Z" fill="#F99370"/>
<g opacity="0.4">
<path d="M543.751 481.977H523.758C523.273 481.977 522.879 481.583 522.879 481.098V447.718C522.879 447.233 523.273 446.839 523.758 446.839H543.751C544.236 446.839 544.63 447.233 544.63 447.718V481.098C544.63 481.585 544.238 481.977 543.751 481.977ZM524.638 480.219H542.872V448.598H524.638V480.219Z" fill="#B2C1F9"/>
<path d="M543.751 481.977C543.452 481.977 543.162 481.824 542.997 481.549L523.004 448.17C522.753 447.753 522.89 447.213 523.307 446.964C523.716 446.712 524.262 446.848 524.513 447.266L544.505 480.646C544.757 481.062 544.62 481.602 544.203 481.852C544.062 481.938 543.906 481.977 543.751 481.977Z" fill="#B2C1F9"/>
<path d="M523.759 481.977C523.604 481.977 523.448 481.938 523.307 481.852C522.89 481.602 522.755 481.064 523.005 480.646L542.997 447.266C543.247 446.848 543.788 446.712 544.203 446.964C544.62 447.213 544.755 447.753 544.506 448.17L524.513 481.549C524.348 481.824 524.058 481.977 523.759 481.977Z" fill="#B2C1F9"/>
</g>
<g opacity="0.4">
<path d="M593.391 481.977H557.334C556.848 481.977 556.455 481.583 556.455 481.098V464.017C556.455 463.532 556.848 463.138 557.334 463.138H593.391C593.876 463.138 594.27 463.532 594.27 464.017V481.098C594.27 481.585 593.876 481.977 593.391 481.977ZM558.213 480.219H592.512V464.896H558.213V480.219Z" fill="#B2C1F9"/>
<path d="M593.39 481.977C593.265 481.977 593.135 481.949 593.016 481.892L557.598 465.202C557.159 464.996 556.971 464.472 557.178 464.032C557.384 463.591 557.911 463.407 558.347 463.612L593.765 480.303C594.204 480.509 594.392 481.033 594.185 481.472C594.035 481.792 593.719 481.977 593.39 481.977Z" fill="#B2C1F9"/>
<path d="M557.973 481.594C557.642 481.594 557.328 481.409 557.178 481.089C556.971 480.651 557.159 480.126 557.598 479.92L593.016 463.224C593.452 463.018 593.979 463.203 594.185 463.644C594.392 464.082 594.204 464.608 593.765 464.813L558.347 481.509C558.228 481.566 558.098 481.594 557.973 481.594Z" fill="#B2C1F9"/>
</g>
<path d="M594.027 448.598H557.334C556.848 448.598 556.455 448.204 556.455 447.718C556.455 447.233 556.848 446.839 557.334 446.839H594.027C594.513 446.839 594.906 447.233 594.906 447.718C594.906 448.204 594.513 448.598 594.027 448.598Z" fill="#1F4FD8"/>
<path d="M578.114 456.919H557.334C556.848 456.919 556.455 456.525 556.455 456.04C556.455 455.554 556.848 455.161 557.334 455.161H578.114C578.599 455.161 578.993 455.554 578.993 456.04C578.993 456.525 578.601 456.919 578.114 456.919Z" fill="#1F4FD8"/>
<path d="M583.954 418.228C580.441 416.15 575.898 416.765 573.198 419.826C573.178 419.847 573.159 419.87 573.139 419.893L568.948 424.728C568.519 425.189 568.545 425.917 569.006 426.346L569.219 426.542C569.686 426.977 570.425 426.95 570.861 426.483L574.805 422.242L575.14 422.56L570.782 427.246C570.348 427.713 570.374 428.452 570.842 428.888L571.04 429.073C571.508 429.507 572.246 429.48 572.682 429.013L577.025 424.343L577.361 424.661L573.437 428.879C573.002 429.347 573.029 430.085 573.496 430.521L573.695 430.706C574.163 431.142 574.901 431.114 575.336 430.646L578.838 426.88C579.061 426.639 579.439 426.627 579.678 426.854C579.837 427.003 579.838 427.255 579.684 427.407L577.82 429.229C577.391 429.647 577.255 430.435 577.589 430.931C578.054 431.62 579.01 431.694 579.576 431.14L581.853 428.916C581.853 428.916 581.857 428.913 581.86 428.913L585.377 427.81C587.43 427.167 589.584 426.927 591.734 427.028C598.553 427.346 589.232 421.35 583.954 418.228Z" fill="#FEC29E"/>
<path d="M522.908 435.717C521.626 435.717 520.585 434.674 520.585 433.392C520.585 432.11 521.628 431.068 522.908 431.068C524.19 431.068 525.232 432.11 525.232 433.392C525.232 434.674 524.19 435.717 522.908 435.717ZM522.908 431.947C522.112 431.947 521.465 432.596 521.465 433.392C521.465 434.189 522.112 434.837 522.908 434.837C523.705 434.837 524.353 434.189 524.353 433.392C524.353 432.596 523.705 431.947 522.908 431.947Z" fill="white"/>
<path d="M529.547 435.717C528.265 435.717 527.224 434.674 527.224 433.392C527.224 432.11 528.267 431.068 529.547 431.068C530.828 431.068 531.871 432.11 531.871 433.392C531.871 434.674 530.83 435.717 529.547 435.717ZM529.547 431.947C528.75 431.947 528.103 432.596 528.103 433.392C528.103 434.189 528.75 434.837 529.547 434.837C530.343 434.837 530.992 434.189 530.992 433.392C530.992 432.596 530.343 431.947 529.547 431.947Z" fill="white"/>
<path d="M536.007 435.717C534.725 435.717 533.683 434.674 533.683 433.392C533.683 432.11 534.725 431.068 536.007 431.068C537.289 431.068 538.33 432.11 538.33 433.392C538.33 434.674 537.289 435.717 536.007 435.717ZM536.007 431.947C535.21 431.947 534.562 432.596 534.562 433.392C534.562 434.189 535.21 434.837 536.007 434.837C536.803 434.837 537.45 434.189 537.45 433.392C537.45 432.596 536.803 431.947 536.007 431.947Z" fill="white"/>
<path d="M521.758 485.528H442.848C437.125 485.528 432.443 480.846 432.443 475.123V471.654C432.443 465.931 437.125 461.249 442.848 461.249H521.758C527.481 461.249 532.163 465.931 532.163 471.654V475.123C532.163 480.846 527.481 485.528 521.758 485.528Z" fill="#1F4FD8"/>
<path d="M520.239 477.723C516.771 477.723 513.951 474.903 513.951 471.436C513.951 467.969 516.771 465.148 520.239 465.148C523.706 465.148 526.526 467.969 526.526 471.436C526.526 474.903 523.706 477.723 520.239 477.723ZM520.239 466.884C517.728 466.884 515.687 468.927 515.687 471.436C515.687 473.946 517.73 475.988 520.239 475.988C522.749 475.988 524.79 473.945 524.79 471.436C524.792 468.927 522.749 466.884 520.239 466.884Z" fill="white"/>
<path d="M510.484 482.059C510.262 482.059 510.041 481.974 509.87 481.804C509.531 481.464 509.531 480.916 509.87 480.578L515.507 474.942C515.846 474.602 516.395 474.602 516.732 474.942C517.072 475.281 517.072 475.829 516.732 476.167L511.096 481.804C510.927 481.974 510.705 482.059 510.484 482.059Z" fill="white"/>
<path opacity="0.32" d="M506.148 476.423H445.448C443.774 476.423 442.414 475.062 442.414 473.388C442.414 471.714 443.774 470.354 445.448 470.354H506.148C507.822 470.354 509.183 471.714 509.183 473.388C509.183 475.062 507.822 476.423 506.148 476.423ZM445.448 471.22C444.253 471.22 443.28 472.193 443.28 473.388C443.28 474.584 444.253 475.556 445.448 475.556H506.148C507.344 475.556 508.316 474.584 508.316 473.388C508.316 472.193 507.344 471.22 506.148 471.22H445.448Z" fill="white"/>
<path d="M482.302 448.455C490.5 448.455 497.147 441.808 497.147 433.61C497.147 425.412 490.5 418.766 482.302 418.766C474.104 418.766 467.458 425.412 467.458 433.61C467.458 441.808 474.104 448.455 482.302 448.455Z" fill="#B2C1F9"/>
<path d="M482.278 435.279C479.712 435.279 477.625 433.192 477.625 430.626C477.625 428.061 479.712 425.974 482.278 425.974C484.843 425.974 486.93 428.061 486.93 430.626C486.932 433.192 484.843 435.279 482.278 435.279ZM482.278 427.732C480.683 427.732 479.384 429.03 479.384 430.626C479.384 432.221 480.681 433.52 482.278 433.52C483.874 433.52 485.172 432.223 485.172 430.626C485.173 429.032 483.876 427.732 482.278 427.732Z" fill="white"/>
<path d="M487.841 441.314H476.72C476.235 441.314 475.841 440.92 475.841 440.435C475.841 436.792 478.805 433.83 482.446 433.83H483.1C486.2 433.83 488.72 436.351 488.72 439.451V440.437C488.72 440.92 488.326 441.314 487.841 441.314ZM477.676 439.556H486.96V439.449C486.96 437.32 485.228 435.586 483.099 435.586H482.445C480.073 435.588 478.093 437.3 477.676 439.556Z" fill="white"/>
<path d="M535.713 402.026C547.724 402.026 557.46 392.29 557.46 380.279C557.46 368.268 547.724 358.532 535.713 358.532C523.702 358.532 513.966 368.268 513.966 380.279C513.966 392.29 523.702 402.026 535.713 402.026Z" fill="#B2C1F9"/>
<path d="M542.9 388.313H528.522C524.926 388.313 522 385.387 522 381.791C522 378.368 524.65 375.553 528.007 375.29C528.346 371.337 531.672 368.225 535.711 368.225C539.75 368.225 543.076 371.337 543.415 375.29C546.772 375.553 549.421 378.368 549.421 381.791C549.421 385.387 546.498 388.313 542.9 388.313ZM528.523 376.645C525.686 376.645 523.377 378.954 523.377 381.791C523.377 384.629 525.686 386.938 528.523 386.938H542.902C545.74 386.938 548.048 384.629 548.048 381.791C548.048 378.954 545.74 376.645 542.902 376.645H542.758C542.378 376.645 542.07 376.337 542.07 375.958C542.07 372.452 539.219 369.6 535.713 369.6C532.207 369.6 529.355 372.452 529.355 375.958C529.355 376.337 529.047 376.645 528.668 376.645H528.523Z" fill="white"/>
<path d="M535.713 384.369C535.333 384.369 535.025 384.061 535.025 383.682V376.295C535.025 375.916 535.333 375.608 535.713 375.608C536.093 375.608 536.4 375.916 536.4 376.295V383.682C536.4 384.061 536.091 384.369 535.713 384.369Z" fill="white"/>
<path d="M534.199 378.339C534.043 378.339 533.885 378.286 533.754 378.175C533.464 377.929 533.429 377.496 533.674 377.206L535.186 375.422C535.314 375.27 535.499 375.183 535.696 375.179C535.88 375.163 536.082 375.255 536.216 375.401L537.86 377.185C538.117 377.465 538.099 377.899 537.819 378.157C537.54 378.414 537.106 378.397 536.847 378.117L535.731 376.906L534.721 378.096C534.588 378.256 534.394 378.339 534.199 378.339Z" fill="white"/>
<defs>
<filter id="filter0_n_412_1180" x="0" y="0" width="800" height="800" filterUnits="userSpaceOnUse" color-interpolation-filters="sRGB">
<feFlood flood-opacity="0" result="BackgroundImageFix"/>
<feBlend mode="normal" in="SourceGraphic" in2="BackgroundImageFix" result="shape"/>
<feTurbulence type="fractalNoise" baseFrequency="2 2" stitchTiles="stitch" numOctaves="3" result="noise" seed="6615" />
<feColorMatrix in="noise" type="luminanceToAlpha" result="alphaNoise" />
<feComponentTransfer in="alphaNoise" result="coloredNoise1">
<feFuncA type="discrete" tableValues="1 1 1 1 1 1 1 1 1 1 1 1 1 1 1 1 1 1 1 1 1 1 1 1 1 1 1 1 1 1 1 1 1 1 1 1 1 1 1 1 1 1 1 1 1 1 1 1 1 1 1 0 0 0 0 0 0 0 0 0 0 0 0 0 0 0 0 0 0 0 0 0 0 0 0 0 0 0 0 0 0 0 0 0 0 0 0 0 0 0 0 0 0 0 0 0 0 0 0 0 "/>
</feComponentTransfer>
<feComposite operator="in" in2="shape" in="coloredNoise1" result="noise1Clipped" />
<feFlood flood-color="rgba(0, 0, 0, 0.25)" result="color1Flood" />
<feComposite operator="in" in2="noise1Clipped" in="color1Flood" result="color1" />
<feMerge result="effect1_noise_412_1180">
<feMergeNode in="shape" />
<feMergeNode in="color1" />
</feMerge>
</filter>
<linearGradient id="paint0_linear_412_1180" x1="0" y1="0" x2="800" y2="800" gradientUnits="userSpaceOnUse">
<stop stop-color="#FFE2E6" stop-opacity="0.2"/>
<stop offset="1" stop-color="#B8CAFF" stop-opacity="0.2"/>
</linearGradient>
</defs>
</svg>
