<svg width="802" height="800" viewBox="0 0 802 800" fill="none" xmlns="http://www.w3.org/2000/svg">
<g filter="url(#filter0_n_412_1180)">
<rect x="0.557129" width="800" height="800" rx="48" fill="url(#paint0_linear_412_1180)"/>
</g>
<path d="M271.226 286.693V274.082C271.226 272.848 270.226 271.849 268.993 271.849H265.747C264.797 271.849 263.956 271.203 263.743 270.277C262.62 265.38 260.706 260.785 258.125 256.643C257.61 255.817 257.708 254.751 258.396 254.062L260.678 251.78C261.55 250.907 261.55 249.494 260.678 248.621L251.762 239.705C250.889 238.833 249.476 238.833 248.603 239.705L246.324 241.985C245.635 242.674 244.569 242.771 243.742 242.256C239.601 239.673 235.004 237.757 230.105 236.632C229.179 236.419 228.534 235.578 228.534 234.629V231.393C228.534 230.159 227.534 229.16 226.301 229.16H213.69C212.456 229.16 211.457 230.16 211.457 231.393V234.629C211.457 235.578 210.811 236.42 209.884 236.633C204.985 237.757 200.387 239.673 196.246 242.256C195.419 242.771 194.354 242.674 193.665 241.985L191.387 239.707C190.515 238.835 189.101 238.835 188.229 239.707L179.312 248.624C178.44 249.496 178.44 250.91 179.312 251.782L181.592 254.062C182.281 254.751 182.379 255.817 181.863 256.643C179.282 260.786 177.369 265.383 176.244 270.279C176.031 271.206 175.191 271.852 174.24 271.852H170.998C169.764 271.852 168.765 272.852 168.765 274.085V286.696C168.765 287.93 169.765 288.929 170.998 288.929H174.241C175.191 288.929 176.032 289.575 176.244 290.5C177.37 295.398 179.284 299.995 181.864 304.134C182.38 304.961 182.283 306.026 181.594 306.715L179.31 308.999C178.438 309.871 178.438 311.285 179.31 312.157L188.226 321.075C189.099 321.947 190.514 321.947 191.385 321.075L193.669 318.79C194.358 318.101 195.424 318.004 196.25 318.518C200.39 321.097 204.984 323.007 209.882 324.132C210.808 324.345 211.454 325.185 211.454 326.136V329.389C211.454 330.623 212.454 331.622 213.687 331.622H226.298C227.532 331.622 228.532 330.622 228.532 329.389V326.136C228.532 325.185 229.177 324.345 230.104 324.132C235.001 323.009 239.595 321.097 243.734 318.518C244.561 318.004 245.626 318.101 246.314 318.79L248.6 321.076C249.472 321.948 250.887 321.948 251.758 321.076L260.674 312.158C261.547 311.286 261.547 309.871 260.674 309L258.39 306.716C257.701 306.027 257.604 304.962 258.119 304.135C260.699 299.995 262.612 295.401 263.737 290.503C263.95 289.576 264.79 288.93 265.741 288.93H268.989C270.226 288.927 271.226 287.926 271.226 286.693ZM219.992 315.944C200.354 315.944 184.457 300.015 184.457 280.377C184.457 260.769 200.354 244.841 219.992 244.841C239.631 244.841 255.528 260.77 255.528 280.377C255.528 300.016 239.631 315.944 219.992 315.944Z" stroke="#F9B2B2" stroke-width="0.7896" stroke-miterlimit="10"/>
<path d="M329.226 329.382V320.788C329.226 319.947 328.544 319.266 327.704 319.266H325.492C324.844 319.266 324.271 318.825 324.126 318.194C323.361 314.857 322.057 311.725 320.297 308.903C319.947 308.339 320.013 307.613 320.482 307.144L322.037 305.589C322.631 304.995 322.631 304.032 322.037 303.436L315.96 297.359C315.366 296.765 314.403 296.765 313.807 297.359L312.253 298.913C311.783 299.383 311.058 299.448 310.494 299.098C307.672 297.337 304.539 296.032 301.201 295.265C300.57 295.12 300.131 294.548 300.131 293.9V291.695C300.131 290.854 299.449 290.173 298.609 290.173H290.015C289.174 290.173 288.493 290.854 288.493 291.695V293.9C288.493 294.547 288.052 295.12 287.421 295.265C284.082 296.032 280.948 297.337 278.126 299.097C277.562 299.447 276.836 299.381 276.366 298.912L274.815 297.361C274.221 296.766 273.257 296.766 272.662 297.361L266.585 303.437C265.991 304.032 265.991 304.995 266.585 305.59L268.139 307.144C268.608 307.613 268.674 308.34 268.324 308.904C266.564 311.726 265.26 314.86 264.495 318.197C264.35 318.828 263.778 319.268 263.129 319.268H260.919C260.079 319.268 259.397 319.95 259.397 320.79V329.384C259.397 330.225 260.079 330.906 260.919 330.906H263.13C263.778 330.906 264.351 331.347 264.496 331.978C265.263 335.316 266.568 338.448 268.326 341.269C268.677 341.833 268.61 342.559 268.142 343.029L266.586 344.585C265.992 345.18 265.992 346.143 266.586 346.737L272.663 352.814C273.257 353.408 274.222 353.408 274.816 352.814L276.374 351.256C276.843 350.787 277.57 350.72 278.132 351.072C280.953 352.829 284.084 354.132 287.422 354.897C288.054 355.042 288.494 355.614 288.494 356.263V358.48C288.494 359.32 289.176 360.002 290.016 360.002H298.61C299.45 360.002 300.132 359.32 300.132 358.48V356.263C300.132 355.614 300.572 355.042 301.204 354.897C304.54 354.132 307.672 352.829 310.493 351.072C311.056 350.721 311.782 350.787 312.251 351.256L313.809 352.815C314.403 353.409 315.367 353.409 315.962 352.815L322.038 346.738C322.633 346.144 322.633 345.18 322.038 344.585L320.481 343.029C320.011 342.56 319.944 341.833 320.296 341.269C322.054 338.448 323.359 335.317 324.125 331.979C324.27 331.348 324.842 330.907 325.491 330.907H327.704C328.544 330.905 329.226 330.223 329.226 329.382ZM294.311 347.95C281.684 347.95 271.461 337.708 271.461 325.079C271.461 312.471 281.684 302.228 294.311 302.228C306.94 302.228 317.163 312.471 317.163 325.079C317.163 337.708 306.94 347.95 294.311 347.95Z" fill="#DEE3FC"/>
<path d="M167.393 556.934C169.694 556.934 171.559 555.068 171.559 552.768C171.559 550.467 169.694 548.602 167.393 548.602C165.092 548.602 163.227 550.467 163.227 552.768C163.227 555.068 165.092 556.934 167.393 556.934Z" fill="#A4AFFF"/>
<path d="M725.52 443.1C727.821 443.1 729.686 441.234 729.686 438.934C729.686 436.633 727.821 434.768 725.52 434.768C723.219 434.768 721.354 436.633 721.354 438.934C721.354 441.234 723.219 443.1 725.52 443.1Z" fill="#A4AFFF"/>
<path d="M717.188 294.339C719.489 294.339 721.354 292.474 721.354 290.173C721.354 287.872 719.489 286.007 717.188 286.007C714.887 286.007 713.022 287.872 713.022 290.173C713.022 292.474 714.887 294.339 717.188 294.339Z" fill="#FEB3B1"/>
<path d="M567.4 242.224C568.843 242.224 570.013 241.054 570.013 239.61C570.013 238.167 568.843 236.997 567.4 236.997C565.957 236.997 564.787 238.167 564.787 239.61C564.787 241.054 565.957 242.224 567.4 242.224Z" fill="#A4AFFF"/>
<path d="M183.703 204.8C183.703 206.243 182.533 207.413 181.089 207.413C179.646 207.413 178.476 206.243 178.476 204.8C178.476 203.357 179.646 202.187 181.089 202.187C182.533 202.187 183.703 203.357 183.703 204.8Z" fill="#FF928E"/>
<path d="M241.541 365.725C241.541 367.168 240.371 368.338 238.928 368.338C237.485 368.338 236.314 367.168 236.314 365.725C236.314 364.282 237.485 363.112 238.928 363.112C240.371 363.112 241.541 364.282 241.541 365.725Z" fill="#FEB3B1"/>
<path d="M145.671 556.935C145.671 558.378 144.501 559.548 143.058 559.548C141.614 559.548 140.444 558.378 140.444 556.935C140.444 555.491 141.614 554.321 143.058 554.321C144.501 554.321 145.671 555.491 145.671 556.935Z" fill="#FEB3B1"/>
<path d="M664.407 559.395C666.708 559.395 668.573 557.53 668.573 555.229C668.573 552.929 666.708 551.063 664.407 551.063C662.106 551.063 660.241 552.929 660.241 555.229C660.241 557.53 662.106 559.395 664.407 559.395Z" fill="#FEB3B1"/>
<path d="M752.993 559.395C755.293 559.395 757.159 557.53 757.159 555.229C757.159 552.929 755.293 551.063 752.993 551.063C750.692 551.063 748.827 552.929 748.827 555.229C748.827 557.53 750.692 559.395 752.993 559.395Z" fill="#A4AFFF"/>
<path d="M255.528 197.606C257.829 197.606 259.694 195.741 259.694 193.44C259.694 191.139 257.829 189.274 255.528 189.274C253.227 189.274 251.362 191.139 251.362 193.44C251.362 195.741 253.227 197.606 255.528 197.606Z" fill="#A4AFFF"/>
<path d="M542.97 382.987C542.97 386.066 540.474 388.562 537.396 388.562C534.317 388.562 531.821 386.067 531.821 382.987C531.821 379.908 534.316 377.413 537.396 377.413C540.475 377.413 542.97 379.909 542.97 382.987Z" fill="#A4AFFF"/>
<path d="M131.827 314.056C131.827 317.134 129.332 319.63 126.252 319.63C123.174 319.63 120.678 317.134 120.678 314.056C120.678 310.977 123.173 308.481 126.252 308.481C129.332 308.482 131.827 310.977 131.827 314.056Z" fill="#A4AFFF"/>
<path d="M116.142 230.847H109.132C108.68 230.847 108.315 230.481 108.315 230.03V223.021C108.315 222.569 108.68 222.204 109.132 222.204H116.142C116.594 222.204 116.959 222.569 116.959 223.021V230.03C116.959 230.481 116.594 230.847 116.142 230.847Z" fill="white"/>
<path d="M127.705 230.847H120.695C120.243 230.847 119.878 230.481 119.878 230.03V223.021C119.878 222.569 120.243 222.204 120.695 222.204H127.705C128.157 222.204 128.522 222.569 128.522 223.021V230.03C128.522 230.481 128.157 230.847 127.705 230.847Z" fill="white"/>
<path d="M139.268 230.847H132.259C131.807 230.847 131.442 230.481 131.442 230.03V223.021C131.442 222.569 131.807 222.204 132.259 222.204H139.268C139.72 222.204 140.085 222.569 140.085 223.021V230.03C140.085 230.481 139.72 230.847 139.268 230.847Z" fill="white"/>
<path d="M704.964 534.416H697.953C697.502 534.416 697.136 534.05 697.136 533.599V526.589C697.136 526.138 697.502 525.772 697.953 525.772H704.964C705.415 525.772 705.781 526.138 705.781 526.589V533.599C705.781 534.05 705.415 534.416 704.964 534.416Z" fill="#DEE3FC"/>
<path d="M716.527 534.416H709.516C709.065 534.416 708.699 534.05 708.699 533.599V526.589C708.699 526.138 709.065 525.772 709.516 525.772H716.527C716.978 525.772 717.344 526.138 717.344 526.589V533.599C717.344 534.05 716.978 534.416 716.527 534.416Z" fill="#DEE3FC"/>
<path d="M728.089 534.416H721.079C720.627 534.416 720.262 534.05 720.262 533.599V526.589C720.262 526.138 720.627 525.772 721.079 525.772H728.089C728.541 525.772 728.906 526.138 728.906 526.589V533.599C728.906 534.05 728.541 534.416 728.089 534.416Z" fill="#DEE3FC"/>
<path d="M170.418 529.678H163.408C162.956 529.678 162.591 529.313 162.591 528.861V521.852C162.591 521.401 162.956 521.035 163.408 521.035H170.418C170.87 521.035 171.235 521.401 171.235 521.852V528.861C171.235 529.312 170.869 529.678 170.418 529.678Z" fill="#DEE3FC"/>
<path d="M181.98 529.678H174.969C174.518 529.678 174.152 529.313 174.152 528.861V521.852C174.152 521.401 174.518 521.035 174.969 521.035H181.98C182.431 521.035 182.797 521.401 182.797 521.852V528.861C182.797 529.312 182.431 529.678 181.98 529.678Z" fill="#DEE3FC"/>
<path d="M193.543 529.678H186.533C186.082 529.678 185.716 529.313 185.716 528.861V521.852C185.716 521.401 186.082 521.035 186.533 521.035H193.543C193.994 521.035 194.36 521.401 194.36 521.852V528.861C194.36 529.312 193.994 529.678 193.543 529.678Z" fill="#DEE3FC"/>
<path d="M483.792 603.974H317.322C302.815 603.974 291.056 592.215 291.056 577.708V207.172C291.056 192.665 302.815 180.905 317.322 180.905H483.792C498.299 180.905 510.058 192.665 510.058 207.172V577.708C510.058 592.215 498.299 603.974 483.792 603.974Z" fill="#F36F56"/>
<path d="M482.95 597.962H318.164C305.457 597.962 295.156 587.662 295.156 574.954V207.617C295.156 194.91 305.457 184.61 318.164 184.61H482.951C495.658 184.61 505.959 194.91 505.959 207.617V574.954C505.958 587.662 495.657 597.962 482.95 597.962Z" fill="white"/>
<path d="M496.73 206.896V573.806C496.73 582.411 489.754 589.387 481.149 589.387H319.965C311.36 589.387 304.384 582.411 304.384 573.806V206.896C304.384 198.291 311.36 191.315 319.965 191.315H346.843C348.334 191.315 349.699 192.158 350.367 193.491L353.221 199.189C354.522 201.818 357.207 203.465 360.126 203.465H440.987C443.907 203.465 446.592 201.818 447.892 199.189L450.747 193.491C451.415 192.158 452.778 191.315 454.27 191.315H481.149C489.754 191.315 496.73 198.29 496.73 206.896Z" fill="#FCDEDE"/>
<path d="M434.492 196.798H369.364C367.849 196.798 366.622 195.571 366.622 194.056C366.622 192.541 367.849 191.313 369.364 191.313H434.492C436.006 191.313 437.234 192.541 437.234 194.056C437.234 195.571 436.006 196.798 434.492 196.798Z" fill="#FCDEDE"/>
<path d="M471.144 576.652H326.218C320.524 576.652 315.909 572.036 315.909 566.342V515.169C315.909 509.475 320.524 504.86 326.218 504.86H471.144C476.838 504.86 481.453 509.475 481.453 515.169V566.342C481.453 572.036 476.838 576.652 471.144 576.652Z" stroke="#F36F56" stroke-miterlimit="10" stroke-linecap="round" stroke-linejoin="round" stroke-dasharray="2.84 2.84"/>
<path d="M463.798 400.482H391.905C387.798 400.482 384.469 397.153 384.469 393.046V357.513C384.469 353.406 387.798 350.077 391.905 350.077H463.798C467.905 350.077 471.234 353.406 471.234 357.513V393.046C471.234 397.153 467.905 400.482 463.798 400.482Z" stroke="#F36F56" stroke-miterlimit="10" stroke-linecap="round" stroke-linejoin="round" stroke-dasharray="2.84 2.84"/>
<path d="M479.276 492.92H330.795C325.902 492.92 321.935 488.953 321.935 484.06V421.434C321.935 416.54 325.902 412.574 330.795 412.574H479.276C484.169 412.574 488.136 416.54 488.136 421.434V484.06C488.136 488.953 484.169 492.92 479.276 492.92Z" fill="#4B5A9B"/>
<path d="M481.453 414.919V477.581C481.453 482.466 477.491 486.415 472.607 486.415H324.755C319.871 486.415 315.909 482.466 315.909 477.581V414.919C315.909 410.035 319.871 406.073 324.755 406.073H472.607C477.491 406.073 481.453 410.035 481.453 414.919Z" fill="#F47F7F"/>
<path d="M373.096 479.886H329.537C326.234 479.886 323.557 477.209 323.557 473.906V430.347C323.557 427.045 326.234 424.367 329.537 424.367H373.096C376.399 424.367 379.076 427.044 379.076 430.347V473.906C379.076 477.209 376.399 479.886 373.096 479.886Z" fill="white"/>
<path d="M424.719 431.391H386.358C385.314 431.391 384.469 430.546 384.469 429.503C384.469 428.46 385.314 427.614 386.358 427.614H424.719C425.762 427.614 426.608 428.46 426.608 429.503C426.609 430.546 425.762 431.391 424.719 431.391Z" fill="#F9B2B2"/>
<path d="M407.238 438.933H386.358C385.314 438.933 384.469 438.088 384.469 437.045C384.469 436.002 385.314 435.156 386.358 435.156H407.238C408.281 435.156 409.127 436.002 409.127 437.045C409.127 438.087 408.281 438.933 407.238 438.933Z" fill="#F9B2B2"/>
<path d="M471.423 438.933H414.923C413.879 438.933 413.034 438.088 413.034 437.045C413.034 436.002 413.879 435.156 414.923 435.156H471.423C472.466 435.156 473.312 436.002 473.312 437.045C473.312 438.087 472.465 438.933 471.423 438.933Z" fill="#F9B2B2"/>
<path d="M418.665 446.474H386.359C385.316 446.474 384.471 445.629 384.471 444.585C384.471 443.542 385.316 442.697 386.359 442.697H418.665C419.708 442.697 420.553 443.542 420.553 444.585C420.553 445.629 419.707 446.474 418.665 446.474Z" fill="#F9B2B2"/>
<path d="M446.087 446.474H425.777C424.734 446.474 423.889 445.629 423.889 444.585C423.889 443.542 424.734 442.697 425.777 442.697H446.087C447.13 442.697 447.975 443.542 447.975 444.585C447.975 445.629 447.129 446.474 446.087 446.474Z" fill="#F9B2B2"/>
<path d="M471.423 446.474H452.721C451.677 446.474 450.832 445.629 450.832 444.585C450.832 443.542 451.677 442.697 452.721 442.697H471.423C472.467 442.697 473.312 443.542 473.312 444.585C473.312 445.629 472.465 446.474 471.423 446.474Z" fill="#F9B2B2"/>
<path d="M471.423 454.015H386.358C385.314 454.015 384.469 453.17 384.469 452.127C384.469 451.084 385.314 450.238 386.358 450.238H471.423C472.467 450.238 473.312 451.084 473.312 452.127C473.312 453.17 472.465 454.015 471.423 454.015Z" fill="#F9B2B2"/>
<path d="M433.175 461.556H386.359C385.316 461.556 384.471 460.711 384.471 459.667C384.471 458.624 385.316 457.779 386.359 457.779H433.175C434.219 457.779 435.064 458.624 435.064 459.667C435.064 460.711 434.218 461.556 433.175 461.556Z" fill="#F9B2B2"/>
<path d="M471.423 461.556H440.724C439.68 461.556 438.835 460.711 438.835 459.667C438.835 458.624 439.68 457.779 440.724 457.779H471.423C472.467 457.779 473.312 458.624 473.312 459.667C473.312 460.711 472.465 461.556 471.423 461.556Z" fill="#F9B2B2"/>
<path d="M413.865 469.097H386.358C385.314 469.097 384.469 468.252 384.469 467.208C384.469 466.165 385.314 465.32 386.358 465.32H413.865C414.908 465.32 415.753 466.165 415.753 467.208C415.753 468.252 414.908 469.097 413.865 469.097Z" fill="#F9B2B2"/>
<path d="M448.817 469.097H421.31C420.267 469.097 419.421 468.252 419.421 467.208C419.421 466.165 420.267 465.32 421.31 465.32H448.817C449.86 465.32 450.706 466.165 450.706 467.208C450.706 468.252 449.86 469.097 448.817 469.097Z" fill="#F9B2B2"/>
<path d="M471.423 469.097H455.462C454.418 469.097 453.573 468.252 453.573 467.208C453.573 466.165 454.418 465.32 455.462 465.32H471.423C472.467 465.32 473.312 466.165 473.312 467.208C473.312 468.252 472.465 469.097 471.423 469.097Z" fill="#F9B2B2"/>
<path d="M424.719 476.639H386.358C385.314 476.639 384.469 475.794 384.469 474.75C384.469 473.707 385.314 472.862 386.358 472.862H424.719C425.762 472.862 426.608 473.707 426.608 474.75C426.609 475.793 425.762 476.639 424.719 476.639Z" fill="#F9B2B2"/>
<path d="M471.423 431.391H433.062C432.019 431.391 431.173 430.546 431.173 429.503C431.173 428.46 432.019 427.614 433.062 427.614H471.423C472.466 427.614 473.312 428.46 473.312 429.503C473.312 430.546 472.465 431.391 471.423 431.391Z" fill="#F9B2B2"/>
<path d="M481.453 414.919V417.552H315.909V414.919C315.909 410.035 319.871 406.073 324.755 406.073H472.607C477.491 406.073 481.453 410.035 481.453 414.919Z" fill="#F36F56"/>
<path d="M450.25 412.02C450.25 413.153 449.332 414.071 448.199 414.071C447.066 414.071 446.148 413.153 446.148 412.02C446.148 410.888 447.066 409.969 448.199 409.969C449.332 409.969 450.25 410.888 450.25 412.02Z" fill="#DEE3FC"/>
<path d="M460.742 412.02C460.742 413.153 459.824 414.071 458.691 414.071C457.558 414.071 456.64 413.153 456.64 412.02C456.64 410.888 457.558 409.969 458.691 409.969C459.824 409.969 460.742 410.888 460.742 412.02Z" fill="#DEE3FC"/>
<path d="M471.235 412.02C471.235 413.153 470.317 414.071 469.184 414.071C468.051 414.071 467.133 413.153 467.133 412.02C467.133 410.888 468.051 409.969 469.184 409.969C470.316 409.97 471.235 410.888 471.235 412.02Z" fill="#DEE3FC"/>
<path d="M367.162 400.483H334.399C329.54 400.483 325.601 396.543 325.601 391.684V358.921C325.601 354.063 329.54 350.123 334.399 350.123H367.162C372.021 350.123 375.96 354.061 375.96 358.921V391.684C375.959 396.544 372.021 400.483 367.162 400.483Z" stroke="#F36F56" stroke-width="0.8956" stroke-miterlimit="10"/>
<path d="M342.924 368.02L335.668 375.275L342.982 382.587" stroke="#F36F56" stroke-width="1.6716" stroke-miterlimit="10" stroke-linecap="round" stroke-linejoin="round"/>
<path d="M358.634 368.02L365.89 375.275L358.578 382.587" stroke="#F36F56" stroke-width="1.6716" stroke-miterlimit="10" stroke-linecap="round" stroke-linejoin="round"/>
<path d="M354.177 368.02L347.383 382.587" stroke="#F36F56" stroke-width="1.6716" stroke-miterlimit="10" stroke-linecap="round" stroke-linejoin="round"/>
<path d="M481.453 227.204V329.656C481.453 335.217 476.95 339.72 471.389 339.72H325.973C320.425 339.72 315.909 335.217 315.909 329.656V227.204C315.909 221.643 320.425 217.14 325.973 217.14H471.389C476.95 217.14 481.453 221.643 481.453 227.204Z" fill="#F9B2B2"/>
<path d="M447.925 273.503C461.176 273.503 471.917 262.761 471.917 249.511C471.917 236.261 461.176 225.519 447.925 225.519C434.675 225.519 423.934 236.261 423.934 249.511C423.934 262.761 434.675 273.503 447.925 273.503Z" fill="#FFF0F0"/>
<path d="M413.218 339.721H325.973C320.425 339.721 315.909 335.217 315.909 329.656V313.526L354.087 247.395C356.08 243.937 361.075 243.937 363.069 247.395L391.896 297.323L413.304 334.405C414.337 336.177 414.177 338.195 413.218 339.721Z" fill="white"/>
<path d="M450.841 339.72H367.411L391.895 297.322L405.085 274.475C406.881 271.362 411.372 271.362 413.168 274.475L450.841 339.72Z" fill="#FFF0F0"/>
<path d="M616.321 530.093H552.003V626.753H616.321V530.093Z" fill="#3B47BC"/>
<path d="M616.322 626.754H640.949V530.094H616.322V626.754Z" fill="#495AD6"/>
<path d="M637.929 533.805H619.848V536.89H637.929V533.805Z" fill="#B2C1F9"/>
<path d="M637.929 540.433H619.848V543.518H637.929V540.433Z" fill="#B2C1F9"/>
<path d="M637.929 547.06H619.848V550.144H637.929V547.06Z" fill="#B2C1F9"/>
<path d="M637.929 553.687H619.848V556.771H637.929V553.687Z" fill="#B2C1F9"/>
<path d="M637.929 560.313H619.848V563.397H637.929V560.313Z" fill="#B2C1F9"/>
<path d="M637.929 566.941H619.848V570.025H637.929V566.941Z" fill="#B2C1F9"/>
<path d="M637.929 573.567H619.848V576.652H637.929V573.567Z" fill="#B2C1F9"/>
<path d="M637.929 580.194H619.848V583.279H637.929V580.194Z" fill="#B2C1F9"/>
<path d="M637.929 586.821H619.848V589.905H637.929V586.821Z" fill="#B2C1F9"/>
<path d="M637.929 593.449H619.848V596.533H637.929V593.449Z" fill="#B2C1F9"/>
<path d="M637.929 600.075H619.848V603.16H637.929V600.075Z" fill="#B2C1F9"/>
<path d="M637.929 606.702H619.848V609.787H637.929V606.702Z" fill="#B2C1F9"/>
<path d="M637.929 613.331H619.848V616.415H637.929V613.331Z" fill="#B2C1F9"/>
<path d="M637.929 619.957H619.848V623.042H637.929V619.957Z" fill="#B2C1F9"/>
<path d="M541.556 626.754H574.244C574.244 626.754 576.071 620.933 572.111 613.722C572.111 613.722 569.48 615.832 561.599 614.405C561.599 614.405 558.311 617.197 556.039 618.289C553.756 619.395 540.675 621.964 541.556 626.754Z" fill="#281616"/>
<path d="M543.835 534.582C545.946 547.179 555.688 589.8 559.877 614.979C567.531 615.631 571.207 614.753 573.155 614.304C572.773 605.524 572.018 584.523 572.106 575.312C572.251 559.747 572.982 539.221 566.13 527.956L543.091 529.77C543.231 530.986 543.358 531.976 543.471 532.683C543.582 533.362 543.708 533.988 543.835 534.582Z" fill="#002C54"/>
<path d="M482.43 626.754H515.118C515.118 626.754 516.945 620.933 512.986 613.722C512.986 613.722 510.354 615.832 502.473 614.405C502.473 614.405 499.185 617.197 496.913 618.289C494.63 619.395 481.549 621.964 482.43 626.754Z" fill="#281616"/>
<path d="M501.527 614.242C507.774 615.788 512.298 615.637 514.44 615.396C516.178 605.276 518.923 583.007 521.395 572.57C525.229 556.346 528.981 534.034 526.374 526.073L503.711 520.382C503.635 521.099 501.789 589.386 501.527 614.242Z" fill="#052635"/>
<path d="M591.727 497.15C591.272 492.671 590.747 489.4 590.747 489.4L565.427 495.597L543.918 500.498C535.944 502.274 526.311 504.413 517.819 506.332C508.29 508.497 501.964 515.736 504.051 525.278L506.439 536.852C519.767 536.67 582.433 530.663 587.792 527.957C593.848 524.898 595.67 514.086 591.727 497.15Z" fill="#052635"/>
<path d="M629.526 497.15C629.07 492.672 626.886 487.866 626.886 487.866L603.226 495.598L581.717 500.498C573.743 502.275 564.11 504.413 555.618 506.333C546.089 508.498 539.763 515.736 541.849 525.279L544.238 536.853C557.566 536.671 613.274 534.729 625.591 527.957C631.535 524.688 633.469 514.086 629.526 497.15Z" fill="#002C54"/>
<path d="M558.654 460.861C558.654 460.861 569.9 455.781 572.996 460.876C574.69 463.665 573.519 468.846 569.682 471.021C565.846 473.196 544.171 482.364 523.714 487.476C523.714 487.476 522.839 484.63 521.432 481.64C521.432 481.64 530.609 477.834 539.733 471.426C548.856 465.017 558.654 460.861 558.654 460.861Z" fill="#E5918F"/>
<path d="M561.465 425.741L551.826 464.24C551.826 464.24 552.823 473.973 562.652 469.196C572.481 464.418 578.995 433.747 578.995 433.747L561.465 425.741Z" fill="#E5918F"/>
<path d="M577.772 447.273C576.58 446.985 575.442 446.67 574.344 446.34C573.22 446.012 572.15 445.669 571.135 445.312C561.977 442.172 557.027 438.401 557.027 438.401C559.906 425.883 563.376 417.477 566.46 411.938C566.542 411.802 566.625 411.678 566.694 411.527C566.776 411.391 566.859 411.253 566.941 411.117C568.6 408.361 570.985 406.044 573.645 404.138C573.92 403.946 574.18 403.768 574.455 403.576L575.593 423.676L575.785 425.747L577.772 447.273Z" fill="white"/>
<path d="M577.772 447.273C576.58 446.985 575.442 446.67 574.344 446.34C573.22 446.011 572.151 445.668 571.136 445.311C573.059 431.771 574.797 423.265 574.797 423.265L575.784 425.746L577.772 447.273Z" fill="#C7E5F2"/>
<path d="M634.673 412.515C634.441 418.466 633.399 428.023 632.493 437.621C632.205 440.665 631.931 443.722 631.698 446.67C631.533 448.507 628.764 458.31 628.654 460.066C628.161 468.457 624.048 474.737 627.942 487.515C628.875 490.573 629.107 492.15 629.107 493.411C629.107 494.288 627.969 495.207 627.516 495.453C625.885 496.4 622.676 497.058 618.782 497.538H618.768C611.105 498.47 600.766 498.649 594.527 498.649C586.149 498.649 573.576 497.319 571.986 495.207C570.533 493.275 571.876 490.463 572.561 486.583C575.646 469.073 574.55 459.942 574.358 447.301C574.358 446.986 574.344 446.67 574.344 446.341C574.029 426.844 572.74 410.158 573.645 404.139C573.92 403.947 574.181 403.769 574.455 403.577C575.785 402.671 577.088 401.863 578.349 401.149C578.458 401.094 578.596 401.013 578.733 400.93C579.117 400.711 579.514 400.506 579.884 400.299C580.021 400.217 580.172 400.148 580.324 400.08C583.162 398.695 587.302 397.215 589.674 396.391C589.976 396.296 590.25 396.2 590.483 396.131C592.718 395.994 595.144 395.966 597.764 396.035C600.04 396.104 603.522 396.405 607.307 396.898C607.32 396.898 607.32 396.898 607.32 396.898C611.598 397.447 616.273 398.255 619.989 399.271C619.989 399.271 620.03 399.284 620.058 399.298C620.757 399.517 625.296 401.217 630.026 406.276C631.601 407.949 633.219 410.005 634.673 412.515Z" fill="white"/>
<path d="M627.941 487.514C628.874 490.571 629.106 492.149 629.106 493.41C629.106 494.287 627.968 495.206 627.515 495.452C625.884 496.398 622.675 497.057 618.781 497.536C620.385 497.344 623.155 494.799 623.155 492.504C623.155 490.897 621.071 480.041 621.647 473.035C622.222 466.043 623.36 454.91 621.194 445.997C619.014 437.084 616.971 425.361 616.971 425.361L629.187 432.737C629.187 432.737 630.765 434.945 632.492 437.618C632.204 440.662 631.93 443.719 631.697 446.667C631.534 448.506 624.047 474.735 627.941 487.514Z" fill="#C7E5F2"/>
<path d="M574.197 360.986C574.197 360.986 575.254 373.763 579.491 374.622C583.727 375.481 582.687 370.051 582.687 370.051L582.096 363.984L574.197 360.986Z" fill="#002C54"/>
<path d="M593.732 407.291C585.437 406.304 588.535 398.242 589.673 396.391C589.975 396.295 591.401 395.856 591.51 395.789C591.524 395.775 591.537 395.775 591.537 395.775C591.811 395.556 592.017 395.226 592.182 394.815C592.99 392.691 592.621 388.453 592.593 388.179C592.593 388.165 592.593 388.165 592.593 388.165V387.398C592.729 386.891 592.867 386.411 592.977 385.958L597.337 382.53L606.565 375.277C606.565 375.277 604.11 387.411 606.085 395.063C606.236 395.638 606.538 396.448 607.305 396.9C607.305 396.913 607.319 396.9 607.319 396.9C607.566 397.064 607.868 397.174 608.238 397.228C610.501 398.296 607.347 408.909 593.732 407.291Z" fill="#E5918F"/>
<path d="M601.042 382.987C601.042 382.987 600.965 391.085 592.175 394.809C592.992 392.696 592.616 388.457 592.59 388.184L596.272 385.293L601.042 382.987Z" fill="#CC6362"/>
<path d="M576.222 362.804C576.222 362.804 578.139 389.315 585.297 391.567C585.297 391.567 594.417 392.426 600.965 383.618C602.851 381.081 605.236 380.51 606.015 377.445C607.28 372.467 609.064 363.287 606.787 357.754C603.547 349.873 576.529 343.617 576.222 362.804Z" fill="#E5918F"/>
<path d="M606.897 353.378C606.779 348.563 601.905 346.763 601.905 346.763C597.053 344.492 586.969 345.472 576.572 347.791C574.135 348.335 571.076 346.839 569.374 348.02C567.316 349.447 569.365 355.968 569.365 355.968C573.375 368.113 588.131 364.164 592.567 362.665C593.621 365.791 593.485 370.14 596.114 372.381C597.613 373.658 600.216 373.695 602.864 373.254C603.19 373.874 604.414 374.419 604.663 375.27C605.497 378.11 605.377 382.548 605.352 385.973L606.603 385.361C606.766 384.435 619.71 353.776 606.897 353.378Z" fill="#002C54"/>
<path d="M583.564 371.733C583.938 373.934 582.853 375.955 581.139 376.247C579.425 376.538 577.732 374.991 577.358 372.788C576.984 370.587 578.07 368.566 579.783 368.274C581.497 367.982 583.19 369.53 583.564 371.733Z" stroke="white" stroke-width="0.501" stroke-miterlimit="10"/>
<path d="M592.213 370.116C592.587 372.317 591.502 374.338 589.788 374.63C588.074 374.922 586.381 373.374 586.007 371.171C585.633 368.97 586.719 366.949 588.432 366.657C590.146 366.366 591.839 367.915 592.213 370.116Z" stroke="white" stroke-width="0.501" stroke-miterlimit="10"/>
<path d="M583.564 371.733C583.564 371.733 583.943 371.117 585.935 371.29" stroke="white" stroke-width="0.501" stroke-miterlimit="10"/>
<path d="M592.289 370.644L599.682 369.462" stroke="white" stroke-width="0.501" stroke-miterlimit="10"/>
<path d="M600.226 378.848C605.317 380.799 606.908 368.266 602.073 367.711C598.407 367.29 598.256 372.406 598.256 372.406C598.256 372.406 597.319 377.734 600.226 378.848Z" fill="#E5918F"/>
<g opacity="0.5">
<path d="M601.905 369.6C601.905 369.6 601.575 369.938 601.274 370.498C600.97 371.055 600.702 371.818 600.653 372.635C600.605 373.04 600.616 373.456 600.634 373.85C600.648 374.248 600.696 374.621 600.723 374.952C600.758 375.285 600.788 375.564 600.808 375.759C600.827 375.958 600.827 376.079 600.827 376.079C600.827 376.079 600.753 375.988 600.645 375.819C600.552 375.644 600.359 375.412 600.229 375.089C600.087 374.772 599.937 374.389 599.857 373.953C599.757 373.521 599.73 373.038 599.767 372.555C599.812 372.073 599.938 371.59 600.142 371.178C600.336 370.76 600.617 370.424 600.879 370.179C601.428 369.692 601.905 369.6 601.905 369.6Z" fill="#CC6362"/>
<path d="M602.7 371.979C602.7 371.979 602.492 372.001 602.207 372.11C601.921 372.211 601.569 372.411 601.304 372.682C601.032 372.948 600.857 373.275 600.77 373.532C600.676 373.785 600.647 373.965 600.647 373.965L599.808 373.665C599.808 373.665 599.906 373.451 600.112 373.168C600.31 372.882 600.642 372.54 601.039 372.324C601.432 372.099 601.861 371.997 602.177 371.974C602.494 371.944 602.7 371.979 602.7 371.979Z" fill="#CC6362"/>
</g>
<path d="M649.182 465.935C649.182 465.935 649.182 465.935 649.181 465.947C646.943 468.543 638.451 470.436 634.365 466.844C633.082 465.7 631.632 462.686 630.207 458.945C626.584 449.382 623.156 435.074 623.156 435.074L642.16 425.363C642.16 425.363 644.605 436.325 646.711 446.743C646.711 446.743 646.73 446.848 646.769 447.033C647.455 450.37 648.093 453.652 648.594 456.469C648.615 456.549 648.622 456.614 648.63 456.693C649.132 460.055 649.454 463.562 649.182 465.935Z" fill="#E5918F"/>
<path d="M615.978 421.764C617.814 429.396 623.582 443.857 623.582 443.857C627.622 444.528 633.041 443.784 637.53 442.171C642.712 440.309 646.413 436.4 646.413 436.4C646.413 436.4 642.588 425.648 639.155 417.924C636.073 410.99 634.223 408.401 632.889 407.027C630.88 404.924 627.642 402.511 625.343 401.415L615.978 421.764Z" fill="white"/>
<path d="M640.009 426.748L628.857 421.936L620.07 399.295C620.07 399.295 621.68 399.785 623.8 400.641C623.8 400.641 623.8 400.641 623.81 400.641C623.851 400.662 623.943 400.691 624.096 400.753C624.146 400.774 624.208 400.794 624.259 400.824C626.155 401.711 633.505 406.043 638.592 421.783C638.632 421.916 638.673 422.048 638.713 422.181C639.254 423.996 639.651 425.453 639.865 426.208C639.886 426.279 639.906 426.35 639.927 426.432C639.959 426.534 639.979 426.646 640.009 426.748Z" fill="white"/>
<path d="M649.182 465.935C649.182 465.935 649.182 465.935 649.18 465.947C649.017 467.339 648.633 468.339 647.945 468.693C647.835 468.763 646.275 469.692 646.166 469.762C643.842 471.184 639.628 473.6 634.387 475.854C621.675 481.346 603.207 487.716 593.251 490.634C593.251 490.634 592.268 487.822 590.735 484.892C590.735 484.892 599.741 480.71 608.592 473.93C617.457 467.164 630.206 458.945 630.206 458.945L633.426 455.158C633.426 455.158 644.872 444.624 646.71 446.744C646.71 446.744 646.728 446.85 646.768 447.034C647.041 448.133 647.949 452.175 648.592 456.47C648.613 456.55 648.62 456.615 648.628 456.694C649.131 460.055 649.453 463.561 649.182 465.935Z" fill="#E5918F"/>
<path d="M592.052 484.249C592.052 484.249 589.814 485.597 587.534 485.118C586.273 484.852 585.763 484.336 584.831 484.173C583.898 484.009 581.414 483.703 580.184 483.099C578.954 482.496 578.473 482.428 578.518 483.663C578.561 484.898 580.987 485.965 581.645 486.309C582.303 486.651 583.129 487.746 583.218 487.883C583.306 488.021 579.173 490.184 578.062 489.745C578.062 489.745 577.731 490.74 577.92 491.295C578.108 491.851 578.958 492.046 579.023 492.325C579.09 492.604 578.828 493.175 579.012 493.618C579.197 494.061 579.955 494.063 580.261 494.783C580.567 495.503 580.23 495.515 580.453 496.266C580.676 497.017 581.637 497.152 581.819 497.539C582.001 497.927 581.905 498.379 582.307 498.646C582.711 498.913 586.428 497.72 587.785 497.139C589.142 496.557 592.768 491.338 596.78 489.559L592.052 484.249Z" fill="#E5918F"/>
<path d="M611.048 507.549H582.139V504.721H611.048C611.829 504.721 612.463 505.354 612.463 506.136C612.463 506.916 611.829 507.549 611.048 507.549Z" fill="#375F84"/>
<path d="M595.407 507.549H523.022C522.155 507.549 521.394 506.971 521.162 506.136L506.348 452.804C506.02 451.624 506.908 450.456 508.133 450.456H578.131C579.763 450.456 581.194 451.543 581.631 453.114L596.392 506.255C596.571 506.905 596.081 507.549 595.407 507.549Z" fill="#375F84"/>
<path d="M592.786 507.549H520.401C519.535 507.549 518.774 506.971 518.542 506.136L503.727 452.804C503.4 451.624 504.287 450.456 505.512 450.456H575.511C577.142 450.456 578.573 451.543 579.01 453.114L593.772 506.255C593.951 506.905 593.462 507.549 592.786 507.549Z" fill="#467CDB"/>
<path d="M305.898 473.09L314.283 464.493C314.283 464.493 314.574 460.659 315.03 459.851C315.487 459.043 316.666 456.048 317.253 455.722C317.841 455.396 319.016 455.722 319.016 455.722C319.016 455.722 320.182 455.331 320.703 455.331C321.226 455.331 322.203 455.808 322.203 455.808C322.203 455.808 323.457 455.723 323.978 455.723C324.501 455.723 324.669 455.87 324.669 455.87C324.669 455.87 326.69 453.544 327.67 452.762C328.649 451.978 330.146 450.536 330.59 450.541C331.009 450.546 331.193 451.282 330.888 452.065C330.583 452.849 329.257 454.113 329.257 454.113L325.436 459.903C325.436 459.903 326.09 459.642 326.438 459.424C326.786 459.206 329.116 457.03 329.257 456.943C329.398 456.855 330.443 456.159 331.052 456.855C331.661 457.552 327.052 463.073 326.311 463.813C325.571 464.554 321.334 466.698 321.334 466.698C321.334 466.698 316.861 474.745 316.425 475.267C315.991 475.789 305.898 473.09 305.898 473.09Z" fill="#E49191"/>
<path d="M313.79 433.408C313.79 433.408 309.106 460.54 304.697 461.17C304.697 461.17 287.097 461.88 283.177 440.529C279.777 422.014 293.415 418.064 299.794 419.482C306.173 420.897 315.159 421.818 313.79 433.408Z" fill="#E49191"/>
<path d="M298.236 456.83C298.236 456.83 295.769 460.155 294.905 468.205C294.905 468.205 287.576 469.253 280.818 465.773C280.818 465.773 284.46 454.417 284.906 442.088" fill="#E49191"/>
<path d="M293.272 414.938C283.654 417.063 284.423 423.055 284.423 423.055C279.92 424.17 278.953 426.029 278.99 434.34C279.027 442.652 282.035 452.632 283.693 453.444C285.352 454.256 294.754 454.295 295.539 454.01C296.324 453.724 299.614 446.1 298.848 444.757C298.08 443.416 298.886 438.14 301.076 437.941C303.266 437.741 302.836 441.136 302.836 441.136L304.636 440.741L306.026 437.333C318.735 438.09 322.019 423.606 322.019 423.606C318.966 421.616 302.891 412.814 293.272 414.938Z" fill="#002C54"/>
<path d="M186.509 598.611L196.234 600.017L193.013 611.372L182.481 608.715C182.481 608.715 178.195 602.907 184.666 598.611C184.977 598.403 186 598.495 186.509 598.611Z" fill="#E5918F"/>
<path d="M259.092 569.443L244.759 526.044C244.759 526.044 240.414 524.496 238.189 526.044C238.189 526.044 223.257 534.073 224.85 556.968C226.051 574.227 229.696 592.946 231.172 600.453L192.93 599.04C192.93 599.04 188.212 604.648 191.264 611.947C191.264 611.947 239.316 624.87 246.085 626.064C251.586 627.035 257.607 627.783 260.515 625.293C265.638 620.904 259.092 569.443 259.092 569.443Z" fill="black"/>
<path d="M231.787 598.611L241.512 600.017L238.291 611.372L227.759 608.715C227.759 608.715 223.474 602.907 229.944 598.611C230.255 598.403 231.278 598.495 231.787 598.611Z" fill="#E5918F"/>
<path d="M228.258 604.564C228.041 606.8 229.997 608.814 229.639 609.371C229.281 609.928 222.744 620.896 222.744 620.896C222.744 620.896 227.679 623.045 226.883 626.149H214.385C214.385 626.149 211.121 623.204 211.201 618.985C211.201 618.985 212.05 614.129 214.279 609.83C216.508 605.531 221.575 595.826 221.575 595.826C221.575 595.826 223.112 595.205 225.741 595.906C228.819 596.727 231.787 598.61 231.787 598.61C231.787 598.61 228.796 599.04 228.258 604.564Z" fill="#467CDB"/>
<path d="M328.374 616.175C325.288 604.661 296.255 555.507 286.433 542.235C266.259 533.477 244.759 526.044 244.759 526.044C235.867 528.168 231.487 546.085 236.53 558.029C239.99 566.225 261.94 586.849 275.381 598.992L238.081 598.946C238.081 598.946 233.687 605.515 237.668 611.753C237.668 611.753 299.705 625.859 305.146 626.655C310.588 627.451 322.798 626.655 322.798 626.655C322.798 626.655 330.971 625.868 328.374 616.175Z" fill="#002C54"/>
<path d="M182.98 604.564C182.763 606.8 184.719 608.814 184.361 609.371C184.003 609.928 177.466 620.896 177.466 620.896C177.466 620.896 182.401 623.045 181.605 626.149H169.107C169.107 626.149 165.843 623.204 165.923 618.985C165.923 618.985 166.772 614.129 169.001 609.83C171.231 605.531 176.297 595.826 176.297 595.826C176.297 595.826 177.834 595.205 180.463 595.906C183.54 596.727 186.509 598.61 186.509 598.61C186.509 598.61 183.518 599.04 182.98 604.564Z" fill="#467CDB"/>
<path d="M375.078 464.736L355.071 499.928L340.744 485.646L328.884 503.299L332.328 504.952L331.089 505.983C331.089 505.983 358.74 519.45 362.053 516.478C365.367 513.508 380.805 468.736 380.805 468.736L375.078 464.736Z" fill="#E49191"/>
<path d="M343.297 487.88C343.297 487.88 339.52 503.813 331.965 511.367L312.636 504.01C312.636 504.01 303.667 519.094 294.895 530.659C291.523 535.125 290.404 541.412 286.442 542.237C286.196 542.151 285.962 542.077 285.716 542.015C274.975 538.792 259.128 542.212 246.05 537.352C231.605 531.975 234.41 528.949 234.41 528.949C234.41 528.949 243.171 513.163 248.141 496.443C250.356 489.048 251.894 482.195 252.915 476.843C254.748 467.37 262.339 459.963 271.912 458.671C272.022 458.659 272.121 458.634 272.232 458.622C283.182 457.231 311.849 460.615 317.422 463.002C322.996 465.389 343.297 487.88 343.297 487.88Z" fill="#467CDB"/>
<path d="M312.636 504.01C312.636 504.01 303.667 519.094 294.894 530.659C291.523 535.125 290.404 541.412 286.442 542.237C288.177 541.622 291.056 532.492 292.077 530.438C293.11 528.395 294.747 526.341 298.29 519.168C301.821 511.982 306.615 501.452 306.615 501.452L312.636 504.01Z" fill="#5996EF"/>
<path d="M275.381 598.992C275.381 598.992 275.685 598.924 276.222 598.856C276.758 598.8 277.527 598.688 278.451 598.653C280.3 598.552 282.775 598.625 285.223 598.965C286.445 599.142 287.663 599.358 288.787 599.642C289.914 599.908 290.953 600.222 291.824 600.541C292.701 600.84 293.405 601.174 293.897 601.394C294.389 601.619 294.662 601.764 294.662 601.764C294.662 601.764 294.351 601.728 293.821 601.637C293.297 601.525 292.534 601.423 291.633 601.27C289.831 600.968 287.442 600.584 285.043 600.263C283.847 600.077 282.643 599.947 281.516 599.789C280.384 599.648 279.328 599.515 278.423 599.402C276.598 599.156 275.381 598.992 275.381 598.992Z" fill="black"/>
<path d="M390.03 451.783C389.708 451.751 387.657 453.397 386.666 454.21L387.807 452.025C387.807 452.025 389.315 450.568 389.858 449.768C390.401 448.969 390.115 448.169 389.687 448.126C389.385 448.095 387.581 449.527 386.536 450.38L386.766 449.941C386.766 449.941 388.274 448.484 388.817 447.684C389.36 446.885 389.074 446.085 388.646 446.042C388.218 445.999 384.747 448.912 384.747 448.912L383.057 451.175L384.331 448.699C384.331 448.699 385.003 447.879 385.45 446.984C385.897 446.09 385.574 445.817 385.325 445.518C385.077 445.219 382.74 446.96 382.144 447.655C381.547 448.351 379.658 451.171 379.509 451.57L377.557 455.609C377.433 454.439 377.236 452.436 377.098 451.16C376.899 449.321 375.234 448.886 375.176 449.781C375.118 450.675 374.191 455.075 374.401 457.461C374.611 459.846 375.011 461.413 375.16 462.755C375.309 464.097 373.917 466.779 373.917 466.779C373.917 466.779 379.485 470.237 380.405 469.202C381.325 468.167 383.284 465.869 384.232 464.321C385.532 462.195 386.411 459.4 386.411 459.4L388.15 455.683C388.15 455.683 389.659 454.226 390.201 453.426C390.744 452.625 390.458 451.824 390.03 451.783Z" fill="#E49191"/>
<path d="M709.612 339.725H644.325C640.14 339.725 636.748 343.117 636.748 347.302V362.725C636.748 366.585 639.636 369.772 643.369 370.242C643.916 370.31 644.325 370.776 644.325 371.327V379.769C644.325 380.258 644.951 380.458 645.235 380.061L651.885 370.762C652.092 370.473 652.425 370.301 652.781 370.301H709.612C713.796 370.301 717.189 366.909 717.189 362.724V347.3C717.189 343.117 713.796 339.725 709.612 339.725Z" stroke="white" stroke-width="0.8956" stroke-miterlimit="10"/>
<path d="M654.341 354.99C654.341 356.368 653.224 357.484 651.847 357.484C650.469 357.484 649.353 356.367 649.353 354.99C649.353 353.612 650.47 352.496 651.847 352.496C653.224 352.496 654.341 353.612 654.341 354.99Z" stroke="white" stroke-width="0.8956" stroke-miterlimit="10"/>
<path d="M666.902 354.99C666.902 356.368 665.785 357.484 664.408 357.484C663.03 357.484 661.914 356.367 661.914 354.99C661.914 353.612 663.031 352.496 664.408 352.496C665.785 352.496 666.902 353.612 666.902 354.99Z" stroke="white" stroke-width="0.8956" stroke-miterlimit="10"/>
<path d="M679.464 354.99C679.464 356.368 678.347 357.484 676.97 357.484C675.592 357.484 674.475 356.367 674.475 354.99C674.475 353.612 675.592 352.496 676.97 352.496C678.347 352.496 679.464 353.612 679.464 354.99Z" stroke="white" stroke-width="0.8956" stroke-miterlimit="10"/>
<path d="M692.024 354.99C692.024 356.368 690.907 357.484 689.53 357.484C688.152 357.484 687.035 356.367 687.035 354.99C687.035 353.612 688.152 352.496 689.53 352.496C690.907 352.496 692.024 353.612 692.024 354.99Z" stroke="white" stroke-width="0.8956" stroke-miterlimit="10"/>
<path d="M704.585 354.99C704.585 356.368 703.468 357.484 702.09 357.484C700.712 357.484 699.596 356.367 699.596 354.99C699.596 353.612 700.713 352.496 702.09 352.496C703.466 352.496 704.585 353.612 704.585 354.99Z" stroke="white" stroke-width="0.8956" stroke-miterlimit="10"/>
<path d="M193.723 407.342H259.011C263.195 407.342 266.587 410.734 266.587 414.918V430.342C266.587 434.203 263.7 437.388 259.967 437.858C259.419 437.927 259.011 438.392 259.011 438.943V447.386C259.011 447.875 258.385 448.075 258.1 447.678L251.45 438.379C251.244 438.09 250.91 437.919 250.555 437.919H193.723C189.539 437.919 186.147 434.526 186.147 430.342V414.918C186.147 410.734 189.539 407.342 193.723 407.342Z" stroke="white" stroke-width="0.8956" stroke-miterlimit="10"/>
<path d="M248.995 422.607C248.995 423.985 250.112 425.101 251.489 425.101C252.867 425.101 253.984 423.983 253.984 422.607C253.984 421.229 252.867 420.113 251.489 420.113C250.112 420.112 248.995 421.229 248.995 422.607Z" stroke="white" stroke-width="0.8956" stroke-miterlimit="10"/>
<path d="M236.434 422.607C236.434 423.985 237.551 425.101 238.928 425.101C240.306 425.101 241.422 423.983 241.422 422.607C241.422 421.229 240.305 420.113 238.928 420.113C237.551 420.112 236.434 421.229 236.434 422.607Z" stroke="white" stroke-width="0.8956" stroke-miterlimit="10"/>
<path d="M223.872 422.607C223.872 423.985 224.989 425.101 226.366 425.101C227.744 425.101 228.86 423.983 228.86 422.607C228.86 421.229 227.743 420.113 226.366 420.113C224.989 420.112 223.872 421.229 223.872 422.607Z" stroke="white" stroke-width="0.8956" stroke-miterlimit="10"/>
<path d="M211.312 422.607C211.312 423.985 212.429 425.101 213.805 425.101C215.183 425.101 216.299 423.983 216.299 422.607C216.299 421.229 215.182 420.113 213.805 420.113C212.429 420.112 211.312 421.229 211.312 422.607Z" stroke="white" stroke-width="0.8956" stroke-miterlimit="10"/>
<path d="M198.751 422.607C198.751 423.985 199.868 425.101 201.246 425.101C202.624 425.101 203.74 423.983 203.74 422.607C203.74 421.229 202.623 420.113 201.246 420.113C199.867 420.112 198.751 421.229 198.751 422.607Z" stroke="white" stroke-width="0.8956" stroke-miterlimit="10"/>
<path d="M588.011 304.143H469.017C462.454 304.143 457.134 298.823 457.134 292.261C457.134 285.698 462.454 280.378 469.017 280.378H588.011C594.574 280.378 599.894 285.698 599.894 292.261C599.894 298.823 594.574 304.143 588.011 304.143Z" fill="white" stroke="#FEB3B1" stroke-width="0.8956" stroke-miterlimit="10"/>
<path d="M586.268 291.442C586.268 294.933 583.439 297.761 579.949 297.761C576.458 297.761 573.63 294.933 573.63 291.442C573.63 287.952 576.458 285.123 579.949 285.123C583.439 285.123 586.268 287.952 586.268 291.442Z" stroke="#FF928E" stroke-width="1.6716" stroke-miterlimit="10"/>
<path d="M584.417 295.91L587.906 299.399" stroke="#FF928E" stroke-width="1.6716" stroke-miterlimit="10" stroke-linecap="round"/>
<path d="M407.756 627.326H377.82C372.582 627.326 368.336 623.08 368.336 617.843V587.907C368.336 582.669 372.582 578.423 377.82 578.423H407.756C412.993 578.423 417.239 582.669 417.239 587.907V617.843C417.239 623.08 412.993 627.326 407.756 627.326Z" fill="#193091"/>
<path d="M398.843 627.326H368.907C363.67 627.326 359.424 623.08 359.424 617.843V587.907C359.424 582.669 363.67 578.423 368.907 578.423H398.843C404.081 578.423 408.327 582.669 408.327 587.907V617.843C408.327 623.08 404.081 627.326 398.843 627.326Z" fill="#495AD6"/>
<path d="M378.1 593.644L392.137 601.748C393.003 602.249 393.003 603.499 392.137 604L378.1 612.104C377.233 612.605 376.149 611.979 376.149 610.978V594.77C376.151 593.769 377.233 593.144 378.1 593.644Z" fill="white"/>
<path d="M717.416 627.326H678.282C671.435 627.326 665.885 621.776 665.885 614.929V575.796C665.885 568.949 671.435 563.398 678.282 563.398H717.416C724.263 563.398 729.813 568.949 729.813 575.796V614.929C729.813 621.775 724.263 627.326 717.416 627.326Z" fill="#193091"/>
<path d="M705.766 627.326H666.632C659.785 627.326 654.235 621.776 654.235 614.929V575.796C654.235 568.949 659.785 563.398 666.632 563.398H705.766C712.613 563.398 718.163 568.949 718.163 575.796V614.929C718.163 621.775 712.613 627.326 705.766 627.326Z" fill="#495AD6"/>
<path d="M693.879 579.083C693.879 583.325 690.44 586.764 686.198 586.764C681.956 586.764 678.517 583.325 678.517 579.083C678.517 574.841 681.956 571.402 686.198 571.402C690.44 571.402 693.879 574.841 693.879 579.083Z" fill="white"/>
<path d="M702.21 605.088V616.426C702.21 617.451 701.379 618.281 700.355 618.281H672.041C671.016 618.281 670.185 617.451 670.185 616.426V605.088C670.185 596.245 677.353 589.076 686.197 589.076C695.042 589.077 702.21 596.245 702.21 605.088Z" fill="white"/>
<path d="M543.235 317.834H518.1C517.057 317.834 516.211 316.989 516.211 315.945C516.211 314.902 517.057 314.057 518.1 314.057H543.235C544.278 314.057 545.123 314.902 545.123 315.945C545.123 316.987 544.278 317.834 543.235 317.834Z" fill="#F0F4FF"/>
<path d="M568.379 317.834H550.19C549.147 317.834 548.301 316.989 548.301 315.945C548.301 314.902 549.147 314.057 550.19 314.057H568.379C569.423 314.057 570.268 314.902 570.268 315.945C570.269 316.987 569.423 317.834 568.379 317.834Z" fill="#F0F4FF"/>
<path d="M528.779 326.139H518.101C517.058 326.139 516.212 325.293 516.212 324.25C516.212 323.207 517.058 322.361 518.101 322.361H528.779C529.823 322.361 530.668 323.207 530.668 324.25C530.668 325.292 529.821 326.139 528.779 326.139Z" fill="#F0F4FF"/>
<path d="M568.379 326.139H535.118C534.075 326.139 533.229 325.293 533.229 324.25C533.229 323.207 534.075 322.361 535.118 322.361H568.379C569.423 322.361 570.268 323.207 570.268 324.25C570.269 325.292 569.423 326.139 568.379 326.139Z" fill="#F0F4FF"/>
<path d="M551.232 334.443H518.1C517.057 334.443 516.211 333.598 516.211 332.555C516.211 331.511 517.057 330.666 518.1 330.666H551.232C552.276 330.666 553.121 331.511 553.121 332.555C553.121 333.597 552.276 334.443 551.232 334.443Z" fill="#F0F4FF"/>
<path d="M568.38 334.443H557.7C556.657 334.443 555.812 333.598 555.812 332.555C555.812 331.511 556.657 330.666 557.7 330.666H568.38C569.423 330.666 570.268 331.511 570.268 332.555C570.269 333.597 569.423 334.443 568.38 334.443Z" fill="#F0F4FF"/>
<path d="M224.96 510.743H137.217C134.62 510.743 132.514 508.637 132.514 506.039V461.747C132.514 459.148 134.62 457.043 137.217 457.043H224.96C227.557 457.043 229.664 459.149 229.664 461.747V506.039C229.665 508.638 227.558 510.743 224.96 510.743Z" fill="#193091"/>
<path d="M136.643 464.297H225.536" stroke="white" stroke-width="0.8956" stroke-miterlimit="10" stroke-linecap="round"/>
<path d="M223.19 461.683C223.784 461.683 224.266 461.201 224.266 460.606C224.266 460.012 223.784 459.53 223.19 459.53C222.595 459.53 222.113 460.012 222.113 460.606C222.113 461.201 222.595 461.683 223.19 461.683Z" fill="white"/>
<path d="M217.576 461.683C218.17 461.683 218.652 461.201 218.652 460.606C218.652 460.012 218.17 459.53 217.576 459.53C216.981 459.53 216.499 460.012 216.499 460.606C216.499 461.201 216.981 461.683 217.576 461.683Z" fill="white"/>
<path d="M211.963 461.683C212.557 461.683 213.039 461.201 213.039 460.606C213.039 460.012 212.557 459.53 211.963 459.53C211.368 459.53 210.886 460.012 210.886 460.606C210.886 461.201 211.368 461.683 211.963 461.683Z" fill="white"/>
<path d="M153.213 471.526H138.129C137.308 471.526 136.643 470.86 136.643 470.039C136.643 469.219 137.308 468.553 138.129 468.553H153.213C154.034 468.553 154.699 469.219 154.699 470.039C154.699 470.86 154.034 471.526 153.213 471.526Z" fill="#6589D1"/>
<path d="M153.213 478.394H138.129C137.308 478.394 136.643 477.729 136.643 476.908C136.643 476.088 137.308 475.422 138.129 475.422H153.213C154.034 475.422 154.699 476.088 154.699 476.908C154.699 477.73 154.034 478.394 153.213 478.394Z" fill="#6589D1"/>
<path d="M153.213 485.265H138.129C137.308 485.265 136.643 484.599 136.643 483.779C136.643 482.958 137.308 482.292 138.129 482.292H153.213C154.034 482.292 154.699 482.958 154.699 483.779C154.699 484.599 154.034 485.265 153.213 485.265Z" fill="#6589D1"/>
<path d="M153.213 492.134H138.129C137.308 492.134 136.643 491.469 136.643 490.648C136.643 489.827 137.308 489.162 138.129 489.162H153.213C154.034 489.162 154.699 489.827 154.699 490.648C154.699 491.469 154.034 492.134 153.213 492.134Z" fill="#6589D1"/>
<path d="M153.213 499.003H138.129C137.308 499.003 136.643 498.337 136.643 497.517C136.643 496.696 137.308 496.03 138.129 496.03H153.213C154.034 496.03 154.699 496.696 154.699 497.517C154.699 498.338 154.034 499.003 153.213 499.003Z" fill="#6589D1"/>
<path d="M153.213 505.873H138.129C137.308 505.873 136.643 505.208 136.643 504.387C136.643 503.567 137.308 502.901 138.129 502.901H153.213C154.034 502.901 154.699 503.567 154.699 504.387C154.699 505.208 154.034 505.873 153.213 505.873Z" fill="#6589D1"/>
<path d="M224.048 471.526H159.045C158.224 471.526 157.559 470.86 157.559 470.039C157.559 469.219 158.224 468.553 159.045 468.553H224.048C224.869 468.553 225.534 469.219 225.534 470.039C225.536 470.86 224.87 471.526 224.048 471.526Z" fill="#3B5FB7"/>
<path d="M224.048 478.394H159.045C158.224 478.394 157.559 477.729 157.559 476.908C157.559 476.088 158.224 475.422 159.045 475.422H224.048C224.869 475.422 225.534 476.088 225.534 476.908C225.536 477.73 224.87 478.394 224.048 478.394Z" fill="#3B5FB7"/>
<path d="M224.048 485.265H159.045C158.224 485.265 157.559 484.599 157.559 483.779C157.559 482.958 158.224 482.292 159.045 482.292H224.048C224.869 482.292 225.534 482.958 225.534 483.779C225.536 484.599 224.87 485.265 224.048 485.265Z" fill="#3B5FB7"/>
<path d="M224.048 492.134H159.045C158.224 492.134 157.559 491.469 157.559 490.648C157.559 489.827 158.224 489.162 159.045 489.162H224.048C224.869 489.162 225.534 489.827 225.534 490.648C225.536 491.469 224.87 492.134 224.048 492.134Z" fill="#3B5FB7"/>
<path d="M224.048 499.003H159.045C158.224 499.003 157.559 498.337 157.559 497.517C157.559 496.696 158.224 496.03 159.045 496.03H224.048C224.869 496.03 225.534 496.696 225.534 497.517C225.536 498.338 224.87 499.003 224.048 499.003Z" fill="#3B5FB7"/>
<path d="M224.048 505.873H159.045C158.224 505.873 157.559 505.208 157.559 504.387C157.559 503.567 158.224 502.901 159.045 502.901H224.048C224.869 502.901 225.534 503.567 225.534 504.387C225.536 505.208 224.87 505.873 224.048 505.873Z" fill="#3B5FB7"/>
<path d="M680.442 230.203C685.589 208.723 672.348 187.138 650.868 181.992C629.388 176.846 607.803 190.087 602.657 211.567C597.51 233.047 610.751 254.631 632.231 259.778C653.711 264.924 675.296 251.683 680.442 230.203Z" stroke="#DEE3FC" stroke-width="0.7896" stroke-miterlimit="10"/>
<path d="M655.618 252.72C673.179 244.951 681.116 224.417 673.347 206.856C665.577 189.295 645.043 181.357 627.482 189.126C609.921 196.896 601.983 217.43 609.753 234.991C617.522 252.552 638.057 260.49 655.618 252.72Z" fill="#3945BA"/>
<path d="M644.706 220.899C644.706 222.647 643.289 224.063 641.541 224.063C639.793 224.063 638.377 222.646 638.377 220.899C638.377 219.151 639.794 217.734 641.541 217.734C643.289 217.733 644.706 219.151 644.706 220.899Z" fill="white"/>
<path d="M641.196 220.276C640.717 220.54 640.115 220.368 639.85 219.889L629.624 201.445C629.36 200.967 629.532 200.365 630.01 200.099C630.489 199.835 631.091 200.007 631.356 200.484L641.582 218.929C641.846 219.408 641.674 220.011 641.196 220.276Z" fill="white"/>
<path d="M642.043 221.401C642.429 221.015 643.057 221.015 643.443 221.401L652.29 230.247C652.676 230.634 652.676 231.261 652.29 231.647C651.903 232.034 651.276 232.034 650.889 231.647L642.043 222.801C641.657 222.415 641.657 221.787 642.043 221.401Z" fill="white"/>
<path d="M641.753 193.068V189.07" stroke="white" stroke-width="2" stroke-miterlimit="10" stroke-linecap="round"/>
<path d="M669.371 221.112H673.37" stroke="white" stroke-width="2" stroke-miterlimit="10" stroke-linecap="round"/>
<path d="M641.328 248.728V252.727" stroke="white" stroke-width="2" stroke-miterlimit="10" stroke-linecap="round"/>
<path d="M613.71 220.686H609.711" stroke="white" stroke-width="2" stroke-miterlimit="10" stroke-linecap="round"/>
<g opacity="0.5">
<path d="M627.809 196.691L625.81 193.227" stroke="#DEE3FC" stroke-miterlimit="10" stroke-linecap="round"/>
<path d="M665.749 207.168L669.211 205.169" stroke="#DEE3FC" stroke-miterlimit="10" stroke-linecap="round"/>
<path d="M655.271 245.106L657.27 248.569" stroke="#DEE3FC" stroke-miterlimit="10" stroke-linecap="round"/>
<path d="M617.333 234.629L613.87 236.629" stroke="#DEE3FC" stroke-miterlimit="10" stroke-linecap="round"/>
</g>
<g opacity="0.5">
<path d="M617.544 206.799L614.082 204.799" stroke="#DEE3FC" stroke-miterlimit="10" stroke-linecap="round"/>
<path d="M655.64 196.903L657.639 193.439" stroke="#DEE3FC" stroke-miterlimit="10" stroke-linecap="round"/>
<path d="M665.535 234.997L668.997 236.996" stroke="#DEE3FC" stroke-miterlimit="10" stroke-linecap="round"/>
<path d="M627.441 244.893L625.442 248.357" stroke="#DEE3FC" stroke-miterlimit="10" stroke-linecap="round"/>
</g>
<path d="M166.369 422.164H122.452C115.95 422.164 110.679 416.893 110.679 410.39V366.473C110.679 359.971 115.95 354.7 122.452 354.7H166.369C172.872 354.7 178.143 359.971 178.143 366.473V410.39C178.143 416.892 172.872 422.164 166.369 422.164Z" fill="#193091"/>
<path d="M163.482 416.319H114.883C109.674 416.319 105.45 412.097 105.45 406.886V358.287C105.45 353.078 109.672 348.854 114.883 348.854H163.482C168.691 348.854 172.915 353.077 172.915 358.287V406.886C172.914 412.095 168.691 416.319 163.482 416.319Z" fill="#7E89FD" stroke="#DEE3FC" stroke-miterlimit="10"/>
<path d="M150.863 374.862H150.511V370.998C150.511 364.654 145.352 359.494 139.009 359.494C132.665 359.494 127.506 364.654 127.506 370.998V374.862H127.429C125.646 374.862 124.2 376.308 124.2 378.091V392.655C124.2 394.437 125.646 395.883 127.429 395.883H150.863C152.646 395.883 154.092 394.437 154.092 392.655V378.091C154.092 376.307 152.646 374.862 150.863 374.862ZM130.42 370.998C130.42 366.262 134.274 362.409 139.009 362.409C143.743 362.409 147.598 366.262 147.598 370.998V374.862H130.418L130.42 370.998Z" fill="#DEE3FC"/>
<path d="M142.935 382.348C142.935 380.023 140.821 378.192 138.41 378.672C136.989 378.955 135.81 380.121 135.514 381.538C135.157 383.249 135.965 384.809 137.289 385.584C137.557 385.741 137.711 386.037 137.63 386.337L136.977 388.747C136.589 390.18 137.668 391.59 139.152 391.59C140.637 391.59 141.716 390.18 141.328 388.747L140.682 386.363C140.6 386.059 140.757 385.758 141.032 385.603C142.167 384.959 142.935 383.746 142.935 382.348Z" fill="#7E89FD"/>
<path d="M152.708 400.989H125.586C124.822 400.989 124.202 400.369 124.202 399.605C124.202 398.841 124.822 398.221 125.586 398.221H152.708C153.472 398.221 154.092 398.841 154.092 399.605C154.092 400.37 153.472 400.989 152.708 400.989Z" fill="#DEE3FC"/>
<path d="M152.708 405.68H125.586C124.822 405.68 124.202 405.06 124.202 404.296C124.202 403.532 124.822 402.912 125.586 402.912H152.708C153.472 402.912 154.092 403.532 154.092 404.296C154.092 405.06 153.472 405.68 152.708 405.68Z" fill="#DEE3FC"/>
<path d="M697.777 501.464H671.922C668.094 501.464 664.99 498.361 664.99 494.532V468.678C664.99 464.85 668.093 461.747 671.922 461.747H697.777C701.604 461.747 704.707 464.85 704.707 468.678V494.532C704.707 498.361 701.604 501.464 697.777 501.464Z" fill="#F36F56"/>
<path d="M696.076 498.024H667.466C664.398 498.024 661.913 495.538 661.913 492.472V463.861C661.913 460.794 664.4 458.309 667.466 458.309H696.076C699.144 458.309 701.629 460.795 701.629 463.861V492.472C701.629 495.538 699.144 498.024 696.076 498.024Z" fill="#FF928E" stroke="#F9B2B2" stroke-miterlimit="10"/>
<path d="M673.747 490.026C673.635 490.026 673.523 490.011 673.411 489.979C672.756 489.796 672.376 489.115 672.562 488.462L678.568 467.2C678.753 466.544 679.436 466.162 680.085 466.351C680.74 466.535 681.12 467.215 680.934 467.868L674.928 489.13C674.776 489.673 674.282 490.026 673.747 490.026Z" fill="white"/>
<path d="M683.79 490.026C683.678 490.026 683.566 490.011 683.456 489.979C682.801 489.796 682.421 489.115 682.607 488.462L688.614 467.2C688.798 466.544 689.482 466.162 690.132 466.351C690.786 466.535 691.166 467.215 690.981 467.868L684.973 489.13C684.82 489.673 684.327 490.026 683.79 490.026Z" fill="white"/>
<path d="M692.401 474.577H671.14C670.459 474.577 669.909 474.027 669.909 473.347C669.909 472.667 670.459 472.117 671.14 472.117H692.401C693.082 472.117 693.632 472.667 693.632 473.347C693.632 474.027 693.082 474.577 692.401 474.577Z" fill="white"/>
<path d="M692.401 484.29H671.14C670.459 484.29 669.909 483.74 669.909 483.059C669.909 482.379 670.459 481.829 671.14 481.829H692.401C693.082 481.829 693.632 482.379 693.632 483.059C693.632 483.74 693.082 484.29 692.401 484.29Z" fill="white"/>
<path d="M218.308 375.303H202.931C202 375.303 201.246 374.548 201.246 373.618C201.246 372.686 202.001 371.932 202.931 371.932H218.308C219.24 371.932 219.994 372.688 219.994 373.618C219.994 374.548 219.24 375.303 218.308 375.303Z" fill="#F0F4FF"/>
<path d="M233.798 382.788H202.931C202 382.788 201.246 382.032 201.246 381.102C201.246 380.171 202.001 379.417 202.931 379.417H233.798C234.73 379.417 235.484 380.172 235.484 381.102C235.484 382.033 234.73 382.788 233.798 382.788Z" fill="#F0F4FF"/>
<path d="M206.577 390.273H202.931C202 390.273 201.246 389.519 201.246 388.587C201.246 387.656 202.001 386.902 202.931 386.902H206.577C207.508 386.902 208.262 387.656 208.262 388.587C208.262 389.518 207.508 390.273 206.577 390.273Z" fill="#F0F4FF"/>
<path d="M233.799 390.273H212.306C211.374 390.273 210.62 389.519 210.62 388.587C210.62 387.656 211.376 386.902 212.306 386.902H233.799C234.73 386.902 235.484 387.656 235.484 388.587C235.484 389.518 234.73 390.273 233.799 390.273Z" fill="#F0F4FF"/>
<path d="M233.799 375.303H224.478C223.546 375.303 222.792 374.548 222.792 373.618C222.792 372.686 223.547 371.932 224.478 371.932H233.799C234.73 371.932 235.484 372.688 235.484 373.618C235.484 374.548 234.73 375.303 233.799 375.303Z" fill="#F0F4FF"/>
<path d="M147.083 605.287C145.08 605.287 143.205 605.837 141.601 606.793C140.957 601.052 136.089 596.588 130.176 596.588C123.825 596.588 118.676 601.737 118.676 608.088C118.676 608.514 118.7 608.934 118.746 609.348C118.218 609.25 117.676 609.196 117.119 609.196C112.269 609.196 108.338 613.127 108.338 617.977C108.338 622.827 112.269 626.758 117.119 626.758H147.085C153.014 626.758 157.819 621.952 157.819 616.023C157.819 610.093 153.012 605.287 147.083 605.287Z" fill="white"/>
<path d="M70.8751 559.178C70.5847 557.573 70.6241 555.93 71.0289 554.349C72.3835 549.055 73.9337 539.099 70.4887 528.342C64.7418 510.397 41.4487 494.503 41.4487 494.503C41.4487 494.503 47.7715 520.984 52.9698 532.261C56.7752 540.516 63.4327 549.911 67.1274 554.857C68.1523 556.23 68.8548 557.811 69.16 559.497C72.9261 580.335 72.381 596.467 72.3712 596.716L74.1195 596.784C74.1281 596.533 74.6818 580.237 70.8751 559.178Z" fill="#F9B2B2"/>
<path d="M89.448 542.307C94.0754 527.678 96.2273 510.445 96.2273 510.445C96.2273 510.445 75.342 527.678 73.6306 541.012C72.5824 549.179 73.8853 555.73 75.0541 559.584C75.55 561.221 75.7308 562.932 75.5475 564.633C73.4338 584.255 75.0898 599.293 75.1156 599.523L76.688 599.342C76.6622 599.122 75.1255 585.129 76.9353 566.588C77.1826 564.048 78.2063 561.648 79.8131 559.667C82.8017 555.978 87.0747 549.809 89.448 542.307Z" fill="#FF928E"/>
<path d="M110.678 509.765C110.678 509.765 88.1726 518.116 82.2878 536.492C78.7062 547.676 80.398 558.013 81.7981 563.367C82.1906 564.87 82.1697 566.438 81.7932 567.946C76.5211 589.092 76.4399 610.981 76.4399 611.271H78.2313C78.2313 610.986 78.3125 589.618 83.4037 568.881C83.9094 566.821 84.8076 564.884 86.0724 563.18C89.9111 558.011 96.443 548.709 100.225 540.504C105.55 528.958 110.678 509.765 110.678 509.765Z" fill="#F9B2B2"/>
<path d="M70.9688 587.297C70.409 579.604 68.3125 572.68 65.7718 566.87C65.2637 565.706 65.0841 564.434 65.2465 563.174C65.5614 560.748 65.6906 556.979 64.7211 552.191C62.8953 543.175 50.9289 523.698 33.603 522.557C33.603 522.557 39.5813 532.167 42.6572 540.209C46.5488 550.382 52.1038 561.024 61.3167 565.108C62.9371 565.827 64.2056 567.172 64.8811 568.809C67.1018 574.192 68.8846 580.48 69.3891 587.411L70.9688 587.297Z" fill="#FF928E"/>
<path d="M59.2549 626.753H87.8458L95.2636 581.421C95.5921 579.414 94.0431 577.592 92.0105 577.592H55.0901C53.0576 577.592 51.5086 579.414 51.8371 581.421L59.2549 626.753Z" fill="#F9B2B2"/>
<path d="M0.557129 626.753H800.557" stroke="#DAE3FE" stroke-width="1.1144" stroke-miterlimit="10" stroke-linecap="round"/>
<defs>
<filter id="filter0_n_412_1180" x="0.557129" y="0" width="800" height="800" filterUnits="userSpaceOnUse" color-interpolation-filters="sRGB">
<feFlood flood-opacity="0" result="BackgroundImageFix"/>
<feBlend mode="normal" in="SourceGraphic" in2="BackgroundImageFix" result="shape"/>
<feTurbulence type="fractalNoise" baseFrequency="2 2" stitchTiles="stitch" numOctaves="3" result="noise" seed="6615" />
<feColorMatrix in="noise" type="luminanceToAlpha" result="alphaNoise" />
<feComponentTransfer in="alphaNoise" result="coloredNoise1">
<feFuncA type="discrete" tableValues="1 1 1 1 1 1 1 1 1 1 1 1 1 1 1 1 1 1 1 1 1 1 1 1 1 1 1 1 1 1 1 1 1 1 1 1 1 1 1 1 1 1 1 1 1 1 1 1 1 1 1 0 0 0 0 0 0 0 0 0 0 0 0 0 0 0 0 0 0 0 0 0 0 0 0 0 0 0 0 0 0 0 0 0 0 0 0 0 0 0 0 0 0 0 0 0 0 0 0 0 "/>
</feComponentTransfer>
<feComposite operator="in" in2="shape" in="coloredNoise1" result="noise1Clipped" />
<feFlood flood-color="rgba(0, 0, 0, 0.25)" result="color1Flood" />
<feComposite operator="in" in2="noise1Clipped" in="color1Flood" result="color1" />
<feMerge result="effect1_noise_412_1180">
<feMergeNode in="shape" />
<feMergeNode in="color1" />
</feMerge>
</filter>
<linearGradient id="paint0_linear_412_1180" x1="0.557129" y1="0" x2="800.557" y2="800" gradientUnits="userSpaceOnUse">
<stop stop-color="#FFE2E6" stop-opacity="0.2"/>
<stop offset="1" stop-color="#B8CAFF" stop-opacity="0.2"/>
</linearGradient>
</defs>
</svg>
