<svg width="162" height="34" viewBox="0 0 162 34" fill="none" xmlns="http://www.w3.org/2000/svg">
<rect x="145" y="7.16016" width="4" height="26" rx="2" fill="#1F4FD8"/>
<path d="M131 3.16016C131 2.05559 131.895 1.16016 133 1.16016H160C161.105 1.16016 162 2.05559 162 3.16016C162 4.26473 161.105 5.16016 160 5.16016H133C131.895 5.16016 131 4.26473 131 3.16016Z" fill="#1F4FD8"/>
<path d="M121 3.16016C121 2.05559 121.895 1.16016 123 1.16016C124.105 1.16016 125 2.05559 125 3.16016V31.1602C125 32.2647 124.105 33.1602 123 33.1602C121.895 33.1602 121 32.2647 121 31.1602V3.16016Z" fill="#1F4FD8"/>
<path d="M81.3353 30.3763V9.9503C81.3353 8.30928 81.9177 6.72154 82.9789 5.46979C84.2954 3.91685 86.2282 3.02148 88.2641 3.02148H105.631C107.778 3.02148 109.758 4.17688 110.814 6.04543C111.319 6.939 111.584 7.94797 111.584 8.97438V30.3763" stroke="#FAFAF7" stroke-width="4" stroke-linecap="round" stroke-linejoin="round"/>
<path d="M40.601 2H65.2975C66.6462 2 67.9562 2.45075 69.0193 3.28063C70.4875 4.4268 71.3458 6.18558 71.3458 8.04826V10.4949C71.3458 12.3166 70.5782 14.0539 69.2313 15.2805L68.3801 16.0558C67.7358 16.6425 66.8957 16.9677 66.0243 16.9677H45.6448C45.1969 16.9677 45.1007 17.5986 45.5282 17.7321C45.5493 17.7386 45.5697 17.747 45.5893 17.757L70.354 30.3871" stroke="#FAFAF7" stroke-width="4" stroke-linecap="round"/>
<path d="M2 2.50977H28.4201C29.8902 2.50977 31.2705 3.21651 32.1299 4.40917C32.6909 5.18764 32.9928 6.12286 32.9928 7.08239V12.9278C32.9928 13.8753 32.7128 14.8016 32.1881 15.5905C31.2968 16.9304 29.7943 17.7356 28.185 17.7356H6.33184C4.90548 17.7356 3.61456 18.5805 3.04371 19.8876C2.84592 20.3405 2.74383 20.8294 2.74383 21.3236V30.8969" stroke="#FAFAF7" stroke-width="4" stroke-linecap="round"/>
</svg>
