<svg width="162" height="34" viewBox="0 0 162 34" fill="none" xmlns="http://www.w3.org/2000/svg">
<rect x="145" y="7.161" width="4" height="26" rx="2" fill="#1F4FD8"/>
<path d="M131 3.161C131 2.05643 131.895 1.161 133 1.161H160C161.105 1.161 162 2.05643 162 3.161C162 4.26557 161.105 5.161 160 5.161H133C131.895 5.161 131 4.26557 131 3.161Z" fill="#1F4FD8"/>
<path d="M121 3.161C121 2.05643 121.895 1.161 123 1.161C124.105 1.161 125 2.05643 125 3.161V31.161C125 32.2656 124.105 33.161 123 33.161C121.895 33.161 121 32.2656 121 31.161V3.161Z" fill="#1F4FD8"/>
<path d="M81.3353 30.3768V9.95072C81.3353 8.30971 81.9177 6.72196 82.9789 5.47021C84.2954 3.91727 86.2282 3.02191 88.2641 3.02191H105.631C107.778 3.02191 109.758 4.1773 110.814 6.04585C111.319 6.93942 111.584 7.94839 111.584 8.9748V30.3768" stroke="#0F0F0F" stroke-width="4" stroke-linecap="round" stroke-linejoin="round"/>
<path d="M40.601 2H65.2975C66.6462 2 67.9562 2.45075 69.0193 3.28063C70.4875 4.4268 71.3458 6.18558 71.3458 8.04826V10.4949C71.3458 12.3166 70.5782 14.0539 69.2313 15.2805L68.3801 16.0558C67.7358 16.6425 66.8957 16.9677 66.0243 16.9677H45.6448C45.1969 16.9677 45.1007 17.5986 45.5282 17.7321C45.5493 17.7386 45.5697 17.747 45.5893 17.757L70.354 30.3871" stroke="#0F0F0F" stroke-width="4" stroke-linecap="round"/>
<path d="M2 2.51095H28.4201C29.8902 2.51095 31.2705 3.2177 32.1299 4.41035C32.6909 5.18883 32.9928 6.12404 32.9928 7.08358V12.929C32.9928 13.8765 32.7128 14.8028 32.1881 15.5917C31.2968 16.9316 29.7943 17.7368 28.185 17.7368H6.33184C4.90548 17.7368 3.61456 18.5816 3.04371 19.8888C2.84592 20.3417 2.74383 20.8306 2.74383 21.3248V30.8981" stroke="#0F0F0F" stroke-width="4" stroke-linecap="round"/>
</svg>
