<svg width="800" height="800" viewBox="0 0 800 800" fill="none" xmlns="http://www.w3.org/2000/svg">
<g filter="url(#filter0_n_412_1180)">
<rect width="800" height="800" rx="48" fill="url(#paint0_linear_412_1180)"/>
</g>
<path d="M259.845 151.01C247.088 129.676 187.293 152.382 141.111 179.997C94.9287 207.611 52.7633 256.76 65.5195 278.095C78.2756 299.428 141.124 279.269 187.306 251.654C233.491 224.039 272.603 172.343 259.845 151.01Z" fill="#F9B2B2"/>
<path opacity="0.58" d="M259.844 151.01C255.406 143.587 245.264 141.507 231.993 143.098C232.488 143.685 232.938 144.313 233.341 144.987C246.097 166.321 206.985 218.016 160.802 245.631C130.636 263.668 93.3666 278.518 67.583 280.707C83.9574 297.561 143.21 278.019 187.304 251.652C233.49 224.039 272.602 172.343 259.844 151.01Z" fill="#F9B2B2"/>
<path d="M745.611 690.43C779.104 648.054 827.294 573.192 780.697 540.447C713.837 493.463 818.644 413.954 778.889 341.675C739.135 269.393 656.011 386.851 496.994 240.482C337.976 94.1138 269.309 249.517 117.518 301.92C-34.2721 354.324 121.133 433.832 30.7805 495.272C-38.769 542.566 26.5863 645.521 60.3706 690.43H745.611Z" fill="#F9B2B2"/>
<path opacity="0.62" d="M745.611 690.43C779.104 648.054 827.294 573.191 780.697 540.446C713.837 493.463 818.644 413.954 778.889 341.675C739.135 269.393 656.011 386.851 496.994 240.482C473.579 218.93 452.124 203.927 432.072 194.167C442.975 206.831 453.217 224.344 461.456 248.507C497.596 354.519 516.87 401.501 626.497 401.501C736.122 401.501 512.052 543.653 590.357 577.384C635.696 596.915 608.338 649.562 577.267 690.43H745.611Z" fill="#F9B2B2"/>
<path d="M448.999 468.965C449.669 469.172 453.292 470.29 459.359 471.424L448.999 468.965Z" fill="#42A8FC"/>
<path d="M549.475 249.826C540.531 246.317 532.634 240.183 527.022 232.385C525.004 229.583 523.232 226.432 523.007 222.985C522.782 219.538 524.482 215.774 527.698 214.517C529.592 213.777 531.709 213.974 533.729 214.231C539.481 214.96 545.185 216.062 550.795 217.528C541.26 214.237 531.895 210.197 523.658 204.375C518.92 201.025 514.345 196.697 513.151 191.019C512.593 188.364 513.003 185.226 515.156 183.574C516.243 182.74 517.622 182.4 518.969 182.154C522.746 181.469 526.632 181.383 530.437 181.898C523.817 181.154 518.621 176.025 514.323 170.934C508.905 164.514 503.817 157.242 502.911 148.889C502.372 143.917 504.052 137.982 508.752 136.271C513.082 134.693 517.869 137.502 520.766 141.087C523.662 144.672 525.456 149.073 528.526 152.511C528.318 149.214 528.115 145.861 528.851 142.642C529.588 139.42 531.41 136.291 534.338 134.759C538.502 132.579 543.885 134.246 547.197 137.582C550.509 140.918 552.139 145.551 553.274 150.113C555.263 158.091 556.045 166.314 556.776 174.503C559.826 172.616 560.121 167.495 563.557 166.465C564.991 166.035 566.547 166.518 567.871 167.222C573.009 169.947 575.874 175.686 577.101 181.37C578.329 187.054 578.248 192.944 579.232 198.676C579.313 199.147 579.446 199.682 579.87 199.902C580.424 200.19 581.072 199.764 581.522 199.332C582.994 197.925 584.332 196.125 586.326 195.719C589.496 195.073 592.078 198.274 593.339 201.252C598.388 213.173 595.739 226.788 593.014 239.444C591.733 245.394 588.532 252.605 583.405 255.885C583.405 255.885 560.411 254.118 549.475 249.826Z" fill="#42A8FC"/>
<path d="M565.958 219.974C566.588 209.031 566.294 198.06 565.076 187.167C565.004 186.53 564.022 186.679 564.092 187.314C565.257 197.724 565.57 208.202 565.033 218.662C557.498 204.981 549.482 191.564 541 178.444C539.458 176.059 537.898 173.685 536.325 171.32C536.931 166.539 537.536 161.758 538.144 156.976C538.225 156.34 537.236 156.231 537.156 156.866C536.599 161.263 536.041 165.66 535.484 170.058C531.762 164.492 527.959 158.979 524.075 153.526C523.704 153.006 522.936 153.637 523.305 154.156C527.413 159.923 531.424 165.758 535.347 171.652C535.367 171.7 535.395 171.745 535.432 171.78C539.715 178.219 543.885 184.733 547.941 191.316C543.717 191.664 539.556 190.678 535.938 188.45C535.397 188.117 534.81 188.92 535.356 189.256C539.311 191.691 543.841 192.736 548.461 192.271C548.483 192.269 548.502 192.263 548.522 192.258C558.376 208.313 567.546 224.787 575.999 241.625C563.128 239.972 551.932 232.806 541.397 225.662C540.869 225.304 540.283 226.109 540.815 226.469C551.666 233.827 563.22 241.182 576.532 242.69C576.935 243.495 577.343 244.298 577.741 245.104C582.146 254.008 586.346 263.011 590.352 272.103C590.61 272.688 591.518 272.285 591.26 271.7C586.857 261.704 582.207 251.818 577.32 242.053C577.306 242.007 577.284 241.962 577.256 241.922C573.599 234.617 569.802 227.381 565.879 220.214C565.923 220.15 565.953 220.072 565.958 219.974Z" fill="#2186EA"/>
<path d="M586.267 177.17C594.685 150.432 612.851 126.524 636.243 110C644.583 135.71 645.109 164.072 637.742 190.698C631.927 211.713 621.061 233.302 605.722 249.616C586.601 269.952 581.329 225.398 581.024 214.694C580.666 202.104 582.427 189.365 586.267 177.17Z" fill="#F9B2B2"/>
<path d="M594.509 262.781C595.535 251.059 597.049 239.372 599.024 227.749C603.42 223.669 608.321 220.337 613.817 217.725C614.158 217.563 613.85 217.098 613.512 217.26C608.195 219.785 603.453 222.988 599.168 226.867C600.621 218.423 602.336 210.016 604.284 201.654C610.226 197.197 615.943 192.501 621.435 187.557C621.712 187.308 621.284 186.939 621.007 187.188C615.707 191.96 610.196 196.494 604.474 200.808C606.914 190.42 609.75 180.11 612.943 169.887C618.928 165.045 624.915 160.203 630.9 155.359C631.19 155.124 630.759 154.755 630.471 154.99C624.728 159.636 618.987 164.281 613.244 168.927C618.249 153.036 624.136 137.365 630.929 122.008C631.075 121.68 630.558 121.425 630.411 121.757C623.567 137.227 617.641 153.012 612.611 169.019C609.818 163.049 607.83 156.858 606.604 150.4C606.538 150.051 605.973 150.219 606.037 150.565C607.307 157.26 609.406 163.673 612.351 169.848C609.177 180.013 606.358 190.264 603.929 200.59C599.484 193.225 596.264 185.364 594.258 177.057C594.175 176.71 593.608 176.878 593.691 177.221C595.757 185.778 599.1 193.856 603.735 201.414C603.713 201.46 603.706 201.508 603.709 201.556C601.745 209.985 600.021 218.458 598.559 226.968C594.5 222.94 590.939 218.573 587.843 213.836C587.647 213.535 587.143 213.834 587.339 214.135C590.54 219.034 594.223 223.527 598.445 227.674C596.462 239.328 594.944 251.046 593.916 262.804C593.889 263.16 594.477 263.134 594.509 262.781Z" fill="#FAFAF7"/>
<path d="M665.654 253.991C691.042 249.023 718.436 253.207 742.148 264.883C724.984 282.983 702.222 295.918 677.389 301.687C657.788 306.241 635.493 306.954 615.504 301.713C590.585 295.18 624.38 271.255 632.922 266.289C642.97 260.449 654.074 256.258 665.654 253.991Z" fill="#F9B2B2"/>
<path d="M599.885 298.431C609.841 294.092 619.983 290.166 630.276 286.642C635.521 288.407 640.385 290.91 644.925 294.212C645.207 294.417 645.447 293.963 645.168 293.76C640.777 290.565 636.088 288.132 631.054 286.369C638.539 283.823 646.11 281.506 653.749 279.396C659.983 282.248 666.309 284.812 672.741 287.085C673.066 287.199 673.175 286.688 672.852 286.573C666.645 284.38 660.54 281.914 654.519 279.178C664.015 276.575 673.625 274.327 683.321 272.409C689.885 275.126 696.451 277.842 703.018 280.559C703.335 280.69 703.444 280.179 703.129 280.05C696.83 277.443 690.531 274.836 684.232 272.232C699.322 269.282 714.622 267.142 730.068 265.878C730.398 265.85 730.378 265.32 730.044 265.346C714.485 266.62 699.075 268.778 683.878 271.759C687.487 266.863 691.628 262.52 696.324 258.678C696.579 258.469 696.193 258.085 695.942 258.29C691.074 262.272 686.8 266.802 683.093 271.912C673.453 273.823 663.9 276.058 654.456 278.643C658.465 271.792 663.418 265.715 669.268 260.424C669.512 260.203 669.128 259.819 668.885 260.037C662.859 265.486 657.784 271.757 653.701 278.85C653.653 278.851 653.612 278.868 653.575 278.892C645.875 281.019 638.248 283.356 630.703 285.925C632.178 280.858 634.149 276.046 636.623 271.445C636.78 271.154 636.317 270.877 636.16 271.168C633.599 275.926 631.582 280.891 630.083 286.143C619.76 289.677 609.59 293.614 599.606 297.965C599.304 298.095 599.586 298.56 599.885 298.431Z" fill="#FAFAF7"/>
<path d="M599.571 241.1C600.891 228.22 605.997 215.752 614.09 205.645C616.998 202.014 620.448 198.573 624.838 197.033C629.228 195.493 634.731 196.339 637.526 200.059C639.172 202.25 639.68 205.071 640.079 207.784C641.212 215.514 641.845 223.319 641.971 231.129C642.794 217.563 644.65 203.945 649.23 191.148C651.864 183.786 655.825 176.28 662.765 172.676C666.008 170.991 670.232 170.389 673.154 172.586C674.629 173.695 675.571 175.362 676.376 177.024C678.631 181.68 680.149 186.691 680.856 191.816C679.427 182.953 684.205 174.353 689.259 166.933C695.633 157.578 703.234 148.344 713.747 144.148C720.007 141.648 728.316 141.685 732.238 147.164C735.853 152.215 733.939 159.444 730.332 164.5C726.726 169.557 721.663 173.478 718.312 178.707C722.517 177.245 726.795 175.769 731.242 175.56C735.689 175.351 740.411 176.584 743.459 179.83C747.795 184.447 747.577 192.038 744.446 197.544C741.315 203.049 735.888 206.841 730.38 209.966C720.743 215.432 710.354 219.422 699.986 223.332C703.538 226.608 710.291 225.139 712.872 229.224C713.95 230.932 713.883 233.125 713.45 235.098C711.77 242.752 705.357 248.547 698.423 252.196C691.489 255.846 683.813 257.871 676.728 261.22C676.145 261.495 675.501 261.86 675.368 262.492C675.192 263.315 675.982 264.002 676.706 264.43C679.063 265.831 681.884 266.917 683.134 269.359C685.118 273.239 681.899 277.749 678.487 280.465C664.84 291.33 646.208 292.818 628.794 293.859C620.607 294.349 610.09 292.8 603.976 287.332C603.976 287.332 597.958 256.846 599.571 241.1Z" fill="#42A8FC"/>
<path d="M644.284 251.698C658.717 248.557 672.852 244.206 686.551 238.685C687.352 238.362 686.802 237.14 686.005 237.461C672.913 242.739 659.425 246.935 645.654 250.021C660.686 235.29 675.205 220.033 689.165 204.277C691.703 201.412 694.221 198.53 696.721 195.632C703.145 194.69 709.571 193.747 715.997 192.804C716.852 192.678 716.636 191.356 715.783 191.482C709.874 192.349 703.965 193.215 698.056 194.083C703.935 187.24 709.713 180.31 715.388 173.295C715.929 172.624 714.832 171.855 714.292 172.525C708.29 179.944 702.167 187.262 695.935 194.485C695.879 194.53 695.833 194.581 695.8 194.64C688.99 202.528 682.043 210.298 674.965 217.945C672.986 212.587 672.761 206.83 674.347 201.327C674.583 200.503 673.33 200.033 673.09 200.863C671.358 206.876 671.641 213.136 673.917 218.966C673.928 218.993 673.943 219.015 673.956 219.041C656.68 237.64 638.613 255.499 619.813 272.563C617.302 255.259 622.556 238.135 628.017 221.873C628.29 221.057 627.035 220.59 626.76 221.41C621.135 238.157 615.765 255.814 618.622 273.641C617.722 274.456 616.828 275.275 615.925 276.086C605.96 285.024 595.794 293.732 585.442 302.22C584.775 302.766 585.626 303.8 586.293 303.254C597.675 293.922 608.825 284.312 619.736 274.435C619.791 274.398 619.841 274.356 619.883 274.304C628.043 266.914 636.062 259.368 643.945 251.685C644.042 251.716 644.155 251.725 644.284 251.698Z" fill="#2186EA"/>
<path d="M627.702 212.82H153.056V428.498H627.702V212.82Z" fill="white"/>
<path d="M342.595 249.638H189.942V396.756H342.595V249.638Z" fill="#2186EA"/>
<path opacity="0.44" d="M342.595 326.456L283.573 267.434H242.955C242.955 267.434 252.198 311.804 238.591 352.967C235.547 362.176 225.942 364.161 224.428 377.26L250.899 396.758H342.595V326.456Z" fill="#1F4FD8"/>
<path d="M287.714 290.457H238.809V299.094H287.714V290.457Z" fill="white"/>
<path d="M302.098 366.958H224.426V377.261H302.098V366.958Z" fill="white"/>
<path d="M281.559 285.669C281.903 276.921 282.667 270.168 283.571 267.434H275.03V277.735H267.736V267.434H258.781V277.735H251.495V267.434H242.953C243.858 270.168 244.622 276.923 244.965 285.669H281.559Z" fill="white"/>
<path d="M281.457 303.888H245.068C244.437 327.307 240.858 354.386 231.247 362.267H295.281C285.666 354.384 282.087 327.307 281.457 303.888Z" fill="white"/>
<path d="M469.161 533.932L498.207 590.335L486.08 596.235L435.794 532.625C434.705 531.246 434.323 529.411 434.795 527.705L450.825 468.613C456.579 470.193 474.806 474.441 500.548 472.68C500.311 477.746 497.806 487.603 484.59 500.873C474.315 511.203 470.068 523.928 468.652 529.248C468.235 530.827 468.417 532.497 469.161 533.932Z" fill="#0F4360"/>
<path d="M487.869 595.288C487.843 601.57 477.291 609.837 477.291 609.837C477.291 609.837 477.166 611.747 479.429 612.993C481.356 614.055 496.752 605.356 501.271 602.757C502.052 602.309 502.42 601.374 502.119 600.525C500.991 597.322 497.838 591.648 497.158 590.701L487.869 595.288Z" fill="#073549"/>
<path d="M501.965 472.59C492.415 492.324 415.225 518.737 415.225 518.737L383.183 557.404L370.204 556.878C370.204 556.878 393.803 501.436 396.943 495.154C399.685 489.671 439.098 472.352 448.991 468.069C450.643 468.595 471.066 474.914 501.965 472.59Z" fill="#1F4FD8"/>
<path d="M370.976 556.896C367.865 562.862 353.61 565.679 353.61 565.679C353.61 565.679 352.55 567.437 354.092 569.735C355.404 571.692 374.332 570.978 379.909 570.723C380.872 570.679 381.681 569.97 381.812 569.015C382.312 565.412 382.264 558.563 382.081 557.328L370.976 556.896Z" fill="#073549"/>
<path d="M397.904 330.816C397.904 330.816 397.405 321.322 395.526 321.134C393.649 320.946 393.748 324.503 393.748 324.503C393.748 324.503 390.612 317.289 388.858 317.846C386.028 318.745 387.553 324.149 391.435 333.539L397.904 330.816Z" fill="#FFA683"/>
<path d="M495.286 393.854L439.382 323.014L430.915 325.523C430.915 325.523 465.727 398.951 475.762 404.91C485.799 410.869 495.286 393.854 495.286 393.854Z" fill="#42A8FC"/>
<path d="M432.417 325.045C432.417 325.045 426.689 317.458 428.005 316.105C429.321 314.752 431.535 317.539 431.535 317.539C431.535 317.539 429.292 310 430.992 309.297C433.737 308.163 436.046 313.28 439.12 322.965L432.417 325.045Z" fill="#FFA683"/>
<path d="M465.43 361.488C465.43 361.488 459.086 357.752 461.55 351.466C461.589 351.366 461.653 351.279 461.703 351.189C463.575 347.868 467.83 347.353 470.937 349.561C471.565 350.008 472.563 350.244 474.11 350.081C480.298 349.435 489.628 352.575 489.351 366.338C489.074 380.1 481.408 382.501 478.729 382.778L478.659 379.223L465.43 361.488Z" fill="#0B2C34"/>
<path d="M478.039 371.394C478.039 371.394 481.363 368.762 482.126 371.88C482.888 374.998 481.64 378.531 478.663 379.223L479.01 384.765H468.341V380.124C468.341 380.124 461.059 378.044 462.037 370.218C462.892 363.382 465.432 361.488 465.432 361.488C465.432 361.488 471.249 365.86 477.873 365.756C477.873 365.756 476.652 370.286 478.039 371.394Z" fill="#FFA683"/>
<path d="M471.526 381.716C472.818 381.485 476.652 377.051 476.652 377.051C471.433 380.885 468.339 380.123 468.339 380.123V384.764H470.926C470.931 383.095 471.079 381.796 471.526 381.716Z" fill="#F48C6C"/>
<path d="M501.965 472.59C469.722 475.023 448.888 468.026 448.888 468.026L456.006 416.788C456.006 416.788 427.153 402.361 420.252 397.657C413.544 393.085 390.457 333.991 390.457 333.991L398.611 330.541L429.973 381.975C429.973 381.975 447.062 384.191 453.905 384.303C460.749 384.418 480.824 384.532 480.824 384.532C480.824 384.532 502.242 389.814 499.285 410.044C495.364 436.862 501.965 472.59 501.965 472.59Z" fill="#42A8FC"/>
<path d="M459.362 470.539C461.896 453.016 467.359 414.29 466.336 413.063C465.012 411.473 439.587 400.615 426.08 396.378C412.651 392.166 391.692 334.248 391.448 333.574L391.402 333.595L390.7 334.615C393.163 340.877 413.944 393.36 420.252 397.659C427.152 402.363 456.006 416.79 456.006 416.79L448.887 468.028C448.887 468.028 452.624 469.278 459.362 470.539Z" fill="#2E93D8"/>
<path d="M448.998 468.074C439.116 472.353 399.685 489.675 396.955 495.165C393.809 501.438 370.198 556.867 370.198 556.867L375.882 557.107C382.779 541.493 399.286 504.504 403.037 499.922C407.811 494.096 459.36 470.531 459.36 470.531L448.998 468.074Z" fill="#0F4360"/>
<path d="M725.638 541.851C712.116 554.444 691.307 554.922 677.22 542.964L675.908 541.851L699.391 494.066L725.638 541.851Z" fill="#42A8FC"/>
<path opacity="0.19" d="M699.391 494.066L699.267 494.317L699.397 494.166L708.649 541.851C703.888 546.285 698.215 549.185 692.26 550.601C703.814 553.381 716.419 550.436 725.638 541.851L699.391 494.066Z" fill="#1F4FD8"/>
<path d="M725.64 541.85H675.91V690.428H725.64V541.85Z" fill="#1F4FD8"/>
<path d="M725.639 541.85H707.695V690.428H725.639V541.85Z" fill="#073549"/>
<path d="M711.465 516.047L699.391 494.066L688.59 516.047H711.465Z" fill="#1F4FD8"/>
<path d="M409.92 324.601C430.399 324.601 447.001 307.999 447.001 287.52C447.001 267.04 430.399 250.438 409.92 250.438C389.44 250.438 372.838 267.04 372.838 287.52C372.838 307.999 389.44 324.601 409.92 324.601Z" fill="#F99370"/>
<path d="M436.859 301.884C444.793 283.004 435.919 261.267 417.039 253.333C398.159 245.399 376.422 254.273 368.488 273.153C360.555 292.033 369.428 313.77 388.308 321.704C407.188 329.637 428.925 320.764 436.859 301.884Z" fill="#F99370"/>
<path d="M402.682 315.84C418.323 315.84 431.002 303.16 431.002 287.52C431.002 271.879 418.323 259.2 402.682 259.2C387.041 259.2 374.362 271.879 374.362 287.52C374.362 303.16 387.041 315.84 402.682 315.84Z" fill="white"/>
<path d="M402.682 266.368C391 266.368 381.53 275.838 381.53 287.52C381.53 299.201 391 308.671 402.682 308.671C414.363 308.671 423.834 299.201 423.834 287.52C423.834 275.838 414.365 266.368 402.682 266.368ZM402.682 301.882C394.749 301.882 388.32 295.452 388.32 287.52C388.32 279.587 394.749 273.157 402.682 273.157C410.614 273.157 417.044 279.587 417.044 287.52C417.046 295.452 410.614 301.882 402.682 301.882ZM402.682 294.309C398.932 294.309 395.892 291.269 395.892 287.52C395.892 283.77 398.932 280.73 402.682 280.73C406.431 280.73 409.471 283.77 409.471 287.52C409.471 291.269 406.433 294.309 402.682 294.309Z" fill="#F99370"/>
<path d="M567.821 285.53H415.87V279.68L401.473 287.993L415.87 296.307V290.457H567.821V285.53Z" fill="#F36F56"/>
<path d="M584.685 268.692H538.094L521.34 285.537H567.93L584.685 268.692Z" fill="#F99370"/>
<path d="M521.34 290.378H567.93L584.685 307.221H538.094L521.34 290.378Z" fill="#F99370"/>
<path d="M588.585 416.872H530.516V457.118H588.585V416.872Z" fill="#42A8FC"/>
<path d="M544.457 422.988C538.374 429.07 538.374 438.932 544.457 445.013C550.54 451.096 560.401 451.096 566.482 445.013L544.457 422.988Z" fill="#2186EA"/>
<path d="M573.892 452.473C579.975 446.39 579.975 436.529 573.892 430.448C567.81 424.365 557.948 424.365 551.867 430.448L573.892 452.473Z" fill="white"/>
<path d="M597.383 380.605H552.912V417.21H597.383V380.605Z" fill="#2186EA"/>
<path d="M571.212 408.465L583.322 402.097C585.051 401.187 585.051 398.709 583.322 397.799L571.212 391.43C569.594 390.579 567.654 391.751 567.654 393.579V406.317C567.654 408.142 569.594 409.315 571.212 408.465Z" fill="white"/>
<path d="M606.181 456.896H548.112V516.106H606.181V456.896Z" fill="#F36F56"/>
<path d="M557.411 467.409V504.402H558.908H595.389H596.888V467.409H557.411ZM593.466 470.9V490.438L588.767 485.74L574.671 499.853L566.022 491.221L560.829 496.414V470.9H593.466Z" fill="#F9B2B2"/>
<path d="M573.987 481.597C573.987 479.587 572.357 477.957 570.346 477.957C568.336 477.957 566.706 479.587 566.706 481.597C566.706 483.608 568.336 485.238 570.346 485.238C572.357 485.238 573.987 483.608 573.987 481.597Z" fill="#F9B2B2"/>
<path d="M89.2051 461.008C113.777 453.568 127.665 427.617 120.225 403.046C112.785 378.474 86.834 364.586 62.2624 372.026C37.6907 379.466 23.8028 405.417 31.2429 429.988C38.6829 454.56 64.6335 468.448 89.2051 461.008Z" fill="#1F4FD8"/>
<path d="M107.011 416.516C107.011 416.516 93.0046 430.354 75.7257 430.354C58.4486 430.354 44.4409 416.516 44.4409 416.516C44.4409 416.516 58.4468 402.678 75.7257 402.678C93.0046 402.68 107.011 416.516 107.011 416.516Z" fill="white"/>
<path d="M83.8596 417.118C83.8596 412.624 80.2173 408.984 75.7259 408.984C71.2327 408.984 67.5923 412.626 67.5923 417.118C67.5923 421.609 71.2345 425.251 75.7259 425.251C80.2192 425.251 83.8596 421.611 83.8596 417.118Z" fill="#1F4FD8"/>
<path d="M107.007 416.516C107.007 416.516 93.0099 430.35 75.7273 430.35C59.5154 430.35 46.2091 418.187 44.6123 416.68L88.9929 461.07C103.994 456.608 115.818 444.784 120.278 429.784L107.007 416.516Z" fill="#073549"/>
<path d="M698.076 412.033C724.477 412.033 745.881 390.63 745.881 364.228C745.881 337.826 724.477 316.423 698.076 316.423C671.674 316.423 650.271 337.826 650.271 364.228C650.271 390.63 671.674 412.033 698.076 412.033Z" fill="#2186EA"/>
<path opacity="0.44" d="M724.86 345.807L689.15 346.951L683.524 358.188L679.64 391.011L700.588 411.959C724.988 410.708 744.557 391.136 745.811 366.739L724.86 345.807ZM698.082 354.284C703.564 354.284 708.011 358.731 708.011 364.232C708.011 369.715 703.564 374.162 698.082 374.162C692.58 374.162 688.133 369.715 688.133 364.232C688.133 358.733 692.582 354.284 698.082 354.284Z" fill="#1F4FD8"/>
<path d="M730.051 370.14V358.318L721.262 356.341C720.919 355.333 720.515 354.354 720.049 353.411L724.866 345.798L716.507 337.439L708.896 342.255C707.952 341.79 706.972 341.386 705.966 341.044L703.989 332.255H692.167L690.19 341.044C689.182 341.388 688.203 341.79 687.26 342.255L679.647 337.439L671.288 345.798L676.104 353.411C675.639 354.354 675.237 355.333 674.893 356.341L666.103 358.318V370.14L674.893 372.117C675.237 373.125 675.641 374.103 676.104 375.047L671.288 382.658L679.647 391.017L687.26 386.2C688.203 386.665 689.182 387.07 690.19 387.413L692.167 396.202H703.989L705.966 387.413C706.974 387.07 707.952 386.667 708.896 386.2L716.507 391.017L724.866 382.658L720.049 375.047C720.515 374.103 720.919 373.123 721.262 372.117L730.051 370.14ZM698.076 374.171C692.586 374.171 688.133 369.721 688.133 364.229C688.133 358.737 692.584 354.286 698.076 354.286C703.568 354.286 708.019 358.737 708.019 364.229C708.019 369.719 703.568 374.171 698.076 374.171Z" fill="white"/>
<path d="M517.154 652.321V611.625H428.696V570.946H340.237V608.692V608.81V649.389V649.487V690.185H428.694H428.696H516.222H517.154H604.68V652.321H517.154Z" fill="#42A8FC"/>
<path d="M428.696 611.625V690.429L517.154 611.625H428.696Z" fill="#1F4FD8"/>
<path d="M517.154 652.321L604.68 690.185V652.321H517.154Z" fill="#2186EA"/>
<path opacity="0.46" d="M428.696 623.711V690.19H384.11L366.918 672.979V666.426L373.11 653.428L361.873 615.686L402.03 597.224C402.573 597.587 415.189 610.186 428.696 623.711Z" fill="#2186EA"/>
<path d="M400.678 666.427H366.913V672.978H376.614V673.733C376.614 677.701 379.829 680.914 383.795 680.914C387.76 680.914 390.976 677.699 390.976 673.733V672.978H400.677V666.427H400.678Z" fill="white"/>
<path d="M384.431 628.328H383.157H379.748V663.011H387.842V628.328H384.431Z" fill="white"/>
<path d="M373.18 617.612C370.891 617.612 369.03 619.473 369.03 621.759C369.03 624.046 370.891 625.905 373.18 625.905H377.326V621.759C377.326 619.473 375.466 617.612 373.18 617.612Z" fill="white"/>
<path d="M381.624 591.271C366.287 592.336 354.02 605.011 353.416 620.374C353.056 629.526 356.746 637.821 362.838 643.617C367.324 647.885 369.997 653.713 369.997 659.905V663.013H377.328V628.33H373.182C369.558 628.33 366.61 625.384 366.61 621.76C366.61 618.138 369.558 615.192 373.182 615.192C376.804 615.192 379.75 618.138 379.75 621.76V625.906H383.16H384.433H387.843V621.76C387.843 618.138 390.789 615.192 394.411 615.192C398.035 615.192 400.983 618.138 400.983 621.76C400.983 625.382 398.035 628.33 394.411 628.33H390.265V663.013H397.596V660.025C397.596 653.9 400.062 647.998 404.54 643.818C410.483 638.271 414.201 630.372 414.201 621.6C414.199 604.088 399.397 590.036 381.624 591.271Z" fill="white"/>
<path d="M398.561 621.759C398.561 619.473 396.7 617.612 394.411 617.612C392.124 617.612 390.265 619.473 390.265 621.759V625.905H394.411C396.699 625.905 398.561 624.046 398.561 621.759Z" fill="white"/>
<path d="M317.549 508.751H135.871V690.429H317.549V508.751Z" fill="#42A8FC"/>
<path d="M135.871 508.751L317.549 690.429H135.871V508.751Z" fill="#2186EA"/>
<path d="M226.709 599.589L135.871 690.429H317.549L226.709 599.589Z" fill="#1F4FD8"/>
<path d="M647.76 610.179L651.409 674.281H640.316L622.561 613.284C621.273 594.15 619.748 548.401 619.366 536.583C631.094 538.597 646.143 539.197 651.426 539.361C655.075 562.723 647.76 610.179 647.76 610.179Z" fill="#2186EA"/>
<path d="M651.516 539.977C651.516 539.977 650.172 563.268 625.865 566.373C606.531 568.86 584.183 581.605 584.183 581.605L561.073 639.171L547.275 638.935L559.275 566.683L605.295 531.954C611.521 537.399 639.225 538.924 649.5 539.306L651.516 539.977Z" fill="#42A8FC"/>
<path d="M565.058 570.53L612.904 531.23L606.823 530.807L559.28 566.689L547.283 638.939L550.469 638.99L565.058 570.53Z" fill="#2A92D8"/>
<path d="M621.057 438.471C621.842 444.158 627.007 447.385 633.224 446.942L633.073 454.911L645.416 452.508C645.416 452.508 644.38 446.927 645.259 443.652C639.802 444.738 638.595 439.877 638.595 439.877C641.796 438.096 640.439 434.64 639.274 433.837C638.105 433.034 636.656 434.467 636.656 434.467C636.656 434.467 635.574 440.586 634.938 438.362C634.365 436.368 633.841 430.498 631.042 430.431C626.374 430.319 625.006 429.612 625.006 429.612C623.834 429.17 622.936 428.498 622.263 427.679C621.681 430.034 620.437 433.952 621.057 438.471Z" fill="#FFA683"/>
<path d="M636.654 434.468C636.654 434.468 638.105 433.034 639.271 433.837C640.438 434.642 641.795 438.094 638.594 439.877C638.594 439.877 639.666 447.558 644.928 447.676C644.928 447.676 652.456 424.001 644.091 418.505C623.39 404.906 615.902 426.357 623.641 429.271C623.641 429.271 626.373 430.322 631.04 430.433C633.838 430.499 634.365 436.368 634.937 438.365C635.572 440.584 636.654 434.468 636.654 434.468Z" fill="#0B2C34"/>
<path d="M635.841 448.275C636.559 447.736 638.531 444.031 638.531 444.031C636.977 445.644 633.224 446.942 633.224 446.942L633.072 454.911L635.424 454.453C635.407 451.542 635.481 448.546 635.841 448.275Z" fill="#F48C6C"/>
<path d="M648.479 452.096C648.479 452.096 659.439 459.539 656.205 483.831C652.971 508.123 648.793 531.309 653.375 539.408C653.375 539.408 612.413 538.671 605.136 531.802C605.136 531.802 610.268 498.773 621.306 473.895C624.985 465.603 624.54 459.051 632.354 454.143C635.751 452.007 642.788 451.411 648.479 452.096Z" fill="#F36F56"/>
<path d="M640.396 494.701C640.396 494.701 627.46 520.571 624.405 522.188C621.35 523.805 582.365 523.087 582.365 523.087C582.365 523.087 567.634 526.86 563.143 516.799H582.365L611.291 513.026L621.173 486.078L640.396 494.701Z" fill="#F48C6C"/>
<path d="M640.309 674.281C637.303 680.301 623.249 683.233 623.249 683.233C623.249 683.233 622.221 685.009 623.803 687.279C625.151 689.214 644.062 688.163 649.633 687.811C650.597 687.75 651.39 687.028 651.507 686.07C651.942 682.457 651.606 675.514 651.403 674.281H640.309Z" fill="#1F4FD8"/>
<path d="M548.225 638.887C545.219 644.907 531.165 647.838 531.165 647.838C531.165 647.838 530.137 649.614 531.719 651.883C533.067 653.817 551.978 652.767 557.549 652.414C558.511 652.353 559.306 651.632 559.423 650.674C559.858 647.063 559.522 640.118 559.319 638.885H548.225V638.887Z" fill="#1F4FD8"/>
<path d="M616.6 491.047C616.6 491.047 620.294 482.035 623.545 473.519C627.368 463.505 631.409 453.805 640.366 454.823C657.962 456.822 643.866 498.515 643.866 498.515L616.6 491.047Z" fill="#F36F56"/>
<path d="M642.36 455.225C642.36 455.225 642.36 455.244 642.36 455.279C656.842 460.124 643.861 498.507 643.861 498.507L639.124 497.206C635.779 503.752 626.866 520.872 624.407 522.192C623.098 522.873 615.269 523.144 606.696 523.22C606.324 525.107 606.021 526.726 605.781 528.044C612.506 527.918 624.808 527.542 626.323 526.458C628.421 524.957 642.36 505.015 642.36 505.015L647.765 504.418C647.765 504.418 652.122 484.621 652.412 470.97C652.72 457.322 642.36 455.225 642.36 455.225Z" fill="#F36F56"/>
<path d="M248.085 582.091C250.376 589.394 265.633 595.217 265.633 595.217C265.633 595.217 266.468 597.395 264.282 599.66C262.419 601.589 241.369 597.007 235.174 595.608C234.103 595.366 233.341 594.412 233.383 593.315C233.544 589.18 235.172 581.441 235.62 580.094L248.085 582.091Z" fill="#073549"/>
<path d="M307.57 550.626C311.872 556.957 328.161 558.129 328.161 558.129C328.161 558.129 329.59 559.975 328.15 562.773C326.924 565.158 305.446 566.846 299.112 567.293C298.017 567.37 297.011 566.676 296.736 565.614C295.697 561.609 295.021 553.73 295.063 552.31L307.57 550.626Z" fill="#073549"/>
<path d="M178.825 417.424C178.825 417.424 175.724 343.704 179.859 332.334H190.193C190.193 332.334 193.295 404.677 197.771 414.323C202.252 423.968 178.825 417.424 178.825 417.424Z" fill="#F36F56"/>
<path d="M216.404 475.141C216.404 475.141 274.019 475.896 285.364 481.663C296.71 487.43 308.462 550.533 308.462 550.533L294.006 552.942L277.116 507.633C277.116 507.633 222.077 506.348 216.404 475.141Z" fill="#073549"/>
<path d="M179.281 476.057C179.281 476.057 177.863 508.368 199.61 509.13C221.356 509.893 252.558 510.148 252.558 510.148L234.119 579.858L249.957 582.656C249.957 582.656 280.686 504.296 280.922 496.664C281.158 489.031 219.916 474.838 219.916 474.838L179.281 476.057Z" fill="#1F4FD8"/>
<path d="M204.753 405.305C204.753 405.305 219.83 417.275 216.453 428.628C213.079 439.981 223.129 475.518 223.129 475.518L179.324 476.189C179.324 476.189 185.154 443.664 179.939 429.243C174.724 414.82 184.155 400.701 204.753 405.305Z" fill="#F36F56"/>
<path d="M183.698 415.28C183.698 415.28 187.226 403.159 203.796 413.746C220.366 424.331 228.902 426.576 228.902 426.576L263.351 398.839L271.867 403.441L232.74 442.991C232.737 442.992 175.644 438.294 183.698 415.28Z" fill="#F36F56"/>
<path d="M201.249 400.404L200.777 405.274H190.723V397.726C190.723 397.726 185.552 395.651 186.208 391.844C186.863 388.038 190.906 390.177 190.906 390.177C195.722 389.994 195.722 383.661 195.722 383.661C198.453 385.564 206.656 383.812 206.656 383.812C211.002 398.082 201.249 400.404 201.249 400.404Z" fill="#FFA683"/>
<path d="M191.089 405.273H190.723V397.725C190.723 397.725 192.508 400.564 191.089 405.273Z" fill="#F48C6C"/>
<path d="M201.25 400.404L200.777 405.274H198.132C198.196 403.489 198.121 401.908 197.68 401.683C196.614 401.146 193.755 398.469 193.755 398.469C196.079 399.813 201.25 400.404 201.25 400.404Z" fill="#F48C6C"/>
<path d="M206.658 383.813C206.658 383.813 198.455 385.565 195.724 383.662C195.724 383.662 195.724 389.996 190.908 390.178C190.908 390.178 186.865 388.039 186.21 391.845C185.554 395.652 190.725 397.727 190.725 397.727C190.725 397.727 192.51 400.566 191.091 405.275C190.629 406.78 189.854 408.469 188.586 410.33C184.908 415.728 185.822 417.825 189.123 424.243C192.423 430.673 173.78 441.576 167.543 431.317C161.296 421.07 165.575 420.232 170.93 408.458C176.285 396.684 176.538 396.056 175.388 389.82C174.227 383.573 178.296 374.698 188.853 371.364C199.025 368.148 211.185 372.276 206.658 383.813Z" fill="#2C2C2C"/>
<path d="M223.138 475.517L215.496 475.626C214.46 461.539 211.466 445.037 203.26 441.715C196.579 439.01 191.896 434.308 188.756 429.968C195.418 435.287 206.62 438.554 216.059 440.48C217.421 455.294 223.138 475.517 223.138 475.517Z" fill="#F36F56"/>
<path opacity="0.67" d="M249.959 582.658C249.959 582.658 280.688 504.297 280.924 496.666C281.161 489.032 219.918 474.84 219.918 474.84L218.011 474.897L215.497 475.626C215.497 475.626 269.512 494.316 271.921 497.928C274.068 501.148 252.626 567.799 247.925 582.298L249.959 582.658Z" fill="#0F4360"/>
<path d="M271.532 403.267C271.532 403.267 288.272 398.576 285.063 396.885C284.624 396.655 273.282 396.778 268.045 396.849C266.358 396.871 264.737 397.513 263.452 398.665L263.413 398.868L271.532 403.267Z" fill="#FFA683"/>
<path d="M190.177 332.332L189.702 318.78C184.172 318.929 182.462 329.225 182.071 332.332H190.177Z" fill="#FFA683"/>
<path d="M91.5356 631.361L91.9842 632.474C96.5975 631.249 103.188 628.642 108.115 623.181C116.513 613.87 128.702 604.339 134.641 592.807C142.756 577.049 170.858 557.043 170.858 557.043C170.858 557.043 140.956 562.539 123.455 582.292C105.957 602.044 105.501 612.849 103.891 619.172C102.174 625.921 96.1692 629.532 91.5356 631.361Z" fill="#9DD5FC"/>
<path d="M91.6323 631.597L91.9849 632.474C96.5982 631.249 103.189 628.642 108.116 623.181C116.513 613.87 128.703 604.339 134.641 592.807C142.757 577.049 170.859 557.043 170.859 557.043C170.859 557.043 135.79 571.581 128.933 584.193C122.075 596.807 124.964 595.395 117.473 606.048C109.982 616.7 107.955 619.857 102.762 624.906C99.4374 628.136 94.6598 630.386 91.6323 631.597Z" fill="#42A8FC"/>
<path d="M89.7189 629.397C89.7189 629.397 91.5834 624.31 85.8828 608.402C80.1804 592.497 71.6776 578.03 69.9663 559.584C68.255 541.139 76.6563 491.248 76.0305 488.244C75.4047 485.24 93.8467 538.947 89.1633 563.28C84.4817 587.612 85.0521 595.471 88.1184 606.796C91.1847 618.122 92.7759 627.478 92.3255 630.42L89.7189 629.397Z" fill="#9DD5FC"/>
<path d="M83.8872 595.908C86.7005 602.932 91.611 621.112 90.8227 625.988C90.7489 626.442 90.4535 626.274 89.9772 625.594C89.8277 622.412 88.9619 616.997 85.8809 608.404C80.1785 592.499 71.6756 578.031 69.9643 559.586C68.2531 541.14 76.6544 491.249 76.0286 488.246C76.0286 488.246 81.8214 526.411 78.2401 554.692C75.6778 574.939 81.0738 588.886 83.8872 595.908Z" fill="#42A8FC"/>
<path d="M94.4488 625.113C94.4488 625.113 87.7809 599.18 98.2073 577.074C108.634 554.969 125.401 526.66 125.593 515.305C125.593 515.305 130.714 569.344 116.961 584.314C103.206 599.281 93.4519 601.506 96.1841 625.054L94.4488 625.113Z" fill="#F99370"/>
<path d="M108.822 573.297C93.5058 591.46 92.5163 612.741 95.062 622.676C95.2595 623.45 95.6213 623.926 96.0939 624.186C93.707 601.463 103.38 599.093 116.96 584.314C130.713 569.346 125.592 515.305 125.592 515.305C125.592 515.305 124.139 555.133 108.822 573.297Z" fill="#F36F56"/>
<path d="M85.8202 625.264L80.2378 610.344C59.5529 555.884 15.3145 557.922 15.3145 557.922C20.0015 558.434 45.5304 574.553 50.6698 590.45C53.0826 597.917 61.3473 602.639 68.5394 605.615C73.7268 607.762 77.7955 611.998 79.804 617.239C81.5226 621.725 82.5767 625.744 82.5767 625.744L85.8202 625.264Z" fill="#F99370"/>
<path d="M58.5967 590.527C64.624 599.954 71.6149 603.386 77.6847 604.215C56.1359 556.069 15.3145 557.92 15.3145 557.92C16.2412 558.022 18.0004 558.751 20.2378 559.949C29.1321 563.934 47.9506 573.875 58.5967 590.527Z" fill="#F36F56"/>
<path d="M121.807 621.748H71.349C65.3254 621.748 60.7638 627.19 61.8161 633.121L70.8764 684.214C71.5152 687.81 74.6405 690.429 78.292 690.429H114.866C118.517 690.429 121.644 687.81 122.281 684.214L131.342 633.121C132.392 627.19 127.83 621.748 121.807 621.748Z" fill="#42A8FC"/>
<path d="M131.128 628.798C129.991 624.788 126.31 621.748 121.807 621.748H71.3495C66.8488 621.748 63.166 624.786 62.0288 628.798H131.128Z" fill="#2186EA"/>
<path d="M121.807 621.748H108.935C114.958 621.748 119.52 627.19 118.468 633.121L109.407 684.214C108.77 687.81 105.643 690.429 101.992 690.429H114.864C118.516 690.429 121.643 687.81 122.28 684.214L131.34 633.121C132.392 627.19 127.831 621.748 121.807 621.748Z" fill="#2186EA"/>
<defs>
<filter id="filter0_n_412_1180" x="0" y="0" width="800" height="800" filterUnits="userSpaceOnUse" color-interpolation-filters="sRGB">
<feFlood flood-opacity="0" result="BackgroundImageFix"/>
<feBlend mode="normal" in="SourceGraphic" in2="BackgroundImageFix" result="shape"/>
<feTurbulence type="fractalNoise" baseFrequency="2 2" stitchTiles="stitch" numOctaves="3" result="noise" seed="6615" />
<feColorMatrix in="noise" type="luminanceToAlpha" result="alphaNoise" />
<feComponentTransfer in="alphaNoise" result="coloredNoise1">
<feFuncA type="discrete" tableValues="1 1 1 1 1 1 1 1 1 1 1 1 1 1 1 1 1 1 1 1 1 1 1 1 1 1 1 1 1 1 1 1 1 1 1 1 1 1 1 1 1 1 1 1 1 1 1 1 1 1 1 0 0 0 0 0 0 0 0 0 0 0 0 0 0 0 0 0 0 0 0 0 0 0 0 0 0 0 0 0 0 0 0 0 0 0 0 0 0 0 0 0 0 0 0 0 0 0 0 0 "/>
</feComponentTransfer>
<feComposite operator="in" in2="shape" in="coloredNoise1" result="noise1Clipped" />
<feFlood flood-color="rgba(0, 0, 0, 0.25)" result="color1Flood" />
<feComposite operator="in" in2="noise1Clipped" in="color1Flood" result="color1" />
<feMerge result="effect1_noise_412_1180">
<feMergeNode in="shape" />
<feMergeNode in="color1" />
</feMerge>
</filter>
<linearGradient id="paint0_linear_412_1180" x1="0" y1="0" x2="800" y2="800" gradientUnits="userSpaceOnUse">
<stop stop-color="#FFE2E6" stop-opacity="0.2"/>
<stop offset="1" stop-color="#B8CAFF" stop-opacity="0.2"/>
</linearGradient>
</defs>
</svg>
