<svg width="72" height="74" viewBox="0 0 72 74" fill="none" xmlns="http://www.w3.org/2000/svg">
<path d="M37.9352 0.0111694C42.3457 0.242652 45.7344 4.00588 45.5035 8.41644L45.236 13.517L48.5084 9.61176C51.3466 6.2244 56.3908 5.78241 59.774 8.62543C63.1573 11.4685 63.5986 16.5193 60.7604 19.9067L58.4283 22.6889L61.9215 21.7524C66.1929 20.6063 70.5821 23.1413 71.7252 27.4135C72.8681 31.6856 70.3324 36.0778 66.0612 37.2241L62.568 38.1606L65.9674 39.3998C70.1222 40.9143 72.266 45.5121 70.7555 49.6684C69.2449 53.8246 64.6515 55.966 60.4967 54.4516L57.0973 53.2123L59.1803 56.1909C61.7119 59.8121 60.8321 64.8044 57.2145 67.3412C53.5966 69.8782 48.6107 68.9987 46.0787 65.3774L42.7701 60.645L42.4684 66.4213C42.2376 70.8319 38.4746 74.2202 34.0641 73.9887C29.6536 73.7572 26.2649 69.994 26.4957 65.5834L26.7614 60.4828L23.4908 64.3881C20.6527 67.7755 15.6095 68.2165 12.2262 65.3735C8.8429 62.5304 8.40069 57.4796 11.2389 54.0922L13.5699 51.309L10.0778 52.2465C5.80641 53.3925 1.41711 50.8585 0.274048 46.5864C-0.869048 42.3141 1.66762 37.921 5.93909 36.7748L9.4303 35.8373L6.03284 34.5991C1.87798 33.0846 -0.265809 28.4878 1.24475 24.3315C2.75532 20.1752 7.34771 18.0338 11.5026 19.5483L14.902 20.7866L12.8199 17.809C10.288 14.1877 11.1679 9.19557 14.7858 6.65863C18.4036 4.12174 23.3886 5.0012 25.9205 8.6225L29.2291 13.3549L29.5319 7.57758C29.7628 3.1672 33.5248 -0.220169 37.9352 0.0111694Z" fill="#1F4FD8"/>
</svg>
